<?xml version="1.0"?>
<svg xmlns:rdf="http://www.w3.org/1999/02/22-rdf-syntax-ns#" xmlns="http://www.w3.org/2000/svg" xmlns:cc="http://creativecommons.org/ns#" xmlns:dc="http://purl.org/dc/elements/1.1/" xmlns:svg="http://www.w3.org/2000/svg" id="svg2" viewBox="0 0 1117.1 2333.8" version="1.1">
  <defs id="defs6">
    <filter id="filter4343" color-interpolation-filters="sRGB">
      <feGaussianBlur id="feGaussianBlur4345" stdDeviation="5.3467349"/>
    </filter>
    <filter id="filter4355" color-interpolation-filters="sRGB">
      <feGaussianBlur id="feGaussianBlur4357" stdDeviation="5.1038042"/>
    </filter>
    <filter id="filter4363" color-interpolation-filters="sRGB">
      <feGaussianBlur id="feGaussianBlur4365" stdDeviation="11.616035"/>
    </filter>
    <filter id="filter4387" color-interpolation-filters="sRGB">
      <feGaussianBlur id="feGaussianBlur4389" stdDeviation="10.302988"/>
    </filter>
    <filter id="filter4395" color-interpolation-filters="sRGB">
      <feGaussianBlur id="feGaussianBlur4397" stdDeviation="5.4884502"/>
    </filter>
    <filter id="filter4411" color-interpolation-filters="sRGB">
      <feGaussianBlur id="feGaussianBlur4413" stdDeviation="4.3376925"/>
    </filter>
    <filter id="filter4419" color-interpolation-filters="sRGB">
      <feGaussianBlur id="feGaussianBlur4421" stdDeviation="4.5104494"/>
    </filter>
    <filter id="filter4520" color-interpolation-filters="sRGB">
      <feGaussianBlur id="feGaussianBlur4522" stdDeviation="10.761206"/>
    </filter>
    <filter id="filter4584" width="1.1719" y="-.14526" x="-.085952" height="1.2905" color-interpolation-filters="sRGB">
      <feGaussianBlur id="feGaussianBlur4586" stdDeviation="3.4370278"/>
    </filter>
    <filter id="filter4620" width="1.4808" y="-.069644" x="-.2404" height="1.1393" color-interpolation-filters="sRGB">
      <feGaussianBlur id="feGaussianBlur4622" stdDeviation="3.0748401"/>
    </filter>
    <filter id="filter4664" width="1.2327" y="-.10076" x="-.11636" height="1.2015" color-interpolation-filters="sRGB">
      <feGaussianBlur id="feGaussianBlur4666" stdDeviation="4.9360806"/>
    </filter>
  </defs>
  <g id="g4813" transform="translate(335.66 2331.6)">
    <g id="g4739">
      <path id="path4165-4-3" fill="#e9c6af" d="m-145.24-528.92c-23.709-5.7009-52.072 73.734-68.886 154.16-9.9849 47.763-55.204 207.44-50.983 238.63 2.5869 19.115 6.1072 102.31 4.9004 107.33-6.4918 26.998 636.44-15.327 678.75 6.7897 26.811 14.015-3.4942-327.43 6.6474-354.96 1.8753-5.0906 96.824-138.59 51.792-153.72-9.0127-3.0288 4.5544-55.972-13.383-119.34-20.602-72.78-35.934-116.67-53.45-116.68-11.598-0.004 141.68-70.799 247.92-160.96 27.058-22.964 36.843-89.728 56.775-106.95 31.434-27.162 50.276-44.257 44.762-42.056-12.403 4.9514-18.489-113.89-37.132-216.41-20.534-112.92-80.141-211.01-106.91-191.88-43.504 31.086-93.209 143.27-123.06 261.66-4.2526 16.868 27.152 57.71 22.112 73.485-12.281 38.436-28.544 58.024-47.878 86.531-34.851 51.386-67.477 123.73-106.38 171.49-10.679 13.111 131.78-350.33 120.93-337.75-14.372 16.666 125.12-283 108.73-262.74-10.709 13.243-1.5257-44.964-14.934-75.688-1.5067-3.4525-29.924-31.408-31.304-33.319-6.4747-8.9666-63.544-67.453-80.42-41.334-10.398 16.092-30.997-98.32-42.055-80.122-12.503 20.575-49.003-57.994-76.154-57.305-27.983 0.7103-14.488-9.0345-53.932-23.899-9.2044-3.4688-35.708-48.001-53.909-91.522-12.129-29.003-12.79-52.037-15.468-45.617-6.3724 15.281 12.001-54.092 15.135-143.39 2.9171-83.111-34.094-192.7-39.573-176.08-7.4347 22.562-55.927-45.666-153.05-54.98-85.254-8.1766-220.6 41.607-226.75 67.012-10.732 44.373 3.824 150.87-2.1329 202.95-3.3551 29.332-35.542 73.41-37.673 104.4-0.58065 8.4481 22.008 4.0074 32.858 13.194 11.267 9.5404 8.2831 20.986 10.525 34.223 0.47456 2.8018 29.728 3.5748 32.379 7.4502 2.0324 2.9706-22.317 9.2469-22.375 10.71-0.56854 14.164 31.848 72.272 31.453 86.655-0.38206 13.903 119.1-41.998 118.84-27.977-0.19321 10.602 4.9966 25.756 4.7833 36.468-0.26932 13.526-174.47 71.022-174.77 84.702-0.34322 15.642-13.757 37.736-16.988 59.434-5.9537 39.99-3.1687 82.946-2.6905 112.11 0.66547 40.59-41.584 101.85-57.581 150.79-27.884 85.295-36.084 161.32-29.431 227.45 2.2009 21.875-25.105 69.751-26.896 123.66-2.6896 80.909 28.75 173.59 26.007 203.43-10.278 111.8-20.953 144.72 0.0406 183.82 71.776 133.69 217.27 108.66 208.24 106.3-86.642-22.692-160.53-41.228-197.18-49.708-17.092-3.9548 145.21 50.875 139.74 49.559z"/>
      <path id="path4165-47" filter="url(#filter4395)" transform="matrix(.97229 .23379 -.23379 .97229 -270.49 -73.265)" fill="#d38d5f" d="m538.98-568.92c-16.363 0-29.33 29.684-44.165 63.386-14.752 33.515-28.808-17.98-52.429-1.7586-25.183 17.295-59.948 72.994-87.204 94.479-5.2218 4.1162-33.311-4.5139-38.494-0.46851-7.7537 6.052 40.616 32.437 33.262 38.46-5.3412 4.374-36.201-11.678-41.702-7.4754-7.3067 5.5824 75.866 61.616 69.865 54.862-12.561-14.137-279.38-64.778-289.54-24.92-23.009 90.316 1.1877 373.32 24.915 370.73 150.31-16.427 378.61-104.97 476.34-115.55 35.73-3.871 91.649-2.5286 98.719-12.449 16.132-22.636-24.986-62.958-24.986-111.56 0-37.917-36.495-116.54-51.966-185.34-4.6976-20.892 11.007-31.648 6.9067-51.761-3.3062-16.219 22.72-65.917 10.029-87.598-15.281-26.107-70.685-23.031-89.55-23.031z"/>
      <path id="path4165-4-7" filter="url(#filter4411)" transform="matrix(.97229 .23379 -.23379 .97229 -270.49 -73.265)" fill="#a05a2c" d="m190.56-365.32c-9.1181 0-6.9122 37.388-9.0102 51.536-8.8872 59.93 30.285 287.09 31.63 309.51 0.89248 14.871 228.32-70.653 359.74-86.535 77.801-9.4022 117.7-25.673 124.6-10.369 3.0773 6.8292-34.12-99.024-65.696-203.17-14.367-47.387-27.571-94.42-35.288-130.32-4.7406-22.057-170.61 16.459-175.18 43.18-5.3164 31.07-29.3 91.574-29.3 85.432 0-27.768-153.76-59.264-201.5-59.264z"/>
      <path id="path4165-4-12" fill="#0ff" d="m279.74-785.09c-3.5493-0.85343-39.67-21.784-49.659-25.637-40.648-15.679-98.876-29.455-177.23-6.7419-52.37 15.181-140.78 77.918-182.78 115.73-22.304 20.083 7.6097 75.354-3.8598 106.47-30.525 82.822-75.124 157.11-77.032 165.04-3.2716 13.606 104.42 16.295 202.67 42.705 96.707 25.995 183.78 75.778 206.81 81.314 28.844 6.9355-28.833-20.738 55.868-64.49 17.672-9.1284 182.14-5.1567 196.1-17.689 26.805-24.065 45.025-152.49 46.641-159.21 5.3268-22.153-60.07-228.26-137.89-288.71-11.796-9.163-46.49-2.3478-63.187 13.752-7.3937 7.1293-13.899 38.067-16.456 37.452z"/>
      <path id="path4165-4-1" filter="url(#filter4419)" transform="matrix(.97229 .23379 -.23379 .97229 -270.49 -73.265)" fill="#784421" d="m382.92-331.16c-47.741 0-120.6-47.604-120.6-19.836 0 8.7853 54.211 69.196 61.019 100.99 14.712 68.688 7.1779 214.5 39.814 214.5 13.91 0 306.95-63.264 322.91-80.934 16.365-18.11-10.503-65.127-28.351-125.35-24.507-82.689-46.332-182.31-46.332-193.7 0-5.8681 9.6763-69.362-14.992-106.95-12.888-19.636-58.678-28.279-69.699-26.339-14.871 2.6172-17.938 36.542-33.576 67.939-26.31 52.823-65.164 114.94-87.609 128.8-24.949 15.403-9.2871 40.877-22.589 40.877z"/>
      <path id="path4165-4-90" filter="url(#filter4343)" transform="matrix(.97229 .23379 -.23379 .97229 -270.49 -73.265)" fill="#d38d5f" d="m-154.6-2261.9c-32.71 0-128.33 10.789-197.74 50.287-31.9 18.15-73.867 72.143-73.867 80.886 0 27.768 103.42-9.0501 151.16-9.0501 5.9908 0-14.15 86.475-3.6508 86.74 1.1735 0.03 18.358 38.579 2.8485 64.916-2.8154 4.7808-76.214 2.2852-79.794 6.8418-23.729 30.205 2.6177 57.91 5.4955 60.423 1.0313 0.9007 21.013 10.467 40.971-6.6963 8.1085-6.973 28.372-14.472 35.506-28.974 4.1234-8.3823-4.5196-25.09-0.78321-29.925 17.772-22.997 0.59105-65.434 1.9478-64.102 27.315 26.81 85.23 90.114 102.34 85.931 4.9633-1.2132-2.9364-45.71 0.34477-49.812 16.946-21.188 36.206-39.93 55.298-56.356 6.9916-6.0154 46.32 76.368 53.144 70.968 0.83032-0.6571 2.9183 37.591-16.113 57.586-17.775 18.675-51.563 11.71-45.559 18.692 0.87906 1.0223-13.119-31.11-24.346-30.673-16.255 0.6331-20.812-16.322-43.92-3.8114-5.2273 2.83-28.553 37.503-33.999 38.93-14.051 3.6815-29.082 8.4918-39.627 19.547-3.6984 3.8773 28.609 58.022 29.32 85.228 0.29659 11.34-37.651 14.481-39.068 16.178-2.0977 2.5131-21.571-11.272-50.676-25.21-5.2538-2.516 16.32-33.332 10.899-34.656-23.774-5.8089-52.065 18.209-56.96 19.458-5.9605 1.5208 88.218 39.295 86.961 41.922-2.0668 4.319-38.554 10.171-31.358 30.643 2.2881 6.5098-0.13971 25.728 17.417 28.898 6.8306 1.233 39.57-16.745 42.566-13.748 6.3699 6.3712-24.143 20.752-26.229 29.134-2.8157 11.312 21.041 16.131 20.735 17.329-2.7415 10.733 76.233-50.899 75.533-41.55-0.90559 12.096 46.916 10.536 46.536 19.653-0.58535 14.044-10.471 25.244-7.1967 26.892 23.158 11.652 58.68-16.732 85.741-59.444 17.716-27.961 24.616-68.226 47.087-85.956 35.105-27.699 89.781 3.5931 90.772 1.5849 6.2319-12.627-23.586-47.689-31.273-79.647-11.031-45.859-16.428-103.43-28.148-148.95-11.967-46.479-30.144-80.471-30.144-84.098 0-14.422-12.891-49.65-44.067-73.269-28.848-21.855-75.162-32.736-98.107-32.736z"/>
      <path id="path4165-4-0" filter="url(#filter4355)" transform="matrix(.97229 .23379 -.23379 .97229 -270.49 -73.265)" fill="#a05a2c" d="m-162.71-2257.1c-27.401 0-107.91 11.362-173.7 43.625-48.84 23.95-90.713 68.548-90.713 80.379 0 10.918-2.9279 55.878 38.417 47.064 23.716-5.0555 89.292-44.223 108.93-24.89 13.9 13.686-30.206 59.064-7.509 56.067 1.1728-0.1549 25.562 40.296 5.0778 67.993-7.8799 10.655-67.89 6.425-71.047 16.519-6.3758 20.383 27.501 36.971 30.026 39.056 2.1016 1.7346 29.626-21.424 43.141-44.434 16.935-28.832 5.3166-76.676 8.6106-73.768 24.087 21.269 70.416 66.399 85.427 60.196 2.4492-1.0121 27.406 59.826 13.384 114.93-2.4036 9.4447-45.435-8.4237-47.639 2.2684-2.1888 10.62 23.146 46.712 19.998 57.217-3.833 12.79-55.584 25.337-58.418 37.254-2.3051 9.691 43.527 11.429 40.881 20.281-2.916 9.7558-31.014 47.297-53.785 37.704-18.673-7.8665-32.93-63.251-33.837-57.583-1.234 7.7093-2.8678 46.593 8.918 57.563 22.559 20.997 67.194 14.222 67.848 13.478 0.43211-0.4908 8.9631-29.703 43.642-41.365 7.3232-2.4625 35.244 22.577 42.873 19.094 17.92-8.1808 36.095-19.427 51.76-34.917 25.162-24.881 25.954-100.48 41.343-119.66 6.9983-8.7205-59.902 50.919-53.434 41.728 25.72-36.552 40.022-93.161 48.007-112.16 5.9234-14.096-76.944 41.942-77.224 38.749-2.0446-23.321-26.219-52.934-25.62-78.484 0.42609-18.175 9.3698-37.19 12.678-40.556 12.323-12.538 24.693-26.516 36.479-40.848 2.6049-3.1679 45.166 69.581 84.521 112.38 30.192 32.831 59.543 38.618 61.186 35.986 15.248-24.42-23.573-108.57-24.679-185.54-0.70629-49.167-45.875-75.251-45.875-79.788 0-27.768-81.924-65.529-129.66-65.529z"/>
      <path id="path4165-4-24" fill="#784421" d="m108.84-2312.1c-27.098-6.5157-138.13-9.3913-218.17 11.978-26.537 7.085-52.456 40.425-69.055 49.005-3.6924 1.9088-17.874 4.832-15.5 7.918 10.564 13.73 39.791 42.299 23.025 49.908-7.9581 3.6111 68.309-32.545 129.43-25.329 13.002 1.5351-32.002 72.55-27.048 83.033 3.9483 8.3553 49.528 43.345 71.927 80.501 20.947 34.747 11.418 85.356 6.0398 104.31-1.4092 4.9669 24.905-11.529 27.893-9.8224 6.6335 3.7894-4.8463-114.21 2.9887-112.93 14.45 2.3522 30.229-31.322 43.527-27.028 20.782 6.7102 38.96 16.665 50.795 32.596 11.536 15.528 12.155 59.344 21.964 75.321 24.607 40.081 52.95 48.553 59.311 50.083 32.97 7.9276 31.716-110.42 18.882-194.29-5.2353-34.21-28.475-88.12-26.594-95.942 6.4918-26.998-53.003-68.151-99.421-79.312z"/>
      <path id="path4165-4-9" filter="url(#filter4363)" transform="matrix(.97229 .23379 -.23379 .97229 -270.49 -73.265)" fill="#d38d5f" d="m75.505-1731.6c-4.1496 0-56.66 6.7834-61.492 20.227-4.2746 11.894 38.926 29.392 37.892 46.323-0.46321 7.5836-90.668 16.758-159.51 48.735-54.947 25.524-91.713 74.709-91.76 82.405-0.22403 36.676 116.08-16.887 130.26 27.219 6.431 20.008-83.956 174.35-77.108 196.57 7.6556 24.842-1.2124 70.666 8.9204 94.165 4.9998 11.595-54.397 53.481-48.816 64.527 7.3525 14.55 15.671 28.374 24.726 41.495 4.3764 6.3419-36.019 23.306-31.325 29.322 6.0064 7.698-34.308-37.046-27.539-29.953 15.428 16.166-16.704 99.106-28.988 121.06-16.385-1.6415-17.846-72.474-23.32-70.035-14.548 6.4833-2.9423 105.4 34.757 198.61 4.8736 23.256 29.509 203.82 81.131 316.87 21.814 47.771 99.296 78 108.07 78.248 55.392 1.5647 45.516-12.497 42.347-68.713-0.34152-6.0571 252.87-102.49 252.78-109.56-0.17268-12.745-163.8 61.134-237.37 71.396-15.273 2.1307 117.06-104.45 117.13-114.46 0.0896-12.661-129.46 69.87-128.79 65.1 0.73932-5.2185-14.161-16.255 15.004-52.605 12.253-15.271 72.254-52.775 80.156-67.614 8.9803-16.863-21.398-38.813-19.415-42.321 6.4615-11.427 167.77-63.777 256.72-69.937 4.6792-0.32407 28.717 27.992 33.057 26.723 5.2021-1.5202-9.5032-33.64-4.591-35.215 44.117-14.145 76.13-29.588 76.008-31.345-0.89838-12.942 52.796 65.754 65.378 55.962 5.0856-3.9576 75.04-84.807 110.6-162.76 30.406-66.656 53.042-110.04 84.527-164.75 30.921-53.732 71.868-56.32 62.929-57.827-11.393-1.9207-190.21-9.0202-203.23 10.947-42.106 64.533-36.41 223.87-145.43 285.31-2.5261 1.4236-23.055-10.793-8.7626-81.223 18.541-91.371 56.836-160.88 71.594-267.49 1.6487-11.91 49.759 44.25 60.08 44.305 5.3176 0.028 9.5896 10.887 16.233 10.973 66.555 0.8616 197.91 10.293 200.86-16.218 0.91636-8.2421-35.395-132.9-102.98-225.48-37.901-51.916-130.47-115.42-130.52-115.68-8.1088-39.276-32.944-50.632-54.73-65.126-14.806-9.8503-80.015-3.4937-80.015-3.746 0-35.906-41.389-42.781-44.79-52.196-25.311-70.068-166.96-54.673-146.82-36.306 31.774 28.979 57.077 134.46 57.09 128.05 0.0876-41.926 10.648 57.857-59.609-42.4-7.7023-10.991 23.967-26.084 13.838-36.044-31.243-30.722-117.88-45.537-125.17-45.537z"/>
      <path id="path4165-4-2" filter="url(#filter4520)" transform="matrix(.97229 .23379 -.23379 .97229 -270.49 -73.265)" fill="#a05a2c" d="m297.81-1462.7c-11.3 0-20.12 67.738-30.883 113.3-2.5618 10.844-81.375-8.124-83.885 3.9593-0.12121 0.5834 10.672-25.796 20.499-57.099 2.6148-8.3295 71.263 26.213 73.517 17.601 6.7803-25.904-55.186-94.427-59.786-107.83-13.465-39.22-85.825-0.4048-94.992-12.494-8.076-10.65 21.249 103.58 5.2654 88.939-17.118-15.676-79.975-28.861-95.063-49.517-13.619-18.645 12.927-111.48-1.2476-123.96-27.111-23.867-114.26 11.562-114.59 13.961-5.1209 36.611 36.166 11.118 59.467 75.286 6.0275 16.599-73.899 184.28-67.015 202.77 7.3674 19.788 0.66161 64.61 10.105 83.53 6.6319 13.286-70.113 69.423-62.548 81.957 7.1151 11.789-99.359 71.312-90.767 81.982 14.633 18.174-27.746 122.86-6.4549 136.45 11.149 7.1185 23.436 109.67 36.598 114.59 15.158 5.6632 59.444-105.46 76.527-104.12 3.0543 0.23976-51.913 121.09-36.516 216.74 8.3909 52.13 1.9635 119.32 30.94 160.22 42.151 59.498 122.33 80.398 125.56 59.855 0.98581-6.2767 10.431-128.33 3.5672-189.49-1.4549-12.964-58.775 31.855-59.993 17.739-2.1527-24.947 3.124-42.136 0.69432-71.238-9.2735-111.08-0.55625-239.07-6.2906-312.6-2.63-33.724-24.361-55.99-23.719-59.914 7.9947-48.903 18.206-93.43 24.419-93.218 11.39 0.389-26.118 57.53-14.857 61.13 3.7715 1.2056 12.384 218.09 26.794 236.19 13.475 16.924 21.212-107.52 37.461-118.2 23.335-15.346 50.686 55.849 50.477 80.928-0.60408 72.497-66.35 159.17-52.487 165.17 60.026 25.981 88.22-40.391 134.12-95.405 24.421-29.272 91.025-21.941 91.025-20.336 0 27.768 36.161 9.597 83.902 9.597s88.51-22.584 86.444-50.275c-1.0469-14.035 42.15-207.45 94.581-372.21 0.0656-0.2063 43.457 30.872 56.431 44.346 8.302 8.6223-34.782 178.6-23.165 184.64 5.5835 2.8989-72.275 105.52-73.669 124.57-1.9484 26.627 20.438 38.221 31.486 53.428 15.48 21.307 23.394 39.91 40.042 30.807 56.817-31.065 152.49-231.42 208.17-332.76 20.175-36.717 50.561-40.556 50.12-46.694-0.71639-9.9682-40.989-121.12-99.772-205.02-72.503-103.49-164-162.41-166.95-166.61-3.8572-5.4871-52.627-55.101-52.173-40.338 0.34264 11.132 33.556 31.389 42.345 52.664 13.807 33.419 4.6566 69.346-1.5914 76.35-15.707 17.606-64.814-55.012-67.357-46.543-15.726 52.374 33.297 273.59 32.935 266.19-0.51388-10.485-29.274-20.687-30.383-30.523-1.3374-11.854-78.94 45.051-80.257 33.508-2.4303-21.307 17.663-76.903 14.464-94.913-9.7803-55.07-38.88-87.097-51.532-87.097z"/>
      <path id="path4165-4-8" filter="url(#filter4387)" transform="matrix(.97229 .23379 -.23379 .97229 -270.49 -73.265)" fill="#784421" d="m-26.309-1555.9c-14.251 0-1.6448 54.109 23.054 130.76 5.9237 18.384-68.813 216.03-61.702 236.57 2.0637 5.9613-173.71 146.55-171.4 152.27 0.46021 1.1385 53.521 19.522 65.408 66.519 12.618 49.891-15.357 128.16 4.9075 114.39 5.3344-3.6248-2.789 152.55 17.413 209.14 3.8591 10.808 17.826 33.646 35.775 59.646 6.666 9.6561-9.0002 45.172-1.5496 55.246 37.026 50.065 102.75 74.264 112.89 67.705 6.4693-4.1835-11.057-136.04-30.209-177.63-5.4329-11.8-36.712 18.729-36.118 18.55 25.107-7.5582-1.6165-268.96 9.4994-315.96 3.6274-15.337-38.489-149.22-34.777-161.86 16.824-57.299 40.971-55.927 41.532-54.707 21.463 46.728 48.248 85.015 78.81 116.17 12.221 12.457-23.592 242.42-11.277 252.68 20.488 17.068 66.498-101.26 91.392-123.42 47.736-42.503 72.277-17.281 72.277-11.029 0 27.768 87.008 62.987 134.75 62.987 7.223 0 31.169 22.099 36.097 19.844 12.55-5.742 2.0668-22.675 0.61853-41.66-1.742-22.836 3.9659-48.641 3.9659-61.509 0-0.53738 150.17 111.43 154.64 99.208 0.30557-0.83462 167.39-163.31 172.09-190.98 1.0179-5.9844 63.722-128.13 45.976-144.81-5.0746-4.7702-86.762 97.132-92.277 92.334-24.43-21.251-50.791-40.919-57.935-42.619-7.319-1.7419 146.78-134.87 141.64-152.44-1.915-6.5489-31.28-54.043-75.117-110.81-41.607-53.883-89.885-89.415-101.83-88.288-43.345 4.0902-57.14 154.05-48.298 214.16 2.0877 14.194 41.447 16.178 40.711 18.301-5.3385 15.408-9.5539 195.05-15.903 190.11-7.039-5.4728-82.878 154.19-89.945 148.68-32.851-25.631-62.927-49.671-61.636-53.188 26.817-73.027 80.473-219.74 74.356-230.66-11.325-20.204-73.378 123.76-104.54 109.04-21.838-10.315-4.7761-182.47-29.1-203.91-12.903-11.376-87.894 190.35-102.52 182.53-24.292-12.986-45.451-39.003-64.393-71.153-12.873-21.85 41.38-132.97 30.269-158.32-29.998-68.442-120.72-55.306-145.62-90.861-26.953-38.494-42.472-131.01-51.938-131.01z"/>
      <path id="path3831" style="color:#000000" d="m226.23-1916c-0.40429-0.011-0.71017-3.5255-0.84723-10.152-0.13706-6.6269-0.09-16.366 0.22484-28.814 0.31486-12.448 0.91383-27.603 1.649-45.057 0.7352-17.453 1.6173-37.203 2.0599-58.849 0.21333-10.469 0.32251-21.381 0.17682-32.674-0.1457-11.293-0.54638-22.967-1.3991-34.953-1.4117-19.77-3.9785-40.412-9.3947-61.057-4.6554-17.716-11.439-35.474-21.65-51.575-5.5613-8.7914-12.189-17.068-19.751-24.555-5.6779-5.6207-11.793-10.707-18.239-15.189-9.072-6.3291-18.773-11.495-28.755-15.73-9.982-4.2354-20.245-7.5406-30.481-10.131-14.715-3.717-29.387-5.9957-43.737-7.3677-14.35-1.3719-28.379-1.8383-41.862-1.8298h-0.000024c-9.305 0.012-18.339 0.05-27.077 0.2124-8.7383 0.1626-17.181 0.4502-25.306 0.9219-8.3534 0.4878-16.367 1.1653-23.981 2.115-7.6143 0.9497-14.83 2.171-21.611 3.6759-7.7886 1.73-15.002 3.8477-21.541 6.2524-6.5392 2.4047-12.406 5.0947-17.591 7.9067-5.9763 3.2348-11.04 6.6268-15.29 9.7918-4.2502 3.1651-7.6901 6.105-10.427 8.5521-2.7373 2.4472-4.7749 4.4029-6.1862 5.6923-1.4113 1.2895-2.1988 1.9129-2.3628 1.7749s0.30033-1.0339 1.4127-2.6113 2.8749-3.8368 5.3827-6.6159c2.5078-2.779 5.7637-6.0792 9.9021-9.6361 4.1384-3.557 9.1622-7.3726 15.204-11.056 5.2405-3.1893 11.216-6.2639 17.904-9.0385 6.6886-2.7746 14.092-5.2476 22.094-7.2888 6.9531-1.7754 14.349-3.2557 22.131-4.445 7.7823-1.1894 15.951-2.0873 24.426-2.7675 8.2418-0.6642 16.789-1.1334 25.608-1.4652 8.8186-0.3318 17.908-0.5261 27.231-0.6814h0.000025c13.7-0.2363 28.027 0.05 42.774 1.3035s29.914 3.4752 45.234 7.2073c10.683 2.5981 21.449 6.0007 31.992 10.434 10.542 4.4329 20.861 9.8966 30.603 16.629 6.9305 4.8042 13.495 10.254 19.583 16.28 8.1085 8.0259 15.2 16.904 21.142 26.346 10.836 17.259 17.924 35.983 22.608 54.47 5.4592 21.508 7.9042 42.744 9.0683 62.893 0.70915 12.218 0.94319 24.07 0.90179 35.498s-0.35812 22.432-0.79669 32.96c-0.9053 21.772-2.3114 41.544-3.6238 58.977-1.3123 17.433-2.5416 32.528-3.5309 44.918-0.98927 12.39-1.7549 22.075-2.3702 28.663-0.61533 6.5883-1.0956 10.079-1.4999 10.068z"/>
      <path id="path3835" style="color:#000000" d="m60.367-2079.8c-0.35041-0.3549 0.47244-1.8996 2.5175-4.3521 1.0225-1.2263 2.3558-2.6748 4.0419-4.2643s3.7249-3.3212 6.1871-5.0617c1.7508-1.241 3.7316-2.4827 5.9726-3.6161 2.2409-1.1334 4.7422-2.1588 7.5308-2.92 3.8551-1.0469 8.2605-1.4919 12.922-0.7629 3.9285 0.6389 7.8748 2.1193 11.486 4.4289 3.4967 2.2439 6.6543 5.1506 9.3457 8.4972 2.7744 3.4395 5.1314 7.314 7.0617 11.443 4.0038 8.5657 6.4278 18.304 7.236 28.392 0.239 2.8885 0.35099 5.82 0.32414 8.7777-0.0689 7.5928-1.0562 15.025-2.8798 22.031-1.3297 5.1599-3.1625 10.114-5.4543 14.689-2.2918 4.5748-5.0423 8.7699-8.1728 12.472-3.7376 4.3909-8.0185 7.934-12.443 10.64-4.4247 2.7058-8.9925 4.5757-13.403 5.7277-6.3964 1.6514-12.272 1.9037-17.224 1.6095-3.2141-0.1911-6.0501-0.6057-8.4876-1.0947s-4.4769-1.0529-6.1064-1.593c-3.259-1.0802-4.8856-2.0326-4.7645-2.5361 0.12108-0.5035 1.9833-0.5268 5.3054-0.3907 1.6611 0.068 3.6884 0.1685 6.0425 0.2099 2.3541 0.041 5.0356 0.024 7.9909-0.1887 4.5442-0.3276 9.7658-1.095 15.146-2.9877 3.6704-1.2798 7.4201-3.1434 11.01-5.6548 3.5901-2.5114 7.0206-5.6711 9.9623-9.4446 2.5291-3.2161 4.7369-6.8771 6.5886-10.894 1.8518-4.0172 3.3478-8.3904 4.4799-12.972 1.5262-6.2486 2.3455-12.891 2.4061-19.712 0.0236-2.6571-0.0676-5.2957-0.26303-7.9016-0.71036-9.1153-2.6544-17.751-5.9366-25.261-1.573-3.6005-3.4122-6.9139-5.5621-9.794-2.0861-2.7847-4.4114-5.1829-6.9488-6.9856-2.5813-1.8434-5.4054-3.1338-8.2131-3.7795-3.3258-0.7941-6.758-0.7129-9.9162-0.1763-2.3131 0.3906-4.4974 1.0455-6.5363 1.8152s-3.9326 1.6547-5.6725 2.5508c-2.4479 1.2654-4.5814 2.5617-6.4303 3.7417-1.8489 1.1801-3.4129 2.2449-4.7042 3.1013-2.5825 1.7126-4.0888 2.5719-4.4392 2.217z"/>
      <path id="path3839" style="color:#000000" d="m77.005-2072.1c-0.25016-0.5237-0.09457-1.2172 0.41718-2.0422 0.51176-0.825 1.3786-1.7858 2.6069-2.8102s2.8212-2.1159 4.8258-3.1051c2.0046-0.9891 4.4268-1.8754 7.2862-2.3672 1.7773-0.3308 3.9839-0.2901 6.4627 0.5023 0.77785 0.2949 1.5081 0.6572 2.1819 1.0791 1.0564 0.6616 1.95 1.4546 2.6719 2.3287 1.2666 1.5528 2.0611 3.0219 2.5977 4.2754 0.7303 1.6213 1.2461 3.071 1.6998 4.337 1.0848 3.0024 2.0653 5.4971 2.7012 7.4229 0.63586 1.9258 0.898 3.3361 0.24606 4.0288-0.32597 0.3463-0.86181 0.4795-1.5801 0.375s-1.618-0.4489-2.6274-1.057c-1.0093-0.608-2.1266-1.4813-3.2553-2.6151-1.1287-1.1337-2.267-2.5284-3.319-4.1346-0.86648-1.307-1.6461-2.6575-2.4098-3.9004-0.61433-0.9533-1.0913-1.7535-1.5605-2.1937-0.19553-0.1793-0.37425-0.3389-0.52329-0.4443-0.09505-0.067-0.17674-0.1112-0.24368-0.1244-0.29705-0.2202-1.0542-0.2155-2.0345-0.2575-1.9036 0.01-3.7824 0.3029-5.5749 0.6241s-3.4935 0.6659-4.9857 0.8741c-1.4921 0.2083-2.7718 0.2826-3.732 0.1615-0.96014-0.1212-1.6011-0.4335-1.8513-0.9572z"/>
      <path id="path3843" style="color:#000000" d="m63.776-2040.2c0.04922-0.7532 0.73434-1.4534 2.0603-1.948 0.66299-0.2474 1.4896-0.4378 2.4906-0.4998 1.0009-0.062 2.1775 0 3.528 0.3178h0.000001c1.7769 0.3759 3.866 1.5098 5.5907 4.0991 1.1213 2.1418 1.5437 4.4553 1.2173 6.4458-0.26958 2.1249-0.90108 4.0679-1.6757 5.6864-0.03336 0.072-0.06696 0.1441-0.10081 0.216-0.94507 2.0056-2.0092 3.7428-3.0533 5.257-1.0442 1.5143-2.0684 2.8087-3.0086 3.9401h-0.000001c-1.1825 1.4504-2.2198 2.5595-3.0948 3.4828-0.76073 0.871-1.4431 1.4117-2.0228 1.8571-0.57965 0.4453-1.0994 0.7882-1.664 0.7933-0.56458 0.01-1.1321-0.3869-1.5148-1.266-0.38269-0.8792-0.53876-2.2559-0.3681-3.6623 0.161-1.6097 0.66627-3.4886 1.3721-5.3557 0.56742-1.5173 1.28-3.0838 2.0361-4.6381 0.75603-1.5543 1.5528-3.0944 2.2542-4.6266 0.02512-0.055 0.05006-0.1096 0.07481-0.1642 0.54449-1.2593 1.0053-2.2271 1.1878-3.0094 0.07645-0.5995 0.30322-0.9146 0.34885-0.8946 0.35802-0.1067-0.07659-0.5987-0.60836-1.2323h-0.000001c-1.0754-1.0244-2.4718-1.7692-3.4745-2.532-1.0028-0.7628-1.6243-1.5132-1.5751-2.2664z"/>
      <path id="path3847" style="color:#000000" d="m76.585-2070.4c0.4331 0.9105 0.04134 2.1176-0.67486 3.4687-0.7162 1.3512-1.7638 2.833-2.426 4.4274-0.53326 1.1097-0.97284 2.4709-1.4806 4.0945-0.05564 0.1779-0.11153 0.3567-0.16789 0.536-0.44052 1.5859-0.91024 3.3028-1.5273 4.9326-0.61704 1.6298-1.3787 3.1601-2.2234 4.3657-0.8447 1.2057-1.7632 2.0808-2.6064 2.536-0.84319 0.4553-1.6008 0.4956-2.1895 0.1766-0.58875-0.319-0.96221-0.9486-1.2244-1.7522s-0.42411-1.7842-0.54423-2.9588c-0.12012-1.1745-0.20161-2.5535-0.14687-4.1995 0.05473-1.6461 0.25177-3.5706 0.82141-5.7127h0.000001c0.06653-0.2741 0.14084-0.5505 0.2233-0.8283 0.75253-2.5355 2.1398-4.9247 3.869-6.7458 1.203-1.1899 2.4473-2.0305 3.6102-2.5968s2.2449-0.8608 3.1737-0.9643c1.8578-0.2071 3.0808 0.3104 3.5139 1.2209z"/>
      <path id="path3851" style="color:#000000" d="m76.719-2055.5c1.0355-0.2334 2.2281 0.682 3.5868 1.9668 0.67933 0.6424 1.4004 1.3745 2.1722 2.0484 0.77176 0.674 1.5914 1.2884 2.5055 1.6544 1.0151 0.5784 2.3335 0.9561 3.9409 1.2814 0.65828 0.1332 1.3382 0.2543 2.0219 0.3752 1.3019 0.1983 2.6546 0.3142 3.9958 0.4472 1.3412 0.1329 2.6682 0.2834 3.8926 0.4999 1.3938 0.2386 2.7636 0.5749 3.8421 1.0423 0.44819 0.182 0.89674 0.4145 1.2778 0.6747 0.38111 0.2603 0.69512 0.5472 0.91613 0.8333 0.44202 0.5723 0.49517 1.1211 0.30185 1.5651s-0.5719 0.7744-0.9918 1.1256-0.88194 0.7577-1.6439 1.0776c-0.83597 0.4167-1.848 0.8705-3.1973 1.2911-1.1593 0.3747-2.4975 0.7231-4.0338 0.9713-1.5362 0.2482-3.273 0.3953-5.1972 0.3192-1.0485-0.026-2.1483-0.1507-3.2717-0.3959-2.7432-0.5989-5.3706-1.8936-7.4665-3.6597h-0.000001c-1.6782-1.5875-2.7764-3.2858-3.4575-4.8598-0.68106-1.5739-0.95022-3.0244-0.97983-4.2285-0.02962-1.204 0.17727-2.1643 0.50172-2.8409s0.76628-1.072 1.2841-1.1887z"/>
      <path id="path3855" style="color:#000000" fill="#a40" d="m220.36-1937.8c-0.0667 0.3237-0.65053 0.5374-1.713 0.6212-1.0625 0.084-2.6041 0.037-4.5708-0.2008-3.9334-0.476-9.6032-1.6932-16.256-4.5141-5.6214-2.3888-11.889-5.9668-17.982-11.056-4.7356-3.9788-9.2993-8.806-13.459-14.344-4.16-5.5384-7.9151-11.786-11.156-18.432-0.0671-0.137-0.13397-0.2742-0.20069-0.4115-3.3607-6.9174-6.0633-13.81-8.3355-20.424-2.2722-6.6133-4.1171-12.946-5.702-18.805-1.6273-5.9946-2.9773-11.51-4.1275-16.407-1.1502-4.8967-2.0988-9.1759-2.8293-12.722-1.4611-7.0928-2.0331-11.276-1.158-11.582 0.87513-0.305 3.0973 3.34 5.9996 10.051 1.4512 3.3555 3.0656 7.4755 4.7997 12.214 1.7341 4.738 3.5856 10.094 5.6009 15.886 1.978 5.6696 4.0992 11.772 6.4971 18.085 2.3978 6.3134 5.0746 12.836 8.2443 19.326 0.0629 0.1288 0.12599 0.2575 0.18916 0.386 3.0591 6.1965 6.4014 12 10.001 17.163 3.5998 5.1631 7.4585 9.6844 11.455 13.487 5.1129 4.896 10.411 8.6438 15.221 11.47 5.6923 3.3512 10.708 5.4729 14.184 7.0216 3.476 1.5488 5.431 2.5411 5.2976 3.1885z"/>
      <path id="path3859" style="color:#000000" fill="#a40" d="m62.955-2082.9c0.25635 0.5886-0.9905 1.7528-3.2457 3.5626-1.1276 0.9049-2.5035 1.978-4.0229 3.265s-3.1831 2.7879-4.8394 4.574h-0.000002c-2.6261 2.8189-5.2692 6.4006-7.2112 10.73-1.614 3.5538-2.7626 7.6911-3.4513 12.213-0.66614 4.3974-0.85473 9.1653-0.78008 14.196 0.02715 1.7852 0.08772 3.5958 0.176 5.43 0.23912 4.9683 0.66454 9.8484 1.1006 14.58 0.43611 4.7314 0.88141 9.3135 1.217 13.668 0.4365 5.5543 0.71122 10.73 0.7778 15.353 0.06658 4.6229-0.07249 8.6916-0.36158 12.046s-0.7232 5.994-1.2022 7.7846c-0.47903 1.7905-0.99728 2.7325-1.493 2.7159-0.49573-0.017-0.93541-0.9878-1.3604-2.7592-0.42504-1.7713-0.84117-4.3425-1.3272-7.5805-0.48605-3.2379-1.047-7.1432-1.7164-11.602-0.66938-4.459-1.4496-9.4728-2.2727-14.934-0.64966-4.2618-1.3429-8.8175-1.9526-13.63-0.60978-4.8126-1.1347-9.8829-1.3897-15.16-0.09415-1.9483-0.14907-3.8867-0.15939-5.8107-0.03126-5.4536 0.37592-10.851 1.3925-15.954 1.0483-5.2847 2.85-10.219 5.2452-14.449 2.9505-5.1688 6.7009-9.064 10.317-11.821h0.000003c2.2724-1.7233 4.4599-3.0139 6.433-3.9937 1.973-0.9799 3.7326-1.6493 5.1984-2.0943 2.9317-0.89 4.6718-0.9188 4.9282-0.3302z"/>
      <path id="path3863" style="color:#000000" fill="#a40" d="m5.7021-1952.4c-0.1651-0.1187-0.00628-0.6726 0.4193-1.6464s1.1171-2.3691 1.9647-4.2016c1.6952-3.6651 4.0487-9.1165 5.6942-16.391 0.74051-3.2666 1.3312-6.895 1.6657-10.857 0.33448-3.9616 0.41176-8.2573 0.15569-12.817-0.40914-7.3928-1.6909-15.45-4.0443-23.952-2.3533-8.5025-5.7825-17.452-10.196-26.535-3.8935-7.9815-8.5699-16.064-14.061-24.058-5.4906-7.9934-11.795-15.897-18.875-23.505-12.783-14.51-28.02-28.305-45.707-38.939 0.30678-0.5312 0.61188-1.0642 0.91528-1.5989 7.4578-13.144 13.534-26.765 18.055-40.423 3.1176-6.6139 5.7754-13.299 8.1729-19.955 2.3975-6.6562 4.5351-13.284 6.5721-19.794-12.721-0.4355-24.931 0.8226-36.328 2.8025s-21.98 4.6802-31.542 7.4225h-0.00001c-9.4048 2.349-17.831 4.8729-25.223 7.1758-7.3914 2.3029-13.746 4.3891-18.96 6.053-5.2136 1.6639-9.2845 2.911-12.084 3.6509-2.7999 0.7399-4.3279 0.977-4.4504 0.6607-0.12253-0.3163 1.1655-1.1713 3.7349-2.5094 2.5695-1.3381 6.4189-3.1636 11.439-5.3854 5.0205-2.2218 11.21-4.8455 18.504-7.6702 7.294-2.8248 15.691-5.8552 25.188-8.7042h0.00001c10.088-2.6614 21.46-5.0577 33.953-6.5004 12.494-1.4427 26.11-1.93 40.551-0.5084-1.3084 7.4022-2.7027 15.057-4.3604 22.877-1.6576 7.8197-3.579 15.804-5.9823 23.846-5.2231 12.208-12.151 24.172-20.568 35.536-0.34242 0.4624-0.68666 0.9229-1.0327 1.3815 18.226 8.8261 33.616 20.938 46.237 34.07 7.314 8.0529 13.78 16.442 19.36 24.933 5.5795 8.4908 10.272 17.083 14.114 25.558 4.3822 9.6278 7.659 19.194 9.7693 28.294 2.1103 9.0991 3.0588 17.731 3.0755 25.604 0.007 4.8717-0.36606 9.4471-1.0193 13.641-0.65325 4.1939-1.5857 8.0072-2.673 11.403-1.2141 3.7866-2.6243 7.0386-4.0215 9.7607s-2.781 4.9166-3.9924 6.6217c-1.2114 1.705-2.25 2.9228-3.0119 3.691-0.76196 0.7682-1.2468 1.0884-1.4119 0.9697z"/>
      <path id="path3867" style="color:#000000" fill="#ff7f2a" d="m-166.08-2195.8c-1.0029-0.01-1.8747-1.744-2.8871-4.4911-1.0124-2.747-2.1759-6.5188-4.1723-10.423-1.4648-2.9397-3.4877-6.0357-5.9631-9.1808-0.31228-0.3968-0.62719-0.7892-0.94374-1.1771-1.4514-1.7747-2.9691-3.4774-4.4443-5.1411-1.4752-1.6638-2.9063-3.2884-4.2015-4.8644-1.3595-1.6419-2.5642-3.2335-3.5545-4.7191-0.99025-1.4855-1.7664-2.8635-2.3084-4.0646-1.084-2.4023-1.2342-4.0664-0.51165-4.6045 0.72253-0.5381 2.199 0.077 4.2817 1.3981 2.0827 1.321 4.8237 3.3194 8.0753 5.9185 1.5652 1.2424 3.2518 2.6371 4.9976 4.2286 1.7459 1.5914 3.5511 3.381 5.3088 5.4245 0.39088 0.4537 0.77662 0.9201 1.1558 1.399 3.0054 3.7965 5.2452 8.0018 6.541 12.053 0.83737 2.696 1.2555 5.2338 1.4028 7.485 0.14735 2.2513 0.0258 4.2169-0.23431 5.8195-0.26014 1.6025-0.65783 2.8433-1.1031 3.6784-0.44527 0.835-0.93755 1.2653-1.439 1.2615z"/>
      <path id="path3871" style="color:#000000" fill="#d45500" d="m-175.36-2256.3c0.24444-0.412 0.84059-0.6066 1.7516-0.5301 0.91105 0.076 2.1357 0.4288 3.5601 1.1292s3.046 1.7529 4.7034 3.1804c1.6574 1.4274 3.3476 3.2317 4.9042 5.3411 2.7534 3.6822 5.2341 8.2891 7.1453 13.315 0.37381 0.983 0.71901 1.959 1.0383 2.9234 1.9862 5.9586 3.0543 11.5 3.62 16.007 0.32201 2.5517 0.47496 4.7504 0.50648 6.55 0.035 1.5839-0.0495 2.8114-0.22602 3.716-0.17648 0.9045-0.46194 1.4887-0.92956 1.6698s-1.0909-0.068-1.8026-0.7458c-0.71172-0.6781-1.4974-1.7947-2.2859-3.191-0.91298-1.6186-1.8561-3.6797-2.8142-6.0247-1.6975-4.1497-3.4511-9.2755-5.458-14.682-0.32867-0.8799-0.66221-1.7677-1.0025-2.6596-1.74-4.5601-3.4862-8.6734-5.2629-12.149-1.0161-1.9555-2.0074-3.7254-2.9403-5.2709-0.93296-1.5455-1.8081-2.8692-2.5509-3.9927-0.74279-1.1234-1.3521-2.0509-1.7173-2.8124-0.36524-0.7616-0.48345-1.3616-0.23901-1.7736z"/>
      <path id="path3875" style="color:#000000" fill="#a40" d="m-157.58-2265.3c0.56946-0.3896 1.5983-0.066 2.9463 0.9187 1.348 0.9851 3.0108 2.636 4.7743 4.8927 1.7635 2.2568 3.6236 5.1215 5.3556 8.4774 1.732 3.3558 3.3327 7.2025 4.6217 11.352 0.11515 0.3707 0.2269 0.7407 0.33526 1.1097 1.1786 4.0225 1.9774 7.8861 2.5117 11.401 0.5343 3.5145 0.80653 6.682 0.88756 9.3545 0.16206 5.3449-0.41602 8.7325-1.7381 9.0014s-3.1583-2.6792-5.0756-7.6246c-0.95865-2.4727-1.94-5.4368-2.9527-8.7068-1.0126-3.2701-2.0577-6.843-3.2028-10.547-0.10398-0.337-0.20894-0.6754-0.31489-1.015-1.1859-3.8013-2.3884-7.3941-3.5264-10.66-1.138-3.2662-2.211-6.2067-3.0854-8.7256-0.87442-2.5188-1.5479-4.6185-1.8569-6.1974-0.30906-1.5788-0.2491-2.6403 0.32036-3.0299z"/>
      <path id="path3879" style="color:#000000" d="m-162.57-2190.7c0.39108 0.248-0.12443 1.8481-1.2678 4.6613-1.1433 2.8132-2.901 6.8493-4.8438 12.064-1.9429 5.2145-4.0597 11.617-5.9593 19.108-1.8996 7.4907-3.5754 16.075-4.8093 25.477-1.1989 8.9566-1.987 18.663-2.3621 28.954-0.37514 10.291-0.33952 21.168-0.0892 32.425 0.14792 0.3905 0.29303 0.783 0.43519 1.1775 2.0595 5.7146 3.4279 11.662 3.8582 17.66 0.43683 5.8805-0.0198 11.694-1.2479 17.195-1.2919 5.615-3.2774 10.749-5.5488 15.482-2.2714 4.7329-4.8278 9.0651-7.3597 13.071-3.12 4.9953-6.1826 9.5901-8.9082 13.934s-5.1156 8.4368-7.0708 12.333c-2.309 4.5876-4.0111 8.94-5.2708 12.837-1.2598 3.897-2.0815 7.3408-2.6736 10.184-0.59215 2.8427-0.95989 5.0866-1.2852 6.62-0.32529 1.5333-0.61332 2.3575-0.94133 2.3656-0.32801 0.01-0.68178-0.8021-0.97561-2.385-0.29383-1.5828-0.5231-3.9405-0.48543-6.9945 0.0377-3.0539 0.34735-6.8066 1.1742-11.11 0.82682-4.3029 2.1754-9.1581 4.2598-14.312v-0.0001c1.7555-4.3318 3.9669-8.8412 6.4934-13.494 2.5265-4.6525 5.369-9.4468 8.2038-14.438 2.2449-4.0052 4.4973-8.1702 6.4422-12.512 1.9449-4.3423 3.5814-8.8617 4.4996-13.597 0.93275-4.6197 1.2356-9.4923 0.81794-14.395-0.47911-5.4782-1.7994-11.068-3.7048-16.622-0.13153-0.3835-0.26553-0.7659-0.40187-1.1472-0.3152-11.701-0.27904-23.123 0.28942-33.972 0.56845-10.849 1.671-21.125 3.2824-30.567 1.6851-9.7087 3.9722-18.554 6.5566-26.19 2.5845-7.636 5.4576-14.067 8.1661-19.167 2.7085-5.0999 5.2403-8.8779 7.1502-11.323 1.9099-2.4453 3.1855-3.5687 3.5766-3.3207z"/>
      <path id="path3883" style="color:#000000" d="m-206.94-1937c0.0405-0.1603 0.47333-0.2225 1.2855-0.1746 0.81219 0.048 2.0052 0.2037 3.5542 0.5276 1.5489 0.324 3.4567 0.8127 5.6528 1.6159 2.1961 0.8031 4.6842 1.9166 7.298 3.635 1.6328 1.0845 3.2643 2.442 4.7746 4.1124s2.9 3.6542 4.001 5.9671c1.6689 3.5771 2.6406 7.6609 3.3382 11.835 0.29609 3.6096 0.36668 7.3164 0.88293 10.867 6.3185 0.082 13.069 0.149 20.201 0.3934 4.455 0.4227 9.1518 0.9101 14.04 1.8291 2.2768 0.3412 5.1514 0.8836 8.1862 2.6183 0.86036 0.33 1.8846 1.3805 2.7962 3.2522 0.48289 1.9936 0.26653 3.6205-0.50886 4.7129h-0.00002c-0.83632 1.2991-1.6943 2.1576-2.3975 2.6471-1.0357 0.8232-2.0647 1.4873-3.0263 2.0503-2.7504 1.6286-5.5782 2.9915-8.3351 4.2983-7.495 3.0345-15.294 5.8967-23.034 9.1774 2.0083 8.9658 4.5242 18.09 8.0428 27.107 2.305 7.3877 5.1027 14.73 8.8696 21.612 2.8904 5.2632 6.2867 10.257 10.475 14.416 3.4103 3.3923 7.3456 6.278 11.68 8.2029 4.0119 1.8094 8.4675 2.8401 13.02 3.1168 1.2012 0.075 2.4131 0.096 3.6331 0.067 3.6935-0.086 7.4186-0.6227 11.094-1.448 5.5927-1.2628 11.04-3.2486 16.329-5.5939 6.0921-2.7072 11.924-5.9169 17.549-9.364 13.638-8.3564 25.908-18.007 37.286-27.645h0.000014c14.13-11.977 26.77-24.014 38.175-35.241 14.308-14.086 26.636-26.925 36.938-37.615 10.544-10.942 18.953-19.653 24.873-25.484 5.9198-5.8317 9.3294-8.8047 9.7376-8.4351 0.40822 0.3696-2.2137 4.0518-7.3952 10.545-5.1815 6.4931-12.901 15.816-22.863 27.347-9.7291 11.261-21.584 24.642-35.583 39.27-11.154 11.655-23.673 24.133-37.867 36.588h-0.000014c-11.408 10.017-23.943 20.113-38.145 28.998-5.8683 3.6709-12.063 7.1248-18.646 10.097-5.7104 2.5829-11.767 4.7956-18.164 6.2719-4.2144 0.9771-8.6041 1.5985-13.09 1.6995-1.4817 0.033-2.9683 0.01-4.4569-0.076-5.6918-0.3342-11.317-1.6664-16.519-4.0063-5.585-2.542-10.492-6.1355-14.607-10.314-4.9983-5.0823-8.909-10.855-12.044-16.761-4.098-7.6956-7.0524-15.656-9.3644-23.491-2.6547-11.338-4.2726-22.492-5.39-33.189 8.9968-4.9857 17.749-9.2755 25.96-13.471 2.7782-1.2413 5.4052-2.4082 7.7715-3.7327 0.82596-0.4686 1.5475-0.8882 2.1154-1.3269 0.4026-0.3808 0.62037-0.4718 0.49288-0.3753h-0.00001c-0.29245 0.2731-0.27047 0.8911-0.10235 1.9928 0.52812 0.7852 0.59352 1.0618 0.48624 0.7811-1.101-0.8756-3.1431-1.174-5.5136-1.7878-4.4432-0.9985-8.9216-1.6195-13.317-2.2149-8.1034-1.5082-15.692-2.6839-22.674-3.7117-1.4761-5.0485-2.2645-9.6933-3.0813-13.89h-0.00001c-0.47639-4.0606-1.0385-7.6827-2.235-10.716-0.73281-1.9178-1.743-3.6339-2.8843-5.1288s-2.4143-2.7692-3.7151-3.8334c-2.1328-1.7584-4.2894-3.0275-6.2333-4.041-1.9438-1.0135-3.6789-1.7678-5.09-2.3771-1.4111-0.6094-2.5016-1.0709-3.2224-1.4301-0.72074-0.3591-1.0739-0.6145-1.0334-0.7748z"/>
      <path id="path3891" style="color:#000000" d="m95.933-1858.6c0.19821 0.091 0.102 0.8282-0.30195 2.1682-0.40395 1.3401-1.1163 3.2831-2.1964 5.758-1.08 2.4749-2.5284 5.4822-4.4399 8.9164-1.9114 3.4343-4.2866 7.2963-7.2449 11.436-4.9378 6.9063-11.514 14.574-20.042 22.113-6.3671 5.6194-13.777 11.13-22.168 16.306-8.3906 5.1756-17.763 10.014-27.873 14.412-8.5479 3.725-17.618 7.178-27.101 10.435-9.4833 3.2567-19.379 6.3174-29.541 9.3508-9.0624 2.7099-18.351 5.3928-27.76 8.2318-9.4091 2.839-18.938 5.8347-28.469 9.2183-5.2171 1.8578-10.44 3.8267-15.62 5.9593-12.007 4.9436-23.339 10.607-33.527 17.413-7.3484 4.8979-14.094 10.368-20 16.375-6.337 6.4384-11.736 13.512-16.125 20.902-5.1231 8.6141-8.901 17.687-11.665 26.691h-0.00001c-3.5463 11.549-5.4384 22.999-6.4806 33.804-1.3729 14.177-1.3326 27.192-0.81436 38.692 0.5182 11.5 1.5184 21.485 2.4324 29.676 0.91392 8.1913 1.7489 14.592 2.2127 18.964 0.46383 4.3718 0.56193 6.7185 0.17584 6.797-0.38609 0.079-1.236-2.1149-2.4275-6.3647-1.1915-4.2499-2.7302-10.559-4.3126-18.732-1.5824-8.1734-3.2159-18.215-4.3121-29.906-1.0963-11.691-1.6593-25.036-0.72788-39.745 0.71624-11.239 2.3873-23.287 5.873-35.649h0.00001c2.7223-9.6497 6.6018-19.464 12.01-28.912 4.6463-8.106 10.413-15.874 17.238-22.956 6.3607-6.5939 13.584-12.564 21.419-17.845 10.856-7.3016 22.765-13.327 35.216-18.461 5.3711-2.2151 10.758-4.2339 16.112-6.11 9.7743-3.4356 19.474-6.4339 28.987-9.2299 9.5135-2.7959 18.841-5.3902 27.889-7.9719 10.154-2.9024 19.978-5.775 29.35-8.7991 9.3726-3.024 18.294-6.2 26.683-9.6178 9.9045-4.042 19.075-8.43 27.305-13.115 8.2298-4.6853 15.521-9.6661 21.839-14.762 8.4725-6.8219 15.188-13.795 20.409-20.096 3.1302-3.7755 5.7345-7.3132 7.9149-10.458 2.1804-3.1443 3.9374-5.896 5.3519-8.1406s2.4872-3.9827 3.2665-5.1307c0.7793-1.1481 1.266-1.7063 1.4643-1.6155z"/>
      <path id="path3895" style="color:#000000" d="m-53.044-1600.5c0.04418 0.3226-1.4664 0.8375-4.3635 1.6016-2.8972 0.7642-7.1827 1.7803-12.656 3.2365-5.473 1.4562-12.136 3.3544-19.721 5.9802-7.5848 2.6259-16.094 5.981-25.156 10.422-7.7515 3.7952-15.901 8.393-24.182 13.928-8.2804 5.5354-16.691 12.01-24.919 19.484-6.7863 6.1618-13.452 13.001-19.892 20.476-6.4407 7.4758-12.657 15.588-18.563 24.244-11.006 16.133-20.918 34.182-29.702 53.484-0.28877 0.6343-0.57635 1.2698-0.86276 1.9066-9.411 20.924-16.96 41.88-23.29 62.101-6.3299 20.22-11.449 39.699-15.848 57.762-4.3712 17.961-7.9872 34.562-11.124 49.321-3.1363 14.759-5.7905 27.677-8.0504 38.315s-4.1201 18.996-5.5411 24.672c-1.421 5.6751-2.3975 8.6679-2.8498 8.5886-0.45228-0.079-0.35218-3.2251 0.23631-9.0455 0.58848-5.8203 1.6598-14.316 3.193-25.094 1.5332-10.777 3.523-23.838 6.0783-38.765 2.5553-14.928 5.6741-31.724 9.6534-49.932 3.9956-18.3 8.832-38.072 15.035-58.653 6.2026-20.581 13.78-41.969 23.387-63.368 0.29239-0.6512 0.5861-1.3012 0.88113-1.9499 8.9867-19.753 19.303-38.274 30.844-54.832 6.1949-8.8895 12.751-17.208 19.564-24.854 6.8127-7.6461 13.882-14.62 21.084-20.874 8.7429-7.5889 17.673-14.082 26.45-19.552 8.7767-5.4702 17.4-9.9188 25.581-13.495 9.5657-4.1779 18.491-7.17 26.416-9.3654 7.9248-2.1954 14.851-3.5959 20.531-4.5126 5.6795-0.9167 10.115-1.3516 13.13-1.5098 3.0154-0.1583 4.613-0.042 4.6572 0.2804z"/>
      <path id="path3899" style="color:#000000" d="m-283.33-1219.5c0.34854 0.192-0.30399 2.1429-1.7478 5.6873s-3.6752 8.6867-6.3391 15.326c-2.6639 6.6394-5.7576 14.78-8.8282 24.319-3.0707 9.539-6.1159 20.479-8.6243 32.658-2.241 10.86-4.051 22.702-5.2534 35.353-1.2025 12.651-1.7968 26.113-1.742 40.149 0.072 18.157 1.2258 37.288 3.0168 57.053 0.58859 6.4955 1.23 12.926 1.895 19.277 1.4712 14.028 3.0542 27.681 4.5201 40.847s2.8136 25.844 3.8995 37.907c0.33109 3.7214 0.31734 7.2764 0.25792 10.651-0.0782 4.9046-0.30336 9.6543-0.56648 14.247-0.72503 12.671-1.7455 24.314-2.7043 34.781-1.2573 13.732-2.4631 25.45-3.4339 34.766-0.58824 5.6457-1.0935 10.399-1.51 14.179-0.36998 3.3683-0.67697 5.9461-0.93509 7.6951-0.25813 1.7491-0.48878 2.6678-0.75619 2.6744-0.26741 0.007-0.56194-0.9033-0.81614-2.6761-0.25421-1.7728-0.44687-4.4115-0.55799-7.8106-0.12543-3.8291-0.14108-8.6472-0.0492-14.339 0.1515-9.3954 0.60579-21.199 1.1948-34.95 0.44944-10.495 1.0092-22.118 1.3285-34.661 0.11552-4.5488 0.20145-9.198 0.14937-13.929-0.0413-3.3136-0.0992-6.5742-0.46775-9.7252-1.3592-11.953-2.9324-24.549-4.5726-37.683-1.6402-13.133-3.3462-26.805-4.8846-40.914-0.69777-6.3893-1.3588-12.872-1.9532-19.434-1.8088-19.969-2.8514-39.433-2.699-57.976 0.11691-14.346 0.9769-28.13 2.5177-41.078s3.7613-25.059 6.4616-36.129c3.0336-12.417 6.6625-23.48 10.346-33.033 3.6834-9.553 7.4183-17.6 10.734-24.059 3.3161-6.4595 6.2105-11.336 8.3251-14.561 2.1146-3.2251 3.4461-4.8034 3.7946-4.6114z"/>
      <path id="path3903" style="color:#000000" d="m54.772-1587.5c0.30607-0.1033 1.0593 1.096 2.1386 3.5274 1.0794 2.4314 2.4816 6.0981 3.9484 10.949 1.4668 4.8514 2.9949 10.891 4.2366 18.035 1.2417 7.1445 2.194 15.397 2.4649 24.59h0.000001c0.24407 8.3579-0.06567 17.471-1.1063 27.165-1.0406 9.6941-2.8138 19.969-5.3917 30.597-2.1871 9.0211-4.9345 18.3-8.2258 27.742-3.2912 9.4416-7.1261 19.045-11.43 28.72-6.5763 14.788-14.248 29.766-22.711 44.768-1.8049 3.1994-3.6251 6.3648-5.4551 9.496-11.11 19.009-22.589 36.756-33.534 53.295-10.944 16.538-21.348 31.873-30.639 45.876-5.48 8.262-10.576 16.051-15.176 23.335-4.5999 7.2841-8.7053 14.063-12.292 20.257-3.4153 5.9059-6.3701 11.268-8.836 16.004-2.4659 4.7359-4.4485 8.8444-6.0225 12.212-1.574 3.3673-2.7452 5.9919-3.6033 7.751-0.85809 1.7592-1.4078 2.6514-1.6728 2.5699-0.26508-0.082-0.23526-1.1347 0.12644-3.0792 0.36169-1.9444 1.0601-4.7791 2.193-8.3888 1.1329-3.6096 2.7061-7.9928 4.7956-13.017 2.0896-5.0243 4.7011-10.688 7.8011-16.865 3.253-6.4897 7.0578-13.567 11.382-21.127 4.3243-7.5605 9.1694-15.604 14.413-24.069 8.8866-14.352 18.953-29.954 29.611-46.612s21.899-34.375 32.824-53.171c1.8008-3.0979 3.5937-6.2247 5.3735-9.38 8.3459-14.796 15.954-29.455 22.53-43.86 4.3012-9.4252 8.1692-18.737 11.53-27.864 3.361-9.1273 6.2147-18.07 8.5445-26.754 2.7418-10.224 4.7544-20.091 6.0935-29.408 1.3392-9.317 2.0064-18.085 2.1619-26.156 0.17358-8.8693-0.2737-16.895-0.98068-23.906-0.70698-7.0104-1.671-13.008-2.5627-17.894-0.89167-4.8853-1.7078-8.6614-2.1948-11.248-0.4869-2.5867-0.6409-3.9871-0.33483-4.0904z"/>
      <path id="path3911" style="color:#000000" d="m-104.55-1170.9c0.29365-0.1283 1.0553 0.8031 2.1826 2.7455s2.6179 4.8985 4.2609 8.8446 3.4362 8.8852 5.0952 14.775c1.659 5.8901 3.1817 12.734 4.2437 20.427h0.000002c0.95849 6.9577 1.5462 14.591 1.6158 22.776 0.06959 8.1854-0.38027 16.923-1.4152 26.043-0.87328 7.7051-2.1474 15.684-3.8065 23.865-1.6591 8.1809-3.7032 16.564-6.0688 25.077-3.9366 14.176-8.7638 28.735-14.093 43.518-0.57929 1.6068-1.1608 3.2067-1.7437 4.7995-6.2831 17.18-12.761 33.545-18.623 49.03-5.8621 15.485-11.102 30.095-15.355 43.642-2.5571 8.1485-4.7577 15.9-6.5474 23.176s-3.1698 14.076-4.1886 20.316c-1.0459 6.4183-1.7098 12.243-2.1096 17.352-0.39988 5.1082-0.54014 9.501-0.59445 13.089-0.0543 3.5879-0.0275 6.3724-0.0792 8.273s-0.18632 2.9183-0.47925 2.961c-0.29293 0.0426-0.73263-0.89263-1.243-2.7508-0.51039-1.8582-1.0873-4.6408-1.5646-8.2864-0.47723-3.6455-0.85-8.1556-0.92979-13.436-0.0798-5.2808 0.13786-11.334 0.79352-18.008 0.63486-6.4832 1.6669-13.558 3.1478-21.108 1.4808-7.5503 3.412-15.576 5.7415-23.958 3.8684-13.926 8.8136-28.877 14.456-44.565 5.6423-15.688 11.974-32.113 18.185-49.155 0.57615-1.582 1.1516-3.1695 1.7256-4.7624 5.2812-14.655 10.128-28.951 14.155-42.784 2.417-8.3082 4.5479-16.446 6.3279-24.361 1.78-7.9153 3.209-15.608 4.2694-23.026 1.253-8.7742 1.9896-17.166 2.2578-25.036 0.26817-7.871 0.06901-15.222-0.46745-21.956h-0.000001c-0.5901-7.4375-1.5932-14.121-2.7124-19.94-1.1193-5.8192-2.3528-10.777-3.4316-14.814-1.0788-4.0365-2.0005-7.155-2.5561-9.3038-0.55554-2.1488-0.74214-3.3305-0.44849-3.4588z"/>
      <path id="path3915" style="color:#000000" fill="#520" d="m-223.61-1181.7c0.31088-0.1456 0.79953 0.1175 1.4627 0.7202 0.66316 0.6026 1.5019 1.5465 2.5498 2.7291 1.0479 1.1827 2.3051 2.6064 3.8327 4.1021s3.3253 3.065 5.483 4.4406h0.00001c1.6128 1.0427 3.442 1.9828 5.4492 2.7018 2.0072 0.7191 4.1926 1.2173 6.4663 1.3512 3.7421 0.2619 7.8738-0.444 11.934-2.0243 3.8663-1.5158 7.6503-3.8838 11.069-6.9147 0.31561-0.2816 0.62777-0.5687 0.93619-0.8614 3.057-2.9004 5.5852-6.188 7.4817-9.6278 2.2662-4.128 3.6477-8.4605 4.0839-12.561 0.28164-2.5184 0.21017-4.989-0.1066-7.3092-0.31677-2.3203-0.87886-4.4905-1.5836-6.4577h-0.00001c-0.8851-2.5137-2.0114-4.7176-3.123-6.6287-1.1115-1.9112-2.2096-3.5301-3.1225-4.876-0.9129-1.346-1.6423-2.4201-2.0777-3.2319-0.43541-0.8118-0.57783-1.3632-0.35646-1.6327s0.79692-0.2448 1.689 0.09c0.89206 0.3347 2.1018 0.9801 3.5386 1.997s3.1023 2.4066 4.8296 4.2597 3.5176 4.1712 5.1043 7.0535h0.00001c1.2444 2.2878 2.3164 4.9108 3.0559 7.8206 0.73948 2.9098 1.1456 6.1069 1.0518 9.4824-0.17104 5.4327-1.5988 11.179-4.3447 16.552-2.27 4.4578-5.389 8.682-9.2397 12.329-0.3885 0.368-0.78235 0.7283-1.1812 1.0806-4.298 3.8164-9.2371 6.7189-14.364 8.5132-5.4276 1.9118-11.099 2.4366-16.276 1.6748-3.1935-0.4935-6.1039-1.4802-8.6598-2.7509s-4.7579-2.8249-6.5954-4.4829c-2.387-2.1818-4.1525-4.4348-5.4839-6.5152s-2.2296-3.9903-2.8326-5.5915c-0.60309-1.6012-0.91142-2.8961-1.006-3.8169-0.0945-0.9207 0.0248-1.469 0.33564-1.6146z"/>
      <path id="path3919" style="color:#000000" fill="#803300" d="m-183.02-975.32c0.59309 0.35263-0.38229 3.2922-2.6952 8.2893-2.3129 4.9972-5.9726 12.046-10.722 20.611-4.749 8.5648-10.591 18.641-17.138 29.761-6.5463 11.12-13.792 23.283-21.221 36.118-0.3849 0.66504-0.76839 1.3287-1.1504 1.9908-7.2707 12.615-14.001 24.719-19.836 35.837-5.8345 11.118-10.775 21.25-14.769 29.832-3.9937 8.5818-7.056 15.61-9.3041 20.443-2.2481 4.8337-3.7057 7.4657-4.3567 7.2655-0.65097-0.20022-0.43274-3.2203 0.71548-8.4896s3.2505-12.781 6.4729-21.863c3.2224-9.0826 7.5796-19.73 13.043-31.275s12.034-23.985 19.37-36.739c0.38474-0.66961 0.77152-1.3402 1.1603-2.0118 7.5032-12.961 15.032-25.052 22.028-35.938 6.9958-10.885 13.456-20.568 18.966-28.643 5.5104-8.0748 10.077-14.541 13.407-18.909 3.3306-4.3683 5.435-6.6336 6.0281-6.281z"/>
      <path id="path3923" style="color:#000000" d="m-306.87-783.22c0.45601 0.0588 0.65101 1.9542 0.66802 5.4431 0.017 3.4889-0.14147 8.5724-0.30576 15.016-0.32857 12.887-0.70045 31.238 0.78992 53.03 0.75037 10.911 1.9612 22.688 3.994 34.955s4.8916 25.021 8.9676 37.832c0.0472 0.14831 0.0945 0.29652 0.14195 0.44462 3.9519 12.305 8.8308 23.914 14.472 34.345 5.6414 10.431 12.046 19.682 18.861 27.568 8.6462 10.033 17.871 17.837 26.328 23.708 4.8916 3.399 9.5331 6.169 13.695 8.4599 4.1624 2.2909 7.8465 4.1039 10.877 5.564 3.0307 1.4601 5.4088 2.5688 6.9986 3.4067s2.3918 1.4068 2.2971 1.7188-1.0826 0.35325-2.8833 0.0963-4.4148-0.81362-7.7275-1.7698c-3.3126-0.95613-7.3248-2.3132-11.873-4.2209-4.5487-1.9077-9.6349-4.3674-15.033-7.5576-4.6643-2.7591-9.5476-6.0633-14.472-9.9795-4.9245-3.9162-9.8899-8.4452-14.694-13.612-7.5477-8.1374-14.641-17.788-20.822-28.704-6.1802-10.916-11.445-23.093-15.549-35.977-0.0494-0.15467-0.0986-0.30945-0.14771-0.46432-4.2402-13.378-7.093-26.659-8.9653-39.368-1.8724-12.71-2.7695-24.846-3.0874-36.028-0.64344-22.334 0.98746-40.951 2.8044-53.865 0.90846-6.4566 1.8689-11.497 2.6947-14.907 0.82576-3.4105 1.5144-5.1926 1.9704-5.1338z"/>
      <path id="path3927" style="color:#000000" d="m-245.4-639.02c0.65381-0.22052 1.7416 0.9445 3.1442 3.2454 1.4026 2.3008 3.112 5.7421 5.0572 10.014 1.9452 4.2716 4.1215 9.3724 6.6107 14.904 2.4892 5.532 5.2953 11.488 8.6602 17.448 0.42942 0.76057 0.86293 1.5121 1.3006 2.2542 4.061 6.925 8.5913 12.918 13.03 17.713 4.9416 5.3645 9.745 9.3818 13.09 12.352 3.3452 2.9699 5.2399 4.9109 4.8006 5.7217-0.21967 0.4054-1.0044 0.4935-2.2815 0.26236-1.2771-0.23113-3.0469-0.78229-5.2044-1.6956-2.1575-0.91337-4.7033-2.1899-7.492-3.8989s-5.8204-3.8516-8.9039-6.5067c-2.7651-2.3919-5.5366-5.1845-8.1823-8.3463s-5.165-6.6924-7.4483-10.512c-0.48039-0.80748-0.95214-1.6254-1.415-2.453-3.6268-6.4852-6.3665-12.944-8.4986-18.903-2.1321-5.9593-3.6649-11.421-4.7711-16.039-1.1062-4.6188-1.7845-8.4001-2.0475-11.079-0.26296-2.6792-0.10258-4.2608 0.55123-4.4813z"/>
      <path id="path3931" style="color:#000000" d="m-215.39-648.44c0.65533-0.21598 1.6653 0.77127 2.9664 2.7033 1.301 1.9321 2.8988 4.8069 4.7675 8.3799 1.8688 3.573 4.0124 7.844 6.3695 12.601 2.3571 4.7565 4.9286 9.9996 7.5823 15.542 0.48437 1.0116 0.96296 2.0159 1.4348 3.0116v0.00001c4.9308 10.393 9.184 19.792 11.912 26.773 2.7279 6.9806 3.9135 11.549 2.7614 12.187-1.152 0.63831-4.4387-2.7748-8.7708-8.9663s-9.6947-15.174-14.876-25.644c-0.49519-0.99938-0.98946-2.0126-1.4815-3.0385-2.6958-5.6208-5.0648-11.097-7.0063-16.173-1.9415-5.0755-3.4555-9.7485-4.5157-13.741s-1.67-7.3023-1.8531-9.6593c-0.18315-2.357 0.0545-3.7595 0.70986-3.9755z"/>
      <path id="path3935" style="color:#000000" d="m-188.4-653.05c0.67767-0.12986 1.4782 0.64776 2.4317 2.0591 0.95355 1.4114 2.0742 3.4532 3.4815 5.9056s3.1101 5.3166 5.1399 8.4409 4.3875 6.5121 6.9422 10.044c0.30002 0.41484 0.59925 0.82709 0.89728 1.2366h0.00001c2.4705 3.3602 4.9288 6.545 7.1346 9.5241 2.2057 2.9792 4.1545 5.7509 5.6693 8.1895 1.5148 2.4387 2.5966 4.5397 3.1573 6.1322 0.56072 1.5924 0.60587 2.6722 0.0847 3.0928-0.52114 0.42067-1.5575 0.14809-3.0001-0.67792-1.4426-0.826-3.2966-2.2009-5.4694-4.0263s-4.669-4.1012-7.3332-6.8064-5.4971-5.8445-8.237-9.439c-0.3324-0.43195-0.6632-0.87078-0.99179-1.3163-2.798-3.7939-5.1566-7.7245-6.9341-11.486-1.7776-3.7616-2.9747-7.3479-3.6487-10.432-0.67393-3.0836-0.83361-5.6594-0.66196-7.467 0.17164-1.8076 0.66013-2.8449 1.3378-2.9748z"/>
      <path id="path3939" style="color:#000000" d="m-161.77-794.56c0.12862-0.46345 1.5236-0.54287 4.0021-0.382s6.0438 0.55492 10.545 0.92609c4.5008 0.37118 9.9405 0.71382 16.147 0.75621 6.2065 0.0424 13.182-0.21917 20.692-1.0015 6.5344-0.68024 13.476-1.7504 20.687-3.2661 7.2104-1.5157 14.689-3.4767 22.287-5.8609 1.8038-0.56602 3.5898-1.1479 5.3566-1.7431 0.000002 0 0.000005-0.00001 0.000007-0.00001 11.854-3.9947 22.83-8.5662 32.624-13.128 9.7947-4.5616 18.41-9.1056 25.593-13.031 7.1831-3.9254 12.938-7.2274 17.014-9.381s6.4802-3.1542 6.8735-2.6177c0.39327 0.53648-1.2619 2.5637-4.7096 5.6971-3.4476 3.1334-8.6955 7.3688-15.555 12.147-6.8591 4.7787-15.336 10.096-25.201 15.284-9.8646 5.1881-21.121 10.239-33.42 14.478h-0.000007c-1.8368 0.63321-3.6975 1.2471-5.5804 1.8388-7.9314 2.4926-15.803 4.4429-23.416 5.8366-7.6134 1.3937-14.968 2.2308-21.877 2.5822-7.9555 0.40447-15.307 0.13815-21.781-0.53137-6.4731-0.66952-12.069-1.7374-16.608-2.8887-4.5391-1.1513-8.0249-2.3798-10.34-3.4066-2.3154-1.0267-3.4642-1.845-3.3356-2.3084z"/>
      <path id="path3943" style="color:#000000" d="m21.513-826.3c0.18174 0.004 0.36015 0.32546 0.49599 0.96515 0.13584 0.63968 0.22715 1.5988 0.17671 2.8574-0.05045 1.2585-0.24548 2.818-0.70408 4.617-0.45859 1.799-1.184 3.8391-2.2708 5.9934-1.0844 2.1566-2.4945 4.4412-4.2533 6.7701s-3.8684 4.7011-6.2659 7.0472c-4.3411 4.2597-9.6237 8.5906-15.758 12.812-6.134 4.2211-13.123 8.3271-20.609 12.391-7.0343 3.8354-14.604 7.6554-22.6 11.46-7.996 3.805-16.418 7.5952-25.121 11.442-10.565 4.6724-21.576 9.3999-32.781 14.368-5.4366 2.4107-10.782 4.8201-16.011 7.2468-0.57061 0.25397-1.1082 0.70483-1.4413 1.2124-0.44507 0.57297-0.73473 1.5152-1.0219 2.635-0.67783 2.7692-0.51091 6.0926-0.49377 9.7454 0.10005 3.4742 0.21626 7.4477-0.65719 11.68-0.34992 1.8194-1.1286 3.8078-2.4884 5.7405-1.4928 1.954-3.4639 3.326-5.6583 4.038-5.3632 1.6194-10.435 1.4305-14.808 0.92579-5.7921-0.56297-11.188-1.6323-16.26-2.6842-5.306-1.0921-10.255-2.2219-14.946-2.9875-1.9239-0.25742-3.6866-0.57157-5.2706-0.72189-1.584-0.15033-2.9894-0.13693-4.2091 0.21021-0.00002 0-0.00003 0.00001-0.00004 0.00001-1.8852 0.26944-3.2504-0.0348-4.0212-0.71786-1.039-0.74697-1.7096-1.4795-2.1047-2.0845-1.4163-1.9601-2.3132-3.8903-3.041-5.6053-1.281-2.933-2.3266-5.7562-3.2486-8.4292-0.92201-2.673-1.72-5.196-2.4608-7.5464-1.0474-3.309-1.9397-6.3041-2.7468-8.9572-0.80707-2.653-1.5262-4.9652-2.1494-6.9274-0.36014-1.1206-0.66659-2.1086-0.95726-2.966-0.29067-0.85741-0.56361-1.5853-0.80907-2.1978-0.26305-0.6281-0.43933-1.0758-0.62441-1.4021-0.0961-0.16411-0.15522-0.28736-0.22045-0.37942-0.0542-0.0816-0.1082-0.15489-0.15819-0.21317-0.05-0.0583-0.0962-0.1074-0.10985-0.16647-0.0137-0.0591 0.008-0.13024 0.0971-0.19344 0.0887-0.0632 0.24959-0.11745 0.45052-0.0918 0.20323 0.0208 0.45339 0.10372 0.68171 0.2375 0.44081 0.24836 0.95035 0.70508 1.4187 1.259 0.47304 0.54864 0.98465 1.2386 1.5102 2.0613 0.52556 0.82274 1.0633 1.7796 1.6204 2.8241 0.99542 1.8584 2.0836 4.0866 3.2441 6.649 1.1605 2.5623 2.3905 5.4598 3.7388 8.6166 0.97312 2.2754 1.9833 4.695 3.0831 7.2069s2.2888 5.1163 3.6623 7.7384c0.85059 1.588 1.621 3.0719 2.5755 4.1576 0.32446 0.31952 0.44368 0.4956 0.40611 0.39044-0.10522-0.25641-0.64801-0.27774-1.7638-0.22136h-0.00003c2.1847-0.59561 4.3675-0.80854 6.4736-0.79376 2.1061 0.0148 4.1354 0.25739 6.001 0.5227 5.0522 0.57835 10.203 1.5135 15.434 2.3863 5.0689 0.83913 10.223 1.6922 15.44 2.0293 4.1132 0.18913 8.0228 0.38706 11.104-0.81452 0.42574-0.1633 0.83858-0.45148 1.0017-0.75211 0.32582-0.3624 0.52408-1.1421 0.77833-2.1413 0.58731-2.5824 0.33414-5.7683 0.26843-9.4537-0.14945-3.5429-0.29515-7.6001 0.57463-12.041 0.36805-1.9327 1.1198-4.0134 2.4233-6.0621 1.3656-2.0394 3.2425-3.6642 5.4685-4.7193 5.2892-2.4965 10.689-4.9523 16.171-7.3838 11.299-5.0112 22.363-9.6699 32.95-14.177 8.7382-3.7222 17.164-7.3141 25.155-10.863 7.9903-3.5487 15.545-7.0547 22.577-10.536 7.5192-3.7411 14.457-7.3616 20.552-11.034 6.0951-3.6723 11.352-7.3926 15.756-11.06 2.4115-2.0137 4.5508-3.9916 6.3727-5.924s3.3287-3.8187 4.553-5.6149c1.2077-1.7739 2.1389-3.4632 2.8489-4.9746 0.71004-1.5114 1.2023-2.8463 1.5714-3.9464 0.36907-1.1 0.61802-1.9662 0.83171-2.5552 0.21369-0.58903 0.3945-0.90133 0.57624-0.89721z"/>
      <path id="path3947" style="color:#000000" d="m-269.03-648.4c-0.18352-0.32646-0.0295-0.82286 0.36521-1.4807 0.39473-0.6578 1.0268-1.4811 1.8002-2.5173 0.77338-1.0362 1.6858-2.2902 2.6853-3.7964 0.99952-1.5062 2.0853-3.2688 3.2738-5.2402 1.438-2.4523 2.9294-5.2351 4.3999-8.3261 1.4705-3.0911 2.9202-6.4913 4.3307-10.126 0.98831-2.5586 1.9475-5.2232 2.8588-7.9738 1.9144-5.7786 3.4323-11.393 4.6428-16.564 1.2105-5.1718 2.1165-9.9001 2.8671-13.907s1.3505-7.2931 1.9531-9.5851c0.60252-2.292 1.215-3.5914 1.9048-3.6084 0.68979-0.017 1.393 1.255 1.9875 3.6151s1.0729 5.8109 1.2096 10.1c0.13668 4.2895-0.075 9.4186-0.85881 15.057-0.78385 5.6384-2.1452 11.784-4.2165 18.036-0.98595 2.9761-2.0866 5.8414-3.271 8.5643h-0.00001c-1.6773 3.8707-3.5537 7.4811-5.5464 10.704-1.9927 3.223-4.1004 6.0579-6.1835 8.4405-1.6366 1.9078-3.3221 3.5716-4.9343 4.8934s-3.1482 2.305-4.4784 2.9672c-1.3302 0.66224-2.4521 1.0084-3.2715 1.11-0.81935 0.10171-1.3347-0.036-1.5183-0.36249z"/>
      <path id="path3951" style="color:#000000" fill="#803300" d="m-77.473-1214.3c0.24786-0.2101 1.1305 0.3222 2.548 1.5936 1.4175 1.2713 3.3688 3.2853 5.6536 6.0917 2.2848 2.8065 4.9023 6.4093 7.5671 10.857 2.6647 4.4475 5.3757 9.7432 7.7762 15.879h0.000003c2.1794 5.5806 4.1022 11.83 5.5759 18.657s2.4969 14.232 2.9391 22.049c0.37933 6.6816 0.35542 13.661-0.0943 20.851-0.44972 7.1904-1.3253 14.592-2.604 22.105-1.8334 10.79-4.4852 21.834-7.8599 32.932-1.0142 3.3357-2.0778 6.6266-3.1814 9.8694-5.1315 15.078-11.097 29.155-17.318 42.003-6.2217 12.848-12.695 24.468-18.886 34.693-7.1871 11.876-14.039 21.881-19.903 29.748-5.1962 6.9719-9.6254 12.283-12.852 15.747-3.2267 3.4638-5.2254 5.1044-5.6331 4.777-0.40763-0.32738 0.80071-2.5944 3.2432-6.5926s6.0923-9.7498 10.57-17.089c5.0458-8.2725 11.123-18.552 17.634-30.569 5.6066-10.354 11.557-21.981 17.348-34.698 5.7909-12.717 11.418-26.524 16.343-41.213 1.0583-3.1566 2.0833-6.3526 3.0663-9.5851 3.2707-10.756 5.9044-21.381 7.8031-31.722 1.32-7.2006 2.2922-14.26 2.8876-21.1 0.59533-6.8406 0.81364-13.462 0.66902-19.803-0.17034-7.4066-0.83504-14.429-1.8969-20.932-1.0619-6.5025-2.5199-12.486-4.2127-17.882h-0.000003c-1.8546-5.9257-3.9946-11.144-6.0958-15.625-2.1012-4.4813-4.1629-8.2293-5.9132-11.264-1.7503-3.0349-3.1881-5.3602-4.1063-6.9924-0.91821-1.6322-1.3151-2.5746-1.0673-2.7847z"/>
      <path id="path3955" style="color:#000000" d="m-134.45-698.24c0.42148-0.074 1.4699 3.5309 3.238 10.368 0.88407 3.4188 1.9544 7.6481 3.0511 12.683 1.0967 5.0346 2.2328 10.873 2.9036 17.578 0.64745 6.5459 0.75916 13.87-0.0932 21.777-0.89899 8.2942-2.8268 17.157-5.6742 26.346-3.9971 12.934-8.6258 27.016-13.79 42.082-5.1646 15.066-10.866 31.115-16.873 48.027-5.6934 16.032-11.682 32.848-17.814 50.339-6.1318 17.49-12.406 35.656-18.631 54.402-5.4083 16.291-10.797 33.026-16.026 50.129-7.8186 25.572-14.854 50.624-20.886 74.842-6.0323 24.218-11.06 47.604-15.046 69.822v0.00003c-3.3233 18.517-5.9164 36.211-7.8106 52.843-1.8941 16.632-3.0908 32.203-3.7397 46.492-0.67992 14.989-0.75785 28.567-0.49448 40.474 0.26336 11.907 0.86226 22.146 1.4789 30.506 0.61661 8.3597 1.2441 14.843 1.6027 19.254s0.44164 6.7518 0.10962 6.8085c-0.33202 0.05672-1.0641-2.1742-2.0545-6.5085-0.99041-4.3344-2.2327-10.774-3.4402-19.141-1.2076-8.3667-2.3737-18.662-3.1679-30.677-0.79421-12.014-1.2106-25.749-0.97114-40.928 0.22755-14.47 1.0445-30.254 2.6093-47.114s3.879-34.795 6.9818-53.544v-0.00002c3.7231-22.491 8.5602-46.151 14.479-70.611 5.9189-24.46 12.918-49.722 20.782-75.444 5.2594-17.203 10.713-34.009 16.219-50.341 6.3354-18.8 12.757-36.978 19.07-54.447 6.3131-17.468 12.517-34.227 18.459-50.174 6.27-16.832 12.263-32.746 17.75-47.646 5.4873-14.901 10.47-28.788 14.855-41.52 3.0219-8.7837 5.178-17.165 6.3459-25 1.115-7.4454 1.3362-14.417 1.0517-20.707-0.28533-6.463-1.0459-12.236-1.7648-17.275-0.71892-5.039-1.4091-9.3419-1.9045-12.843-0.49544-3.5009-0.80774-6.1987-0.93545-8.0278s-0.0786-2.7891 0.13219-2.8261z"/>
      <path id="path3959" style="color:#000000" d="m166.88-21.388c-0.15675-0.05278-0.0682-0.80213 0.2025-2.2191 0.27074-1.417 0.71953-3.5028 1.221-6.2502 0.50142-2.7475 1.0494-6.1587 1.534-10.223 0.48463-4.0645 0.8988-8.7849 1.2484-14.111 0.36743-5.6683 0.63113-12.022 0.74677-19.026 0.11564-7.0038 0.0808-14.658-0.0627-22.92-0.24806-14.185-0.87594-30.141-1.6686-47.685-0.69528-15.379-1.5242-31.974-2.1579-49.672 0-0.00001-0.00001-0.00002-0.00001-0.00003-0.54394-15.173-0.96276-31.173-0.7406-47.912 0.17791-13.661 0.74335-27.883 2.623-42.485 1.3915-11.006 3.512-22.501 8.1415-33.63 1.7833-4.2908 4.0589-8.5641 7.0858-12.506 2.5626-3.3816 5.7942-6.4335 9.7016-8.7296 17.796-12.384 35.932-25.533 53.743-39.851s35.294-29.808 51.667-46.967c0.98102-1.0281 1.9559-2.06 2.9246-3.0957 13.151-14.048 25.055-28.813 34.916-44.412 9.1486-14.474 16.533-29.669 21.504-45.232 4.991-15.6 7.5531-31.592 7.837-47.195 0.32916-17.504-2.1569-34.548-6.2573-50.54-3.0542-11.922-6.9427-23.243-11.335-33.994-4.3918-10.751-9.287-20.933-14.411-30.574-5.1236-9.6404-10.476-18.739-15.838-27.319-5.3624-8.5796-10.735-16.64-15.955-24.198-5.6217-10.538-10.828-20.424-15.419-29.642-4.5908-9.2185-8.5694-17.768-11.902-25.567-3.2293-7.5444-5.8886-14.427-7.9008-20.493s-3.3907-11.314-4.2973-15.6c-0.90667-4.2866-1.3537-7.6111-1.5474-9.861-0.19371-2.2499-0.14282-3.4247 0.0618-3.4545 0.2046-0.0298 0.55701 1.0852 1.1396 3.2429 0.58258 2.1577 1.404 5.3565 2.6646 9.4748 1.2606 4.1182 2.9726 9.1543 5.2956 14.99 2.3229 5.8359 5.2702 12.47 8.7665 19.812 3.5955 7.5366 7.812 15.806 12.626 24.75 4.8136 8.944 10.228 18.561 16.057 28.874 5.461 7.4736 11.077 15.479 16.684 24.045 5.6075 8.5666 11.207 17.695 16.58 27.42 5.3733 9.7253 10.521 20.048 15.167 31.008 4.6468 10.96 8.7928 22.558 12.107 34.838 4.4723 16.586 7.2406 34.412 7.0645 52.92-0.16675 16.511-2.7555 33.444-7.9485 49.991-5.182 16.483-12.852 32.479-22.361 47.591-10.235 16.269-22.506 31.563-36 45.962-0.99598 1.0618-1.9981 2.1193-3.0062 3.1727-16.825 17.581-34.714 33.375-52.88 47.881-18.165 14.506-36.604 27.727-54.654 40.081-2.767 1.5538-5.2157 3.8565-7.3332 6.4834-2.4137 3.0433-4.3113 6.6005-5.936 10.346-4.2548 9.8215-6.2746 20.53-7.7903 31.181-1.9679 14.059-2.676 27.954-3.0391 41.452-0.44049 16.519-0.26568 32.402 0.0119 47.53v0.00003c0.32433 17.638 0.81803 34.24 1.1542 49.656 0.38385 17.581 0.56998 33.632 0.34817 47.909-0.1282 8.3091-0.37891 16.031-0.78998 23.099-0.41106 7.0681-0.98004 13.483-1.6596 19.195-0.63294 5.3541-1.354 10.121-2.1512 14.212-0.79719 4.0912-1.6634 7.5096-2.4809 10.232-0.81746 2.7224-1.5802 4.7512-2.1629 6.0875-0.58268 1.3363-0.98139 1.9819-1.1381 1.9291z"/>
      <path id="path3963" style="color:#000000" fill="#000080" d="m18.991-815.81c-0.17228-0.43456 1.0857-1.435 3.6448-2.8464s6.4227-3.228 11.475-5.1844c5.0528-1.9564 11.298-4.0475 18.582-5.9792 7.2843-1.9317 15.61-3.7 24.752-5.0518 8.6999-1.2863 18.126-2.2089 28.067-2.6919 9.9412-0.48305 20.396-0.52709 31.133-0.17177 0.46056 0.0152 0.92045 0.0312 1.3796 0.0477 16.484 0.59407 32.063 2.0118 46.164 3.5362 14.1 1.5243 26.727 3.1467 37.314 4.538 10.588 1.3913 19.139 2.5651 25.047 3.5405 5.9079 0.97547 9.1706 1.7786 9.136 2.463-0.0347 0.68435-3.3692 1.1855-9.3838 1.3951s-14.708 0.10161-25.419-0.39253c-10.711-0.49415-23.437-1.3876-37.517-2.3981s-29.512-2.1288-45.694-2.689c-0.45094-0.0156-0.90248-0.0307-1.3546-0.0454-10.54-0.34302-20.751-0.41787-30.443-0.16604s-18.865 0.83109-27.352 1.685c-8.9103 0.89612-17.068 2.0968-24.274 3.3891-7.2066 1.2922-13.465 2.6726-18.624 3.878-5.1589 1.2054-9.2218 2.2309-12.047 2.8257-2.8247 0.59478-4.4145 0.75287-4.5868 0.31831z"/>
      <path id="path3967" style="color:#000000" fill="#00f" d="m272.68-825.07c-0.24639-0.64451 0.66971-1.7044 2.5658-3.0456s4.7738-2.962 8.452-4.6827c7.3565-3.4415 17.955-7.2656 30.053-9.9208 6.0493-1.3276 11.891-2.2378 17.234-2.7732 5.3431-0.53545 10.186-0.69809 14.254-0.59406 4.0683 0.10403 7.3613 0.4709 9.6335 0.97451 2.2722 0.50362 3.5239 1.1387 3.5408 1.8285 0.017 0.68979-1.1987 1.3692-3.3802 2.057-2.1814 0.6878-5.3283 1.3892-9.1915 2.1729-3.8632 0.78368-8.443 1.6532-13.508 2.6605-5.0653 1.0073-10.616 2.1538-16.436 3.4362-11.64 2.5647-22.169 5.1974-29.935 6.8635-7.7666 1.666-12.79 2.3124-13.282 1.0234z"/>
      <path id="path3971" style="color:#000000" d="m371.48-505.48c0.0637-0.47932 1.3039-0.80259 3.5907-0.88049s5.6254 0.0921 9.815 0.76774c4.1896 0.67566 9.2358 1.8601 14.783 3.9391 5.547 2.079 11.597 5.0575 17.582 9.3892 5.1095 3.7364 10.026 8.4671 14.296 14.118 4.2703 5.6513 7.8902 12.222 10.417 19.434 0.004 0.0121 0.008 0.0242 0.0127 0.0363 2.5916 7.4702 3.9276 15.021 4.3547 22.241 0.42711 7.2192-0.0504 14.104-1.0587 20.372-1.1088 6.9332-2.8262 13.142-4.7362 18.495-1.91 5.3531-4.0102 9.8526-5.9526 13.438-1.9424 3.585-3.7254 6.259-5.0984 7.9859s-2.3345 2.5103-2.7523 2.2839c-0.41783-0.2264-0.26635-1.4468 0.31053-3.5327 0.57687-2.0859 1.5771-5.0411 2.7613-8.7778 1.1842-3.7368 2.5512-8.2581 3.7881-13.466 1.237-5.2078 2.3423-11.104 2.9497-17.547 0.54181-5.8134 0.68582-12.086 0.12393-18.553-0.56188-6.4677-1.8319-13.128-4.1293-19.638-0.004-0.0104-0.007-0.0209-0.011-0.0313-2.184-6.2359-5.2344-11.975-8.8021-16.995-3.5677-5.0204-7.6507-9.32-11.913-12.833-4.9885-4.1573-10.193-7.2653-15.056-9.6933-4.8631-2.428-9.3855-4.1776-13.18-5.5418-3.7942-1.3642-6.8647-2.3445-8.9549-3.1356-2.0902-0.79101-3.2054-1.3963-3.1417-1.8756z"/>
      <path id="path3975" style="color:#000000" d="m192.83-346.9c-0.45928 0.51494-2.3042-0.25515-5.2576-2.0637-2.9533-1.8085-7.014-4.6584-11.941-8.2394-4.9275-3.581-10.721-7.8926-17.196-12.537-6.475-4.6448-13.633-9.6172-21.347-14.478-0.67408-0.42472-1.3469-0.84509-2.0182-1.261-7.4942-4.6419-14.848-8.676-21.671-12.031-6.8227-3.3549-13.113-6.0339-18.46-8.1586-5.3474-2.1247-9.7516-3.7065-12.79-4.9493-3.0387-1.2428-4.7101-2.164-4.5935-2.8288 0.11655-0.66479 2.0179-1.0111 5.3828-0.8975s8.1924 0.70481 14.051 2.0448 12.745 3.4414 20.145 6.4735c7.3995 3.0322 15.307 6.9997 23.184 11.841h0.00001c0.70179 0.43129 1.4037 0.8687 2.1054 1.3121 8.0304 5.0743 15.277 10.451 21.614 15.62 6.3366 5.1694 11.768 10.129 16.168 14.449 4.4009 4.3208 7.7733 8.0046 9.9444 10.721 2.1711 2.716 3.1399 4.4673 2.6806 4.9823z"/>
      <path id="path3979" style="color:#000000" d="m176.66-302.71c-0.19662 0.28349-1.5832-0.27483-4.0548-1.5652s-6.0293-3.3115-10.597-5.9124c-9.1345-5.2018-22.313-12.723-39.019-21.16-16.706-8.4366-36.962-17.762-60.033-26.718-23.071-8.9564-48.961-17.532-76.538-24.908-2.0652-0.55241-4.1251-1.0944-6.1791-1.6262-18.668-4.8261-36.882-8.7511-54.216-11.796-17.333-3.0453-33.785-5.2118-48.944-6.6727-14.27-1.3722-27.394-2.1328-39.023-2.4547-11.629-0.32194-21.765-0.21189-30.111 0.0237-8.3459 0.23555-14.904 0.58684-19.397 0.73825-4.4921 0.15142-6.92 0.0922-6.9837-0.3454-0.0637-0.43757 2.2426-1.2274 6.6658-2.1927 4.4232-0.96525 10.966-2.0953 19.367-3.0578 8.4008-0.96259 18.662-1.7478 30.471-2.0249 11.809-0.27707 25.168-0.039 39.688 0.91537 15.43 1.011 32.194 2.8331 49.845 5.6592 17.65 2.8261 36.185 6.6575 55.132 11.529 2.0832 0.53488 4.1722 1.0818 6.2663 1.6408 27.962 7.4653 54.163 16.444 77.381 26.011 23.219 9.5667 43.456 19.705 59.943 29.053 16.487 9.3476 29.245 17.875 37.796 24.122 4.2758 3.1236 7.503 5.6782 9.6174 7.5123s3.1174 2.9462 2.9207 3.2297z"/>
      <path id="path3983" style="color:#000000" d="m-132.34-624.77c0.068-0.44592 1.702-0.6283 4.6946-0.63842 2.9926-0.0101 7.3447 0.14551 12.868 0.30895 5.5236 0.16345 12.22 0.3288 19.903 0.36667 7.6835 0.0379 16.355-0.0554 25.814-0.30768 10.013-0.27017 20.897-0.74051 32.414-1.4806 11.517-0.74005 23.667-1.7502 36.205-3.0423 0.91387-0.0942 1.8255-0.18938 2.7347-0.28557 12.886-1.3646 25.285-2.9277 36.934-4.6356s22.549-3.5603 32.459-5.428c8.7331-1.6503 16.693-3.2805 23.704-4.8487 7.0109-1.5682 13.075-3.0704 18.062-4.3462 4.987-1.2759 8.9-2.319 11.615-2.93 2.715-0.61103 4.2345-0.783 4.3974-0.38018 0.16289 0.40282-1.0424 1.3573-3.4968 2.7287s-6.1613 3.1529-11.008 5.1332c-4.8471 1.9803-10.837 4.1527-17.819 6.3305-6.9819 2.1778-14.957 4.3566-23.705 6.4591-9.9473 2.3952-20.939 4.679-32.711 6.695-11.773 2.016-24.326 3.7637-37.371 5.1638-0.92053 0.0989-1.8436 0.1961-2.7691 0.29155-12.698 1.3096-25.028 2.1984-36.719 2.6962-11.691 0.49777-22.743 0.60489-32.894 0.41055-9.5764-0.18069-18.375-0.6194-26.153-1.2643-7.7784-0.64493-14.537-1.4922-20.07-2.3912-5.5332-0.89899-9.8418-1.8437-12.747-2.6604-2.9055-0.8167-4.4093-1.499-4.3413-1.9449z"/>
      <path id="path3987" style="color:#000000" d="m-133.02-652.67c-0.0674-0.6867 2.2059-1.5411 6.2966-2.6768 4.0907-1.1356 9.9984-2.573 17.2-4.5878 7.2012-2.0147 15.696-4.6201 24.959-7.996 9.2627-3.376 19.292-7.5266 29.567-12.406 0.30193-0.14337 0.60323-0.28696 0.9039-0.43075 10.157-4.8654 19.597-9.9736 28.021-14.911 8.4243-4.9376 15.835-9.7 22.017-13.794 6.1826-4.0938 11.144-7.5133 14.692-9.7615 3.5485-2.2482 5.6936-3.3174 6.15-2.8067 0.45639 0.51072-0.82157 2.5569-3.6403 5.7458-2.8188 3.1888-7.1881 7.513-12.971 12.437-5.7825 4.9237-12.985 10.44-21.4 15.976-8.415 5.5354-18.045 11.083-28.544 16.13-0.31079 0.14964-0.62237 0.29885-0.93473 0.44761-10.63 5.0624-21.159 9.1078-30.93 12.115-9.7712 3.0071-18.779 4.9814-26.403 6.1602-7.6236 1.1789-13.861 1.5768-18.184 1.5384s-6.732-0.49251-6.7994-1.1792z"/>
      <path id="path3991" style="color:#000000" d="m182.96-328.93c-0.64815 0.84144-4.8034-1.1595-11.444-5.0554-6.6406-3.896-15.775-9.6755-26.556-16.17-6.4591-3.888-13.488-8.0426-20.947-12.085-4.2587-2.3082-8.4482-4.4628-12.531-6.4334-5.2108-2.497-10.188-4.7304-14.869-6.5089s-9.0674-3.1027-13.078-4.0012c-2.1591-0.48299-4.1848-0.84808-6.0593-1.0842-1.8745-0.2361-3.5983-0.34405-5.1623-0.35619-3.0444-0.0204-5.4669 0.30457-7.1746 0.54047-1.7077 0.23589-2.7411 0.34043-2.9855-0.082-0.12222-0.21121-0.03736-0.5419 0.27155-0.97255 0.30891-0.43064 0.84314-0.96052 1.6237-1.5316 0.78052-0.57108 1.8088-1.1823 3.0888-1.7507 1.28-0.56838 2.8132-1.0927 4.564-1.4824 1.7809-0.39996 3.7849-0.68283 5.9661-0.79802 2.1812-0.1152 4.5397-0.0617 7.0051 0.17141 4.5398 0.42549 9.5306 1.3852 14.754 2.91 5.2235 1.5249 10.677 3.6153 16.166 6.0766 4.3411 1.933 8.7557 4.1142 13.183 6.5114 7.7534 4.1984 14.871 8.6842 21.226 13.027 10.626 7.2574 19.168 14.175 24.909 19.421 5.7413 5.2459 8.6975 8.8117 8.0494 9.6532z"/>
      <path id="path3995" style="color:#000000" d="m262.41-367.15c-0.16414-0.42989 0.68067-1.2397 2.451-2.3241 1.7704-1.0844 4.4688-2.4394 8.0164-3.8825 3.5476-1.443 7.9464-2.9703 13.088-4.3805 5.1415-1.4102 11.027-2.7004 17.495-3.701 6.3785-0.9872 13.316-1.7046 20.645-2.0921 7.329-0.38752 15.049-0.44545 22.979-0.20179 0.19675 0.006 0.39364 0.0122 0.59065 0.0186 12.066 0.39088 23.476 1.388 33.798 2.518 10.323 1.13 19.562 2.3869 27.305 3.5304 7.7428 1.1435 13.991 2.1815 18.303 3.0905s6.6866 1.7046 6.6443 2.3933-2.502 1.2053-6.9227 1.4881c-4.4206 0.28272-10.801 0.31591-18.652 0.0721-7.8503-0.24381-17.167-0.77219-27.458-1.3937-10.291-0.6215-21.553-1.3298-33.339-1.7043-0.19245-0.006-0.38474-0.0121-0.57687-0.018-7.7427-0.23759-15.228-0.30872-22.318-0.16562-7.0892 0.14311-13.782 0.50106-19.959 1.0375-6.2561 0.54352-11.985 1.2689-17.055 2.0446-5.0694 0.77569-9.4804 1.5994-13.129 2.2992-3.6482 0.69983-6.5358 1.2722-8.559 1.5486-2.0232 0.27641-3.1842 0.25259-3.3484-0.1773z"/>
      <path id="path3999" style="color:#000000" d="m428.2-356.87c0.68377 0.091 0.68577 4.7251 0.39072 13.011-0.29506 8.2861-0.84521 20.228-1.1272 34.991-0.28203 14.763-0.27124 32.351 0.17648 51.917 0.44772 19.567 1.3301 41.115 2.2425 63.731l0.003 0.0798c0.92662 22.638 1.6379 44.302 1.7403 64.023 0.10238 19.721-0.40665 37.494-1.3802 52.382-0.97351 14.888-2.3874 26.89-3.718 35.138-1.3306 8.2475-2.5372 12.744-3.2229 12.667-0.68571-0.07686-0.78638-4.7128-0.64986-13.01 0.13652-8.2975 0.4696-20.259 0.5323-35.041 0.0627-14.781-0.16868-32.386-0.77999-51.968s-1.5994-41.143-2.5135-63.784c-0.001-0.0266-0.002-0.0532-0.003-0.0799-0.92755-22.644-1.5328-44.323-1.4696-64.047 0.0631-19.725 0.79603-37.491 1.991-52.359 1.195-14.869 2.8268-26.84 4.3146-35.057 1.4878-8.2171 2.7896-12.685 3.4734-12.594z"/>
      <path id="path4003" style="color:#000000" d="m356.24-841.96c0.38189-0.27847 2.7408 2.1703 6.7853 7.019 4.0445 4.8486 9.7782 12.095 16.831 21.469 7.0532 9.3737 15.43 20.873 24.624 34.307 9.1939 13.434 19.206 28.804 29.359 46.007 9.3423 15.82 18.824 33.237 27.558 52.146s16.712 39.311 22.876 61.049c0.22782 0.80334 0.45265 1.6067 0.67448 2.4102 5.5566 20.15 9.104 40.294 10.48 59.762 1.514 21.462 0.34711 42.031-2.7916 60.8-1.9815 11.833-4.7285 22.935-7.9153 33.192s-6.8125 19.671-10.578 28.181c-4.4992 10.166-9.1755 19.044-13.583 26.642-4.4075 7.5976-8.5466 13.917-12.081 18.962-3.534 5.0452-6.4635 8.8182-8.5534 11.294-2.0899 2.4762-3.34 3.6574-3.6128 3.464-0.27284-0.19333 0.44368-1.7521 2.003-4.573 1.5594-2.8209 3.9613-6.9058 6.9665-12.206s6.6143-11.817 10.492-19.531c3.8778-7.7133 8.0246-16.624 12.002-26.716 3.329-8.4443 6.5326-17.72 9.327-27.762 2.7945-10.041 5.1793-20.849 6.8463-32.308 2.6482-18.175 3.4615-38.02 1.8024-58.711-1.5034-18.777-5.0439-38.249-10.444-57.832-0.21524-0.78156-0.43334-1.5632-0.65429-2.345-5.9785-21.154-13.677-41.118-22.067-59.754-8.3899-18.635-17.462-35.942-26.351-51.786-9.6689-17.224-19.155-32.741-27.786-46.421-8.6306-13.679-16.406-25.52-22.821-35.298-6.4156-9.7781-11.475-17.492-14.813-22.843-3.3378-5.3516-4.9576-8.3396-4.5757-8.6181z"/>
      <path id="path4007" style="color:#000000" d="m340.87-854.9c-0.20844-0.0253-0.26692-0.92766-0.44451-2.6104-0.1776-1.6827-0.51339-4.1651-1.4544-7.2595v-0.00001c-0.38727-1.2738-0.8762-2.6526-1.4594-4.1464-0.58322-1.4938-1.2619-3.1022-1.9824-4.8534-1.1205-2.7028-2.3751-5.7659-3.184-9.4029-0.71732-3.2446-0.94155-6.9176-0.16788-10.765 1.9372-9.6051 4.6168-20.734 8.2729-33.092 3.6561-12.357 8.2943-25.941 14.023-40.429 4.3099-10.901 9.2274-22.314 14.735-34.138 5.5078-11.824 11.606-24.057 18.213-36.616 0 0 0-0.0001 0.00001-0.0001 10.511-19.978 22.303-40.787 34.889-62.297s25.961-43.723 39.368-66.675c1.9032-3.258 3.7924-6.5066 5.6654-9.7458 14.753-25.53 28.526-50.548 40.517-74.803 11.991-24.254 22.195-47.748 30.359-70.057 5.2752-14.407 9.7079-28.3 13.365-41.474 3.6575-13.174 6.541-25.628 8.7902-37.173 2.5469-13.07 4.2839-24.973 5.5138-35.442 1.2299-10.47 1.9557-19.507 2.4555-26.893 0.49976-7.3855 0.7768-13.121 1.0375-17.01 0.26071-3.8891 0.50867-5.9334 0.82671-5.9412 0.31804-0.01 0.69248 2.0216 1.0352 5.9216 0.34276 3.8999 0.65041 9.6716 0.70845 17.137 0.058 7.4651-0.13684 16.625-0.87473 27.269s-2.0218 22.773-4.17 36.12c-1.8981 11.789-4.4693 24.518-7.8603 37.986s-7.6031 27.674-12.709 42.393c-7.9101 22.787-17.952 46.747-29.858 71.377s-25.67 49.93-40.482 75.588c-1.8789 3.2568-3.7746 6.5205-5.685 9.7911-13.458 23.041-26.913 45.215-39.611 66.58-12.698 21.366-24.635 41.926-35.337 61.598h-0.00001c-6.7264 12.364-12.966 24.372-18.64 35.956-5.6743 11.584-10.783 22.745-15.312 33.393-6.0177 14.15-11.005 27.398-15.062 39.447-4.0571 12.05-7.1898 22.902-9.6232 32.275-0.81073 3.032-0.80141 6.1307-0.37829 8.9662 0.47959 3.2326 1.4691 6.227 2.35 8.994 0.57527 1.7898 1.1202 3.4888 1.5721 5.0905 0.45192 1.6017 0.81203 3.1059 1.067 4.4993l0.00001 0.00001c0.62408 3.4056 0.55479 6.0898 0.32502 7.8483-0.22976 1.7585-0.58536 2.6168-0.7938 2.5916z"/>
      <path id="path4011" style="color:#000000" d="m496.59-1187.2c0.67091-0.1612 1.4851 0.4472 2.4242 1.6271s2.0066 2.9324 3.2426 5.051c2.4719 4.237 5.6114 9.9222 9.9842 15.338 0.21277 0.2635 0.42653 0.5241 0.64122 0.7816h0.00001c2.1801 2.6746 4.4415 5.1563 6.5265 7.489 2.085 2.3326 3.9876 4.5145 5.4969 6.4706 1.5093 1.9562 2.6252 3.6813 3.232 5.0379 0.60687 1.3566 0.71002 2.3399 0.24862 2.8301s-1.4406 0.447-2.8256-0.029c-1.385-0.4757-3.1808-1.3788-5.2904-2.6636-2.1096-1.2849-4.5382-2.952-7.1213-5.0476-2.5831-2.0955-5.322-4.6256-7.9312-7.677-0.26301-0.3136-0.52269-0.632-0.7788-0.955-2.6317-3.3192-4.6284-6.8076-6.0638-10.112-1.4354-3.3042-2.3152-6.422-2.786-9.081-0.47079-2.6591-0.53765-4.8602-0.33651-6.4197 0.20114-1.5594 0.6665-2.4792 1.3374-2.6404z"/>
      <path id="path4015" style="color:#000000" d="m516.64-1139.9c0.29431 0.3195-0.6631 1.7495-2.6244 4.2107s-4.9189 5.9619-8.5467 10.518c-3.6278 4.556-7.9192 10.176-12.579 16.84-4.6594 6.6648-9.6829 14.381-14.886 22.986-5.3475 8.8542-10.899 18.652-16.657 29.17-5.7589 10.518-11.728 21.756-18.093 33.369-1.8449 3.3688-3.7239 6.7684-5.6403 10.19-5.7902 10.339-11.618 20.325-17.486 29.753-5.8679 9.4286-11.777 18.299-17.65 26.458-7.4219 10.308-14.786 19.449-21.676 27.275-6.8904 7.8268-13.303 14.344-18.802 19.506-5.4983 5.162-10.077 8.9757-13.34 11.423-3.2623 2.4472-5.2028 3.5354-5.5345 3.1689-0.33168-0.36654 0.96622-2.1618 3.5859-5.2424 2.6196-3.0806 6.5557-7.4536 11.415-13.071 4.8595-5.6175 10.638-12.486 16.93-20.55 6.2916-8.0639 13.093-17.327 20.037-27.651 5.4992-8.1743 11.091-17.017 16.727-26.397 5.6357-9.38 11.316-19.296 17.066-29.561 1.903-3.3971 3.7805-6.7716 5.6353-10.115 6.3903-11.528 12.538-22.716 18.594-33.189 6.0556-10.473 12.021-20.23 17.855-29 5.6743-8.54 11.265-16.138 16.522-22.601 5.2572-6.4628 10.176-11.795 14.419-15.97 4.2435-4.1749 7.8049-7.2005 10.354-9.1147 2.5494-1.9142 4.0801-2.7261 4.3744-2.4066z"/>
      <path id="path4019" style="color:#000000" d="m415.72-774.03c-0.1166-0.34627 1.4956-1.2336 4.5629-2.778 3.0674-1.5443 7.5701-3.7983 13.324-6.8173 6.475-3.4007 14.492-7.7772 23.785-13.113 8.1085-4.6559 17.182-10.017 27.027-16.071 9.8451-6.0537 20.461-12.801 31.683-20.17 19.776-12.988 41.4-27.912 63.655-44.733 9.3214-7.0478 18.76-14.408 28.146-22.144 10.003-8.2449 19.555-16.604 28.524-25.08 7.0156-6.6052 13.218-13.784 18.833-21.174 5.6157-7.3897 10.646-14.989 15.273-22.496 4.8069-7.8172 9.2174-15.602 13.592-23.037 4.3748-7.4352 8.7136-14.521 13.197-21.049 5.397-7.8246 11.143-14.445 16.539-20.374 5.3957-5.9287 10.447-11.162 14.844-15.907 2.7875-3.0175 5.333-5.8091 7.5652-8.421 2.2322-2.6118 4.1537-5.0425 5.7747-7.2757 1.4734-2.0625 2.7256-3.9332 3.6958-5.5942 0.97016-1.6611 1.6668-3.1118 2.1737-4.3115 0.50698-1.1998 0.83151-2.1477 1.0833-2.7916 0.25177-0.644 0.43551-0.9829 0.59627-0.9678 0.16076 0.015 0.2949 0.3853 0.3468 1.1059s0.0168 1.7921-0.2237 3.1752c-0.24051 1.383-0.69365 3.0777-1.4498 5.0052-0.75612 1.9275-1.8238 4.0877-3.1458 6.3619-1.4319 2.5033-3.1863 5.2209-5.2558 8.1062s-4.4564 5.9367-7.0613 9.1533c-4.1178 5.0992-8.8828 10.639-13.915 16.726-5.0319 6.0866-10.336 12.715-15.126 20.275-4.113 6.4549-8.1275 13.502-12.262 20.99-4.1345 7.4883-8.3891 15.418-13.16 23.527-4.5774 7.7996-9.6531 15.744-15.432 23.54-5.7787 7.7959-12.261 15.443-19.686 22.578-9.1031 8.7213-18.804 17.276-28.962 25.651-9.531 7.8587-19.114 15.279-28.577 22.328-22.605 16.845-44.661 31.567-64.903 44.157-11.481 7.1416-22.39 13.611-32.542 19.336-10.152 5.7249-19.547 10.706-27.975 14.933-9.6591 4.8445-18.081 8.681-24.93 11.479-3.0339 1.24-5.7656 2.29-8.1599 3.1357s-4.4505 1.4891-6.1312 1.9501c-3.3614 0.92192-5.2089 1.1365-5.3255 0.79022z"/>
      <path id="path4023" style="color:#000000" d="m750.79-1091c-0.46174 0.07-1.3534-2.7165-2.5535-8.0069-1.2-5.2904-2.6992-13.086-4.3472-23.024-1.6481-9.9385-3.4363-22.021-5.3268-35.858s-3.8789-29.429-6.1412-46.353c-2.1629-16.16-4.5414-33.558-7.4441-51.778s-6.3346-37.261-10.741-56.682c-0.58871-2.5945-1.1902-5.1747-1.8047-7.7396-4.5497-18.994-9.846-37.114-16.019-53.879-6.5895-17.891-14.172-34.22-22.463-48.448-4.8927-8.396-10.023-16.071-15.208-22.965-5.1858-6.8941-10.427-13.009-15.521-18.364-5.6451-5.9372-11.108-10.941-16.063-15.132-4.9546-4.1911-9.4012-7.5724-13.079-10.273-3.6775-2.7009-6.5862-4.7248-8.5242-6.1623-1.938-1.4374-2.9052-2.2917-2.7584-2.5626 0.14681-0.2709 1.4021 0.053 3.6499 0.9929 2.2478 0.94 5.4879 2.4991 9.5343 4.7892 4.0464 2.29 8.8994 5.3144 14.3 9.2252 5.4004 3.9108 11.348 8.7112 17.506 14.544 5.5511 5.2606 11.263 11.347 16.909 18.278 5.6458 6.9302 11.225 14.705 16.525 23.257 8.9763 14.482 17.161 31.18 24.158 49.452 6.5574 17.118 12.119 35.606 16.77 54.914 0.62761 2.6064 1.2399 5.2276 1.8371 7.8626 4.4705 19.724 7.8322 39.017 10.546 57.428 2.7133 18.412 4.7834 35.942 6.5404 52.197 1.8444 17.036 3.3112 32.693 4.5982 46.585s2.3901 26.02 3.2919 36.024c0.90185 10.004 1.5938 17.885 1.9432 23.286 0.3494 5.4011 0.34685 8.3231-0.11489 8.3936z"/>
      <path id="path4027" style="color:#000000" d="m595.25-1513c-0.26127 0.059-0.77566-1.0631-1.5585-3.2615-0.78288-2.1984-1.8336-5.4751-3.2449-9.6986s-3.1814-9.396-5.4998-15.328c-2.3184-5.9319-5.183-12.626-8.9093-19.798-3.0255-5.8273-6.6425-11.964-11.003-18.168-4.3602-6.2032-9.4641-12.473-15.458-18.48-5.0561-5.0784-10.748-9.9692-17.035-14.58-6.2877-4.6105-13.172-8.9405-20.55-12.917h-0.00001c-7.8734-4.3406-16.292-8.3363-25.171-12.014-8.8794-3.6778-18.22-7.0381-27.896-10.159-3.2814-9.1032-7.3906-18.164-12.276-27.055-4.8856-8.8913-10.547-17.613-16.891-26.027-4.4197-5.9342-9.1971-11.706-14.293-17.298-8.3096-9.1185-17.212-17.485-26.401-25.148-16.186-13.478-33.157-24.846-50.04-34.391-16.883-9.5451-33.674-17.269-49.645-23.528-8.5319-10.716-15.964-21.272-22.437-31.348-6.4725-10.075-11.986-19.67-16.679-28.519-4.6044-8.788-8.4259-16.866-11.536-24.026-3.1104-7.1603-5.5131-13.402-7.3168-18.538-1.8037-5.1353-3.0122-9.1632-3.7162-11.923-0.70405-2.7597-0.90705-4.2505-0.62765-4.3479 0.2794-0.097 1.0298 1.202 2.2581 3.7548 1.2283 2.5527 2.938 6.3579 5.21 11.246 2.272 4.8876 5.11 10.857 8.6149 17.722 3.5049 6.8653 7.6802 14.626 12.592 23.09 4.8133 8.3838 10.336 17.446 16.694 26.922 6.3582 9.4769 13.552 19.369 21.718 29.366 16.266 5.8871 33.339 13.312 50.485 22.674 17.145 9.3612 34.358 20.662 50.755 34.213 9.5455 7.8771 18.805 16.544 27.46 26.048 5.308 5.8282 10.289 11.864 14.903 18.085 6.0556 8.2705 11.395 16.91 15.934 25.777 4.5388 8.867 8.2769 17.961 11.173 27.146 9.2823 2.71 18.287 5.7393 26.882 9.1625 8.5947 3.4232 16.779 7.2405 24.458 11.472 0.00001 0.0001 0.00002 0.0001 0.00002 0.0001 7.6426 4.3017 14.766 9.0101 21.259 14.028 6.4928 5.0181 12.355 10.346 17.542 15.867 6.1401 6.5504 11.278 13.322 15.586 19.981 4.3088 6.6584 7.7894 13.204 10.619 19.392 3.4745 7.6036 6.0108 14.633 7.9527 20.839 1.9418 6.2063 3.2872 11.592 4.2457 15.994 0.95854 4.402 1.5284 7.8227 1.8144 10.151 0.286 2.328 0.28723 3.5648 0.026 3.6234z"/>
      <path id="path4031" style="color:#000000" d="m241.72-873.19c-0.41053-0.01-0.73057-5.0197-0.72224-14.464 0.008-9.4442 0.36745-23.323 1.5851-41.028s3.3158-39.236 6.7318-63.931 8.1656-52.554 14.328-82.857c5.767-28.37 12.757-58.896 20.509-91.179 7.7512-32.283 16.26-66.323 24.586-101.84 7.5418-32.193 14.934-65.651 21.064-100.1 5.4035-30.368 9.5635-60.236 12.051-89.383 2.8202-32.993 3.4777-65.013 1.8968-95.432-1.8053-34.763-6.5298-67.423-13.199-97.135h-0.00001c-2.3589-10.494-4.9924-20.607-7.967-30.249-2.9746-9.6418-6.2901-18.812-9.9606-27.456-3.2204-7.5989-6.7526-14.786-10.408-21.606-3.6554-6.8199-7.4343-13.273-11.192-19.391-4.6526-7.5711-9.2056-14.696-13.447-21.454-4.2411-6.7582-8.1719-13.149-11.689-19.186-10.057-17.269-16.806-31.426-21.093-41.188-2.1432-4.8813-3.6637-8.6726-4.6111-11.259-0.94738-2.5865-1.3224-3.9682-1.1229-4.0572 0.19947-0.089 0.96747 1.1172 2.2961 3.5222 1.3286 2.4051 3.2187 6.009 5.7137 10.69 4.9901 9.3622 12.373 23.066 22.938 39.792 3.6918 5.846 7.7965 12.056 12.224 18.667 4.4279 6.6112 9.1805 13.623 14.063 21.143 3.9644 6.1036 7.9589 12.577 11.842 19.465 3.8834 6.8883 7.656 14.192 11.132 21.968 3.9381 8.8246 7.5081 18.181 10.715 28 3.2071 9.8191 6.051 20.101 8.5888 30.741 0.00001 0 0.00001 0 0.00001 0.0001 7.1807 30.066 12.339 63.188 14.45 98.476 1.8462 30.874 1.3714 63.359-1.3674 96.771-2.423 29.512-6.5686 59.701-12.01 90.313-6.173 34.728-13.673 68.351-21.38 100.61-8.4955 35.583-17.229 69.582-25.26 101.75-8.0306 32.169-15.355 62.508-21.511 90.667-6.573 30.076-11.814 57.688-15.787 82.162s-6.694 45.812-8.5855 63.371c-1.8914 17.559-2.9753 31.341-3.745 40.726-0.7697 9.3856-1.2477 14.375-1.6582 14.366z"/>
      <path id="path4035" style="color:#000000" d="m402.69-1532.1c0.39531 0.1537 0.55395 0.8542 0.57131 2.0117 0.0174 1.1575-0.10171 2.7746-0.19799 4.7967-0.0963 2.022-0.16596 4.4522-0.0516 7.2249 0.11434 2.7728 0.41494 5.8906 1.0119 9.2346 0.63349 3.5502 1.6048 7.3631 2.9489 11.356 1.3442 3.9926 3.0608 8.1656 5.0694 12.426 0.75849 1.6057 1.5565 3.2198 2.3929 4.8389 6.8611 13.282 15.004 24.416 20.949 32.587 2.9722 4.0856 5.3999 7.4273 6.9421 9.8831s2.1998 4.029 1.7119 4.5169-2.0773-0.1555-4.5114-1.8064c-2.434-1.6509-5.7139-4.3128-9.4773-7.927-3.7634-3.6143-8.0094-8.1856-12.262-13.658-4.2525-5.4723-8.5056-11.851-12.218-19.005-0.90506-1.7442-1.7571-3.4938-2.5544-5.2426-2.131-4.6658-3.8307-9.3796-5.0243-13.95-1.1936-4.5707-1.8811-8.9965-2.116-13.092-0.22583-3.9009 0.008-7.4913 0.51322-10.6 0.50528-3.109 1.2782-5.7381 2.1045-7.8138 0.82625-2.0757 1.7015-3.601 2.4465-4.5645 0.74505-0.9634 1.356-1.3685 1.7513-1.2148z" transform="matrix(.97229 .23379 -.23379 .97229 -270.49 -73.265)" filter="url(#filter4620)" fill="#784421"/>
      <path id="path4039" style="color:#000000" fill="#784421" d="m698.93-1136.7c0.39408 0.3728 0.46801 1.0539 0.26879 1.9849-0.19921 0.9309-0.67405 2.1113-1.3436 3.479-0.6695 1.3677-1.5347 2.9206-2.4526 4.6137-0.9179 1.693-1.8869 3.5239-2.7065 5.4985-0.78578 2.0022-1.4426 4.1042-1.4102 6.014 0.005 0.3135 0.0298 0.6178 0.0747 0.9125 0.0704 1.2416 0.42314 2.5499 0.8678 3.9216 0.44465 1.3717 0.9798 2.8056 1.4642 4.2542 1.3868 3.8997 2.3652 7.4238 2.6664 10.043 0.30127 2.6196-0.0369 4.3053-0.94477 4.657-0.90785 0.3517-2.2478-0.6372-3.9153-2.5423-1.6675-1.9052-3.7096-4.7205-5.8756-8.3511-0.82195-1.3204-1.6788-2.8466-2.4322-4.6373-0.75348-1.7907-1.4026-3.8475-1.7479-6.1974-0.0676-0.6768-0.10005-1.353-0.0982-2.0255 0.0113-4.0977 1.2932-7.6862 3.0207-10.446 1.4912-2.4037 3.1243-4.3567 4.6991-5.9334s3.0923-2.7801 4.4326-3.6669c1.3404-0.8867 2.506-1.4577 3.43-1.7243 0.92399-0.2667 1.6083-0.2276 2.0024 0.1452z"/>
      <path id="path4043" style="color:#000000" d="m25.168-1503.3c-0.06966-0.4898 1.0903-1.1483 3.3487-1.884 2.2583-0.7357 5.6177-1.5493 9.9441-2.2239 4.3264-0.6747 9.6232-1.2107 15.707-1.2576 6.0837-0.047 12.957 0.3976 20.345 1.8023 5.8524 1.1217 11.981 2.9124 18.087 5.5258 6.1054 2.6135 12.185 6.051 17.877 10.39 0.58171 0.4435 1.1562 0.8939 1.7231 1.351 5.8715 4.7697 10.852 10.131 15.03 15.64 4.1776 5.5095 7.5539 11.164 10.271 16.601 3.0844 6.1648 5.3845 12.035 7.1306 17.325 1.746 5.2901 2.9394 10.001 3.7457 13.918 0.80626 3.917 1.2255 7.0413 1.3474 9.2076 0.12188 2.1664-0.0536 3.376-0.51181 3.4905-0.45817 0.1145-1.1698-0.873-2.1249-2.7961-0.95513-1.9231-2.1541-4.7833-3.6528-8.3873-1.4988-3.604-3.297-7.953-5.5186-12.806-2.2217-4.8534-4.8672-10.211-8.1291-15.779-2.867-4.8862-6.2206-9.9412-10.164-14.834-3.9437-4.8933-8.478-9.6219-13.698-13.797-0.49843-0.4021-1.0034-0.7991-1.5149-1.1907-5.0039-3.832-10.353-6.9478-15.751-9.4259-5.3978-2.478-10.842-4.3185-16.082-5.6413-6.6662-1.6926-13.004-2.5988-18.718-3.1378-5.7147-0.5389-10.807-0.7117-15.041-0.8213-4.2345-0.1095-7.6137-0.155-9.9488-0.3223-2.3351-0.1674-3.6292-0.4565-3.6989-0.9463z" transform="matrix(.97229 .23379 -.23379 .97229 -270.49 -73.265)" filter="url(#filter4664)" fill="#784421"/>
      <path id="path4051" style="color:#000000" d="m-165.35-2063.8c-0.31221-0.3379-0.17248-1.0798 0.40026-2.1627 0.57273-1.083 1.5788-2.5079 3.0334-4.1666 1.4546-1.6588 3.3585-3.5526 5.7517-5.5113s5.277-3.9825 8.6972-5.8283c2.9756-1.5883 6.3265-2.9858 9.9706-4.0551s7.581-1.8094 11.678-2.1193c1.2868-0.095 2.5837-0.1527 3.8875-0.1757 7.4063-0.1305 14.287 0.8642 20.291 2.1284 4.2974 0.897 8.2011 1.9274 11.637 2.9658 3.436 1.0385 6.4049 2.0851 8.8291 3.0577 4.8484 1.9451 7.5286 3.584 7.2895 4.5786-0.23915 0.9946-3.3802 1.2036-8.5472 0.8119-2.5835-0.1958-5.6719-0.5388-9.1541-0.9631-3.4822-0.4244-7.3575-0.9302-11.525-1.4099-5.8151-0.6581-12.154-1.3037-18.64-1.1831-1.1416 0.021-2.2684 0.067-3.3794 0.1381-6.9533 0.4286-13.352 1.9696-18.691 4.0526-3.1204 1.201-5.9268 2.5691-8.4158 3.8749s-4.6601 2.5492-6.4925 3.5605c-1.8323 1.0114-3.3259 1.7916-4.4446 2.2247-1.1187 0.433-1.8634 0.5198-2.1757 0.1819z"/>
      <path id="path4055" style="color:#000000" d="m-134.8-2060.2c-0.0279-0.919 1.8617-1.8469 5.2097-2.6614s8.1583-1.5238 13.99-1.8247c3.5131-0.1939 7.5507-0.2891 12.034 0.3167 1.1536 0.1421 2.5094 0.4021 4.0323 0.9203 0.82068 0.1196 2.1213 0.8506 3.7034 2.4047 0.60507 0.6535 1.0712 1.5996 1.3629 2.8287 0.18237 1.2163 0.10351 2.2644-0.2181 3.1169h-0.000005c-0.83545 1.9075-1.7171 3.0507-2.4136 3.467-0.04316 0.037-0.08634 0.073-0.12952 0.1094-2.2375 1.8754-4.4097 2.9599-6.1776 3.7229-3.0901 1.4396-6.0717 2.5469-8.8394 3.4895-6.6408 2.2681-12.385 3.7144-16.547 4.4387-4.1622 0.7244-6.7619 0.7028-7.1352-0.2611-0.37337-0.9639 1.5498-2.7408 5.1566-4.9604 3.6069-2.2196 8.8998-4.8513 15.08-7.7562 2.5882-1.2183 5.2846-2.4508 7.9351-3.8248 1.7005-0.937 3.1571-1.5972 3.9502-2.3713 0.0153-0.015 0.0304-0.03 0.0451-0.045 0.14491-0.3352 0.0844-0.034-0.39607 0.8152h-0.00001c-0.19282 0.4684-0.22352 1.1019-0.11645 1.9219 0.21406 0.82 0.47449 1.3894 0.81272 1.7257 0.76851 0.5867 0.85522 0.7997 0.50605 0.4895-0.51227-0.2294-1.2697-0.3832-2.1965-0.5828-3.5437-0.7126-7.1994-0.9824-10.649-1.337-5.5914-0.5646-10.334-1.0946-13.68-1.7614-3.3461-0.6669-5.2929-1.462-5.3208-2.381z"/>
      <path id="path4059" style="color:#000000" d="m-206.1-1940.5c-0.34367-0.339-0.49618-0.8546-0.44061-1.5288 0.0556-0.6742 0.3192-1.5085 0.84701-2.4437s1.3217-1.9727 2.463-2.9881c1.1413-1.0153 2.6332-2.0087 4.5438-2.7777 1.6066-0.5635 3.3726-0.8927 5.182-0.934 1.8094-0.041 3.6608 0.2063 5.4209 0.7356 0.2068 0.061 0.41251 0.1234 0.61705 0.1885 3.4854 1.1103 6.2131 2.7099 8.358 4.1757 2.5948 1.7396 4.5548 3.3907 5.8624 4.7968s1.9608 2.6066 1.6176 3.5175c-0.34319 0.9109-1.6816 1.393-3.7281 1.3426-2.0465-0.05-4.7752-0.6634-7.7106-1.6623-2.4758-0.8222-4.9762-1.9036-7.3801-2.6344-0.14107-0.043-0.28106-0.084-0.42001-0.1239-2.141-0.583-4.0076-0.94-5.5609-0.8136-1.034 0.01-2.0674 0.2197-3.0633 0.4754-0.99593 0.2557-1.9523 0.5527-2.819 0.7755-1.7334 0.4455-3.1017 0.5769-3.789-0.1011z"/>
      <path id="path4063" style="color:#000000" d="m-158.62-1945.7c-0.59178-0.6565 0.20634-2.4591 1.9175-5.105 0.85559-1.323 1.9336-2.8573 3.1087-4.5877s2.4471-3.6555 3.6289-5.7988c0.60618-1.2566 1.239-2.4714 1.6839-3.5626 0.44483-1.0913 0.70113-2.0581 0.4664-2.8311-0.0622-0.313-0.15733-0.5984-0.2866-0.7043-0.0932-0.1779-0.42538-0.4122-0.86344-0.7298-0.70568-0.5239-1.6824-0.886-2.8649-1.1984-0.87218-0.2305-1.8367-0.4307-2.8484-0.6482-3.0758-0.5564-6.2379-0.7349-9.3171-0.8575-3.6882-0.1379-7.1556-0.125-10.264-0.1216-3.5381 0.01-6.576 0.01-8.9628-0.099-1.3307-0.058-2.4469-0.1515-3.3362-0.2899-0.71786-0.1069-1.2632-0.2536-1.6634-0.4317s-0.65402-0.3935-0.73379-0.6676c-0.0798-0.2741 0.0228-0.5979 0.31488-0.9547 0.29209-0.3569 0.77791-0.7427 1.4009-1.136 0.79536-0.4983 1.8551-1.0191 3.1374-1.5362 2.3015-0.9281 5.3594-1.858 9.0062-2.6291 3.2046-0.6789 6.8939-1.2436 10.967-1.492 3.3681-0.2144 7.0927-0.2083 11.056 0.3851 1.2582 0.1533 2.6059 0.4114 4.0037 0.8307 1.8952 0.5684 3.8271 1.4204 5.6781 2.6315 1.3907 0.9234 2.6662 2.2391 3.6798 3.9034 1.0069 1.7853 1.4724 3.6708 1.467 5.4903-0.1427 2.6864-0.81896 4.9444-1.7071 6.8237-0.8881 1.8792-1.9874 3.3808-3.0643 4.5826-1.8587 2.2978-3.7488 4.1492-5.5088 5.6485-1.76 1.4992-3.3912 2.6472-4.7965 3.4979-2.8104 1.7014-4.708 2.2436-5.2998 1.5871z"/>
      <path id="path4067" style="color:#000000" d="m-50.577-1810.6c0.82191-1.1085 4.2178-0.1283 9.0679 2.2514 4.8501 2.3796 11.157 6.1464 17.898 10.582 6.7411 4.4353 12.672 8.6919 16.803 12.127 4.1312 3.4348 6.4505 6.0827 5.7931 7.296-0.65745 1.2133-4.1944 0.7487-9.3321-1.1795-5.1377-1.9283-11.852-5.3499-18.758-9.8901-6.9056-4.5401-12.695-9.3119-16.539-13.198-3.8436-3.8862-5.7551-6.8798-4.9332-7.9883z"/>
      <path id="path4071" style="color:#000000" d="m53.434-1698.1c0.37303-0.4521 1.6854-0.1 3.7687 0.9474 2.0833 1.0471 4.9352 2.7926 8.3913 5.0934 3.456 2.3008 7.5135 5.1588 12.052 8.352 4.5389 3.1932 9.5585 6.7196 15.011 10.278 3.6839 2.3916 7.4452 4.7525 11.423 6.5061 0.19022 0.082 0.38037 0.1628 0.57043 0.2423 2.6361 1.1025 5.1542 1.9006 7.503 2.0419 2.2673 0.2 4.6255-0.2043 6.8287-0.9557 2.8889-0.9722 5.6472-2.6236 8.3432-4.331 3.8698-2.4827 7.3658-4.9816 10.512-7.2191 3.1464-2.2374 5.9406-4.2138 8.3203-5.7694 4.7593-3.1111 7.839-4.5218 8.4466-3.7926 0.60764 0.7292-1.2912 3.4695-5.0535 7.7202-1.8812 2.1254-4.2337 4.6324-7.0693 7.3964s-6.1545 5.7876-10.061 8.8326c-2.7656 2.175-6.0224 4.3908-10.025 6.0622-3.2467 1.3393-6.9399 2.0919-10.841 1.9177-3.8457-0.2345-7.516-1.2494-10.843-2.6975-0.23985-0.1044-0.47729-0.2107-0.71231-0.3188-4.8562-2.1943-9.0646-4.9262-12.822-7.6222-5.546-3.9611-10.455-7.9631-14.721-11.694-4.266-3.7305-7.8913-7.19-10.819-10.161-5.8553-5.942-8.9512-9.9256-8.2052-10.83z" transform="matrix(.97229 .23379 -.23379 .97229 -270.49 -73.265)" filter="url(#filter4584)" fill="#784421"/>
      <path id="path4075" style="color:#000000" fill="#00f" d="m-128.47-679.31c-0.21132-0.41539 2.1571-2.1372 6.8102-4.9392s11.592-6.6818 20.556-11.331c17.927-9.2986 43.968-21.696 76.049-34.182 30.828-12.003 67.314-24.145 107.28-32.69 2.8953-0.61901 5.783-1.2136 8.6618-1.7834 20.707-4.1068 41.023-6.913 60.311-8.2015 19.289-1.2886 37.547-1.0584 54.229 0.45016 10.083 0.91383 19.584 2.3112 28.361 4.0717 8.7776 1.7606 16.832 3.883 24.077 6.1889 7.6914 2.4483 14.462 5.1096 20.25 7.7099 5.7885 2.6003 10.598 5.1373 14.42 7.3586 3.8218 2.2214 6.6587 4.1247 8.5095 5.5148s2.718 2.2646 2.5641 2.5214c-0.15399 0.25671-1.3223-0.11438-3.4372-0.99938s-5.1789-2.2813-9.169-3.9916-8.9093-3.7321-14.737-5.8232c-5.8279-2.0912-12.567-4.2496-20.156-6.2232-7.1512-1.8599-15.056-3.5552-23.643-4.9245-8.5861-1.3692-17.854-2.4112-27.683-3.0245-16.278-1.0194-34.056-0.86501-52.883 0.67013-18.827 1.5352-38.7 4.4491-59.068 8.5032-2.8304 0.56448-5.6706 1.1512-8.5195 1.7598-39.329 8.4024-75.477 19.943-106.32 31.061-32.089 11.57-58.444 22.743-76.923 30.65-9.2392 3.953-16.511 7.0935-21.535 9.1234-5.0238 2.0299-7.801 2.9471-8.0123 2.5318z"/>
      <path id="path4079" style="color:#000000" fill="#00f" d="m308.69-748.13c-0.63195-0.44736-0.10393-2.5658 1.7455-5.8399 1.8494-3.274 5.0667-7.6905 9.8693-12.284 2.7344-2.6217 6.003-5.297 9.814-7.7657s8.1656-4.7287 13.004-6.4857c3.6568-1.3171 7.5612-2.313 11.616-2.9132 6.8913-1.0202 13.663-0.8072 19.792 0.28744h0.00001c5.9534 1.087 11.229 2.8878 15.728 4.9032 4.4991 2.0153 8.2256 4.2418 11.156 6.2918s5.069 3.9237 6.4075 5.3679 1.8805 2.46 1.5738 2.9157c-0.30668 0.45573-1.4387 0.31938-3.2696-0.26062s-4.3646-1.6042-7.512-2.834c-3.1473-1.2298-6.91-2.6658-11.193-3.9662-4.2829-1.3003-9.0855-2.4626-14.297-3.0524v-0.00001c-5.3092-0.62316-11.069-0.62905-16.924 0.23484-3.4449 0.50826-6.7618 1.2928-9.8896 2.306-8.3623 2.682-15.473 6.9111-21.077 10.889-4.9359 3.5167-8.7279 6.8281-11.461 9.1156-2.7329 2.2875-4.4506 3.5377-5.0825 3.0903z"/>
      <path id="path4524" style="color:#000000" fill="#a00" d="m-179.77-1897c0.0376-0.9083 2.2232-1.6772 6.0266-2.2346 3.8035-0.5575 9.2277-0.9097 15.749-0.8512 4.3502 0.034 9.2696 0.2221 14.592 0.9906 2.5028 0.2829 5.6399 0.8059 9.0563 2.4816 0.36478 0.1322 0.77081 0.3576 1.2056 0.684 0.69796 0.5239 1.4653 1.3046 2.2476 2.3626 1.0218 1.7866 1.2589 3.6849 0.73191 5.5194-0.69235 1.851-1.5153 3.0479-2.2553 3.6592-1.0497 1.0593-2.0711 1.8498-2.9846 2.457-2.8827 1.9603-5.7114 3.3646-8.2808 4.5621-3.7562 1.7683-7.2847 3.24-10.464 4.4579-3.1794 1.2179-6.0106 2.1821-8.3958 2.8917-4.7706 1.4193-7.7703 1.8256-8.2391 0.8845-0.46885-0.9411 1.6858-3.1075 5.7658-5.9823 2.04-1.4375 4.5582-3.0504 7.4362-4.8004 2.878-1.7501 6.1149-3.6366 9.5709-5.6664 2.3972-1.418 4.7981-2.7875 6.8938-4.3716 0.65619-0.5104 1.186-0.9175 1.492-1.284 0.16759-0.3432 0.20536-0.2181-0.10773 0.3542-0.24149 0.8719-0.12634 1.6868 0.35887 2.6144 0.34414 0.3565 0.49618 0.5738 0.50491 0.621 0.005 0.029-0.0446-0.01-0.13689-0.1155-1.3244-0.8196-3.5028-1.0975-6.0164-1.653-4.741-0.9132-9.3819-1.4985-13.627-2.1201-6.3114-0.9212-11.617-1.7982-15.33-2.7078-3.7126-0.9095-5.8306-1.845-5.793-2.7533z"/>
    </g>
  </g>
  <metadata>
    <rdf:RDF>
      <cc:Work>
        <dc:format>image/svg+xml</dc:format>
        <dc:type rdf:resource="http://purl.org/dc/dcmitype/StillImage"/>
        <cc:license rdf:resource="http://creativecommons.org/licenses/publicdomain/"/>
        <dc:publisher>
          <cc:Agent rdf:about="http://openclipart.org/">
            <dc:title>Openclipart</dc:title>
          </cc:Agent>
        </dc:publisher>
        <dc:title>Fitness</dc:title>
        <dc:date>2013-03-27T11:55:27</dc:date>
        <dc:description>Body builder with hands on hips</dc:description>
        <dc:source>http://openclipart.org/detail/176552/fitness-by-bedpanner-176552</dc:source>
        <dc:creator>
          <cc:Agent>
            <dc:title>bedpanner</dc:title>
          </cc:Agent>
        </dc:creator>
        <dc:subject>
          <rdf:Bag>
            <rdf:li>body</rdf:li>
            <rdf:li>buff</rdf:li>
            <rdf:li>clip art</rdf:li>
            <rdf:li>clipart</rdf:li>
            <rdf:li>exercise</rdf:li>
            <rdf:li>fitness</rdf:li>
            <rdf:li>gym</rdf:li>
            <rdf:li>health</rdf:li>
            <rdf:li>male</rdf:li>
            <rdf:li>muscle</rdf:li>
          </rdf:Bag>
        </dc:subject>
      </cc:Work>
      <cc:License rdf:about="http://creativecommons.org/licenses/publicdomain/">
        <cc:permits rdf:resource="http://creativecommons.org/ns#Reproduction"/>
        <cc:permits rdf:resource="http://creativecommons.org/ns#Distribution"/>
        <cc:permits rdf:resource="http://creativecommons.org/ns#DerivativeWorks"/>
      </cc:License>
    </rdf:RDF>
  </metadata>
</svg>
