<?xml version="1.0" standalone="no"?>
<!DOCTYPE svg PUBLIC "-//W3C//DTD SVG 20010904//EN"
 "http://www.w3.org/TR/2001/REC-SVG-20010904/DTD/svg10.dtd">
<svg version="1.0" xmlns="http://www.w3.org/2000/svg"
 width="1023.000000pt" height="938.000000pt" viewBox="0 0 1023.000000 938.000000"
 preserveAspectRatio="xMidYMid meet">
<g transform="translate(0.000000,938.000000) scale(0.100000,-0.100000)"
fill="#000000" stroke="none">
<path d="M4996 9334 c27 -64 15 -121 -56 -259 -59 -114 -63 -128 -67 -201 -5
-88 6 -134 78 -339 50 -142 62 -250 35 -303 -23 -44 -59 -44 -86 1 -22 35 -26
111 -10 202 11 70 -4 143 -55 255 -56 122 -69 172 -61 238 3 28 4 52 1 52 -11
0 -45 -137 -45 -184 0 -28 12 -100 26 -161 42 -185 47 -225 32 -269 -7 -21
-22 -45 -34 -53 -19 -12 -24 -11 -44 5 l-23 19 17 142 c17 132 15 205 -4 240
-4 7 -9 -19 -12 -60 -4 -59 -14 -96 -51 -182 -60 -138 -73 -210 -58 -318 15
-109 14 -141 -4 -165 -15 -19 -15 -19 -30 1 -12 15 -14 36 -9 106 l7 86 -37
36 c-47 47 -59 47 -40 0 15 -34 14 -42 -7 -121 -21 -80 -22 -85 -6 -136 10
-29 17 -67 17 -85 0 -44 -26 -91 -50 -91 -44 0 -49 68 -16 215 13 58 14 81 4
135 l-12 65 -8 -60 c-10 -78 -24 -119 -49 -141 -20 -18 -21 -18 -36 1 -21 28
-11 110 27 221 19 56 30 107 29 139 -1 48 -1 49 -12 20 -6 -16 -35 -75 -63
-130 -106 -205 -111 -305 -25 -537 26 -71 26 -120 1 -175 -24 -55 -64 -68 -93
-32 -17 21 -19 35 -15 129 8 164 -14 276 -73 378 -36 63 -46 63 -23 1 11 -29
17 -76 17 -139 0 -80 -5 -112 -33 -200 -65 -211 -49 -335 72 -531 83 -136 114
-243 87 -303 -39 -84 -98 -10 -118 146 -14 104 -26 142 -79 240 -42 77 -62
148 -62 226 l-1 47 -16 -30 c-11 -19 -18 -64 -21 -125 -4 -96 -1 -113 47 -294
17 -64 19 -86 11 -118 -13 -45 -32 -49 -57 -11 -14 21 -19 56 -23 152 -5 136
-13 136 -30 1 -25 -211 37 -389 185 -528 83 -78 105 -108 105 -144 0 -56 -57
-75 -117 -38 -47 28 -78 83 -108 189 -29 104 -62 176 -94 205 -25 23 -26 19
-6 -22 9 -18 22 -94 30 -183 8 -83 20 -170 26 -193 39 -146 140 -232 317 -269
l54 -11 -7 -46 c-4 -25 -10 -49 -14 -53 -5 -4 -35 15 -67 42 -55 47 -142 91
-182 91 -12 0 -10 -4 8 -17 65 -43 150 -145 150 -180 0 -27 -160 -92 -316
-127 -249 -57 -450 -129 -622 -223 -189 -102 -401 -294 -491 -444 l-45 -74
-215 -1 c-228 -1 -350 -12 -472 -43 -295 -75 -532 -251 -648 -479 -55 -108
-78 -290 -51 -415 9 -46 9 -61 -1 -73 -6 -8 -89 -52 -183 -98 -98 -48 -205
-109 -251 -143 -227 -168 -341 -397 -390 -785 l-16 -123 -54 -48 c-127 -113
-245 -311 -270 -452 -7 -45 -27 -110 -44 -145 -64 -135 -77 -293 -34 -420 14
-41 17 -69 12 -110 -8 -67 4 -195 25 -277 73 -282 314 -585 585 -735 l57 -32
-24 -43 c-50 -90 -37 -264 26 -334 22 -25 40 -32 107 -44 44 -8 115 -17 158
-21 l77 -6 0 -114 0 -114 4065 0 4065 0 0 114 0 113 93 7 c122 10 225 31 250
53 46 42 62 93 62 198 0 90 -3 105 -27 147 l-26 47 53 31 c232 133 437 363
537 603 55 133 86 314 70 412 -6 39 -4 62 11 105 42 121 32 271 -27 409 -14
31 -27 83 -30 116 -4 33 -16 88 -27 123 -37 112 -190 319 -282 382 -34 23 -34
24 -51 158 -40 309 -120 513 -264 674 -78 87 -195 165 -378 254 -94 45 -176
90 -183 98 -11 13 -11 26 0 68 7 29 12 91 12 138 -3 366 -313 680 -766 774
-107 22 -388 40 -523 33 l-111 -5 -23 41 c-67 122 -217 284 -350 378 -192 136
-448 246 -720 309 -183 42 -246 61 -317 97 -79 39 -79 40 -32 108 28 41 76 89
119 120 l25 17 -40 -7 c-55 -9 -106 -37 -167 -92 l-53 -47 -12 40 c-20 66 -19
68 58 86 142 34 227 96 272 196 27 59 37 115 57 312 6 64 18 120 29 144 l20
38 -26 -23 c-36 -34 -68 -103 -98 -210 -30 -106 -61 -161 -108 -189 -60 -37
-117 -21 -117 33 0 41 17 65 116 162 89 88 131 160 160 275 21 79 22 223 3
305 l-14 60 -5 -126 c-4 -97 -9 -131 -23 -153 -23 -35 -48 -30 -59 11 -9 35
-4 64 37 198 36 118 40 256 9 325 l-20 45 -7 -85 c-6 -77 -12 -96 -62 -195
-55 -111 -68 -151 -80 -260 -14 -129 -79 -196 -114 -119 -26 57 2 164 73 278
134 214 152 335 85 556 -38 125 -44 263 -15 339 22 59 14 63 -19 8 -62 -107
-86 -226 -78 -388 6 -117 -3 -149 -41 -149 -41 0 -86 73 -86 141 0 16 18 80
39 143 22 63 42 138 46 168 10 78 -16 172 -83 302 -32 61 -62 125 -69 141 -11
29 -11 28 -12 -21 -1 -32 10 -82 29 -140 39 -113 48 -191 26 -219 -16 -20 -16
-20 -40 7 -24 27 -45 101 -47 161 0 26 -2 28 -8 12 -21 -52 -21 -114 -1 -203
11 -51 20 -106 20 -123 0 -69 -47 -94 -75 -39 -19 38 -19 80 2 146 16 51 15
55 -7 139 -22 82 -22 88 -7 121 21 43 8 43 -39 -1 l-37 -35 7 -88 c5 -71 3
-91 -9 -107 -15 -20 -15 -20 -31 0 -13 17 -15 34 -8 110 17 184 5 250 -81 453
-18 44 -26 81 -26 122 0 33 -2 60 -4 60 -2 0 -9 -26 -15 -57 -10 -47 -9 -82 5
-195 16 -128 16 -140 1 -163 -20 -31 -31 -31 -60 -2 -34 34 -40 89 -21 178 63
290 64 299 40 393 -24 91 -30 91 -30 3 -1 -73 -5 -91 -39 -167 -77 -172 -79
-182 -72 -312 6 -91 4 -124 -8 -151 -20 -49 -47 -62 -77 -38 -19 16 -24 30
-27 90 -5 87 8 160 55 305 45 141 42 168 -34 273 -79 109 -103 162 -106 226
-1 30 -5 53 -9 51 -3 -2 -14 -27 -23 -55 -24 -73 -16 -153 29 -268 42 -110 48
-179 16 -211 -11 -11 -26 -20 -34 -20 -27 0 -75 51 -103 107 -38 79 -37 153 7
303 46 155 47 231 5 291 -40 57 -60 63 -39 13z m-51 -476 c0 -114 2 -128 28
-183 31 -67 85 -128 128 -146 64 -26 113 47 113 171 0 65 -5 86 -37 158 -20
46 -37 88 -37 93 0 16 87 -89 107 -130 31 -62 23 -165 -22 -306 -36 -113 -38
-128 -39 -250 -1 -104 3 -138 17 -169 12 -28 13 -35 3 -27 -19 16 -52 95 -67
165 l-13 58 -18 -76 c-33 -142 -43 -142 -43 2 0 140 11 96 -116 447 -24 69
-32 106 -32 160 0 56 16 155 26 155 1 0 2 -55 2 -122z m-94 -315 c8 -31 9 -66
3 -121 -5 -42 -9 -124 -9 -182 1 -93 4 -112 28 -164 18 -39 22 -54 11 -45 -19
16 -64 102 -65 126 0 10 -5 5 -11 -12 -36 -109 -83 -101 -143 25 l-26 55 6
-47 c3 -26 20 -87 36 -135 50 -150 49 -223 -5 -259 -31 -20 -63 -13 -104 21
-17 14 -31 25 -33 25 -2 0 -5 -17 -7 -38 -3 -53 -19 -97 -43 -118 -20 -18 -20
-17 2 26 24 46 32 149 16 215 -6 27 -5 28 6 10 25 -40 76 -85 96 -85 12 0 30
9 41 20 28 28 26 115 -5 236 -29 110 -32 211 -11 293 18 66 31 81 21 24 -12
-74 -8 -148 9 -181 34 -67 119 -28 146 66 5 20 10 80 10 132 0 87 -5 122 -24
190 -7 25 -7 24 18 -4 13 -16 30 -49 37 -73z m573 37 c-16 -63 -19 -228 -4
-282 26 -93 112 -133 146 -67 17 34 21 108 9 179 -10 59 2 46 21 -21 21 -82
18 -182 -11 -290 -31 -119 -33 -211 -5 -239 11 -11 29 -20 41 -20 20 0 71 45
96 85 11 18 12 17 6 -10 -14 -56 -8 -168 10 -204 20 -41 15 -53 -7 -19 -17 26
-38 117 -30 130 10 16 -9 7 -38 -17 -43 -36 -75 -42 -106 -18 -51 38 -51 113
-1 260 15 46 31 105 34 131 l6 47 -26 -55 c-57 -120 -118 -133 -140 -30 l-8
35 -13 -46 c-8 -26 -21 -53 -31 -60 -15 -12 -16 -12 -9 6 23 57 28 97 22 175
-17 225 -18 269 -7 303 11 34 50 92 56 85 2 -2 -3 -28 -11 -58z m-1156 -677
c17 -30 36 -29 61 3 l20 25 -6 -88 c-4 -64 -1 -100 10 -130 8 -24 11 -43 7
-43 -5 0 -11 6 -14 13 -4 6 -4 1 -1 -13 24 -124 28 -170 18 -211 -11 -44 -11
-43 -12 32 -1 82 -8 110 -70 270 -46 120 -57 191 -45 276 l9 58 5 -85 c3 -47
11 -95 18 -107z m1729 41 c-4 -50 -17 -102 -47 -180 -63 -163 -70 -190 -71
-273 -1 -76 -1 -76 -12 -32 -10 42 -2 122 19 199 5 17 3 21 -9 16 -14 -5 -14
-1 0 38 11 31 14 68 10 130 l-4 87 19 -24 c44 -56 77 -8 79 112 1 72 2 75 11
38 5 -22 7 -72 5 -111z m-620 -278 c165 -45 307 -130 429 -258 117 -122 149
-236 149 -533 l0 -200 -34 -88 c-30 -79 -71 -147 -89 -147 -4 0 -7 26 -7 58 1
31 -5 82 -12 112 -15 66 -17 178 -3 214 12 32 4 33 -28 4 l-24 -23 8 30 c3 17
16 50 27 75 14 31 21 71 23 130 l3 85 -9 -67 c-13 -105 -18 -120 -55 -167 -19
-24 -35 -51 -35 -60 1 -9 7 -3 15 14 15 30 15 30 7 -15 -4 -25 -7 -79 -6 -120
1 -60 6 -85 27 -126 37 -73 47 -222 19 -276 -22 -41 -14 -52 11 -15 13 18 16
19 16 5 1 -10 6 -18 12 -18 5 0 7 -5 4 -10 -4 -6 -2 -9 3 -8 16 5 53 -44 46
-61 -3 -9 -12 -37 -19 -64 -6 -26 -20 -56 -30 -67 -30 -33 -122 -50 -184 -33
-23 6 -24 7 -5 15 11 5 -24 6 -85 3 l-104 -5 -41 45 c-46 50 -61 56 -50 23 6
-21 4 -20 -27 7 l-33 30 32 -40 c18 -22 32 -45 32 -52 0 -7 4 -13 9 -13 4 0 6
12 4 28 -4 21 -2 24 6 12 14 -19 15 -180 1 -180 -5 0 -10 8 -10 17 0 9 -3 13
-6 10 -9 -8 23 -92 39 -105 9 -8 11 3 9 45 -3 33 1 60 8 67 9 8 10 4 5 -17 -7
-28 23 -127 53 -174 8 -12 15 -54 17 -93 2 -39 6 -74 9 -77 6 -7 9 17 7 52 -2
23 60 125 66 109 2 -6 -3 -31 -11 -55 -8 -24 -14 -45 -12 -47 8 -7 49 115 60
178 12 68 46 137 46 93 0 -49 -63 -322 -86 -372 -29 -65 -30 -70 -4 -40 l19
24 0 -45 c1 -65 -16 -129 -45 -172 -26 -41 -44 -49 -44 -20 -1 9 -7 28 -15 42
-13 23 -13 21 -8 -30 5 -54 4 -56 -36 -95 -37 -35 -59 -39 -28 -5 10 12 9 12
-6 1 -9 -8 -33 -36 -53 -63 -55 -74 -76 -81 -234 -82 -162 -1 -184 7 -240 79
-23 30 -49 59 -58 66 -14 11 -15 11 -4 -1 30 -34 8 -30 -29 5 -39 39 -41 42
-36 94 3 48 3 51 -9 30 -7 -13 -13 -32 -14 -41 -1 -49 -53 11 -75 85 -8 28
-15 73 -15 101 l0 51 20 -25 c26 -33 25 -23 -4 41 -23 51 -86 323 -86 372 0
20 2 19 20 -8 11 -16 20 -42 20 -57 0 -29 49 -193 55 -186 3 2 0 21 -6 42 -15
55 -4 55 30 0 21 -32 31 -61 32 -88 0 -23 3 -35 6 -28 9 23 23 12 23 -19 0
-18 4 -28 10 -24 6 4 8 11 5 16 -3 5 1 6 9 3 9 -4 17 -19 17 -38 1 -23 3 -25
6 -8 6 31 23 17 23 -19 0 -17 4 -28 10 -24 5 3 6 13 3 23 -6 15 -5 16 13 2 51
-40 59 -54 58 -110 -1 -30 0 -43 3 -27 2 15 9 27 15 27 7 0 6 6 -2 15 -7 8
-10 21 -7 29 3 8 -3 24 -14 37 -10 12 -19 26 -19 31 0 4 -5 8 -10 8 -6 0 -25
15 -43 33 -17 17 -35 31 -39 29 -5 -1 -13 9 -20 23 -6 13 -14 22 -19 20 -4 -3
-10 -1 -13 4 -8 13 11 143 22 150 18 13 54 131 48 158 -5 24 -5 25 5 9 6 -10
9 -40 7 -67 -4 -39 -3 -47 8 -38 17 14 49 98 40 106 -3 3 -6 -1 -6 -10 0 -9
-4 -17 -10 -17 -17 0 -15 154 2 180 7 11 8 7 3 -12 -3 -16 -1 -28 5 -28 5 0
10 5 10 12 0 6 12 27 27 47 l26 36 -27 -25 -28 -25 7 30 c7 28 4 27 -43 -23
l-49 -52 -104 5 c-60 3 -96 2 -85 -3 18 -8 18 -9 2 -15 -27 -11 -94 -8 -137 4
-50 15 -75 43 -87 99 -5 25 -13 53 -17 63 -5 13 2 26 27 50 19 18 37 39 40 47
3 11 8 9 17 -8 6 -12 16 -22 22 -22 5 0 1 12 -8 27 -15 22 -18 46 -16 131 2
92 5 110 29 156 22 42 27 65 28 126 1 41 -2 95 -6 120 -8 45 -8 45 7 15 8 -18
14 -23 15 -13 0 9 -15 35 -34 57 -36 43 -43 62 -56 169 l-9 67 4 -80 c2 -46
12 -104 24 -137 12 -32 21 -65 21 -74 0 -16 -1 -16 -18 -1 -26 24 -33 21 -22
-9 14 -37 12 -143 -4 -216 -8 -35 -14 -87 -13 -116 1 -28 -1 -52 -5 -52 -15 0
-58 64 -78 117 -48 128 -53 167 -47 358 9 280 39 377 154 497 145 151 316 241
518 274 121 20 317 11 432 -20z m788 -70 c26 -95 18 -203 -22 -287 -29 -62
-113 -201 -113 -187 0 3 17 44 39 90 47 104 57 133 42 123 -7 -3 -26 -11 -44
-16 l-32 -9 32 25 c49 39 68 102 68 227 0 58 3 104 6 102 4 -2 15 -33 24 -68z
m-2070 -39 c0 -120 19 -183 68 -222 l32 -25 -32 9 c-18 5 -37 13 -44 16 -15
10 -5 -19 42 -123 22 -46 39 -87 39 -90 -1 -14 -73 106 -108 177 -45 93 -54
196 -27 297 9 35 20 64 24 64 3 0 6 -46 6 -103z m-86 -472 c24 -63 46 -157 56
-235 13 -97 44 -151 100 -176 l30 -13 -35 -2 c-19 -1 -51 -1 -70 0 l-35 2 30
-23 c47 -35 144 -133 110 -110 -16 10 -48 29 -70 40 -60 30 -134 100 -177 166
-43 67 -51 103 -12 57 32 -38 61 -40 74 -5 23 60 4 248 -36 348 -5 13 -4 17 4
12 6 -3 20 -31 31 -61z m2231 -3 c-29 -92 -45 -219 -34 -266 14 -58 36 -67 74
-31 37 35 37 29 4 -38 -33 -64 -123 -153 -195 -190 l-54 -29 45 44 c25 24 58
53 74 65 l30 21 -63 0 c-70 0 -86 7 -49 21 54 20 79 74 98 206 13 84 42 191
67 238 23 45 24 27 3 -41z m-2233 -799 c85 -61 181 -67 235 -13 33 34 38 22 5
-15 -12 -15 -47 -35 -77 -45 l-55 -19 30 -12 c17 -6 53 -18 80 -25 l50 -14
-70 5 c-119 8 -208 69 -259 175 -17 34 -16 34 1 14 10 -11 37 -34 60 -51z
m2252 -4 c-55 -86 -153 -140 -253 -138 l-41 0 50 14 c28 7 63 19 80 25 l30 11
-53 18 c-30 10 -61 26 -70 35 -16 16 -15 16 20 1 21 -8 48 -15 61 -15 44 0
116 32 159 70 24 21 45 36 47 34 2 -2 -11 -26 -30 -55z m-1493 -302 c13 -15
24 -36 24 -45 -1 -9 -7 -3 -15 15 -21 48 -46 57 -139 48 -97 -10 -140 -9 -160
2 -8 4 47 8 126 8 l140 0 24 -28z m784 24 c-66 -7 -78 -14 -96 -55 -8 -20 -13
-24 -14 -13 0 10 13 32 29 48 26 25 36 29 83 28 l53 -2 -55 -6z m209 -1 c-20
-11 -60 -15 -114 -10 -31 3 -22 5 35 10 41 4 80 7 85 8 6 1 3 -3 -6 -8z
m-1238 -104 c11 -25 19 -66 19 -106 1 -46 4 -59 10 -45 5 11 9 34 10 50 1 18
12 -13 27 -75 18 -78 23 -122 19 -170 -11 -151 -72 -170 -81 -26 -2 27 0 43 5
37 4 -8 7 -1 7 16 0 15 3 42 7 58 6 22 5 26 -3 15 -8 -11 -11 10 -12 80 -2 85
-3 89 -9 40 l-7 -55 -2 55 c-1 30 -7 83 -14 117 -15 69 -5 72 24 9z m-180 -10
c45 -1 64 4 89 23 29 21 31 21 21 3 -19 -36 -71 -65 -117 -66 l-43 -1 27 -28
c15 -16 47 -39 72 -52 57 -30 39 -32 -37 -4 -60 23 -132 87 -166 146 l-18 32
58 -26 c39 -18 75 -26 114 -27z m1390 -12 c-6 -32 -12 -80 -13 -108 l-1 -51
-7 55 c-6 49 -7 45 -9 -40 -1 -66 -4 -90 -11 -80 -14 22 -12 -1 4 -47 23 -65
4 -189 -27 -177 -46 17 -57 136 -26 286 23 111 24 112 31 69 11 -66 18 -62 18
10 0 60 32 161 46 146 3 -3 1 -31 -5 -63z m298 16 c-35 -57 -77 -96 -134 -121
-61 -28 -74 -23 -24 9 24 16 53 39 64 52 l20 23 -22 -7 c-32 -10 -96 10 -122
38 l-23 24 42 -14 c52 -18 108 -11 170 20 63 32 63 32 29 -24z m-1385 -77 c9
-18 14 -33 12 -33 -6 0 -36 55 -36 66 0 11 5 3 24 -33z m966 29 c0 -5 -7 -17
-15 -28 -14 -18 -14 -17 -4 9 12 27 19 34 19 19z m-1505 -21 c-6 -5 -59 -39
-120 -76 -60 -36 -112 -68 -114 -71 -7 -6 174 60 248 90 33 15 62 26 64 26 2
0 -14 -98 -36 -217 l-39 -218 -102 -95 c-55 -52 -129 -121 -163 -154 -35 -33
-63 -56 -63 -52 0 12 61 129 96 184 19 29 53 73 75 97 130 141 -180 -94 -326
-247 -39 -40 -93 -99 -120 -132 l-51 -58 -45 31 c-26 17 -84 43 -130 58 -46
15 -86 28 -88 30 -9 6 27 73 79 142 77 104 98 119 61 45 -53 -110 -51 -115 23
-47 93 88 237 201 331 263 99 64 101 66 42 41 -70 -30 -178 -95 -253 -152 -36
-27 -67 -49 -69 -49 -3 0 13 29 35 65 22 36 36 65 31 65 -23 0 -187 -134 -296
-242 l-120 -118 -62 0 -63 0 19 48 c81 205 270 391 531 522 117 59 209 93 386
145 88 26 177 55 199 65 47 22 52 23 40 11z m2165 -46 c63 -20 166 -52 228
-72 146 -46 345 -145 451 -223 147 -109 267 -249 321 -374 30 -71 28 -76 -33
-76 l-52 0 -120 118 c-109 108 -273 242 -296 242 -5 0 9 -29 31 -65 36 -59 42
-88 9 -49 -29 35 -242 167 -314 194 -39 15 -36 12 70 -57 94 -62 192 -139 310
-241 38 -34 71 -60 73 -58 2 2 -12 37 -31 77 l-35 74 40 -45 c49 -54 139 -190
132 -201 -2 -4 -23 -10 -46 -14 -64 -11 -169 -58 -212 -94 -17 -15 -20 -13
-55 29 -128 157 -278 300 -408 390 -39 28 -74 50 -77 50 -3 0 16 -28 42 -62
50 -66 79 -127 106 -218 l16 -55 -24 25 c-92 95 -266 306 -270 328 -3 15 -19
101 -36 192 -17 91 -33 172 -36 182 -4 13 9 11 73 -14 135 -52 233 -88 233
-84 0 2 -33 22 -72 45 -76 42 -174 107 -148 98 8 -3 67 -22 130 -42z m-1550
-50 c0 -11 -14 7 -31 40 -7 13 -3 12 10 -5 11 -14 21 -29 21 -35z m814 25
c-10 -16 -20 -28 -22 -26 -4 5 28 56 35 56 2 0 -4 -13 -13 -30z m496 -250 c35
-137 58 -284 67 -424 l6 -103 -61 -17 c-40 -11 -75 -15 -98 -10 l-36 7 6 58
c21 182 36 374 42 524 l7 169 19 -44 c11 -25 32 -96 48 -160z m-1725 -12 c0
-106 4 -270 8 -365 l8 -172 -34 -6 c-20 -4 -55 -1 -83 7 l-49 14 3 75 c4 90
36 295 63 404 26 106 69 235 77 235 4 0 7 -87 7 -192z m190 -273 c36 -71 93
-174 129 -227 56 -86 61 -98 42 -98 -11 0 -43 11 -70 25 -27 14 -58 25 -68 25
-24 0 -39 35 -72 166 -30 120 -86 374 -85 388 0 6 14 -25 30 -69 16 -44 59
-138 94 -210z m1320 40 c-29 -116 -61 -232 -72 -259 -16 -44 -23 -50 -61 -61
-23 -7 -54 -20 -67 -29 -13 -9 -36 -16 -49 -16 -24 0 -21 6 55 123 45 67 118
197 163 288 44 92 82 166 83 165 1 -1 -22 -96 -52 -211z m-926 -164 c62 -53
63 -53 114 -48 34 4 45 3 32 -3 -11 -5 -38 -9 -59 -9 -32 -1 -47 6 -86 42 -26
23 -72 63 -103 90 -31 26 -66 62 -78 80 -15 22 0 11 48 -33 38 -36 98 -89 132
-119z m621 138 c-18 -22 -53 -57 -78 -77 -25 -20 -67 -56 -92 -79 -39 -36 -54
-43 -86 -42 -21 0 -48 4 -59 9 -13 6 -2 7 32 3 52 -5 53 -5 114 48 33 30 91
82 127 116 37 35 69 63 70 63 2 0 -11 -18 -28 -41z m-2835 -212 l50 -13 -105
-7 c-125 -8 -267 -42 -381 -91 -89 -39 -218 -115 -240 -143 -8 -9 2 -5 21 9
133 99 369 189 492 188 31 -1 29 -2 -24 -25 -166 -69 -283 -142 -396 -249
-181 -171 -279 -360 -308 -591 l-7 -50 -25 55 c-30 63 -42 207 -23 275 16 60
6 53 -17 -12 -22 -60 -45 -152 -60 -238 l-8 -50 -17 54 c-105 338 282 807 738
897 81 16 234 11 310 -9z m5258 -6 c249 -64 502 -272 621 -509 66 -132 83
-262 49 -373 l-17 -54 -8 50 c-15 86 -38 178 -60 238 -23 65 -33 72 -17 12 19
-67 7 -211 -22 -275 l-25 -55 -12 84 c-27 192 -110 355 -261 513 -129 135
-285 238 -455 299 -47 17 -48 18 -19 19 42 0 166 -24 228 -45 63 -22 192 -86
253 -126 26 -17 36 -21 22 -9 -36 32 -156 100 -234 133 -101 42 -245 76 -358
84 -54 3 -96 9 -93 12 3 3 36 11 73 18 88 16 236 9 335 -16z m-4818 -34 l80
-11 -111 -8 c-142 -10 -280 -45 -400 -102 -94 -45 -206 -117 -235 -152 -7 -9
11 1 41 24 71 54 233 133 338 166 121 38 255 52 349 38 74 -12 172 -47 161
-58 -4 -3 -57 -29 -120 -58 -126 -58 -204 -108 -306 -196 -90 -78 -160 -164
-288 -356 -57 -86 -104 -153 -104 -149 0 4 25 55 55 114 74 141 170 274 280
388 84 87 102 109 64 80 -146 -112 -293 -292 -458 -560 -76 -123 -164 -228
-213 -253 -80 -42 -118 86 -60 204 15 30 49 81 76 111 l50 56 -45 -43 c-73
-69 -123 -169 -175 -350 -6 -21 -35 -26 -52 -8 -35 35 25 230 107 350 35 50
40 103 16 146 -17 30 -19 84 -4 112 6 11 8 22 6 25 -9 8 -37 -54 -37 -80 0
-14 9 -45 20 -70 23 -51 20 -67 -22 -116 -16 -18 -41 -57 -56 -87 -14 -30 -29
-54 -33 -54 -21 0 -25 226 -5 321 44 206 233 409 472 509 197 82 377 102 609
67z m4410 -7 c231 -48 409 -150 536 -308 74 -91 116 -174 135 -261 14 -68 17
-233 5 -286 l-7 -30 -27 52 c-15 29 -40 68 -57 86 -34 39 -39 85 -15 127 19
33 19 74 -1 111 -21 42 -28 31 -9 -15 15 -34 14 -40 -5 -83 -28 -65 -26 -106
11 -159 89 -130 145 -320 103 -355 -26 -21 -46 1 -66 77 -30 109 -82 207 -144
271 l-56 58 48 -56 c27 -30 61 -80 76 -110 26 -50 27 -59 18 -118 -5 -40 -16
-72 -28 -83 -17 -18 -22 -18 -53 -5 -51 21 -138 122 -220 254 -175 284 -310
447 -469 567 -14 11 7 -14 46 -55 98 -101 119 -127 191 -227 55 -77 173 -286
173 -307 0 -5 -45 61 -101 146 -56 84 -128 186 -161 226 -113 139 -262 250
-446 334 -57 26 -106 50 -109 53 -11 11 85 46 160 58 191 29 500 -63 689 -205
29 -22 46 -32 39 -23 -29 35 -141 107 -235 152 -121 57 -261 93 -401 102
l-110 8 85 12 c47 6 99 14 115 16 53 7 197 -5 290 -24z m-5548 -35 c-151 -86
-266 -195 -362 -345 -54 -83 -108 -191 -131 -261 -23 -67 -29 -43 -14 53 41
269 220 475 497 573 97 34 99 31 10 -20z m6279 21 c279 -95 460 -298 503 -566
17 -105 13 -123 -13 -55 -54 141 -136 278 -233 391 -69 79 -135 133 -253 204
-46 28 -81 50 -78 50 2 0 36 -11 74 -24z m-4276 -17 c36 -5 83 -15 105 -21
l40 -11 -95 -27 c-107 -31 -208 -69 -290 -111 -103 -52 -95 -58 20 -14 160 60
336 113 444 131 124 22 276 16 331 -13 l40 -21 -50 -7 c-128 -17 -373 -92
-440 -134 l-20 -13 20 7 c11 4 58 20 105 35 297 100 548 91 635 -24 15 -20 25
-39 22 -42 -3 -3 -34 0 -68 6 -111 21 -379 -14 -544 -69 -33 -12 -49 -18 -35
-16 179 37 273 47 385 42 139 -5 203 -23 267 -72 55 -41 87 -103 95 -181 5
-47 4 -56 -8 -51 -151 65 -255 87 -418 87 -58 0 -151 -7 -206 -15 -116 -18
-325 -66 -308 -72 6 -2 37 3 70 11 130 33 261 49 398 49 156 0 240 -15 331
-60 51 -25 144 -110 144 -132 0 -6 -17 -3 -37 6 -60 25 -187 28 -300 8 -146
-26 -148 -31 -10 -27 154 5 218 -10 281 -68 47 -44 66 -91 66 -164 0 -46 0
-46 -27 -39 -54 15 -274 6 -373 -15 -100 -21 -214 -52 -208 -57 2 -1 44 6 93
17 50 10 147 22 216 25 105 5 136 3 183 -12 65 -20 94 -52 78 -82 -76 -139
-557 -325 -940 -363 -113 -12 -316 0 -335 19 -4 4 22 13 58 19 102 19 333 88
473 142 155 59 234 92 229 96 -1 2 -59 -12 -127 -31 -423 -113 -817 -137
-1033 -63 -38 14 -38 14 125 46 178 36 620 144 613 150 -2 2 -84 -8 -182 -22
-289 -41 -477 -58 -624 -54 -76 2 -141 6 -144 10 -24 23 49 121 140 188 93 69
251 141 440 201 117 38 42 28 -104 -13 -196 -55 -397 -140 -511 -217 -24 -17
-46 -28 -48 -26 -3 2 19 33 47 68 138 174 416 334 751 432 130 39 117 45 -27
14 -217 -47 -482 -163 -700 -308 -104 -68 -123 -78 -123 -60 0 73 123 227 253
317 82 57 238 141 311 168 27 10 45 19 39 21 -15 5 -179 -55 -258 -94 -93 -47
-186 -108 -263 -172 -72 -60 -70 -54 16 78 132 201 297 379 439 472 172 112
368 158 553 128z m2570 -15 c192 -49 385 -187 552 -394 57 -71 218 -303 218
-315 0 -3 -26 16 -58 43 -88 73 -190 138 -294 186 -90 42 -247 100 -254 93 -2
-2 22 -14 54 -27 225 -92 443 -245 520 -365 24 -38 64 -137 57 -143 -1 -2 -58
34 -126 78 -224 147 -485 262 -702 309 -144 31 -157 25 -27 -14 337 -99 625
-265 758 -437 23 -30 42 -58 42 -61 0 -4 -24 8 -52 27 -128 81 -314 160 -509
214 -146 41 -221 51 -104 13 260 -83 432 -174 528 -280 94 -104 78 -121 -110
-121 -145 0 -330 17 -602 55 -96 14 -176 23 -178 21 -9 -8 454 -119 702 -167
l60 -12 -32 -13 c-76 -32 -213 -46 -388 -41 -199 6 -354 29 -600 92 -93 24
-171 42 -173 40 -5 -5 254 -107 371 -146 122 -41 346 -99 381 -99 13 0 16 -3
10 -9 -20 -20 -211 -32 -330 -21 -328 30 -749 175 -896 308 -71 64 -72 89 -4
125 37 20 54 22 191 21 111 -1 174 -7 240 -22 101 -23 124 -21 43 3 -168 50
-398 73 -515 52 l-43 -7 0 53 c0 73 36 143 91 179 61 39 129 51 264 46 130 -5
124 3 -22 28 -111 19 -238 15 -295 -9 -21 -9 -38 -12 -38 -8 0 5 19 29 41 55
127 144 405 179 784 101 65 -14 120 -23 122 -21 3 2 -45 16 -104 30 -353 84
-589 76 -830 -31 -18 -7 -17 51 1 111 29 95 99 153 223 182 90 21 310 13 437
-16 49 -11 91 -18 93 -16 6 6 -146 45 -255 66 -138 27 -265 34 -341 20 -34 -6
-65 -9 -68 -6 -3 3 7 22 22 42 89 116 335 124 647 19 71 -23 128 -41 128 -39
0 1 -25 14 -56 28 -90 41 -237 87 -356 110 l-109 22 38 19 c60 29 213 32 350
6 118 -23 299 -77 448 -135 107 -42 86 -22 -40 39 -91 43 -196 81 -293 106
-64 16 -54 23 54 44 95 18 240 13 334 -11z m-1553 -133 c29 -21 45 -43 57 -77
24 -72 20 -74 -21 -6 -21 34 -53 73 -72 87 -20 14 -28 25 -19 25 8 0 33 -13
55 -29z m255 -9 c-24 -20 -54 -59 -68 -87 -23 -46 -25 -47 -20 -16 8 46 43 99
80 122 50 31 54 22 8 -19z m-262 -218 c39 -34 60 -74 59 -116 0 -33 0 -33 -11
-8 -6 14 -18 39 -25 56 -8 17 -28 45 -45 63 -37 38 -22 41 22 5z m264 -9 c-18
-19 -42 -59 -53 -87 l-20 -53 0 44 c-1 39 4 49 43 87 51 52 78 60 30 9z
m-2362 -152 c-169 -196 -300 -451 -333 -649 -9 -58 -9 -75 4 -105 26 -62 120
-115 293 -164 l89 -25 -60 5 c-55 4 -183 33 -229 51 -37 14 -6 -14 69 -64 136
-92 313 -144 535 -159 l115 -8 -70 -6 c-89 -7 -261 5 -349 25 -38 9 -71 15
-73 13 -7 -8 192 -79 287 -104 68 -17 138 -26 245 -32 149 -7 150 -7 80 -16
-38 -5 -118 -10 -177 -10 -60 0 -108 -1 -108 -1 0 -4 100 -34 143 -44 80 -18
242 -13 328 9 92 24 196 75 267 130 29 23 52 39 52 37 0 -3 -14 -21 -31 -41
-17 -19 -28 -35 -25 -35 10 0 186 90 228 116 21 13 38 22 38 20 0 -2 -27 -26
-59 -52 -33 -27 -59 -50 -57 -51 6 -6 226 87 439 186 121 55 222 101 225 101
3 0 -29 -26 -71 -57 -42 -31 -75 -58 -74 -59 2 -2 76 8 166 22 90 13 165 23
167 21 2 -2 -96 -30 -219 -62 -304 -79 -501 -144 -702 -230 -258 -111 -293
-120 -460 -120 -203 0 -370 43 -585 151 -195 97 -399 264 -449 368 -30 62 -29
136 4 250 59 204 195 434 353 599 63 64 65 59 4 -10z m4599 -172 c119 -168
228 -430 232 -561 2 -78 -30 -139 -123 -230 -248 -246 -663 -414 -982 -397
-123 6 -178 22 -412 122 -206 87 -406 153 -704 230 -122 32 -220 60 -218 62 4
4 229 -28 304 -43 17 -4 32 -4 32 -1 0 3 -34 31 -76 61 -42 31 -74 56 -70 56
4 0 77 -33 164 -74 271 -127 491 -221 499 -213 2 2 -24 25 -57 51 -69 54 -78
67 -22 32 42 -26 218 -116 228 -116 3 0 -8 16 -25 35 -17 20 -31 38 -31 41 0
2 23 -14 52 -37 170 -134 419 -185 631 -130 43 11 84 24 92 28 7 4 -39 8 -103
9 -64 0 -144 5 -177 9 -56 9 -49 10 90 16 111 5 175 13 246 32 93 24 292 97
285 105 -2 2 -30 -4 -62 -13 -43 -12 -111 -18 -244 -20 -176 -3 -180 -3 -71 6
229 19 401 70 536 161 75 50 106 78 69 64 -46 -18 -174 -47 -229 -51 l-60 -5
90 25 c126 35 254 101 283 145 21 30 23 43 18 90 -23 199 -152 461 -338 685
-45 55 -43 54 21 -14 39 -41 98 -113 132 -160z m-2443 -42 l3 -34 -27 45 c-15
25 -36 56 -48 70 -14 16 -6 13 24 -11 35 -28 46 -44 48 -70z m204 79 c-11 -13
-32 -43 -46 -68 l-26 -45 0 32 c0 25 9 39 42 67 47 41 62 47 30 14z m-211
-179 c5 -11 9 -27 7 -35 -2 -9 -18 7 -41 42 l-38 56 30 -21 c17 -13 36 -31 42
-42z m181 5 c-32 -48 -37 -52 -41 -32 -2 17 7 32 35 55 20 18 38 33 40 33 1 0
-14 -25 -34 -56z m-174 -242 c6 -19 -10 -14 -43 14 l-30 25 34 -13 c19 -8 36
-19 39 -26z m197 30 c-6 -4 -22 -18 -37 -31 -24 -21 -28 -22 -28 -7 0 10 14
23 33 31 37 16 45 18 32 7z m-4045 -89 c0 -5 -26 -19 -57 -32 -80 -35 -212
-120 -301 -195 -124 -103 -212 -214 -285 -356 -38 -75 -38 -75 -31 -30 12 86
55 214 101 303 83 161 221 268 388 301 77 15 185 20 185 9z m8060 -19 c108
-31 213 -102 280 -188 75 -98 147 -278 165 -411 l6 -50 -24 57 c-91 214 -338
454 -589 573 -43 21 -78 40 -78 43 0 10 186 -8 240 -24z m-7746 -95 c27 -16
46 -32 44 -34 -3 -3 -50 -27 -107 -55 -56 -27 -127 -67 -159 -89 -200 -136
-322 -357 -357 -643 l-7 -57 -49 47 c-27 26 -63 56 -81 66 -27 17 -24 11 24
-46 58 -69 140 -206 182 -306 14 -34 26 -64 26 -67 0 -3 -23 -5 -52 -5 -125 0
-231 -110 -261 -272 -20 -110 13 -190 133 -321 l60 -65 -42 5 c-65 8 -333 145
-383 195 -7 7 26 8 100 4 l110 -7 -81 45 c-229 124 -307 209 -334 366 -24 137
37 289 163 407 36 33 88 72 118 86 29 15 49 27 44 27 -14 0 36 49 100 98 33
25 65 49 70 54 11 10 -84 -31 -147 -63 -22 -11 -42 -18 -45 -15 -8 8 18 107
41 156 40 83 78 134 155 211 94 92 201 166 335 230 124 59 190 77 282 78 62 1
76 -3 118 -30z m7440 15 c76 -19 249 -101 330 -156 143 -97 260 -220 314 -331
30 -62 59 -164 49 -173 -3 -3 -23 4 -45 15 -71 36 -158 71 -137 56 100 -76
164 -132 161 -139 -1 -6 21 -21 48 -35 74 -36 196 -161 234 -241 46 -96 58
-182 38 -274 -33 -144 -107 -221 -330 -342 l-81 -45 108 7 c59 4 107 4 107 1
0 -23 -311 -188 -377 -200 -41 -8 -41 1 -2 39 52 49 136 167 149 208 18 57 8
162 -23 229 -54 118 -144 183 -246 176 -33 -3 -51 0 -51 7 0 6 25 61 55 123
57 116 113 205 168 268 28 32 29 35 8 24 -13 -7 -47 -36 -76 -65 l-53 -51 -7
65 c-14 150 -76 327 -152 438 -43 63 -140 159 -205 203 -32 22 -103 62 -159
89 -57 28 -104 52 -107 55 -2 2 17 18 44 34 41 26 58 31 112 31 35 0 92 -7
126 -16z m-7381 -163 c-123 -68 -230 -169 -310 -293 -53 -82 -55 -95 -4 -31
81 101 191 193 299 247 100 50 282 85 282 54 0 -24 -62 -143 -95 -183 -18 -22
-59 -67 -90 -100 -100 -106 -129 -176 -141 -335 -4 -47 -11 -91 -17 -97 -6 -8
-34 -13 -74 -13 -80 0 -126 -19 -184 -76 -29 -29 -54 -45 -65 -42 -18 3 -38
50 -62 148 -7 30 -9 23 -17 -60 -8 -94 -8 -95 -22 -61 -33 78 -42 216 -22 327
52 285 299 543 519 543 l55 1 -52 -29z m411 13 c22 -21 20 -52 -7 -127 -31
-85 -65 -142 -134 -223 -54 -64 -55 -67 -49 -111 10 -75 33 -104 118 -148 42
-22 87 -49 100 -60 12 -10 10 -5 -7 13 -16 17 -59 46 -94 64 -121 63 -132 138
-38 260 48 63 86 133 124 227 l9 24 42 -37 c57 -52 92 -128 101 -218 l7 -73 8
58 c9 64 2 139 -18 198 -8 22 -10 39 -6 39 12 0 86 -101 112 -155 72 -145 72
-333 0 -532 l-29 -78 -296 -3 c-163 -1 -297 1 -297 5 0 5 7 17 15 27 8 11 15
29 15 40 -1 17 -4 14 -14 -9 -28 -65 -30 -65 -222 -64 -96 0 -174 3 -174 5 0
9 42 43 75 61 17 10 70 22 120 28 106 12 115 21 115 125 0 80 22 168 55 223
14 23 57 76 97 117 91 96 143 176 168 261 11 37 26 70 33 72 25 11 56 7 71 -9z
m6378 -68 c32 -93 78 -163 171 -260 111 -117 142 -188 150 -344 3 -46 10 -89
16 -95 7 -7 54 -17 106 -23 83 -10 100 -15 139 -45 25 -19 46 -37 46 -42 0 -4
-82 -6 -182 -5 l-181 3 -24 44 c-13 24 -23 38 -23 30 0 -8 7 -27 15 -43 8 -15
15 -30 15 -32 0 -2 -136 -3 -302 -2 l-301 3 -29 78 c-90 249 -68 460 64 635
39 50 69 72 49 34 -20 -37 -33 -147 -25 -212 l8 -65 7 73 c9 89 44 166 99 216
22 20 44 36 49 36 5 0 15 -17 21 -37 18 -58 74 -157 130 -229 39 -51 50 -73
50 -102 0 -62 -29 -103 -101 -140 -35 -18 -77 -47 -94 -64 l-30 -31 35 25 c19
14 62 39 95 56 72 36 89 54 104 107 18 67 14 81 -54 165 -35 44 -74 99 -86
122 -29 56 -59 146 -59 174 0 33 27 56 64 52 29 -3 33 -8 58 -82z m439 52
c159 -74 288 -227 355 -423 25 -71 28 -95 28 -210 1 -105 -3 -140 -19 -185
l-20 -55 -10 95 c-10 87 -12 92 -19 55 -14 -72 -38 -136 -53 -142 -9 -4 -33
12 -61 40 -59 58 -105 77 -185 77 -36 0 -68 5 -75 12 -7 7 -12 35 -12 62 0
159 -43 263 -157 387 -97 104 -123 140 -151 206 -29 68 -28 73 11 73 89 -1
239 -56 343 -128 57 -39 168 -147 212 -206 41 -54 22 -15 -32 67 -30 45 -83
110 -118 143 -65 63 -180 144 -204 144 -7 0 -16 5 -20 11 -13 22 128 4 187
-23z m-6226 -523 c-32 -193 -84 -338 -123 -343 -26 -4 -27 0 -8 36 57 111 118
353 133 527 l8 100 3 -110 c2 -69 -3 -147 -13 -210z m5110 5 c17 -84 74 -260
101 -311 14 -28 10 -39 -15 -39 -25 0 -59 87 -97 250 -20 81 -26 140 -29 260
l-4 155 13 -115 c7 -63 21 -153 31 -200z m-2651 133 c3 -10 8 -36 11 -58 3
-22 8 -51 11 -64 5 -21 0 -20 -42 17 -54 48 -83 56 -195 50 l-82 -3 39 17 c54
23 182 57 221 57 22 1 33 -4 37 -16z m341 -18 c46 -14 86 -29 89 -33 2 -4 -30
-5 -71 -4 -108 5 -138 -3 -189 -50 l-45 -41 7 44 c3 24 10 61 16 83 l9 39 50
-6 c28 -4 88 -18 134 -32z m-496 -96 c28 -6 62 -20 77 -32 34 -27 87 -141 108
-234 19 -87 20 -103 3 -103 -8 0 -17 26 -25 71 -12 68 -59 197 -85 233 -10 13
-12 -7 -12 -104 0 -111 -2 -121 -23 -142 -26 -26 -33 -26 -337 -13 -156 6
-200 4 -334 -14 -85 -12 -178 -21 -208 -21 -48 0 -53 2 -53 23 0 49 105 190
180 242 103 71 544 130 709 94z m829 -4 c126 -18 277 -52 316 -72 74 -38 206
-206 206 -263 0 -18 -6 -20 -57 -20 -32 0 -125 10 -208 21 -131 19 -173 20
-330 14 -297 -13 -312 -13 -335 10 -28 29 -42 112 -30 193 5 36 7 68 5 71 -11
10 -77 -154 -93 -227 -9 -45 -22 -84 -29 -86 -46 -18 39 257 100 322 11 12 41
29 67 37 60 18 258 19 388 0z m-1741 -195 c-52 -49 -106 -107 -122 -130 l-28
-40 -178 0 c-98 0 -180 4 -183 8 -3 5 7 23 22 40 23 27 39 33 116 47 110 20
274 74 381 125 44 21 81 39 83 39 1 1 -39 -39 -91 -89z m-811 32 c26 -41 74
-83 104 -94 5 -2 3 -26 -6 -54 -15 -51 -16 -52 -52 -50 -34 1 -39 5 -60 50
-24 50 -44 197 -26 195 5 0 23 -21 40 -47z m3095 14 c110 -50 227 -86 342
-105 l102 -17 22 -39 c13 -22 23 -43 23 -47 0 -5 -76 -8 -169 -8 l-168 0 -28
40 c-16 23 -68 79 -117 125 -49 47 -87 85 -85 85 2 0 37 -15 78 -34z m857 -43
c-3 -47 -14 -97 -26 -125 -20 -45 -23 -47 -61 -46 -39 0 -40 1 -51 50 -7 27
-11 50 -9 51 44 29 84 66 110 102 18 25 34 45 37 45 3 0 2 -35 0 -77z m-4985
-260 l24 -38 -448 -3 -449 -2 -55 36 c-30 20 -55 38 -55 40 0 2 216 4 480 4
l480 0 23 -37z m4137 13 c0 -13 3 -31 6 -40 6 -15 -176 -16 -2012 -16 l-2019
0 -1 -25 -2 -25 2014 0 c1108 0 2014 -2 2014 -5 0 -2 -11 -35 -25 -72 -30 -78
-30 -78 39 22 l53 77 -29 54 -30 54 1006 0 c553 0 1006 -2 1006 -4 0 -2 -29
-27 -64 -54 -60 -48 -65 -56 -110 -161 -25 -61 -46 -116 -46 -123 0 -15 71
-120 77 -115 2 3 -5 28 -16 56 l-19 52 46 110 46 109 363 0 363 0 0 -70 0 -71
-61 -37 c-259 -158 -275 -175 -267 -292 8 -113 80 -216 168 -240 19 -6 63 -10
98 -10 63 0 63 0 60 -26 -3 -25 -15 -31 -167 -85 -246 -87 -321 -142 -337
-246 -8 -55 17 -163 48 -210 31 -44 87 -74 142 -75 26 0 46 -3 46 -7 0 -3 -22
-14 -50 -24 -64 -23 -130 -74 -153 -117 -15 -28 -17 -52 -14 -120 4 -88 24
-146 64 -182 32 -30 102 -48 180 -48 l75 0 -31 -32 c-39 -40 -55 -96 -48 -169
5 -61 28 -113 61 -141 26 -22 109 -48 154 -48 29 0 33 -3 30 -23 l-3 -22 -547
-3 c-336 -1 -548 1 -548 7 0 5 9 31 21 58 52 119 48 119 -29 -1 l-51 -79 15
-36 c24 -54 27 -69 9 -38 l-16 27 -1821 0 -1822 0 -50 -42 c-50 -40 -49 -40
12 24 l63 65 -65 81 c-37 44 -66 84 -66 87 0 3 25 43 56 88 l55 82 -80 -85
c-45 -47 -81 -88 -81 -92 0 -4 20 -36 45 -71 25 -36 45 -67 45 -71 0 -3 -532
-6 -1182 -6 l-1181 0 -3 -22 -2 -23 1176 3 c780 1 1179 -1 1186 -8 7 -7 -384
-10 -1193 -10 -829 0 -1209 -3 -1224 -11 -13 -6 -8 2 12 19 l34 29 -17 48 c-9
27 -16 54 -16 61 0 7 21 39 47 71 69 86 72 92 20 44 l-47 -45 -26 25 -27 24
16 -31 c14 -28 14 -33 1 -53 -10 -14 -14 -38 -12 -69 l3 -47 -155 0 c-150 0
-155 1 -158 21 -3 19 3 22 58 27 77 7 149 42 174 85 45 79 28 235 -31 282
l-26 20 74 0 c90 0 139 13 179 47 41 34 57 68 71 150 21 130 -20 200 -156 264
l-80 38 55 1 c79 1 127 30 162 100 32 63 43 129 34 193 -15 98 -107 159 -378
252 -131 45 -138 49 -138 74 l0 27 71 -4 c92 -6 146 15 198 75 68 76 94 209
57 282 -17 32 -131 113 -268 190 l-58 33 0 69 0 69 420 0 420 0 -30 -60 -31
-61 35 -62 c33 -60 34 -63 19 -92 -15 -28 -15 -29 1 -16 37 31 38 48 6 111
l-31 61 53 75 53 76 -54 49 -55 49 2072 0 2072 0 0 -24z m2829 20 c-2 -2 -28
-20 -56 -40 l-53 -36 -376 0 -376 0 33 39 34 39 399 1 c220 1 397 -1 395 -3z
m-8906 -128 c-19 -79 -12 -199 16 -285 23 -72 81 -191 118 -243 17 -24 10 -20
-21 15 -50 54 -104 150 -132 235 -30 93 -19 259 23 333 10 18 9 2 -4 -55z
m9882 -5 c23 -72 24 -198 3 -269 -22 -70 -68 -158 -119 -226 -56 -76 -68 -74
-17 2 52 78 104 206 119 294 12 73 7 194 -11 240 -5 15 -6 25 -1 22 4 -3 16
-31 26 -63z m-8793 -128 c343 -201 363 -219 363 -313 -1 -65 -38 -146 -87
-187 -84 -71 -290 -23 -558 128 -58 33 -109 62 -115 65 -5 3 8 -15 30 -39 43
-47 16 -29 -53 36 -54 50 -72 83 -72 134 0 70 67 193 121 222 13 7 8 -5 -16
-37 -33 -43 -89 -142 -68 -119 5 6 30 39 56 75 25 36 60 80 77 98 18 18 30 35
28 38 -3 2 -26 -7 -51 -20 -26 -13 -47 -20 -47 -15 0 13 60 42 100 49 64 11
108 -6 292 -115z m8044 99 c18 -9 39 -23 46 -31 8 -10 -7 -6 -39 11 -29 14
-55 26 -59 26 -3 0 16 -26 43 -57 28 -32 62 -77 78 -100 15 -24 29 -43 32 -43
8 0 -37 78 -62 108 -37 44 -31 51 11 11 68 -65 111 -178 93 -243 -11 -39 -67
-103 -129 -145 l-35 -24 40 43 c29 32 33 39 15 28 -275 -168 -502 -244 -615
-206 -30 10 -49 27 -80 71 -35 51 -40 66 -43 128 -5 87 4 103 101 167 83 56
407 249 440 262 36 14 126 11 163 -6z m-9196 -359 c31 -271 94 -401 282 -580
52 -50 130 -118 174 -150 44 -33 94 -70 110 -83 l29 -23 -40 22 c-152 84 -436
297 -515 386 -92 104 -136 235 -127 378 5 79 30 180 54 218 9 13 17 -28 33
-168z m10065 47 c19 -71 19 -191 1 -259 -20 -74 -63 -155 -114 -213 -79 -91
-362 -304 -517 -389 l-40 -22 29 23 c16 13 66 50 110 83 115 84 303 276 349
355 48 83 86 202 98 310 5 47 17 118 27 159 l17 73 13 -31 c7 -18 19 -58 27
-89z m-9089 -367 c49 -14 150 -47 224 -72 421 -144 490 -190 490 -326 0 -95
-38 -169 -102 -203 -45 -24 -159 -17 -338 20 -373 77 -417 87 -458 103 -65 24
-95 70 -100 151 -4 62 12 167 26 176 4 2 6 -48 5 -112 l-1 -117 9 85 c11 105
33 200 61 254 l20 41 -37 -35 c-20 -19 -50 -57 -67 -85 -35 -59 -27 -21 10 49
32 59 83 96 133 96 20 0 77 -11 125 -25z m8234 10 c34 -18 72 -65 94 -119 24
-58 20 -56 -26 13 -24 35 -53 70 -64 78 -21 13 -20 12 3 -35 27 -55 52 -176
54 -267 l1 -60 10 54 c6 34 6 77 0 119 -12 84 10 62 27 -28 23 -116 -8 -198
-89 -236 -25 -12 -112 -36 -195 -53 -82 -18 -204 -44 -270 -58 -84 -19 -151
-27 -225 -27 -94 -1 -108 1 -137 22 -62 44 -100 176 -74 255 17 51 88 110 179
148 197 82 584 208 645 209 21 0 51 -7 67 -15z m-8611 -40 c-24 -55 -49 -179
-49 -246 0 -69 20 -111 75 -153 54 -41 50 -47 -9 -13 -65 37 -81 67 -84 161
-4 96 15 187 54 253 32 56 38 55 13 -2z m8835 -34 c46 -102 52 -256 14 -329
-13 -24 -58 -55 -98 -67 -19 -5 -14 1 18 24 64 48 82 83 82 166 0 86 -21 189
-51 246 -14 29 -17 40 -7 31 9 -7 27 -39 42 -71z m-9404 -123 c71 -220 206
-388 385 -480 65 -33 81 -46 77 -60 -2 -10 -6 -18 -8 -18 -19 0 -215 86 -256
113 -107 69 -187 169 -233 289 -27 73 -47 214 -38 263 l6 30 20 -27 c11 -14
32 -64 47 -110z m10000 -1 c-20 -165 -95 -307 -211 -403 -57 -47 -137 -89
-242 -129 l-67 -25 0 23 c0 17 15 30 74 60 128 66 251 195 323 342 30 60 73
176 73 196 0 6 10 25 22 41 l21 31 9 -24 c5 -14 5 -60 -2 -112z m-9925 -415
c100 -153 310 -341 468 -418 31 -16 57 -32 57 -36 0 -22 -35 -17 -87 12 -183
102 -370 291 -478 485 -38 67 -19 47 40 -43z m9819 41 c-118 -204 -274 -364
-461 -473 -54 -32 -70 -37 -86 -29 -17 10 -12 15 52 50 39 21 100 57 134 80
91 62 265 240 327 337 58 90 78 110 34 35z m-9334 2 c-23 -28 -50 -157 -50
-242 0 -116 19 -153 106 -210 16 -10 14 -11 -10 -2 -95 33 -121 79 -121 219 0
65 6 111 18 145 20 58 56 120 64 111 3 -3 0 -12 -7 -21z m390 -10 c374 -76
580 -133 635 -177 82 -65 84 -231 4 -314 -69 -71 -143 -70 -757 16 -153 21
-197 74 -190 230 4 123 23 136 24 17 1 -51 7 -103 13 -117 9 -20 10 -12 5 40
-7 81 11 221 37 279 l19 44 -21 -19 c-28 -25 -69 -90 -85 -134 -8 -22 -13 -28
-13 -15 -1 28 41 114 73 153 19 21 37 32 54 32 15 0 106 -16 202 -35z m8288
10 c30 -25 64 -85 77 -135 3 -14 -8 0 -25 30 -33 59 -90 123 -75 85 4 -11 15
-38 23 -60 11 -28 15 -80 16 -172 1 -149 15 -145 24 7 4 75 7 89 15 70 5 -14
10 -56 10 -95 1 -81 -26 -153 -66 -180 -30 -19 -121 -37 -341 -65 -260 -34
-415 -44 -462 -31 -91 25 -136 93 -138 207 -2 136 50 176 314 243 171 44 530
119 572 120 15 1 40 -10 56 -24z m194 -64 c18 -45 22 -77 22 -166 1 -146 -23
-197 -104 -219 l-25 -7 25 18 c48 34 69 65 81 120 16 70 0 197 -35 284 -21 53
-22 59 -5 43 10 -9 29 -42 41 -73z m-8382 -491 c199 -23 272 -45 318 -95 34
-37 34 -38 30 -120 -3 -95 -19 -126 -81 -158 -71 -37 -414 -33 -612 6 -54 11
-62 16 -77 47 -12 23 -18 57 -17 100 l0 65 20 -74 c21 -84 36 -109 23 -41 -5
25 -9 93 -9 152 0 59 -3 104 -7 100 -4 -4 -16 -29 -27 -57 -18 -43 -20 -45
-15 -15 8 43 39 106 56 114 19 9 213 -3 398 -24z m8241 20 c23 -13 44 -53 53
-100 5 -29 2 -25 -21 24 l-28 58 0 -123 c0 -68 -3 -140 -7 -159 l-7 -35 16 35
c8 19 18 52 21 73 2 21 9 40 15 44 17 10 1 -112 -20 -154 -16 -35 -23 -39 -78
-50 -105 -21 -314 -36 -439 -31 -193 8 -244 41 -254 163 -6 78 1 105 34 144
31 38 54 42 25 5 -37 -48 -25 -220 19 -264 27 -27 92 -35 134 -15 45 22 66 67
66 145 0 108 -48 169 -135 171 l-40 1 45 14 c70 22 380 59 528 63 29 0 62 -4
73 -9z m128 -185 c0 -40 -6 -83 -14 -100 l-14 -30 6 30 c9 40 9 150 0 200 l-6
40 14 -35 c7 -19 14 -66 14 -105z m-8874 1 c0 -84 -3 -119 -10 -108 -16 29
-10 232 8 232 1 0 2 -56 2 -124z m8214 69 c55 -47 65 -177 17 -231 -23 -27
-79 -40 -121 -30 -68 17 -93 237 -31 278 6 4 32 8 58 8 35 0 54 -6 77 -25z
m-7299 -425 c0 -6 -65 -10 -175 -10 -141 0 -182 -3 -206 -16 -42 -21 -47 -11
-7 14 30 18 50 20 211 21 112 1 177 -3 177 -9z m7397 -15 c54 -32 56 -42 3
-15 -38 19 -57 20 -620 20 -385 0 -579 3 -575 10 4 6 207 10 577 10 l571 0 44
-25z m-7397 -19 c0 -2 -8 -10 -17 -17 -16 -13 -17 -12 -4 4 13 16 21 21 21 13z"/>
<path d="M4625 7558 c-145 -90 -195 -164 -203 -299 -5 -82 9 -176 34 -240 l15
-36 67 4 c37 3 86 0 110 -5 54 -13 48 -7 -36 38 -89 47 -114 95 -120 228 -4
88 -3 96 27 157 22 44 52 82 98 124 36 34 64 61 62 61 -2 0 -26 -14 -54 -32z"/>
<path d="M5621 7520 c98 -96 114 -132 114 -255 0 -88 -3 -107 -27 -157 -25
-53 -32 -60 -93 -89 -79 -38 -90 -50 -32 -37 23 5 72 7 109 5 l68 -6 20 67
c44 138 36 285 -19 371 -30 46 -91 98 -166 142 -36 22 -34 18 26 -41z"/>
<path d="M4808 6899 c69 -41 162 -127 219 -203 64 -85 66 -86 59 -46 -13 68
-29 121 -39 127 -6 4 -8 -2 -5 -15 4 -12 2 -22 -3 -22 -5 0 -9 4 -9 10 0 12
-124 111 -180 143 -67 37 -104 43 -42 6z"/>
<path d="M5391 6900 c-62 -34 -107 -68 -170 -125 -37 -34 -43 -36 -39 -17 9
33 -1 27 -16 -10 -14 -33 -32 -137 -23 -128 3 3 25 32 49 65 61 82 146 163
220 208 73 44 57 50 -21 7z"/>
<path d="M5025 6876 c17 -14 33 -25 36 -26 3 0 14 -16 25 -35 21 -40 30 -43
39 -15 3 10 27 38 53 61 49 43 40 47 -35 12 -29 -14 -37 -14 -65 0 -18 8 -44
18 -58 22 -24 6 -24 6 5 -19z"/>
<path d="M4590 6803 c9 -4 1 -11 -25 -19 l-40 -12 41 -1 c38 -1 88 -22 161
-67 21 -13 17 -7 -16 29 -44 45 -96 78 -123 76 -10 0 -9 -2 2 -6z"/>
<path d="M5590 6790 c-19 -10 -53 -38 -75 -61 -33 -36 -35 -40 -12 -25 71 44
123 66 156 66 27 0 32 3 21 10 -8 5 -26 10 -40 11 l-25 1 25 8 c20 7 21 8 5 9
-11 0 -36 -8 -55 -19z"/>
<path d="M4561 6703 c-16 -13 -24 -33 -28 -75 -3 -32 -9 -55 -13 -53 -10 6
-22 -24 -15 -36 3 -4 -1 -19 -9 -31 -30 -45 11 -140 79 -185 l40 -26 -37 41
c-67 75 -82 122 -52 168 9 13 20 39 24 57 l8 32 1 -33 c1 -18 -5 -47 -12 -65
-19 -44 -6 -86 40 -132 21 -21 32 -35 26 -31 -7 4 -13 5 -13 2 0 -3 14 -13 32
-22 31 -16 88 -16 168 1 16 3 13 0 -10 -10 l-35 -15 35 6 c47 9 88 30 129 68
l33 31 -17 -33 c-23 -47 -13 -50 23 -7 17 22 32 32 36 26 10 -15 -19 -65 -51
-91 -26 -20 -26 -20 -3 -9 14 6 40 25 59 43 19 17 31 24 27 16 -4 -8 2 -4 14
10 l21 25 -16 -39 c-17 -44 -26 -57 -69 -103 -31 -34 -27 -46 6 -16 17 15 18
14 18 -29 0 -25 -7 -65 -15 -88 -21 -58 -18 -74 5 -25 23 49 25 42 5 -15 -29
-82 -13 -170 32 -176 41 -6 63 -15 64 -27 1 -6 7 33 13 88 l12 100 8 -92 c7
-87 9 -92 26 -83 11 6 31 11 45 12 18 2 32 12 41 29 17 34 20 164 5 202 -6 16
-11 49 -11 74 0 44 1 45 18 30 33 -30 37 -18 6 16 -43 46 -52 59 -69 103 l-16
39 21 -25 c12 -14 18 -18 14 -10 -4 8 11 -2 34 -22 23 -21 47 -38 52 -38 6 0
-3 12 -19 28 -30 26 -52 82 -34 82 5 0 19 -13 31 -30 30 -40 47 -38 26 3 l-16
32 33 -31 c38 -36 80 -58 124 -67 l30 -6 -30 15 c-26 13 -27 14 -5 10 76 -17
127 -18 164 -2 22 9 36 19 33 23 -4 3 7 21 23 40 40 45 46 75 26 135 -9 28
-16 60 -15 72 1 12 7 3 15 -23 7 -24 20 -52 29 -61 8 -9 15 -24 15 -34 0 -29
-39 -95 -83 -139 -43 -43 -44 -44 41 11 31 20 62 83 62 126 0 20 -9 50 -20 68
-11 18 -20 47 -20 64 0 57 -12 95 -36 111 -32 20 -59 12 -139 -42 -37 -25 -72
-42 -78 -38 -5 3 -7 1 -4 -4 6 -9 -29 -42 -72 -68 -11 -6 -13 -4 -8 11 4 10
-11 -2 -34 -28 -30 -36 -48 -48 -69 -48 -45 0 -90 21 -105 49 l-14 26 -12 -35
-13 -35 -14 35 c-14 34 -15 34 -25 13 -11 -26 -64 -53 -103 -53 -18 0 -40 11
-61 32 -18 17 -39 33 -47 34 -25 3 -86 56 -79 67 3 6 1 7 -5 3 -6 -4 -33 9
-59 27 -57 41 -107 67 -126 67 -8 0 -24 -8 -36 -17z m52 -10 c-7 -2 -19 -2
-25 0 -7 3 -2 5 12 5 14 0 19 -2 13 -5z m1036 3 c-2 -2 -17 -6 -34 -10 -22 -5
-26 -4 -15 4 14 9 59 15 49 6z m-722 -224 c38 -26 52 -27 98 -8 19 8 35 13 35
10 0 -9 -69 -34 -94 -34 -15 0 -41 16 -68 43 -24 23 -35 35 -24 27 12 -9 35
-25 53 -38z m408 13 c-53 -48 -94 -58 -131 -31 -17 13 -14 13 23 3 38 -10 45
-9 66 11 13 12 28 22 34 22 5 0 18 9 28 20 10 11 21 20 24 20 3 -1 -16 -21
-44 -45z m-183 -40 c9 -4 12 -18 10 -46 -2 -22 3 -59 11 -82 17 -46 30 -157
16 -135 -5 7 -9 19 -9 27 0 26 -34 91 -47 91 -7 0 -13 5 -13 11 0 22 -59 -50
-65 -78 -4 -15 -10 -37 -14 -48 -15 -38 0 89 16 133 8 24 13 61 11 82 -2 22 1
42 7 44 15 6 61 7 77 1z m-131 -312 c-12 -20 -14 -14 -5 12 4 9 9 14 11 11 3
-2 0 -13 -6 -23z m199 -8 c0 -5 -5 -3 -10 5 -5 8 -10 20 -10 25 0 6 5 3 10 -5
5 -8 10 -19 10 -25z m24 -65 c5 -17 4 -20 -2 -10 -5 8 -13 26 -16 40 -5 17 -4
20 2 10 5 -8 13 -26 16 -40z"/>
<path d="M4776 6697 c3 -10 9 -15 12 -12 3 3 0 11 -7 18 -10 9 -11 8 -5 -6z"/>
<path d="M5727 6314 c-42 -50 -107 -76 -187 -78 -77 -1 -73 -10 10 -21 30 -3
64 -9 75 -11 13 -4 16 -2 8 3 -9 7 -2 14 25 26 20 10 52 38 71 62 40 53 38 67
-2 19z"/>
<path d="M4487 6315 c30 -43 74 -82 102 -90 19 -6 21 -9 10 -17 -11 -7 -9 -8
6 -4 11 2 45 7 75 11 77 8 89 20 22 21 -85 2 -134 19 -188 67 -41 36 -45 38
-27 12z"/>
<path d="M4843 6205 c-8 -23 4 -30 22 -12 19 20 19 27 0 27 -9 0 -18 -7 -22
-15z"/>
<path d="M5350 6214 c0 -10 31 -36 37 -31 10 10 -6 37 -22 37 -8 0 -15 -3 -15
-6z"/>
<path d="M4927 6063 c-8 -16 -17 -71 -19 -123 -4 -69 -3 -88 5 -70 5 14 9 55
8 92 -1 45 4 78 14 98 8 16 13 30 11 30 -3 0 -12 -12 -19 -27z"/>
<path d="M5300 6044 c6 -15 10 -54 9 -88 -1 -34 3 -72 9 -86 8 -19 9 -8 6 50
-7 100 -13 138 -24 145 -6 4 -6 -5 0 -21z"/>
<path d="M4978 5891 c5 -16 27 -32 60 -47 48 -21 51 -21 42 -4 -5 10 -24 21
-40 25 -17 4 -40 17 -51 28 l-20 22 9 -24z"/>
<path d="M5244 5895 c-3 -8 -24 -20 -46 -27 -21 -6 -44 -20 -49 -30 -9 -16 -8
-18 8 -9 10 6 34 17 54 25 21 8 38 23 42 35 6 24 -1 29 -9 6z"/>
<path d="M4900 5750 c-12 -49 -30 -68 -30 -32 -1 16 -1 16 -10 0 -13 -21 -2
-48 15 -41 9 3 16 -4 19 -19 3 -12 7 -32 9 -43 3 -11 5 4 6 33 1 39 5 52 16
52 9 0 15 -9 15 -23 0 -32 11 -40 26 -19 11 16 14 15 33 -7 20 -23 22 -23 39
-8 25 23 37 21 60 -8 l19 -24 11 23 c8 18 17 23 38 20 15 -1 31 -8 35 -15 6
-10 13 -7 29 11 12 14 24 20 29 14 12 -12 -5 -118 -19 -122 -5 -2 -10 -11 -10
-19 0 -11 6 -8 20 8 20 24 20 24 35 5 12 -16 15 -17 15 -4 0 9 -6 18 -14 21
-24 9 -5 147 20 147 10 0 14 -15 15 -52 2 -52 2 -52 8 -13 4 26 11 40 21 40
22 0 31 20 21 47 l-10 23 0 -22 c-1 -39 -18 -25 -35 30 -15 51 -16 51 -10 10
4 -32 2 -43 -8 -43 -7 0 -19 -9 -26 -20 -7 -11 -20 -20 -30 -20 -10 0 -24 -6
-31 -12 -11 -11 -12 -9 -7 7 3 11 1 27 -4 35 -7 11 -10 7 -10 -18 0 -30 -2
-32 -20 -22 -16 9 -24 6 -43 -12 l-22 -23 -22 23 c-19 18 -27 21 -43 12 -18
-10 -20 -8 -20 22 0 25 -3 29 -10 18 -5 -8 -7 -24 -3 -35 5 -19 4 -19 -13 -4
-11 9 -24 14 -31 12 -7 -2 -18 5 -25 16 -7 12 -19 21 -26 21 -10 0 -12 10 -7
40 10 57 -1 50 -15 -10z"/>
<path d="M4767 5747 c-10 -25 -9 -27 8 -27 8 0 15 -4 15 -10 0 -5 5 -10 10
-10 6 0 10 9 10 20 0 13 -5 17 -14 14 -9 -3 -16 2 -18 13 -3 17 -4 17 -11 0z"/>
<path d="M5450 5743 c0 -13 5 -23 10 -23 13 0 13 11 0 30 -8 12 -10 11 -10 -7z"/>
<path d="M5388 5722 c2 -18 8 -29 13 -26 12 7 11 17 -4 39 -13 16 -14 15 -9
-13z"/>
<path d="M4826 5722 c-4 -13 -5 -26 -2 -29 10 -11 18 4 14 29 l-4 23 -8 -23z"/>
<path d="M5102 5712 c-7 -20 -7 -34 -1 -37 5 -4 9 0 9 7 0 10 2 10 9 -1 14
-22 19 2 6 33 l-12 29 -11 -31z"/>
<path d="M5420 5721 c0 -12 5 -21 10 -21 6 0 10 6 10 14 0 8 -4 18 -10 21 -5
3 -10 -3 -10 -14z"/>
<path d="M4950 5723 c0 -5 5 -15 10 -23 8 -12 10 -11 10 8 0 12 -4 22 -10 22
-5 0 -10 -3 -10 -7z"/>
<path d="M5260 5708 c0 -19 2 -20 10 -8 13 19 13 30 0 30 -5 0 -10 -10 -10
-22z"/>
<path d="M4757 5683 c-4 -3 -7 -11 -7 -17 0 -6 5 -5 12 2 6 6 9 14 7 17 -3 3
-9 2 -12 -2z"/>
<path d="M4788 5658 c-7 -18 24 -53 37 -41 4 5 5 0 2 -10 -4 -11 -3 -16 3 -12
13 8 13 42 0 50 -6 4 -9 3 -8 -2 2 -4 -1 -9 -7 -11 -5 -2 -12 7 -15 20 -5 19
-7 20 -12 6z"/>
<path d="M5430 5653 c0 -13 5 -23 10 -23 13 0 13 11 0 30 -8 12 -10 11 -10 -7z"/>
<path d="M4858 5625 c-2 -19 0 -35 4 -35 4 0 8 16 8 35 0 19 -2 35 -4 35 -2 0
-6 -16 -8 -35z"/>
<path d="M5360 5620 c0 -16 4 -30 8 -30 5 0 7 14 4 30 -2 17 -6 30 -8 30 -2 0
-4 -13 -4 -30z"/>
<path d="M4960 5620 c-1 -8 -1 -25 -1 -37 1 -12 -5 -25 -14 -30 -9 -5 -18 -27
-20 -49 -5 -38 -4 -38 4 -6 13 49 29 62 47 38 7 -11 17 -16 21 -12 4 4 2 10
-4 14 -6 4 -15 27 -21 52 -5 25 -11 38 -12 30z"/>
<path d="M5390 5618 c0 -7 4 -19 9 -27 7 -10 9 -7 8 12 -2 26 -17 39 -17 15z"/>
<path d="M5461 5594 c-6 -14 -16 -22 -21 -19 -15 10 -21 -16 -11 -50 l9 -30 1
31 c1 19 7 34 17 38 8 3 12 2 9 -3 -3 -5 -1 -12 4 -15 5 -3 11 10 13 30 5 43
-5 52 -21 18z"/>
<path d="M5023 5578 c2 -21 -2 -38 -7 -38 -6 0 -1 -7 11 -15 12 -8 24 -25 26
-38 4 -19 4 -18 6 6 1 17 7 27 16 27 16 0 19 -5 29 -52 9 -42 28 -34 24 10 -3
32 0 37 20 40 22 3 23 1 20 -50 -2 -43 -6 -53 -20 -52 -10 1 -15 -3 -12 -8 3
-5 12 -7 19 -4 9 3 15 -5 18 -22 l4 -27 2 27 c1 21 5 25 21 21 11 -3 20 -1 20
5 0 5 -8 9 -17 8 -27 -2 -32 97 -6 110 15 7 17 17 12 49 -4 26 -7 31 -8 14 0
-14 -7 -34 -15 -45 -13 -17 -18 -18 -45 -7 -19 7 -31 7 -31 1 0 -5 -15 -8 -32
-6 -28 3 -34 8 -45 43 l-13 40 3 -37z"/>
<path d="M4887 5583 c-4 -3 -7 -11 -7 -17 0 -6 5 -5 12 2 6 6 9 14 7 17 -3 3
-9 2 -12 -2z"/>
<path d="M5330 5580 c0 -5 5 -10 11 -10 5 0 7 5 4 10 -3 6 -8 10 -11 10 -2 0
-4 -4 -4 -10z"/>
<path d="M5380 5525 c0 -8 -7 -15 -15 -15 -12 0 -14 -8 -9 -42 8 -53 18 -66
12 -17 -3 28 1 40 16 49 16 10 18 9 13 -2 -3 -8 -2 -21 3 -28 5 -8 9 3 12 29
3 34 1 41 -14 41 -10 0 -18 -7 -18 -15z"/>
<path d="M4991 5472 c-1 -15 -9 -26 -21 -29 -11 -3 -20 -10 -20 -15 0 -6 -7
-7 -16 -4 -9 4 -13 2 -8 -5 3 -6 17 -9 30 -6 22 4 24 1 25 -37 1 -39 1 -40 11
-13 5 15 14 24 20 21 5 -4 2 6 -7 22 -12 21 -13 24 -2 10 9 -10 23 -16 32 -13
11 5 15 -1 16 -21 l1 -27 7 26 c5 23 9 25 29 18 12 -5 22 -14 22 -21 0 -10 3
-9 9 1 5 8 7 21 4 28 -5 12 -7 12 -14 1 -5 -8 -9 -9 -9 -2 0 7 -8 11 -17 10
-10 0 -18 4 -18 11 0 18 -15 28 -15 10 0 -21 -19 -32 -32 -19 -6 6 -14 25 -18
44 -6 25 -8 27 -9 10z"/>
<path d="M5227 5460 c-4 -17 -4 -36 -1 -41 3 -6 0 -18 -7 -27 -7 -9 -9 -14 -4
-9 5 4 14 -5 21 -20 12 -28 12 -28 13 15 1 37 3 42 19 34 18 -10 42 -6 42 7 0
4 -12 7 -27 6 -23 0 -30 6 -39 34 l-11 34 -6 -33z"/>
<path d="M4862 5455 c0 -16 2 -22 5 -12 2 9 2 23 0 30 -3 6 -5 -1 -5 -18z"/>
<path d="M5328 5459 c-10 -5 -15 -16 -11 -24 3 -9 0 -22 -6 -29 -8 -10 -9 -16
-1 -21 5 -3 11 -16 11 -28 1 -12 5 -4 8 18 4 22 4 47 0 55 -4 8 0 19 9 27 20
15 14 16 -10 2z"/>
<path d="M5051 5198 c-31 -68 -56 -91 -88 -84 l-28 6 25 -15 c31 -18 74 -19
88 -2 9 12 33 129 27 135 -2 2 -12 -16 -24 -40z"/>
<path d="M5154 5223 c2 -10 8 -38 11 -63 4 -25 12 -51 17 -57 14 -17 57 -16
88 2 24 14 24 14 -14 8 -26 -4 -37 -3 -33 4 4 6 -1 17 -10 24 -9 8 -25 33 -35
57 -19 42 -34 57 -24 25z"/>
<path d="M2190 4409 c0 -13 5 -31 10 -39 7 -11 8 -5 4 20 -8 43 -14 51 -14 19z"/>
<path d="M2302 4351 c-55 -19 -80 -36 -70 -47 4 -3 18 2 33 12 15 9 50 25 78
35 29 10 43 18 32 18 -11 0 -44 -8 -73 -18z"/>
<path d="M8041 4413 c0 -12 -4 -30 -7 -40 -5 -17 -5 -17 6 0 6 10 9 28 7 40
-4 22 -4 22 -6 0z"/>
<path d="M7880 4357 c25 -8 64 -24 88 -36 23 -12 42 -17 42 -11 0 16 -78 48
-130 54 l-45 6 45 -13z"/>
<path d="M1705 3028 c-14 -29 -25 -60 -24 -68 0 -8 7 3 16 25 9 22 25 52 35
68 11 15 14 27 8 27 -6 0 -22 -24 -35 -52z"/>
<path d="M1800 2945 c13 -14 26 -25 28 -25 3 0 -5 11 -18 25 -13 14 -26 25
-28 25 -3 0 5 -11 18 -25z"/>
<path d="M1671 2914 c0 -11 3 -14 6 -6 3 7 2 16 -1 19 -3 4 -6 -2 -5 -13z"/>
<path d="M1861 2907 c17 -14 98 -54 94 -46 -7 10 -79 49 -91 49 -4 0 -5 -1 -3
-3z"/>
<path d="M1661 2774 c0 -11 3 -14 6 -6 3 7 2 16 -1 19 -3 4 -6 -2 -5 -13z"/>
<path d="M8500 3073 c0 -5 7 -18 15 -31 9 -12 22 -39 30 -59 7 -21 14 -30 14
-20 1 20 -37 104 -50 113 -5 3 -9 1 -9 -3z"/>
<path d="M8436 2951 l-30 -36 34 32 c19 18 32 34 29 36 -2 2 -17 -12 -33 -32z"/>
<path d="M8562 2920 c0 -14 2 -19 5 -12 2 6 2 18 0 25 -3 6 -5 1 -5 -13z"/>
<path d="M8328 2890 c-20 -11 -39 -24 -43 -29 -4 -8 77 32 94 46 13 10 -19 -1
-51 -17z"/>
<path d="M6334 2505 l1 -25 895 0 895 1 18 24 18 25 -914 0 -915 0 2 -25z"/>
<path d="M5369 182 c-1186 -2 -1197 -2 -1202 -22 -5 -20 1 -20 1794 -20 l1798
0 -7 20 c-7 20 -16 20 -597 23 -325 1 -1128 1 -1786 -1z"/>
<path d="M1208 2302 c-38 -25 -67 -66 -89 -123 -30 -77 -22 -78 16 -2 19 38
51 86 70 106 41 42 41 44 3 19z"/>
<path d="M1327 2182 c-15 -9 -36 -35 -47 -58 -25 -51 -25 -71 0 -23 10 19 33
50 51 67 37 36 36 39 -4 14z"/>
<path d="M1375 2182 c-73 -46 -113 -128 -100 -204 8 -46 60 -109 105 -128 42
-17 70 3 131 98 82 128 88 178 24 221 -48 33 -120 38 -160 13z m160 -36 c43
-33 44 -51 5 -127 -48 -94 -100 -159 -129 -159 -56 0 -121 82 -121 152 0 47
39 118 81 146 45 32 113 26 164 -12z"/>
<path d="M1313 1994 c7 -43 30 -78 70 -108 26 -19 27 -19 47 -1 27 24 25 30
-10 45 -16 7 -48 33 -71 58 l-42 45 6 -39z"/>
<path d="M9042 2280 c20 -25 51 -72 68 -105 21 -41 29 -50 25 -30 -11 50 -58
127 -95 154 l-35 26 37 -45z"/>
<path d="M8735 2183 c-47 -24 -75 -54 -75 -80 0 -49 113 -236 155 -255 57 -26
144 60 152 150 4 38 -1 58 -24 102 -46 88 -133 123 -208 83z m136 -26 c69 -46
99 -149 64 -216 -20 -39 -72 -81 -100 -81 -30 0 -82 62 -130 154 -40 76 -43
96 -17 118 58 51 129 61 183 25z"/>
<path d="M8906 1995 c-15 -19 -45 -44 -67 -55 -41 -21 -49 -40 -25 -59 33 -27
101 42 120 122 8 35 4 34 -28 -8z"/>
<path d="M8899 2183 c14 -10 38 -38 54 -63 18 -28 26 -35 22 -20 -12 37 -44
76 -74 89 l-26 11 24 -17z"/>
<path d="M1297 1571 c-32 -48 -54 -126 -62 -211 l-5 -65 28 105 c16 58 38 127
50 154 28 61 23 69 -11 17z"/>
<path d="M1605 1523 c-62 -16 -109 -92 -121 -195 -12 -101 47 -167 148 -168
79 0 138 98 138 231 0 60 -3 73 -24 94 -13 13 -41 28 -62 34 -41 11 -47 12
-79 4z m78 -24 c61 -16 77 -40 77 -107 0 -74 -23 -151 -54 -185 -47 -51 -172
-26 -196 39 -30 78 20 228 84 254 29 12 45 12 89 -1z"/>
<path d="M1517 1293 c22 -59 68 -93 127 -93 25 0 38 6 46 19 15 28 15 28 -37
36 -27 3 -68 17 -92 31 -52 29 -52 29 -44 7z"/>
<path d="M1475 1443 c-10 -21 -20 -63 -22 -93 l-3 -55 14 67 c8 36 20 76 26
88 6 12 10 24 7 26 -2 3 -13 -12 -22 -33z"/>
<path d="M8923 1585 c21 -43 54 -150 72 -225 l15 -65 -5 77 c-5 86 -32 168
-70 213 l-26 30 14 -30z"/>
<path d="M8565 1521 c-76 -19 -95 -46 -95 -136 0 -97 45 -192 102 -216 61 -25
153 11 178 71 29 70 -11 219 -70 261 -31 22 -75 29 -115 20z m117 -48 c33 -32
58 -106 58 -175 0 -38 -6 -54 -29 -80 -24 -27 -36 -32 -88 -36 -57 -4 -61 -3
-86 27 -48 58 -72 187 -46 245 14 31 80 57 128 51 19 -2 47 -16 63 -32z"/>
<path d="M8700 1296 c-19 -18 -102 -46 -135 -46 -29 0 -32 -12 -9 -34 36 -37
128 -6 159 53 8 17 15 32 15 36 0 10 -16 5 -30 -9z"/>
<path d="M8740 1476 c0 -2 7 -21 16 -42 9 -22 20 -61 24 -89 l8 -50 1 50 c0
30 -7 67 -19 93 -16 35 -30 53 -30 38z"/>
<path d="M1276 1065 c-31 -47 -47 -108 -53 -200 -3 -49 -3 -88 0 -85 3 3 12
47 21 98 9 51 25 119 35 150 22 65 21 74 -3 37z"/>
<path d="M1541 1005 c-39 -34 -64 -103 -65 -179 0 -107 44 -156 144 -156 43 0
56 5 80 28 54 55 78 202 42 272 -22 44 -53 60 -119 60 -41 0 -58 -5 -82 -25z
m124 4 c58 -15 75 -36 82 -102 11 -109 -34 -210 -100 -222 -49 -9 -108 15
-135 55 -21 31 -23 43 -18 97 8 98 36 148 96 175 21 9 26 9 75 -3z"/>
<path d="M1514 772 c21 -41 56 -63 110 -69 37 -5 46 -2 60 18 24 35 21 39 -31
39 -43 1 -74 9 -137 35 -17 8 -17 6 -2 -23z"/>
<path d="M1456 940 c-9 -22 -16 -64 -15 -93 l1 -52 13 71 c7 38 16 80 19 92
12 37 -1 24 -18 -18z"/>
<path d="M8960 1043 c10 -27 28 -100 39 -163 l21 -115 -4 100 c-2 76 -8 112
-26 152 -30 70 -55 91 -30 26z"/>
<path d="M8543 1020 c-12 -5 -30 -21 -40 -36 -27 -42 -23 -162 7 -232 29 -67
62 -86 137 -80 91 8 131 68 119 180 -7 68 -34 127 -72 157 -29 22 -108 28
-151 11z m143 -25 c48 -31 79 -165 54 -239 -14 -45 -57 -69 -121 -70 -55 -1
-75 13 -102 74 -27 59 -29 175 -4 213 28 43 121 55 173 22z"/>
<path d="M8696 783 c-16 -9 -57 -18 -92 -21 -62 -5 -62 -5 -51 -29 22 -48 114
-38 161 18 41 48 35 59 -18 32z"/>
<path d="M8775 940 c4 -14 10 -54 14 -90 l8 -65 1 65 c1 42 -4 74 -14 90 l-15
25 6 -25z"/>
<path d="M1059 574 c-17 -40 -23 -162 -11 -204 9 -31 10 -25 12 50 0 47 5 105
10 130 10 54 5 64 -11 24z"/>
<path d="M1355 590 c-60 -25 -90 -90 -83 -181 7 -100 62 -149 147 -133 42 8
48 13 70 58 28 57 35 161 13 212 -20 48 -89 69 -147 44z m124 -29 c43 -43 33
-199 -15 -247 -42 -43 -137 -25 -162 31 -7 14 -12 53 -12 86 0 102 39 149 122
149 34 0 54 -6 67 -19z"/>
<path d="M1300 392 c0 -16 32 -53 60 -67 37 -19 75 -19 94 1 25 25 19 31 -38
37 -30 3 -68 13 -85 21 -17 9 -31 13 -31 8z"/>
<path d="M1250 529 c-17 -31 -24 -123 -12 -145 9 -15 11 -7 12 41 0 33 4 75 9
93 11 37 7 42 -9 11z"/>
<path d="M9167 590 c4 -8 10 -71 13 -140 l5 -125 13 69 c14 75 4 158 -24 192
-9 11 -12 12 -7 4z"/>
<path d="M8988 505 c4 -22 7 -63 7 -92 0 -28 3 -46 7 -40 13 20 8 110 -7 142
l-14 30 7 -40z"/>
<path d="M8907 383 c-16 -8 -53 -17 -83 -20 -30 -3 -54 -9 -54 -13 0 -4 9 -15
20 -25 36 -32 113 -6 142 48 13 26 8 28 -25 10z"/>
</g>
  <style>
    .small { font: italic 13px sans-serif; }
    .heavy { font: bold 30px sans-serif; }

    /* Note that the color of the text is set with the    *
     * fill property, the color property is for HTML only */
    .Rrrrr { font: italic 40px serif; fill: red; }
  </style>

  <text x="20" y="35" class="small">My</text>
  <text x="40" y="35" class="heavy">cat</text>
  <text x="55" y="55" class="small">is</text>
  <text x="65" y="55" class="Rrrrr">Grumpy!</text></svg>
