<?xml version="1.0" standalone="no"?>
<!DOCTYPE svg PUBLIC "-//W3C//DTD SVG 20010904//EN"
 "http://www.w3.org/TR/2001/REC-SVG-20010904/DTD/svg10.dtd">
<svg version="1.0" xmlns="http://www.w3.org/2000/svg"
 width="906.000000pt" height="996.000000pt" viewBox="0 0 906.000000 996.000000"
 preserveAspectRatio="xMidYMid meet">

<g transform="translate(0.000000,996.000000) scale(0.100000,-0.100000)"
fill="#000000" stroke="none">
<path d="M4342 9840 c-110 -29 -187 -74 -272 -160 -138 -138 -200 -321 -200
-589 0 -68 -3 -78 -27 -103 -24 -25 -28 -39 -31 -104 -5 -86 10 -177 40 -246
l20 -47 -20 -162 c-11 -88 -22 -162 -24 -163 -2 -2 -57 -31 -123 -66 -269
-142 -458 -274 -604 -422 l-63 -65 -102 -6 c-61 -3 -129 -14 -171 -27 -338
-105 -550 -442 -544 -865 1 -85 -4 -126 -19 -180 -63 -211 -86 -380 -86 -610
0 -259 32 -405 119 -549 39 -65 43 -103 25 -231 -16 -108 6 -195 68 -267 24
-28 31 -50 45 -148 26 -179 72 -303 160 -435 22 -33 154 -173 297 -315 272
-269 362 -378 487 -585 105 -174 106 -178 92 -243 -7 -31 -15 -61 -19 -65 -4
-4 -60 -19 -126 -33 -65 -14 -130 -27 -144 -30 -25 -5 -29 1 -84 128 -76 172
-287 602 -366 743 -361 646 -671 1005 -870 1005 -14 0 -192 -70 -395 -155
-405 -170 -412 -175 -440 -267 -18 -62 -38 -259 -33 -336 l3 -54 -184 -72
c-157 -62 -190 -78 -217 -110 -40 -46 -65 -134 -72 -251 l-4 -91 -147 -59
-146 -60 -30 -59 c-27 -54 -30 -71 -33 -182 -9 -270 63 -618 237 -1144 90
-269 154 -436 276 -711 266 -597 519 -991 707 -1098 87 -50 104 -49 267 14
l144 56 81 -79 c85 -83 161 -130 217 -133 22 -1 101 24 220 70 l185 73 110
-110 c83 -82 125 -116 175 -141 112 -55 115 -54 359 42 424 167 533 215 566
252 177 198 55 1067 -287 2036 -81 231 -79 215 -34 223 20 4 38 6 40 4 6 -8
55 -118 55 -124 0 -5 12 -25 27 -47 37 -53 93 -81 152 -74 34 4 52 0 71 -13
41 -29 105 -42 147 -31 36 10 39 9 78 -29 71 -70 159 -89 223 -50 l33 21 29
-31 c100 -107 261 -85 321 45 14 30 19 67 21 150 l2 110 6 -115 c3 -63 10
-124 15 -135 55 -132 212 -164 316 -65 l41 39 31 -20 c64 -38 161 -15 229 55
32 33 37 35 69 26 43 -13 96 -5 140 22 25 16 51 22 96 22 88 1 125 33 178 155
l40 92 35 -6 c74 -13 72 -6 36 -108 -188 -520 -314 -993 -383 -1437 -13 -84
-18 -174 -18 -330 0 -194 2 -222 22 -285 38 -121 31 -117 568 -333 275 -111
302 -115 396 -70 66 33 188 136 244 207 22 27 45 50 50 50 6 1 95 -32 198 -73
175 -68 192 -73 230 -64 64 14 125 54 206 135 l74 73 145 -56 c141 -54 146
-55 194 -44 193 47 464 434 758 1083 332 736 566 1575 536 1929 -7 85 -36 176
-64 201 -10 9 -81 43 -157 75 l-140 59 -6 104 c-4 57 -11 118 -17 134 -14 44
-48 109 -64 123 -8 6 -97 44 -198 85 l-185 74 -6 149 c-10 223 -39 318 -108
353 -100 51 -735 311 -760 311 -149 0 -402 -250 -653 -645 -200 -316 -436
-769 -604 -1161 l-35 -82 -42 10 c-23 5 -93 20 -156 33 -62 13 -115 26 -118
29 -2 2 -11 32 -19 66 l-14 62 57 101 c143 255 242 378 544 677 131 129 254
257 274 284 89 121 156 300 177 475 9 83 15 100 39 126 69 74 84 156 65 355
-9 85 -8 85 22 131 156 231 176 726 47 1155 -21 68 -25 103 -25 209 0 281 -84
509 -250 675 -130 130 -278 197 -462 207 l-98 6 -78 76 c-148 144 -355 287
-596 411 l-125 65 -6 55 c-4 30 -13 101 -21 158 -15 102 -15 103 10 172 55
152 51 331 -9 354 -12 4 -15 26 -15 113 -2 387 -172 645 -476 723 -103 26
-261 26 -362 0z m351 -161 c107 -36 180 -97 218 -183 25 -57 35 -155 22 -205
l-9 -34 -29 58 c-17 32 -48 77 -71 100 -114 118 -402 134 -560 31 -37 -24 -99
-104 -116 -152 -6 -19 -15 -34 -19 -34 -14 0 -21 125 -9 174 14 63 33 99 81
151 45 49 148 100 229 114 73 13 192 4 263 -20z m-390 -653 c50 -24 142 -94
134 -102 -1 -2 -30 8 -63 21 -32 13 -93 32 -134 41 -41 9 -79 20 -83 24 -5 4
-3 18 3 30 10 19 18 22 52 17 21 -3 63 -17 91 -31z m591 12 c9 -12 12 -25 8
-29 -4 -3 -36 -12 -72 -19 -36 -6 -97 -24 -137 -39 -48 -19 -70 -24 -66 -15 8
22 99 84 151 105 64 25 97 24 116 -3z m-345 -302 c18 -22 61 -167 61 -207 0
-33 -3 -37 -40 -48 -30 -9 -50 -9 -85 0 -42 11 -45 14 -45 45 0 36 46 191 62
212 14 16 33 15 47 -2z m-338 -68 c56 -29 88 -35 143 -26 13 2 22 -5 28 -24 8
-24 5 -34 -28 -74 -42 -51 -134 -118 -145 -106 -4 4 -26 41 -48 82 -39 72 -50
124 -35 164 8 22 15 21 85 -16z m720 5 c13 -34 6 -60 -38 -148 -51 -103 -50
-102 -114 -56 -30 21 -69 57 -87 80 -31 39 -33 44 -22 72 10 24 16 28 34 22
37 -13 82 -5 142 26 33 16 62 30 67 31 4 0 12 -12 18 -27z m-298 -594 c42 -11
43 -15 21 -47 -14 -21 -23 -22 -128 -22 -110 0 -114 1 -130 25 -9 13 -16 27
-16 29 0 23 187 34 253 15z m-1364 -704 c20 -57 25 -89 26 -175 0 -99 -2 -108
-32 -165 -17 -33 -43 -73 -56 -89 l-24 -29 -6 51 c-4 31 -21 81 -43 123 l-37
70 -42 -78 c-29 -56 -54 -88 -88 -114 -46 -34 -50 -35 -140 -36 -53 -1 -113
-8 -142 -17 -27 -9 -53 -16 -57 -16 -29 0 26 183 80 266 53 81 130 148 226
194 95 46 238 90 281 87 27 -2 31 -8 54 -72z m2722 36 c195 -66 301 -146 373
-281 32 -61 81 -218 71 -228 -2 -3 -32 3 -67 13 -34 9 -101 18 -148 19 -76 1
-92 4 -127 28 -39 26 -102 115 -118 166 -4 13 -12 21 -18 19 -19 -6 -78 -134
-86 -185 l-6 -47 -43 64 c-48 73 -72 143 -72 215 0 57 21 152 46 216 l17 42
47 -6 c26 -4 85 -19 131 -35z m-2040 -91 c182 -18 420 -75 467 -112 9 -8 12
-57 12 -184 0 -151 -3 -180 -21 -229 -29 -78 -85 -143 -183 -216 -47 -34 -83
-66 -80 -71 13 -21 118 -40 183 -33 l66 7 -30 -32 c-173 -182 -693 -122 -965
113 -41 35 -86 76 -99 90 l-23 25 32 46 c54 80 72 146 78 291 4 128 5 132 48
223 l43 92 184 0 c102 0 231 -5 288 -10z m1665 -80 c40 -83 41 -88 46 -215 6
-143 24 -211 79 -300 l31 -50 -83 -78 c-95 -89 -162 -133 -274 -178 -209 -83
-507 -98 -640 -31 -37 18 -105 71 -105 81 0 4 39 7 88 7 62 0 98 5 125 17 l38
18 -38 26 c-132 89 -205 167 -241 258 -9 21 -12 91 -10 225 l3 195 84 28 c183
63 359 85 651 83 l205 -1 41 -85z m-2497 -819 c53 -38 116 -185 150 -353 17
-80 17 -88 2 -88 -46 0 -93 -26 -159 -84 -84 -76 -115 -86 -187 -59 -59 22
-77 48 -106 159 -16 59 -21 113 -22 212 -2 131 -2 133 23 152 64 50 196 94
250 84 14 -3 36 -13 49 -23z m3006 -2 c28 -11 70 -33 93 -50 l42 -31 0 -98 c0
-163 -44 -352 -90 -387 -24 -18 -100 -35 -131 -28 -16 4 -59 34 -95 67 -67 61
-115 88 -155 88 -20 0 -21 3 -14 46 18 120 68 274 114 345 50 79 115 92 236
48z m550 -406 c-21 -91 -81 -211 -152 -304 -71 -93 -186 -229 -190 -226 -1 2
17 52 42 113 56 139 70 255 61 495 l-6 166 59 -29 c56 -28 59 -29 95 -14 21 9
52 27 69 40 l32 25 3 -99 c2 -64 -3 -123 -13 -167z m-4252 225 c62 -40 102
-41 156 -5 l40 27 -1 -228 c-1 -261 7 -313 72 -468 22 -54 37 -94 32 -89 -235
271 -303 376 -342 529 -19 76 -29 266 -13 266 3 0 29 -14 56 -32z m1945 -334
c63 -44 72 -154 26 -297 l-16 -49 -44 7 c-52 7 -99 -11 -188 -73 -75 -53 -107
-55 -152 -7 -33 36 -64 114 -64 164 0 47 21 101 48 126 38 35 198 115 263 130
73 18 101 18 127 -1z m445 0 c68 -17 174 -67 240 -113 35 -24 47 -40 57 -76
24 -85 -7 -197 -66 -244 -44 -35 -75 -26 -186 52 -48 34 -66 41 -105 41 -26 0
-55 -2 -63 -5 -35 -10 -75 211 -51 284 15 43 53 77 88 77 14 0 52 -7 86 -16z
m142 -630 c80 -20 103 -36 111 -80 9 -48 -7 -110 -26 -106 -8 2 -65 18 -126
34 -66 19 -121 28 -136 25 -13 -4 -45 -22 -71 -42 l-46 -35 -11 37 c-6 21 -13
66 -17 99 l-6 62 54 11 c101 21 172 19 274 -5z m-552 1 c22 -9 23 -81 2 -153
l-16 -51 -45 34 c-25 19 -57 38 -71 41 -23 6 -101 -11 -225 -50 l-47 -15 -11
35 c-13 39 -7 90 13 118 26 35 131 56 262 52 66 -2 128 -7 138 -11z m-1598
-47 c81 -27 207 -86 279 -133 79 -50 202 -174 254 -255 89 -137 190 -368 247
-566 35 -124 35 -124 46 -94 11 27 30 251 22 262 -2 5 -2 8 1 8 10 0 54 -95
69 -150 10 -34 18 -124 22 -235 11 -333 29 -419 124 -600 32 -60 64 -127 70
-148 7 -21 19 -167 27 -330 8 -160 15 -310 16 -332 3 -35 0 -40 -19 -43 -16
-2 -26 5 -36 25 -20 40 -24 59 -46 253 -21 176 -48 320 -61 320 -14 0 -59
-360 -60 -472 0 -72 -9 -94 -26 -67 -15 25 -95 51 -135 44 l-39 -7 0 129 c1
70 5 175 10 233 21 221 8 436 -39 665 -44 212 -143 370 -375 599 -88 87 -152
156 -141 153 60 -18 116 -29 121 -24 6 6 -72 124 -126 192 -17 22 -70 82 -118
134 -103 110 -144 172 -171 255 -18 54 -41 168 -41 204 0 16 30 11 125 -20z
m3565 8 c0 -64 -33 -187 -69 -261 -30 -60 -66 -108 -143 -191 -90 -97 -173
-203 -233 -296 -21 -33 -15 -34 65 -13 30 8 58 15 62 15 4 0 -43 -47 -105
-104 -133 -123 -206 -204 -276 -308 -175 -261 -213 -494 -187 -1149 l9 -215
-55 0 c-43 1 -63 -5 -96 -26 -23 -16 -43 -28 -45 -28 -3 0 -5 39 -6 88 -2 132
-48 470 -61 455 -16 -17 -40 -145 -60 -322 -23 -209 -43 -275 -82 -269 -26 3
-25 -8 -9 173 5 61 10 164 11 230 0 66 5 161 9 211 9 86 14 100 80 230 42 82
79 170 90 216 20 79 41 316 41 467 0 101 18 178 59 259 l30 57 1 -84 c0 -95
17 -211 31 -211 5 0 9 8 9 18 0 38 114 355 169 467 131 272 258 409 486 522
66 33 213 83 268 92 4 0 7 -10 7 -23z m-4750 -1153 c55 -280 151 -631 261
-956 49 -148 73 -230 65 -233 -6 -2 -101 -35 -211 -73 -110 -38 -219 -76 -242
-85 l-43 -15 -59 187 c-76 237 -131 436 -176 627 -42 183 -88 431 -83 447 4
12 424 155 460 157 12 1 19 -13 28 -56z m6101 -19 l228 -75 -5 -27 c-43 -243
-59 -324 -89 -446 -75 -315 -220 -786 -241 -786 -16 0 -476 160 -486 169 -5 4
26 108 67 231 92 274 183 597 231 819 43 200 41 191 55 191 6 0 114 -34 240
-76z m-6727 -731 c42 -162 138 -466 207 -658 91 -253 92 -256 87 -261 -3 -2
-77 -26 -164 -53 -142 -43 -160 -46 -172 -33 -40 51 -252 785 -277 962 l-6 45
133 51 c73 29 140 52 149 53 11 1 22 -26 43 -106z m7268 56 c73 -28 136 -54
140 -58 10 -9 -54 -294 -113 -501 -35 -123 -156 -490 -167 -506 -5 -8 -57 4
-172 38 -91 28 -166 51 -168 52 -1 2 16 52 39 112 90 239 219 642 279 872 6
23 15 42 20 42 5 0 69 -23 142 -51z m-4230 -9 c43 -37 48 -47 77 -152 25 -91
33 -144 40 -268 8 -139 11 -160 35 -204 29 -55 34 -104 10 -113 -8 -3 -20 -1
-25 4 -6 6 -25 77 -44 159 -32 148 -137 563 -150 597 -11 28 9 20 57 -23z
m1027 -40 c-28 -102 -113 -445 -139 -565 -25 -112 -34 -135 -55 -135 -29 0
-27 46 4 118 23 52 31 86 31 129 1 175 45 402 89 463 18 25 81 73 87 67 2 -2
-5 -36 -17 -77z m-4549 -464 c0 -18 123 -412 179 -575 39 -113 70 -206 68
-207 -2 -2 -200 -74 -204 -74 -3 0 -141 421 -167 510 -25 85 -66 243 -66 254
0 6 169 95 183 95 4 1 7 -1 7 -3z m8160 -41 l89 -45 -35 -131 c-36 -136 -149
-496 -183 -584 -14 -37 -24 -49 -37 -47 -50 10 -184 66 -184 77 0 7 11 41 24
76 43 116 143 422 182 561 21 76 42 138 47 138 4 0 48 -20 97 -45z m-4143 -77
c-2 -13 -4 -5 -4 17 -1 22 1 32 4 23 2 -10 2 -28 0 -40z"/>
</g>
</svg>
