<?xml version="1.0" standalone="no"?>
<!DOCTYPE svg PUBLIC "-//W3C//DTD SVG 20010904//EN"
 "http://www.w3.org/TR/2001/REC-SVG-20010904/DTD/svg10.dtd">
<svg version="1.0" xmlns="http://www.w3.org/2000/svg"
 width="880.000000pt" height="464.000000pt" viewBox="0 0 880.000000 464.000000"
 preserveAspectRatio="xMidYMid meet">

<g transform="translate(0.000000,464.000000) scale(0.100000,-0.100000)"
fill="#000000" stroke="none">
<path d="M3415 4214 c-11 -3 -92 -25 -180 -49 -230 -63 -266 -63 -332 -2 l-46
42 7 -35 c20 -101 30 -133 56 -168 34 -47 93 -77 186 -96 38 -7 60 -14 49 -15
-11 0 -56 -12 -100 -26 -116 -36 -170 -34 -235 10 -29 20 -55 34 -57 31 -11
-11 12 -99 38 -144 23 -41 39 -56 86 -78 53 -26 69 -29 196 -32 135 -4 138 -5
131 -26 -20 -66 -47 -125 -82 -179 -54 -83 -58 -111 -29 -169 l24 -47 -22 -21
c-12 -12 -39 -26 -61 -31 -49 -14 -88 -57 -102 -111 -6 -24 -16 -95 -22 -160
l-12 -116 -30 10 c-16 6 -49 8 -74 5 -31 -3 -55 1 -82 14 -58 29 -200 62 -242
56 -38 -5 -51 -16 -267 -223 -49 -47 -53 -54 -53 -98 0 -44 27 -117 49 -131 7
-4 7 -15 1 -31 -22 -58 -11 -110 37 -168 13 -15 59 -98 103 -185 73 -144 84
-160 139 -203 33 -26 104 -100 159 -165 174 -207 258 -281 402 -353 85 -43
233 -92 332 -110 l67 -12 66 36 c125 71 262 194 369 334 26 34 51 60 55 57 5
-2 11 -46 14 -97 4 -51 9 -111 13 -133 5 -37 0 -50 -61 -150 -37 -60 -80 -136
-96 -167 -33 -66 -69 -188 -69 -236 0 -32 4 -35 74 -67 246 -114 558 -161 918
-137 101 7 244 21 318 32 163 24 150 24 150 1 0 -49 85 -111 151 -111 22 0 43
-10 70 -34 42 -38 88 -51 151 -43 35 5 44 2 59 -17 25 -32 79 -56 124 -56 20
0 76 17 124 37 l87 37 70 95 c84 116 155 255 178 347 22 87 58 151 190 339
171 242 238 398 252 589 7 96 -8 232 -38 342 -13 49 -21 111 -22 164 -1 93 -2
97 -88 210 -38 48 -48 70 -48 100 0 55 -36 184 -66 241 -37 67 -113 136 -211
193 -78 45 -84 51 -115 114 -45 92 -169 217 -258 259 -80 38 -161 60 -261 69
l-76 6 -74 75 c-192 194 -512 344 -762 358 -45 3 -125 16 -177 30 -141 38
-310 51 -468 37 -71 -6 -135 -14 -143 -17 -9 -3 -21 8 -34 31 -25 47 -92 97
-163 125 -56 21 -193 34 -237 23z m228 -122 c101 -57 141 -174 102 -293 -23
-69 -112 -161 -173 -180 -52 -15 -96 1 -117 42 -26 49 -18 83 31 142 13 16 24
37 24 48 0 28 17 23 34 -8 l15 -28 1 35 c0 45 -30 94 -72 117 -28 15 -66 19
-230 23 -158 4 -200 8 -212 20 -14 14 2 20 146 59 206 55 238 61 326 56 58 -3
84 -10 125 -33z m-255 -191 c20 -12 -6 -20 -42 -14 -20 4 -24 8 -14 14 17 11
39 11 56 0z m7 -547 c0 -6 -15 -23 -32 -38 -33 -28 -33 -28 -33 -5 0 12 8 31
17 41 18 20 48 21 48 2z m29 -464 c14 -5 28 -20 32 -33 4 -19 14 -26 43 -31
40 -6 81 -38 81 -63 0 -8 -30 -46 -67 -84 l-68 -68 -59 24 c-33 14 -61 27 -64
30 -3 2 3 16 12 30 9 14 24 37 33 53 l17 27 -24 -20 c-14 -10 -44 -37 -66 -58
-38 -35 -44 -38 -65 -27 -13 7 -25 14 -27 15 -7 5 77 172 94 186 34 30 82 37
128 19z m-387 -230 c18 -10 44 -37 58 -60 27 -42 39 -47 79 -29 20 10 29 8 54
-10 33 -23 62 -27 79 -10 16 16 33 2 33 -25 0 -13 9 -34 19 -47 19 -23 19 -24
-26 -86 -47 -67 -83 -153 -83 -203 0 -36 0 -36 -121 -11 -149 31 -169 41 -185
87 -16 45 -19 124 -4 124 5 0 25 16 45 35 41 42 43 62 15 160 -11 38 -20 76
-20 82 0 18 20 16 57 -7z m2670 -606 l29 -6 -20 -56 c-33 -94 -29 -253 12
-423 18 -77 32 -162 32 -195 -1 -54 -4 -63 -38 -101 -36 -41 -38 -41 -82 -33
-25 5 -72 9 -105 10 -57 0 -63 2 -98 38 -36 37 -38 43 -52 148 -16 118 -19
205 -9 276 6 40 11 47 51 68 60 32 141 122 186 208 39 74 43 76 94 66z"/>
</g>
</svg>
