<?xml version="1.0" encoding="UTF-8" standalone="no"?>
<svg xmlns:rdf="http://www.w3.org/1999/02/22-rdf-syntax-ns#" xmlns="http://www.w3.org/2000/svg" height="1120.9pt" width="1035.3pt" version="1.1" xmlns:cc="http://creativecommons.org/ns#" xmlns:dc="http://purl.org/dc/elements/1.1/" viewBox="0 0 1035.3135 1120.9363">
<g transform="translate(0 -.000048828)">
<path d="m566.99 28.423c-11.07-0.033-22.26 4.751-29.02 13.718-10.84 2.53-20.02-6.851-30.37-8.741-15.73-6.02-36.151 1.0203-41.041 18.22-1.55 3.8-0.12872 11.22-5.5187 11.38-12.5-6.32-30.591 4.6397-26.931 19.33 2.73 6.49 14.43-2.3094 14.67 6.3906-18.48 11.42-37.669 30.459-33.039 54.259 7.34 13.88 23.95 20.331 34.15 30.991-20.15 26.12 9.9197 71.66 41.13 59.18 9.04 11.42 16.98 23.8 22.68 37.23 0.86 4.81-4.95 7.6809-7.6 10.761-15.46 12.5-26.67 29.63-42.07 41.95-26.24 6.57-42.37 33.199-39.38 59.589 0.98 5.99-0.81968 25.14-10.98 18.62-2.49-6.01-10.21-7.6197-16.02-8.8297-2.73-1.6319-5.6952-2.0977-8.7328-2.1-3.9055-0.003-7.9297 0.76063-11.727 0.8-7.71-0.46-15.901-0.0109-22.361 4.6891-14.39 9.97-31.17-2.0694-46.78 1.0906-37.85-0.68-64.209 34.36-73.559 67.57-2.99 12.48-18.271 18.189-16.391 32.289-12.35 16.07-31.65 25.02-45.07 40.25-8.51 7.41-27.09 12.58-20.95 27.6-0.66 10.96 20.53 20.61 6.7297 29.12-19.81 19.12-35.32 42.07-52.95 63.08-9.44 9.61-25.209 25.351-12.469 38.831 6.26 21.4 30.969 28.899 40.619 48.289 17.35 24.04 38.421 45.121 60.761 64.491 0.32 5.85-2.2297 11.46-4.5797 16.7-19.62 29.69-22.15 69.249-19.02 103.91-21.27 7.95-45.36 8.1697-67.48 14.48-14.28 6.37-11.601 31.161 3.8687 34.161 9.2 0.6 20.171 0.02 28.481-3.6703 14.5-3.49 29.399-5.6897 43.719-10.03 1.93 1.09 2.2203 4.5203 4.3703 4.7703 0.74 14 10.891 25.699 17.841 37.239 3.6 7.86 11.049 13.67 12.139 22.77-2.83 4.82-6.0094-1.5903-9.7594-0.3203-27.55 3.15-56.911 7.6106-80.141 23.691-14.47 11.31 3.8513 27.889 13.531 32.459-21.84 12.33-51.971 6.49-72.641 22.65-6.7 7.69 5.1 14.81 12.2 13.5 37.62-0.65 73.81-12.909 110.15-21.509 34.57 1.59 69.23 5.6197 103.95 2.1297 47.55-4.35 96.679-2.9894 142.66-17.359 9.62-3.33 20.701-10.831 20.641-21.891-1.85-13.2-20.99-15.41-25.48-24.68 12.32-5.9 26.859-6.9597 40.039-10.98 17.42 3.43 33.831 12.009 51.841 13.419 20.31 2.18 42.96 10.601 61.88-1.1891 5.12-5.84-4.8497-12.051-1.5797-16.161 44.78 14.05 93.56 21.011 140.78 15.591 14.17-2.56 37.56-5.9897 35.42-25.43-7.64-18.61-30.66-22.661-47.52-28.991 0.32-5.05 8.601-3.6894 11.411-7.2594 5.72-4.14 0.12968-11.361-3.6703-14.541 8.67-7.4 22.8-8.4897 33.43-4.1297 54.59 12.21 110.73 6.35 165.99 3.6 22.59-6.14 50.789-2.7506 67.869-21.541 7.36-15.08-9.909-26.89-23.189-28.65-3.8-1.97-11.221-1.2087-10.991-6.8687 21.63-16.7 52.79-13.431 75.13-28.481-8.24-20.38-32.66-0.93904-46.83-4.189 3-13.15 11.43-25.79 11.48-39.98 3.31-20.98 2.821-42.481 3.211-63.681 7.23-6.07 19.86-3.9488 28.52-8.6688 19.93-0.99 14.929-33.421-2.7906-34.181-0.39-0.07-1.1803-0.20969-1.5703-0.27969-2.82 0.2-5.43 0.56062-8.15 0.89062-9.09-0.25-24.64 11.12-29.08-1.7703-4.04-8.96-9.3406-17.411-15.591-24.941-10.16-11.06-22.16-21.469-34.5-30.219-0.08-1.68-2.539-1.96-3.689-2.85-18.321-14.169-42.316-21.745-66.047-21.625-18.458 0.0934-36.756 4.8416-52.103 14.764 1.0808-0.082 2.1646-0.19414 3.25-0.31719-1.0852 0.12302-2.1694 0.23522-3.25 0.31719-5.29 0.94-10.97 2.1306-15.05 5.8906-14.61 3.61-25.66 15.9-34 28-22 26.51-30.3 64.419-25.97 98.539-1.28 3.33-4.1406 2.5306-5.9906 0.24062-3.2-13.42-11.299-25.16-13.959-38.75-7.59-28.55-2.4697-58.11 0.12032-86.95 4.56-47.91 4.8203-98.05-15.48-142.78-2.81-37.26 2.79-76.381-9.6-112.46-0.66-34.84 16.469-83.759-17.981-107.82-10.84-12.85-29.39-7.7903-42.9-15.22-8.13-9-20.479-12.23-30.389-18.53-20.2-32.87 21.75-65.781 4.4797-99.491-9.22-12.68-19.459-28.36-13.059-44.7 5.01-8.06-11.13-7.7303-7.5703-15.37 10.62-5.46 23.749-2.4791 35.109-5.8391 5.05-5.53 5.3906-17.201-3.1594-19.611-4.47-3.26-11.331 2.5803-14.461-2.6797-0.84-14.59 2.3706-32.359-8.6094-44.059-6.3131-6.1512-14.847-9.0914-23.456-9.1172zm-41.82 34.854c0.56808 0.46475 1.1937 0.91064 1.839 1.3531-0.64536-0.44248-1.271-0.88838-1.839-1.3531zm52.867 19.403c-0.11256 0.09905-0.23448 0.1917-0.3672 0.27969-0.39712 0.26328-0.87952 0.48036-1.4141 0.67031 0.53456-0.18995 1.017-0.40703 1.4141-0.67031 0.13232-0.08776 0.25488-0.18093 0.3672-0.27969zm-2.911 1.3c-0.7872 0.21661-1.6286 0.40855-2.45 0.62031 0.82144-0.21176 1.6628-0.4037 2.45-0.62031zm-30.95 5.87c0.0906 0.24277 0.16496 0.50058 0.23128 0.76562-0.0664-0.26473-0.14088-0.52326-0.23128-0.76562zm0.29216 1.0406c0.0392 0.18384 0.0728 0.3709 0.1016 0.5625-0.0288-0.19151-0.0624-0.37879-0.1016-0.5625zm0.14376 0.87344c0.0232 0.19955 0.0384 0.40242 0.0496 0.60781-0.012-0.20521-0.0272-0.40846-0.0496-0.60781zm14.78 0.411c-0.22896-0.0024-0.45344 0.0086-0.67496 0.02968 0.2216-0.0212 0.446-0.03216 0.67496-0.02968zm0.12344 0.0016c0.21192 0.0064 0.42728 0.0256 0.64536 0.05312-0.21824-0.0276-0.43344-0.0468-0.64536-0.05312zm-0.97968 0.04688c-0.22248 0.02776-0.44144 0.06688-0.65624 0.11718 0.21488-0.0504 0.43368-0.08939 0.65624-0.11718zm1.8219 0.0344c0.24128 0.03744 0.48408 0.0822 0.7328 0.14687 0.25128 0.06536 0.5084 0.15077 0.7672 0.24531-0.25896-0.09463-0.51576-0.17986-0.7672-0.24531-0.2484-0.06464-0.49184-0.1094-0.7328-0.14687zm-2.6797 0.13594c-0.12552 0.03376-0.2476 0.076-0.37032 0.11718 0.12272-0.04112 0.2448-0.08339 0.37032-0.11718zm-12.99 0.269c0.009 0.28418 0.008 0.57207-0.008 0.8625 0.012-0.29069 0.0136-0.57813 0.008-0.8625zm17.364 0.06248c0.26072 0.10204 0.52424 0.21234 0.79224 0.34531-0.268-0.13296-0.53144-0.24321-0.79224-0.34531zm-5.3625 0.02816c-0.0824 0.03704-0.16576 0.07216-0.24688 0.1125 0.0812-0.04032 0.1644-0.07536 0.24688-0.1125zm-0.9328 0.50156c-0.0376 0.02416-0.0784 0.04392-0.1156 0.06872 0.0376-0.02488 0.0776-0.04456 0.1156-0.06872zm-0.87496 0.63594c-0.0584 0.0488-0.11424 0.1027-0.17192 0.15313 0.0576-0.05048 0.11328-0.10434 0.17192-0.15313zm-10.23 0.06248c-0.0112 0.14913-0.0208 0.29737-0.0376 0.44687 0.016-0.14908 0.0264-0.29818 0.0376-0.44687zm9.536 0.57812c-0.0801 0.08074-0.15792 0.16463-0.236 0.24844 0.0784-0.08387 0.15584-0.16765 0.236-0.24844zm-9.6454 0.40313c-0.0184 0.12014-0.0392 0.23968-0.0608 0.35938 0.0216-0.11969 0.0424-0.23924 0.0608-0.35938zm8.9657 0.35c-0.0672 0.08124-0.13584 0.16191-0.2016 0.24531 0.0656-0.08359 0.13392-0.1639 0.2016-0.24531zm-9.1375 0.56875c-0.0168 0.07408-0.0376 0.14664-0.056 0.22031 0.0184-0.07368 0.0392-0.14619 0.056-0.22031zm8.4797 0.29218c-0.0448 0.06416-0.0918 0.12555-0.13592 0.19062 0.044-0.06512 0.091-0.12648 0.13592-0.19062zm-0.68128 1.0562c-0.0264 0.0452-0.0504 0.092-0.0768 0.1375 0.0264-0.04552 0.0504-0.09228 0.0768-0.1375zm-0.48592 0.89219c-0.0488 0.09629-0.0963 0.19346-0.14376 0.29062 0.0472-0.0973 0.0946-0.1942 0.14376-0.29062zm-0.45624 0.96094c-0.0424 0.09649-0.0841 0.19366-0.12504 0.29062 0.0408-0.09719 0.0824-0.1939 0.12504-0.29062zm-0.29376 0.70938c-0.1956 0.49446-0.37672 0.99179-0.52968 1.4859-0.35336-0.13947-0.72056-0.25523-1.0953-0.35625 0.37504 0.1008 0.74176 0.21671 1.0953 0.35625 0.15304-0.49431 0.33392-0.99134 0.52968-1.4859zm-4.7906 0.70312c0.0712 0.002 0.13896 0.009 0.20936 0.011-0.18264-0.006-0.36784-0.006-0.55312-0.006 0.11408-0.00005 0.23072-0.007 0.34376-0.005zm-1.0843 0.0141c-0.12184 0.005-0.24608 0.016-0.3688 0.0234 0.12288-0.007 0.2468-0.0183 0.3688-0.0234zm1.9125 0.0313c0.22608 0.0167 0.44904 0.0402 0.67032 0.0672-0.2212-0.0274-0.44432-0.0502-0.67032-0.0672zm1.2 0.14063c0.24448 0.0402 0.48296 0.0912 0.72032 0.14532-0.23728-0.0544-0.47592-0.10488-0.72032-0.14532zm-13.6 2.5172c-0.0624 0.0271-0.12504 0.0538-0.18752 0.0812 0.0624-0.0274 0.12488-0.0542 0.18752-0.0812zm-1.2844 0.57969c-0.11304 0.0534-0.22504 0.10827-0.33752 0.16249 0.11272-0.0542 0.22416-0.10913 0.33752-0.16249zm-1.2156 0.59531c-0.21888 0.11153-0.4344 0.22475-0.65 0.33906 0.21568-0.11415 0.43096-0.2277 0.65-0.33906zm-1.2782 0.675c-0.29584 0.16292-0.58536 0.32969-0.87344 0.49687 0.28848-0.16723 0.57712-0.33398 0.87344-0.49687zm-1.2312 0.70156c-0.41504 0.24605-0.822 0.49585-1.2172 0.74844 0.3952-0.2526 0.80216-0.50261 1.2172-0.74844zm-37.683 29.855c-0.0128 0.4556-0.04 0.91091-0.0704 1.3656 0.0304-0.45481 0.0576-0.90992 0.0704-1.3656zm-0.2172 1.7359c-0.0176 0.10737-0.032 0.21455-0.0512 0.32188 0.0192-0.10726 0.0336-0.21457 0.0512-0.32188zm-0.20784 1.0734c-0.0272 0.12395-0.052 0.24816-0.0813 0.37188 0.0296-0.12385 0.0544-0.2478 0.0813-0.37188zm0.20624 0.25c-0.016 0.15155-0.0272 0.30332-0.0456 0.45469 0.0176-0.15133 0.0288-0.30318 0.0456-0.45469zm-0.45784 0.77188c-0.0456 0.16885-0.0891 0.33815-0.13904 0.50625 0.0496-0.16805 0.0933-0.33744 0.13904-0.50625zm-0.32968 1.1047c-0.0544 0.16655-0.10864 0.33299-0.16712 0.49844 0.0584-0.16549 0.11256-0.33185 0.16712-0.49844zm0.44064 0.78282c-0.0152 0.0978-0.0344 0.1945-0.0496 0.29219 0.016-0.0977 0.0344-0.19441 0.0496-0.29219zm-0.84064 0.33906c-0.0616 0.15859-0.12416 0.31619-0.18904 0.47344 0.0648-0.15694 0.12784-0.31517 0.18904-0.47344zm-0.43904 1.0594c-0.0768 0.17324-0.15768 0.34445-0.23904 0.51562 0.0814-0.17115 0.16184-0.34241 0.23904-0.51562zm0.92032 0.67812c-0.44624 2.4177-0.97512 4.7945-1.4203 7.0984 0.44512-2.3034 0.974-4.6816 1.4203-7.0984zm-1.4172 0.36719c-0.0865 0.17042-0.17656 0.33833-0.2672 0.50625 0.0906-0.16785 0.18072-0.33591 0.2672-0.50625zm-0.57184 1.0594c-0.0776 0.13483-0.16032 0.26553-0.24064 0.39843 0.0803-0.13282 0.16296-0.26369 0.24064-0.39843zm-0.60472 0.99062c-0.0704 0.10885-0.1464 0.213-0.21872 0.32031 0.072-0.10729 0.14816-0.21148 0.21872-0.32031zm-0.99216 1.3938c-0.10944 0.14214-0.21704 0.28645-0.32968 0.425 0.11256-0.13843 0.22032-0.283 0.32968-0.425zm-0.62344 0.77031c-0.15288 0.17945-0.30584 0.35872-0.46408 0.53125 0.15824-0.17249 0.3112-0.35185 0.46408-0.53125zm-0.76096 0.84063c-0.16216 0.16885-0.32488 0.33721-0.49216 0.49843 0.16744-0.16135 0.32984-0.32943 0.49216-0.49843zm-0.83752 0.81718c-0.15664 0.14304-0.31424 0.28427-0.47496 0.42031 0.16064-0.13596 0.3184-0.27736 0.47496-0.42031zm-17.002 0.0594c0.3768 0.32316 0.75328 0.61809 1.1297 0.89375-0.37624-0.27557-0.75304-0.57072-1.1297-0.89375zm16.134 0.67969c-0.1548 0.12298-0.31064 0.24314-0.4688 0.35938 0.158-0.11608 0.31416-0.23659 0.4688-0.35938zm-14.591 0.49531c0.24304 0.16719 0.4856 0.33621 0.72808 0.48438-0.2428-0.14834-0.48472-0.31699-0.72808-0.48438zm13.719 0.15c-0.17184 0.11782-0.34488 0.23106-0.52032 0.34063 0.17536-0.1095 0.34856-0.22289 0.52032-0.34063zm-0.90152 0.57187c-0.18944 0.11008-0.38184 0.21242-0.57504 0.31251 0.19328-0.10011 0.38552-0.2024 0.57504-0.31251zm-11.641 0.0156c0.23 0.12989 0.45976 0.25851 0.68904 0.37188-0.22912-0.1133-0.4592-0.24208-0.68904-0.37188zm10.695 0.48594c-0.20816 0.0996-0.41904 0.18903-0.63128 0.27656 0.21192-0.0874 0.42336-0.17715 0.63128-0.27656zm-9.5438 0.0984c0.22184 0.0994 0.44328 0.19526 0.66408 0.27969-0.22096-0.0845-0.44208-0.18022-0.66408-0.27969zm8.5703 0.32032c-0.23104 0.0872-0.46624 0.16051-0.70152 0.23281 0.23544-0.0723 0.47032-0.14558 0.70152-0.23281zm-7.4375 0.12499c0.2184 0.0735 0.43608 0.14065 0.65312 0.2-0.21712-0.0594-0.43472-0.12648-0.65312-0.2zm6.4282 0.20626c-0.33856 0.0937-0.68024 0.17308-1.0266 0.23438 0.34584-0.0612 0.6884-0.14087 1.0266-0.23438zm-5.311 0.1125c0.21976 0.0503 0.43816 0.0918 0.65624 0.12812-0.21808-0.0363-0.43656-0.0778-0.65624-0.12812zm4.1454 0.13906c-0.29264 0.0479-0.58688 0.0873-0.8844 0.11094 0.29768-0.0237 0.5916-0.063 0.8844-0.11094zm-3.0562 0.0562c0.2336 0.0293 0.46536 0.0471 0.6968 0.061-0.23152-0.0138-0.46312-0.0316-0.6968-0.061zm1.7625 0.0703c-0.22456 0.009-0.44968 0.0177-0.67656 0.0125 0.22688 0.006 0.45208-0.003 0.67656-0.0125zm86.864 67.128c0.4368-0.0116 0.87152-0.0116 1.3062 0 0.49992 0.0133 0.99904 0.0468 1.4953 0.0922-0.4968-0.0454-0.9948-0.0789-1.4953-0.0922-0.54216-0.0145-1.086-0.004-1.6313 0.0172 0.10824-0.004 0.2168-0.0143 0.32504-0.0172zm-0.7516 0.039c-0.412 0.023-0.82464 0.0562-1.2375 0.0984 0.4128-0.0422 0.8256-0.0754 1.2375-0.0984zm3.975 0.1c0.35752 0.0395 0.71376 0.0882 1.0687 0.14531-0.3548-0.0571-0.71144-0.10576-1.0687-0.14531zm-5.6829 0.0469c-0.52432 0.0626-1.049 0.13805-1.5734 0.22969 0.52448-0.0916 1.0491-0.16706 1.5734-0.22969zm7.2422 0.18281c0.33176 0.0614 0.6616 0.13332 0.99064 0.21094-0.32904-0.0776-0.65888-0.1495-0.99064-0.21094zm-9.1813 0.11719c-0.4216 0.079-0.8432 0.1676-1.2641 0.26406 0.42128-0.0966 0.84208-0.18506 1.2641-0.26406zm10.68 0.21406c0.47416 0.12471 0.94528 0.26153 1.4125 0.42187 0.47424 0.16277 0.94336 0.35064 1.4094 0.55157-0.46632-0.20102-0.93496-0.38873-1.4094-0.55157-0.46696-0.16026-0.93856-0.29719-1.4125-0.42187zm-12.453 0.17031c-0.4388 0.10784-0.87704 0.22439-1.3141 0.35 0.43704-0.12561 0.87528-0.24215 1.3141-0.35zm-1.6203 0.43594c-0.5272 0.15659-1.0518 0.32719-1.575 0.50782 0.52288-0.18048 1.0481-0.35134 1.575-0.50782zm17.308 0.55626c0.32512 0.14908 0.64824 0.3063 0.96872 0.47499-0.32032-0.16862-0.64376-0.32596-0.96872-0.47499zm-19.34 0.09c-0.40368 0.14484-0.80576 0.29668-1.2062 0.45469 0.40064-0.15802 0.8024-0.30983 1.2062-0.45469zm-1.6266 0.62187c-0.53008 0.21567-1.0584 0.43826-1.5812 0.675-0.48536 0.21976-0.96576 0.45271-1.4438 0.68907 0.47824-0.23646 0.95816-0.46923 1.4438-0.68907 0.52304-0.23682 1.0509-0.45926 1.5812-0.675zm22.438 0.0187c0.29872 0.16851 0.59488 0.3479 0.88904 0.53438-0.29408-0.18638-0.5904-0.36595-0.88904-0.53438zm1.3484 0.82656c0.43904 0.29498 0.874 0.60482 1.3016 0.9422-0.42776-0.33749-0.8624-0.64713-1.3016-0.9422zm-28.964 1.6484c-0.1276 0.071-0.25288 0.14517-0.37968 0.2172 0.12704-0.0722 0.25184-0.14608 0.37968-0.2172zm-2.1954 1.2969c-0.158 0.0982-0.3168 0.19577-0.47344 0.29532 0.15696-0.0997 0.31512-0.19695 0.47344-0.29532zm-2.5031 1.6422c-0.0632 0.0441-0.12312 0.0901-0.18592 0.13437 0.0632-0.0443 0.1228-0.0902 0.18592-0.13437zm-1.9266 1.4156c-0.1612 0.12315-0.3224 0.24627-0.48128 0.37031 0.1592-0.1243 0.31968-0.24692 0.48128-0.37031zm-21.608 30.677c0.0272-0.0001 0.06 0.006 0.0875 0.006-0.028-0.00058-0.06-0.005-0.0875-0.005-0.0544 0.00023-0.0989 0.01-0.15 0.0125 0.0512-0.003 0.0954-0.0138 0.15-0.0141zm0.47344 0.0328c0.0664 0.008 0.13656 0.0189 0.20632 0.0297-0.0696-0.0107-0.14032-0.0222-0.20632-0.0297zm-0.90776 0.006c-0.056 0.01-0.10312 0.027-0.15472 0.0406 0.052-0.0137 0.0986-0.0308 0.15472-0.0406zm1.3875 0.0734c0.2972 0.0594 0.614 0.13623 0.97496 0.25-0.36016-0.11353-0.67832-0.19096-0.97496-0.25zm-1.7469 0.0297c-0.052 0.0212-0.097 0.0475-0.14376 0.0734 0.0464-0.0259 0.0918-0.0522 0.14376-0.0734zm-0.29376 0.16563c-0.0432 0.0325-0.0807 0.0706-0.1188 0.1078 0.0384-0.0374 0.0752-0.0753 0.1188-0.1078zm-0.22656 0.22344c-0.0336 0.0425-0.064 0.0873-0.0922 0.13436 0.028-0.0468 0.0592-0.0921 0.0922-0.13436zm-0.17192 0.28436c-0.0216 0.0477-0.0432 0.0971-0.0608 0.14844 0.0184-0.0514 0.0392-0.10064 0.0608-0.14844zm-0.1156 0.33438c-0.0136 0.056-0.0272 0.11245-0.0376 0.17188 0.0104-0.0595 0.0232-0.1158 0.0376-0.17188zm-0.0656 0.38906c-0.008 0.0572-0.0136 0.11366-0.0176 0.17344 0-0.0599 0.0112-0.11609 0.0176-0.17344zm-0.0192 0.30938c-0.008 0.24377 0 0.50216 0.0296 0.78125-0.0272-0.27902-0.036-0.53749-0.0296-0.78125zm0.17968 1.8312c0.19912 1.1222 0.51464 2.4036 0.76096 3.7016-0.24616-1.2969-0.56192-2.5802-0.76096-3.7016zm7.7626 1.8953c1.5175 1.7585 3.109 3.5209 4.7718 5.2344-1.6629-1.7134-3.2543-3.4759-4.7718-5.2344zm61.877 0.15469c0.30536 1.3828 0.48672 2.8459 0.72808 4.2047-0.24136-1.3588-0.42272-2.8219-0.72808-4.2047zm-68.794 2.1281c0.0432 0.24905 0.0811 0.49584 0.1156 0.74375-0.0344-0.24724-0.0728-0.49538-0.1156-0.74375zm0.18432 1.3188c0.0256 0.24308 0.0408 0.48187 0.0528 0.72031-0.012-0.23822-0.028-0.47746-0.0528-0.72031zm0.0752 1.4156c0 0.0698-0.00048 0.14036 0 0.20938v-0.20938zm-0.0152 0.41719c-0.008 0.12576-0.0176 0.25052-0.0312 0.37344 0.0136-0.12299 0.0232-0.2476 0.0312-0.37344zm-0.0624 0.60312c-0.0176 0.11611-0.0376 0.23077-0.0608 0.34376 0.0232-0.11272 0.044-0.22794 0.0608-0.34376zm-0.1156 0.57344c-0.0264 0.10432-0.0568 0.20671-0.089 0.30781 0.0328-0.10114 0.0624-0.20345 0.089-0.30781zm-0.16408 0.52968c-0.0384 0.1008-0.083 0.19832-0.12808 0.29532 0.0456-0.0972 0.0898-0.19428 0.12808-0.29532zm-0.22656 0.50157c-0.0528 0.099-0.11504 0.19319-0.17656 0.2875 0.0616-0.0942 0.1236-0.18856 0.17656-0.2875zm-0.28904 0.46094c-0.0728 0.0997-0.15656 0.19245-0.24064 0.28593 0.0839-0.0933 0.1676-0.18636 0.24064-0.28593zm71.516 0.29062c0.10496 0.14379 0.21808 0.27957 0.33912 0.40469-0.12136-0.12536-0.23392-0.26058-0.33912-0.40469zm-71.878 0.13438c-0.13264 0.13347-0.27576 0.26139-0.4344 0.37969 0.15864-0.1183 0.30176-0.24621 0.4344-0.37969zm156.32 37.655c0.46432 0.47176 0.91584 0.95427 1.3531 1.45-0.43704-0.49545-0.88904-0.97849-1.3531-1.45zm3.8016 4.5672c0.75616 1.0875 1.4496 2.2242 2.075 3.4094-0.62536-1.1852-1.3188-2.3219-2.075-3.4094zm4.4046 9.0766c0.40496 1.3338 0.7316 2.7172 0.97344 4.1516-0.24184-1.4344-0.56848-2.8177-0.97344-4.1516zm2.1172 10.33c0.50704 3.0952 0.9184 6.1997 1.2438 9.3094-0.32536-3.1097-0.73672-6.2142-1.2438-9.3094zm2.0922 37.419c-0.21872 6.2627-0.67312 12.528-1.2874 18.783-0.6144 6.255-1.3889 12.499-2.2516 18.717 0.86272-6.2181 1.6372-12.462 2.2516-18.717 0.61432-6.255 1.0687-12.52 1.2874-18.783zm-31.052 6.6609c0.1972-0.0106 0.4028-0.01 0.6156 0.002-0.2128-0.0116-0.41672-0.0107-0.61408 0-0.19104 0.0103-0.3744 0.0308-0.55152 0.061-0.17552 0.0298-0.34544 0.069-0.50784 0.1172 0.16272-0.0483 0.332-0.0873 0.50784-0.1172 0.17688-0.0301 0.3592-0.0522 0.55-0.0625zm-1.0625 0.18125c-0.12424 0.037-0.24096 0.084-0.35784 0.13125 0.11664-0.0472 0.23384-0.0943 0.35784-0.13125zm-0.48288 0.17969c-0.10688 0.0474-0.20696 0.10349-0.30776 0.15938 0.10088-0.0559 0.2008-0.11187 0.30776-0.15938zm-0.43744 0.22812c-0.0963 0.0582-0.18736 0.12494-0.27816 0.19063 0.0909-0.0658 0.18176-0.13244 0.27816-0.19063zm-0.40472 0.27813c-0.09 0.0704-0.1732 0.14886-0.25784 0.22656 0.0845-0.0775 0.168-0.15631 0.25784-0.22656zm-0.36872 0.32656c-0.0776 0.0765-0.15168 0.1581-0.22504 0.24062 0.0736-0.0825 0.14712-0.16423 0.22504-0.24062zm-0.33752 0.36562c-0.0688 0.0829-0.13504 0.17125-0.2 0.25938 0.0648-0.0884 0.13088-0.17631 0.2-0.25938zm-0.30312 0.4c-0.15688 0.22647-0.29528 0.47449-0.42968 0.72969 0.13432-0.25518 0.27288-0.50323 0.42968-0.72969zm-0.66096 1.2141c-0.0801 0.17759-0.16064 0.35498-0.2328 0.54219 0.072-0.18741 0.15264-0.36442 0.2328-0.54219zm-0.41248 1.05c-0.0696 0.2056-0.13936 0.40979-0.2016 0.62344 0.0624-0.21351 0.13224-0.41797 0.2016-0.62344zm-0.33904 1.1391c-0.0576 0.2215-0.1168 0.44177-0.1688 0.66875 0.052-0.22724 0.11096-0.44701 0.1688-0.66875zm-0.29848 1.275c-0.0416 0.2007-0.085 0.40038-0.12344 0.60313 0.0384-0.20311 0.0818-0.40207 0.12344-0.60313zm-0.24064 1.2562c-0.0416 0.23514-0.0844 0.46975-0.12344 0.70469 0.0392-0.23639 0.0818-0.46809 0.12344-0.70469zm-0.4984 2.9969c-0.0408 0.23809-0.0853 0.46833-0.12816 0.69843 0.0432-0.2314 0.0872-0.45897 0.12816-0.69843zm-0.22344 1.2062c-0.0592 0.29178-0.12424 0.56708-0.19064 0.83906 0.0664-0.2717 0.13168-0.5476 0.19064-0.83906zm-0.23904 1.0469c-0.0744 0.28932-0.15664 0.55773-0.24376 0.81719 0.0871-0.2595 0.1692-0.52784 0.24376-0.81719zm-0.29224 0.97344c-0.1064 0.2994-0.22304 0.57719-0.35312 0.825 0.13024-0.24807 0.24656-0.52523 0.35312-0.825zm-268.55 3.925c-0.60752 0.006-1.2143 0.025-1.8203 0.0516 0.60576-0.0266 1.213-0.0451 1.8203-0.0516zm0.0232 0c0.74184-0.007 1.4841 0.006 2.2266 0.0282-0.74224-0.0225-1.485-0.0357-2.2266-0.0282zm2.8282 0.05c0.64584 0.0266 1.2912 0.0646 1.9359 0.11406-0.64456-0.0494-1.2902-0.0874-1.9359-0.11406zm-5.3406 0.0406c-0.38536 0.0217-0.7704 0.0436-1.1547 0.0734 0.38424-0.0298 0.76936-0.0518 1.1547-0.0734zm7.5687 0.0922c0.73984 0.0607 1.4777 0.13894 2.2141 0.22968-0.73672-0.0908-1.474-0.16896-2.2141-0.22968zm-9.5281 0.0531c-0.3472 0.0322-0.69472 0.0658-1.0406 0.10469 0.34616-0.039 0.6932-0.0724 1.0406-0.10469zm-1.8375 0.20157c-0.34504 0.0441-0.68936 0.0914-1.0328 0.14218 0.34352-0.0508 0.68768-0.0981 1.0328-0.14218zm14.139 0.05c0.58416 0.0782 1.1662 0.16539 1.7469 0.26249-0.58024-0.097-1.1632-0.18442-1.7469-0.26249zm-15.955 0.21405c-0.35592 0.0582-0.71024 0.1205-1.0641 0.18595 0.35376-0.0654 0.70824-0.12777 1.0641-0.18595zm18.248 0.14063c0.7108 0.12641 1.4197 0.26535 2.1234 0.42031-0.70432-0.1551-1.412-0.2938-2.1234-0.42031zm-20.061 0.1875c-0.35088 0.0703-0.69992 0.1475-1.0484 0.225 0.34872-0.0776 0.69728-0.15465 1.0484-0.225zm22.664 0.34531c0.5924 0.13628 1.1812 0.28246 1.7672 0.43907-0.58584-0.15658-1.175-0.30282-1.7672-0.43907zm-24.444 0.0438c-0.35984 0.0857-0.71648 0.17841-1.0734 0.27188 0.35664-0.0934 0.71392-0.18625 1.0734-0.27188zm-1.7781 0.45625c-0.5708 0.15857-1.1382 0.32604-1.7 0.50469 0.56216-0.17874 1.1289-0.34604 1.7-0.50469zm28.509 0.0797c0.71808 0.19999 1.4312 0.40987 2.1375 0.64063-0.70552-0.23048-1.4202-0.44085-2.1375-0.64063zm198.82 0.1125c-0.0184 0.26416-0.088 0.55725-0.19688 0.86406 0.10888-0.30681 0.17808-0.5999 0.19688-0.86406zm-196.56 0.57032c0.6656 0.21936 1.3246 0.45636 1.9781 0.70312-0.65376-0.24684-1.3122-0.4837-1.9781-0.70312zm2.4922 0.9c0.6216 0.24282 1.2382 0.49617 1.8469 0.76405-0.60896-0.268-1.225-0.52113-1.8469-0.76405zm2.0484 0.84843c0.66104 0.29458 1.3108 0.60853 1.9547 0.93282-0.6436-0.3241-1.2941-0.63839-1.9547-0.93282zm2.475 1.2016c0.5172 0.26901 1.0281 0.54745 1.5328 0.83593-0.50472-0.28848-1.0155-0.56693-1.5328-0.83593zm1.9516 1.0734c0.61424 0.36022 1.219 0.73551 1.8125 1.125-0.59352-0.38948-1.1982-0.76478-1.8125-1.125zm183.9 0.31406c-0.19416 0.19424-0.3836 0.39297-0.5672 0.59844 0.1836-0.20547 0.37144-0.4042 0.5656-0.59844zm-181.68 1.0891c0.48544 0.32695 0.9628 0.66405 1.4328 1.0109-0.47016-0.34697-0.9472-0.6839-1.4328-1.0109zm1.861 1.3266c0.56608 0.42953 1.1213 0.87062 1.6625 1.3297-0.54088-0.45878-1.0967-0.90041-1.6625-1.3297zm1.9438 1.5766c0.4628 0.40041 0.91488 0.81356 1.3578 1.2359-0.44288-0.42231-0.89496-0.83561-1.3578-1.2359zm1.8781 1.7359c0.1284 0.12729 0.25624 0.25516 0.3828 0.38438-0.12664-0.12928-0.25432-0.25703-0.3828-0.38438zm169.83 5.5578c-1.0429 2.7664-2.0278 5.4995-3.2797 7.7906 1.2518-2.2911 2.2368-5.0242 3.2797-7.7906zm56.191 8.2766c-0.99288 2.9658-2.0589 5.907-3.2141 8.8031 1.1552-2.8962 2.2212-5.8373 3.2141-8.8031zm-122.31 6.1281c-0.15856-0.008-0.32192 0.009-0.48744 0.0375 0.16592-0.029 0.32856-0.0458 0.48744-0.0375zm0.30312 0.0422c0.04 0.009 0.0792 0.0241 0.1188 0.0359-0.04-0.0118-0.0784-0.027-0.1188-0.0359zm-0.87344 0.011c-0.16048 0.0336-0.32368 0.0808-0.48904 0.14531 0.16528-0.0644 0.32864-0.1118 0.48904-0.14531zm1.1703 0.0859c0.0408 0.0172 0.0803 0.0389 0.12032 0.0594-0.04-0.0205-0.0792-0.0422-0.12032-0.0594zm0.286 0.15313c0.0344 0.0226 0.0688 0.0466 0.10312 0.0718-0.0336-0.0252-0.0688-0.0494-0.10312-0.0718zm-2.6 0.23125c-0.072 0.0425-0.14488 0.0937-0.2172 0.14062 0.0728-0.047 0.14512-0.0981 0.2172-0.14062zm2.8906 0c0.0256 0.024 0.0512 0.0477 0.0768 0.0734-0.0248-0.0258-0.0512-0.0494-0.0768-0.0734zm0.25 0.27343c0.0288 0.0361 0.0576 0.0706 0.086 0.10938-0.028-0.0388-0.0576-0.0733-0.086-0.10938zm-3.8125 0.18751c-0.0906 0.0692-0.18112 0.14064-0.27184 0.21562 0.0907-0.075 0.1812-0.14642 0.27184-0.21562zm4.0625 0.17812c0.0224 0.0366 0.0456 0.0692 0.0672 0.10781-0.0216-0.0387-0.0448-0.071-0.0672-0.10781zm-4.7546 0.40469c-0.083 0.0762-0.16584 0.14957-0.24848 0.22968 0.0829-0.0804 0.16528-0.15327 0.24848-0.22968zm-0.88592 0.88594c-0.0632 0.0694-0.12472 0.14448-0.18752 0.21562 0.0632-0.0713 0.12408-0.14605 0.18752-0.21562zm-0.6172 0.71718c-0.32432 0.39398-0.63712 0.80445-0.9344 1.2203 0.29776-0.41672 0.60944-0.82554 0.9344-1.2203zm-1.0844 1.4344c-0.27128 0.38827-0.52712 0.7778-0.76408 1.1609 0.23712-0.38345 0.49264-0.77232 0.76408-1.1609zm123.58 0.95c-0.81064 1.9088-1.663 3.795-2.561 5.65 0.89792-1.855 1.7503-3.7412 2.561-5.65zm52.15 0.21562c0.40296 2.4782 0.73864 4.9649 1.0187 7.4594-0.28008-2.4945-0.61576-4.9812-1.0187-7.4594zm-176.58 0.14531c-0.2504 0.4116-0.47376 0.81041-0.67192 1.1891 0.19872-0.38006 0.42048-0.77579 0.67192-1.1891zm-0.77344 1.3906c-0.19096 0.37713-0.36168 0.73629-0.4844 1.0484-0.4056 1.5188-0.78136 3.0392-1.1297 4.5609-0.34832 1.5218-0.66992 3.0442-0.96408 4.5688 0.29416-1.5246 0.61576-3.047 0.96408-4.5688 0.34832-1.5217 0.72408-3.0422 1.1297-4.5609 0.12272-0.31201 0.29352-0.6715 0.4844-1.0484zm179.48 20.966c0.1024 2.5173 0.17264 5.0387 0.22032 7.5625-0.048-2.5238-0.11792-5.0452-0.22032-7.5625zm-68.487 13.681c0.13352-0.006 0.26512-0.004 0.39376 0.006 0.85728 0.0687 1.5734 0.50782 1.7422 1.6453 1.09 39.81 16.09 78.85 9.4 118.83-2.65 13.3 5.849 27.419 4.039 39.459-15.59-16.03-34.879-30.049-52.509-44.589-4.25-3.93 1.21-8.3497 2.4-12.18-14.37-15.02-32.07-26.48-49.72-37.35-1.6-1.3-4.1297-3.0012-3.0797-5.3812 8.98-3.53 19.65-2.0594 27.43-8.7094 10.55-10.27 15.85-25.33 27.8-34.23 11.24-3.82 22.671-8.3906 30.891-17.291 0.39656-0.11532 0.81344-0.1952 1.2141-0.21094zm-55.406 12.939c0.10304 0.30456 0.26104 0.55351 0.464 0.75468-0.20296-0.20117-0.36096-0.45012-0.464-0.75468zm12.412 1.8875c0.0891 0.11069 0.16576 0.23227 0.22968 0.36875-0.064-0.13612-0.14088-0.25828-0.22968-0.36875zm-73.269 2.15c0.10448 3.0867 0.25744 6.1755 0.44688 9.2672-0.18944-3.0917-0.3424-6.1805-0.44688-9.2672zm1.5016 23.194c0.53976 6.194 1.1495 12.393 1.7282 18.592 0.43392 4.6498 0.85072 9.3003 1.2078 13.948 0.23808 3.0988 0.44936 6.1972 0.62192 9.2938-0.17256-3.0966-0.38384-6.195-0.62192-9.2938-0.35704-4.6482-0.77384-9.2987-1.2078-13.948-0.57864-6.1996-1.1884-12.398-1.7282-18.592zm17.481 18.269c-0.2576-0.006-0.52288 0.006-0.79376 0.0297 0.2708-0.0237 0.53624-0.0361 0.79376-0.0297zm0.62184 0.0469c0.052 0.006 0.10192 0.0161 0.15312 0.0234-0.0512-0.007-0.10128-0.0173-0.15312-0.0234zm-1.6531 0.0125c-0.19608 0.0234-0.3964 0.0537-0.6 0.0937 0.20392-0.0401 0.40352-0.0703 0.6-0.0937zm2.2547 0.0891c0.0592 0.0128 0.11784 0.0278 0.17656 0.0422-0.0584-0.0144-0.1172-0.0294-0.17656-0.0422zm-3.1547 0.0703c-0.20808 0.0486-0.41976 0.10699-0.63592 0.17344 0.2156-0.0662 0.4284-0.12502 0.63592-0.17344zm3.7203 0.0797c0.0664 0.0206 0.1328 0.0415 0.1984 0.0641-0.0656-0.0226-0.13208-0.0435-0.1984-0.0641zm0.43904 0.15468c0.28816 0.11104 0.57128 0.23544 0.84536 0.38125-0.27416-0.14589-0.55704-0.27017-0.84536-0.38125zm-5.05 0.0156c-0.30952 0.10392-0.62608 0.22209-0.95312 0.36407 0.32752-0.14217 0.6432-0.2601 0.95312-0.36407zm5.9359 0.38907c0.26336 0.14204 0.51936 0.30201 0.77192 0.47188-0.25264-0.16994-0.50848-0.32979-0.77192-0.47188zm0.94536 0.58906c0.0914 0.0642 0.18008 0.13735 0.27032 0.20469-0.0902-0.0674-0.17896-0.14055-0.27032-0.20469zm0.98592 0.77187c0.11456 0.0979 0.22744 0.20108 0.34064 0.30313-0.1132-0.10203-0.22616-0.20523-0.34064-0.30313zm0.93904 0.85938c0.0974 0.0946 0.19536 0.19072 0.29224 0.2875-0.0972-0.0971-0.19448-0.19261-0.29224-0.2875zm3.3313 3.4578c0.2232 0.22561 0.44816 0.44993 0.67808 0.66874-0.23-0.2189-0.4548-0.44302-0.67808-0.66874zm1.0531 1.0109c0.20616 0.18815 0.41472 0.3724 0.62816 0.55156-0.21336-0.17911-0.42208-0.36345-0.62816-0.55156zm1.0578 0.89687c0.21648 0.17025 0.43856 0.33436 0.664 0.4922-0.22576-0.15804-0.4472-0.32172-0.664-0.4922zm1.2156 0.8672c0.0576 0.0362 0.11504 0.0726 0.17344 0.1078-0.0584-0.0352-0.11576-0.0717-0.17344-0.1078zm1.1156 0.61718c0.0504 0.0241 0.1024 0.0454 0.15312 0.0687-0.0504-0.0234-0.1028-0.0446-0.15312-0.0687zm158.54 0.35157c0.75248 2.4115 1.5971 4.8097 2.5453 7.1922 0.6056 1.5688 1.1802 3.1413 1.725 4.7188-0.5448-1.5774-1.1194-3.15-1.725-4.7188-0.94816-2.3825-1.7928-4.7807-2.5453-7.1922zm5.0656 14.281c0.51536 1.5816 1.001 3.1666 1.4594 4.7562-0.45832-1.5896-0.944-3.1746-1.4594-4.7562zm2.1266 7.1437c0.8616 3.1869 1.6146 6.3892 2.2687 9.6047-0.65408-3.2154-1.4071-6.4178-2.2687-9.6047zm-188.66 3.9813c-0.216 1.0549-0.48032 2.1008-0.80624 3.1344 0.32592-1.0336 0.59024-2.0794 0.80624-3.1344zm-143.83 3.4969c27.27 3.38 46.18 26.759 69.15 39.209-3.84 56.51 12.741 110.73 30.191 163.63 9.9 27.16 14.36 58.53 1.1203 85.37-11.96 7.41-26.52 6.4103-39.57 10.57-2.54 0.7-7.7506 1.5597-8.4906-2.1203-4.01-15.76-10.849-30.651-19.559-44.341-2.59-5.76-5.6994-11.23-10.009-15.88-2.97-4.35-7.2606-7.5-10.991-11.15-24.605-25.051-59.4-38.679-94.37-38.566-4.9958 0.0161-9.9966 0.31155-14.97 0.89531-14.36-26.63-33.919-53.199-62.459-65.719-1.91-4.8 5.1997-6.0509 7.6797-8.4609 11.67-7.07 20.951-17.3 29.591-27.48 7.13 0 15.66 3.4994 21.2-3.6906 27.14-33.91 59.059-68.949 101.49-82.269zm337.07 16.68c0.38128 3.2516 0.67808 6.5147 0.90312 9.7859-0.22504-3.2712-0.52184-6.5344-0.90312-9.7859zm-195.11 3.7c0.46408 0.75603 0.84792 1.5353 1.1657 2.3359-0.31776-0.80063-0.7016-1.5799-1.1657-2.3359zm-340.02 1.6625c-0.0736 0.007-0.14568 0.021-0.21872 0.0313 0.0728-0.0102 0.14496-0.0244 0.21872-0.0313zm1.2782 0.0515c0.052 0.009 0.10488 0.0162 0.15776 0.0266-0.0528-0.0104-0.10536-0.0178-0.15776-0.0266zm-1.9126 0.0531c-0.0792 0.0182-0.15752 0.0405-0.23592 0.0625 0.0784-0.022 0.15672-0.0443 0.23592-0.0625zm2.7157 0.13906c0.04 0.0126 0.0802 0.0286 0.12032 0.0422-0.04-0.0136-0.0806-0.0295-0.12032-0.0422zm-3.325 0.0422c-0.0822 0.0298-0.16408 0.0598-0.24528 0.0937 0.0811-0.0338 0.1632-0.064 0.24528-0.0937zm3.9156 0.18593c0.20888 0.0885 0.422 0.19303 0.63752 0.30781-0.21552-0.11478-0.42864-0.21932-0.63752-0.30781zm-4.5187 0.0734c-0.076 0.0378-0.15304 0.073-0.22808 0.11406 0.0752-0.0412 0.152-0.0762 0.22808-0.11406zm-0.61096 0.34375c-0.0632 0.0399-0.12648 0.0766-0.18904 0.11875 0.0624-0.0422 0.126-0.0788 0.18904-0.11875zm6.0454 0.0375c0.31728 0.18359 0.63928 0.38822 0.97184 0.63124-0.33256-0.24298-0.65456-0.44768-0.97184-0.63124zm-6.7688 0.47344c-0.0576 0.0457-0.11456 0.0962-0.17184 0.14374 0.0576-0.0475 0.11408-0.098 0.17184-0.14374zm-0.52496 0.44843c-0.2848 0.25736-0.56456 0.53587-0.84064 0.83125 0.27592-0.29524 0.55592-0.574 0.84064-0.83125zm-0.97504 0.97813c-0.17432 0.19084-0.3456 0.39678-0.51712 0.6 0.1716-0.20326 0.3428-0.40912 0.51712-0.6zm-1.1297 1.3469c-0.14216 0.18133-0.28392 0.36431-0.42496 0.55157 0.14104-0.1873 0.28272-0.3702 0.42496-0.55157zm-1.0422 1.3891c-0.1276 0.17675-0.2556 0.35031-0.3828 0.52969 0.12704-0.17916 0.25536-0.35316 0.3828-0.52969zm-2.4969 3.5172c-0.26384 0.36362-0.5292 0.72222-0.7984 1.0719 0.26912-0.3496 0.53464-0.70833 0.7984-1.0719zm-1.1625 1.5281c-0.22536 0.2823-0.45352 0.55744-0.6844 0.82344 0.23096-0.26609 0.45896-0.54104 0.6844-0.82344zm-1.3625 1.575c-0.0288 0.0294-0.056 0.0614-0.0844 0.0906 0.0288-0.0291 0.056-0.0612 0.0844-0.0906zm-0.96256 0.90938c-0.0873 0.0751-0.17408 0.15186-0.26248 0.22344 0.0883-0.0715 0.17528-0.14837 0.26248-0.22344zm-0.4484 0.37031c-0.12784 0.0989-0.25728 0.19339-0.38752 0.28438 0.1304-0.0911 0.25952-0.18531 0.38752-0.28438zm-0.62816 0.44844c-0.13696 0.0892-0.27576 0.17187-0.4156 0.25156 0.13984-0.0797 0.27872-0.16239 0.4156-0.25156zm-0.58752 0.35c-0.20976 0.11245-0.42224 0.21697-0.63904 0.30625 0.21688-0.0893 0.4292-0.19376 0.63904-0.30625zm357.23 0.38281c0.01 1.2125 0.0328 2.4262 0.10312 3.6297-0.0704-1.2034-0.0938-2.4172-0.10312-3.6297zm0.93592 11.608c-0.0408 1.5337-0.22552 3.1155-0.40936 4.6969 0.18384-1.5814 0.36832-3.1632 0.40936-4.6969zm192.69 7.8047c-0.12112 3.3088-0.28424 6.6218-0.47968 9.9359 0.19544-3.3142 0.35856-6.6272 0.47968-9.9359zm-193.51 1.5828c-0.028 1.019 0.008 2.0152 0.14688 2.9734-0.14024-0.95828-0.17496-1.9544-0.14688-2.9734zm0.27192 3.6844c0.0978 0.46923 0.22496 0.9284 0.38592 1.375 0.16096 0.44661 0.356 0.8813 0.59064 1.3016-0.23464-0.42027-0.42968-0.85496-0.59064-1.3016-0.16096-0.4466-0.28816-0.90577-0.38592-1.375zm3.7187 10.441c0.0835 3.272 0.1228 6.5463 0.12504 9.8219 0-3.2756-0.0416-6.5498-0.12504-9.8219zm329.29 11.128c0.68712-0.0103 1.3736-0.006 2.0594 0.006-0.6856-0.0129-1.3724-0.0166-2.0594-0.006zc-0.75736 0.0114-1.5162 0.0412-2.275 0.0782 0.75896-0.0369 1.5176-0.0668 2.275-0.0782zm2.7953 0.0297c0.45024 0.0142 0.90048 0.0325 1.35 0.0578-0.44992-0.0254-0.89936-0.0435-1.35-0.0578zm-5.7141 0.0828c-0.572 0.0329-1.1444 0.0732-1.7172 0.11874 0.57288-0.0456 1.1451-0.0859 1.7172-0.11874zm7.9126 0.0313c0.4328 0.0314 0.86472 0.0699 1.2968 0.11249-0.43184-0.0426-0.86424-0.0811-1.2968-0.11249zm-10.264 0.13749c-0.72064 0.0629-1.441 0.13235-2.1626 0.21251 0.72112-0.0801 1.4423-0.1497 2.1626-0.21251zm12.333 0.0531c0.68552 0.0786 1.3712 0.16741 2.0546 0.27656 0.68784 0.10984 1.3738 0.23987 2.0594 0.38282-0.68568-0.143-1.3715-0.27294-2.0594-0.38282-0.68336-0.10917-1.3692-0.19799-2.0546-0.27656zm-17.833 0.5875c-0.24168 0.0342-0.48328 0.0707-0.72504 0.10625 0.24176-0.0355 0.48328-0.0721 0.72504-0.10625zm22.616 0.22188c0.46304 0.10425 0.9256 0.21541 1.3875 0.33593-0.46192-0.12054-0.92448-0.23166-1.3875-0.33593zm-26.403 0.36249c-0.0891 0.0149-0.17808 0.0288-0.2672 0.0438 0.0891-0.015 0.17808-0.0289 0.2672-0.0438zm28.583 0.18907c0.44688 0.12607 0.89336 0.26238 1.339 0.40469-0.44584-0.14236-0.892-0.27856-1.339-0.40469zm-30.309 0.11093c-1.155 0.20218-2.3094 0.40919-3.4641 0.62344 1.1547-0.21422 2.309-0.42129 3.4641-0.62344zm32.361 0.52188c0.67904 0.23064 1.3566 0.47596 2.0328 0.74688-0.676-0.27084-1.354-0.51628-2.0328-0.74688zm-39.855 0.85312c-0.58216 0.10921-1.1651 0.21736-1.7469 0.325 0.5816-0.1076 1.1649-0.21583 1.7469-0.325zm-6.1328 1.1047c-1.0515 0.17815-2.1029 0.3506-3.1516 0.50782 1.0487-0.15719 2.1001-0.3297 3.1516-0.50782zm-3.5469 0.56251c-0.94952 0.13954-1.897 0.26688-2.8438 0.3828 0.94672-0.11592 1.8942-0.24326 2.8438-0.3828zm17.286 3.6859c-1.38 8.21-2.7649 16.422-4.2578 24.608 1.4929-8.1858 2.8778-16.398 4.2578-24.608zm-305.63 1.925c5.1298 0.1626 5.4672 8.8109 10.867 9.7953 4.78 2.5 16.54 1.9603 15.42 9.7703-9.28 7.88-18.861 15.501-25.141 26.191-7.17 9.99-6.4394-10.06-5.3594-14.17 3.52-9.79-3.9997-23.55 3.1203-31.5 0.38752-0.0694 0.75016-0.0968 1.0922-0.0859zm122.69 29.15c4.1938 0.24638 3.0562 8.1078 4.6875 10.995 4.49 28.79 18.39 63.221-3.8 88.011-8.67 5.68-3.7497 16.649-9.3297 23.769-27.27 8.69-56.299 11.901-82.739 23.091-3.58-1.9-8.02-4.9206-9.05-8.7906 40.21-39.92 67.629-90.499 99.319-137.02 0.32944-0.055 0.63288-0.0727 0.91248-0.0562zm54.086 2.9578c-0.21208 3.272-0.3944 6.535-0.53752 9.7875 0.14312-3.2525 0.32544-6.5155 0.53752-9.7875zm-185.68 0.41c-0.33536 6.5664-0.67536 13.133-0.95624 19.697 0.28088-6.5644 0.62088-13.131 0.95624-19.697zm306.63 8.5234c-1.2846 6.0994-2.673 12.174-4.2094 18.211 1.5363-6.037 2.9248-12.112 4.2094-18.211zm7.4578 30.091c-0.10896 2.3438-0.28816 4.7322-0.4656 7.1312 0.17744-2.399 0.35664-4.7874 0.4656-7.1312zm-315.7 10.597c0.028 4.9135 0.144 9.8246 0.37184 14.73-0.22784-4.9051-0.34352-9.8162-0.37184-14.73zm314.98 0.1375c-0.19928 3.0028-0.34296 5.9982-0.29528 8.9219-0.048-2.9237 0.096-5.9191 0.29528-8.9219zm-22.667 14.391c-0.36416 0.97217-0.9024 2.1084-1.3672 3.2578 0.4648-1.1494 1.0031-2.2856 1.3672-3.2578zm24.072 6.2172c0.34024 1.0398 0.7412 2.0531 1.2125 3.0375-0.47128-0.98438-0.87224-1.9978-1.2125-3.0375zm-26.364 0.37657c-0.0256 0.3839-0.008 0.74898 0.072 1.0859-0.0776-0.33696-0.0975-0.70204-0.072-1.0859zm-489.55 1.4203c0.32352 0.0175 0.64336 0.0506 0.96568 0.0734-0.32224-0.0229-0.64224-0.0559-0.96568-0.0734zm2.686 0.21094c0.37096 0.0374 0.73848 0.0885 1.1078 0.13281-0.36912-0.0443-0.73696-0.0954-1.1078-0.13281zm2.6797 0.33281c0.3724 0.0547 0.74176 0.1212 1.1125 0.18281-0.37088-0.0616-0.73992-0.12803-1.1125-0.18281zm484.68 0.0422c0.0696 0.0914 0.14712 0.17776 0.2328 0.26094-0.086-0.0834-0.1632-0.16929-0.2328-0.26094zm-482.04 0.40625c0.388 0.0746 0.77336 0.1603 1.1594 0.24219-0.386-0.0819-0.77152-0.1676-1.1594-0.24219zm2.5969 0.55938c0.39096 0.0925 0.77984 0.19245 1.1688 0.29219-0.38912-0.0998-0.77768-0.19966-1.1688-0.29219zm189.92 0.43906c0.2604 3.2656 0.57944 6.5287 0.96408 9.7891-0.38464-3.2603-0.70368-6.5235-0.96408-9.7891zm-187.3 0.23907c0.36144 0.10155 0.72144 0.208 1.0812 0.31562-0.3596-0.10758-0.71992-0.21411-1.0812-0.31562zm2.55 0.77187c0.36392 0.11782 0.72696 0.23868 1.089 0.3625-0.36216-0.12383-0.72512-0.24467-1.089-0.3625zm2.5546 0.88125c0.34832 0.12757 0.6956 0.2577 1.0422 0.39063-0.34672-0.13296-0.69384-0.26303-1.0422-0.39063zm2.4672 0.95468c0.3644 0.1483 0.72816 0.29758 1.0906 0.45157-0.36248-0.15397-0.72632-0.30329-1.0906-0.45157zm2.4797 1.0594c0.35 0.15657 0.70032 0.31178 1.0485 0.47344-0.34816-0.16163-0.69856-0.3169-1.0485-0.47344zm480.44 0.89688c0.00024-0.0003 0 0.0003 0 0-0.15392 0.17929-0.29568 0.38062-0.42192 0.60625-0.23688 0.57312-0.4908 1.0508-0.76096 1.4453 0.27016-0.39446 0.52408-0.87219 0.76096-1.4453 0.12624-0.22563 0.2664-0.42696 0.42032-0.60625zm-478 0.2437c0.34984 0.17029 0.70032 0.33887 1.0484 0.51407-0.34792-0.17515-0.69864-0.34383-1.0484-0.51407zm2.4218 1.225c0.33584 0.17636 0.67216 0.35054 1.0062 0.53126-0.33416-0.18074-0.6704-0.35489-1.0062-0.53126zm502.03 0.17032c0.6668 0.75685 1.2903 1.5571 1.8703 2.3938-0.58-0.83663-1.2035-1.6369-1.8703-2.3938zm-499.39 1.2703c0.2268 0.12844 0.4552 0.25246 0.6812 0.38281-0.226-0.13034-0.4544-0.25437-0.6812-0.38281zm502.36 2.8422c0.69416 1.1758 1.3081 2.4074 1.839 3.6781-0.53096-1.2707-1.1449-2.5024-1.839-3.6781zm-492.42 3.525c0.17368 0.12383 0.34568 0.25028 0.5188 0.375-0.17304-0.12466-0.3452-0.25122-0.5188-0.375zm2.2172 1.6156c0.2684 0.19963 0.5344 0.40312 0.8016 0.60469-0.2672-0.20158-0.5332-0.40505-0.8016-0.60469zm2.1359 1.6203c0.304 0.23475 0.60552 0.47232 0.90784 0.70937-0.30224-0.23696-0.60392-0.4747-0.90784-0.70937zm357 0.81875c1.0696 1.9933 2.1905 3.9567 3.3625 5.8891-1.172-1.9324-2.2929-3.8957-3.3625-5.8891zm-354.79 0.91562c0.30616 0.24511 0.60968 0.49341 0.91408 0.74063-0.30448-0.24729-0.60784-0.49544-0.91408-0.74063zm1.8844 1.5328c1.1046 0.91007 2.1935 1.8346 3.275 2.7672-1.081-0.93212-2.171-1.8576-3.275-2.7672zm488.18 3.6437c0.0944 1.3587 0.0978 2.7127 0.008 4.0469 0.0915-1.3342 0.0882-2.6882-0.008-4.0469zm-482.48 1.2516c0.57 0.50649 1.1444 1.0084 1.7078 1.5187-0.56312-0.51008-1.1382-1.0125-1.7078-1.5187zm4.0359 3.6656c0.5644 0.52361 1.1346 1.0434 1.6922 1.5687-0.5572-0.52496-1.1283-1.0455-1.6922-1.5687zm478.25 1.1141c-0.18688 1.3091-0.46904 2.5884-0.8516 3.8218 0.38256-1.2334 0.66472-2.5127 0.8516-3.8218zm-126.09 2.2359c1.3251 1.8297 2.7013 3.6228 4.1282 5.3766-1.4269-1.7538-2.803-3.5469-4.1282-5.3766zm-348.28 0.2984c0.56336 0.5404 1.1344 1.0805 1.6906 1.6203-0.55608-0.53968-1.1274-1.0802-1.6906-1.6203zm473.22 2.2031c-0.3244 0.90688-0.7052 1.7854-1.1438 2.6282 0.43856-0.84272 0.81936-1.7213 1.1438-2.6282zm-327.8 1.8375c0.6176 1.3183 1.2728 2.6164 1.9625 3.8954-0.68968-1.279-1.3449-2.577-1.9625-3.8954zm325.7 2.4266c-0.34416 0.528-0.71432 1.0383-1.111 1.5282 0.39664-0.48984 0.7668-1.0002 1.111-1.5282zm-117.9 0.7c0.88256 2.0625 1.9632 4.0553 2.9672 6.0719-1.004-2.0166-2.0846-4.0094-2.9672-6.0719zm116.18 1.5469c-0.21184 0.23488-0.43096 0.46352-0.65624 0.68752 0.22504-0.22376 0.44464-0.45296 0.65624-0.68752zm-320.99 1.11c0.72408 1.2591 1.4822 2.4994 2.2718 3.7187-0.7896-1.2194-1.5478-2.4596-2.2718-3.7187zm277.44 1.5203c0.22416 0.2192 0.4392 0.4472 0.64688 0.6828-0.20736-0.23528-0.42304-0.46384-0.64688-0.6828zm-150.54 4.4687c0.49408 0 0.98552 0.0128 1.475 0.0424-0.48952-0.0288-0.9808-0.0456-1.475-0.0424zc-0.53792 0-1.0794 0.0312-1.6219 0.0704 0.54272-0.0392 1.0838-0.0664 1.6219-0.0704zm1.9281 0.08c0.34296 0.028 0.6848 0.0624 1.025 0.10784-0.3404-0.0456-0.68192-0.08-1.025-0.10784zm-4.0015 0.028c-0.42096 0.0368-0.84248 0.0845-1.2656 0.14056 0.42288-0.056 0.8448-0.10336 1.2656-0.14056zm5.5438 0.15624c0.32552 0.052 0.64912 0.11632 0.97184 0.18592-0.3224-0.0696-0.64664-0.13368-0.97184-0.18592zm-7.2125 0.0376c-0.52992 0.0776-1.0615 0.1668-1.5938 0.27032 0.5328-0.10368 1.0633-0.19288 1.5938-0.27032zm8.6843 0.25784c0.47168 0.11576 0.94144 0.2456 1.4062 0.4016-0.46528-0.15616-0.934-0.28568-1.4062-0.4016zm-10.677 0.0954c-0.44448 0.0914-0.88888 0.18952-1.3344 0.2968 0.44512-0.1072 0.89032-0.20544 1.3344-0.2968zm12.084 0.30624c0.47456 0.1592 0.94416 0.34624 1.411 0.55-0.46632-0.20352-0.9368-0.39088-1.411-0.55zm-13.833 0.0938c-0.27248 0.068-0.54608 0.14352-0.8188 0.21712 0.27304-0.0736 0.54592-0.14864 0.8188-0.21712zm90.158 0.4484c0.25992 0.69616 0.4908 1.4019 0.68288 2.1203 0.192 0.7184 0.34464 1.4494 0.4484 2.1969-0.62872 1.5662-1.3154 3.1029-2.0453 4.6172-3.2849 6.8144-7.4394 13.182-11.064 19.811-1.2082 2.2096-2.3582 4.4482-3.3969 6.7422-0.69248 1.5293-1.3354 3.0825-1.9141 4.6687 0.57872-1.5862 1.2216-3.1394 1.9141-4.6687 1.0387-2.294 2.1886-4.5326 3.3969-6.7422 3.6246-6.6287 7.7792-12.996 11.064-19.811 0.72992-1.5143 1.4166-3.051 2.0453-4.6172-0.10376-0.74752-0.2564-1.4785-0.4484-2.1969-0.19208-0.7184-0.42296-1.4242-0.68288-2.1203zm-93.012 0.36096c-0.12808 0.04-0.25632 0.0768-0.3844 0.1172 0.12816-0.0408 0.25624-0.0776 0.3844-0.1172zm19.061 0.0984c0.0616 0.032 0.1228 0.0656 0.1844 0.0985-0.0616-0.0328-0.12272-0.0672-0.1844-0.0985zm1.1141 0.62656c0.0616 0.0376 0.12424 0.0728 0.18592 0.11096-0.0616-0.0384-0.12408-0.0736-0.18592-0.11096zm-22.936 0.19536c-0.18192 0.0648-0.3636 0.13104-0.54528 0.19688 0.18184-0.0656 0.3632-0.13224 0.54528-0.19688zm24.123 0.59056c0.0803 0.0576 0.16064 0.11712 0.24064 0.17656-0.08-0.0592-0.16024-0.11872-0.24064-0.17656zm-26.25 0.19536c-0.87936 0.3336-1.7558 0.67336-2.625 1.0187 0.86992-0.34568 1.7448-0.6848 2.625-1.0187zm-3.3015 1.2844c-1.3425 0.53672-2.6616 1.0658-3.9656 1.5812 1.3078-0.5168 2.6191-1.0429 3.9656-1.5812zm31.064 0.17336c0.14856 0.45176 0.24768 0.9032 0.30464 1.3547-0.0568-0.45152-0.15608-0.90296-0.30464-1.3547zm-37.158 2.2329c-0.35352 0.13352-0.71008 0.26792-1.0594 0.39528 0.34968-0.12752 0.70544-0.2616 1.0594-0.39528zm-1.7547 0.64528c-0.71512 0.25328-1.4243 0.4972-2.1187 0.71408 0.69432-0.21688 1.4037-0.46088 2.1187-0.71408zm204.19 2.4703c-0.17648 1.0086-0.29896 2.0367-0.37808 3.0782-0.1188 1.562-0.14176 3.156-0.10784 4.764 0.068 3.2161 0.362 6.4896 0.56408 9.6906-0.20208-3.201-0.49616-6.4746-0.56408-9.6906-0.0336-1.608-0.0112-3.202 0.10784-4.764 0.0792-1.0414 0.2016-2.0695 0.37808-3.0782zm-19.137 2.3813c0.28728 0.6156 0.59256 1.2167 0.92024 1.7969-0.32768-0.58016-0.63296-1.1813-0.92024-1.7969zm3.2046 4.9922c2.5531 8.4156 5.1554 16.939 7.4547 25.553-2.2994-8.6142-4.9016-17.138-7.4547-25.553zm-116.89 1.9531c-0.84 0.95752-1.5928 2.0096-2.2844 3.1266 0.6916-1.117 1.4444-2.169 2.2844-3.1266zm-19.809 0.5828c-0.38144 0.7824-0.72288 1.5982-1.036 2.4375-0.31304 0.8392-0.5976 1.7018-0.8656 2.5734-0.53592 1.7431-1.0046 3.5262-1.5 5.2515 0.49536-1.7254 0.96408-3.5084 1.5-5.2515 0.268-0.8716 0.55256-1.7342 0.8656-2.5734 0.31312-0.83928 0.65456-1.6551 1.036-2.4375zm-16.95 0.41c-0.10808 0.46192-0.18952 0.92496-0.23752 1.389-0.048 0.46416-0.0632 0.9304-0.0376 1.3969 0.0256 0.46656 0.091 0.93408 0.20312 1.4031-0.11208-0.46904-0.17768-0.93656-0.20312-1.4031-0.0256-0.46648-0.0104-0.93272 0.0376-1.3969 0.048-0.46408 0.12944-0.92712 0.23752-1.389zm52.931 2.7562c-0.60136 0.66296-1.1566 1.4527-1.6813 2.3297 0.52472-0.87696 1.0799-1.6667 1.6813-2.3297zm-19.103 0.5016c-0.4356 0.77112-0.84784 1.566-1.2438 2.3766 0.39592-0.81056 0.80816-1.6054 1.2438-2.3766zm40.022 0.45312c5.48 19.93 16.451 37.369 27.681 54.459 2.98 5.06-4.7003-3.8797-2.9703 1.3203-16.11-13.27-34.39 3.1094-52.15 2.2094-9.91 6.36-33.091 6.6406-28.461 23.691 0.72 10.26 16.98 9.109 17.02 18.639-10.29 4.12-21.95 5.031-32.52 8.711-10.22 4.71-3.529-9.05-10.039-10.7-14.89 0.29-5.4803-20.841-18.57-24.391-2.47-1.86-12.89-5.2303-6.2297-8.6203 6.64-1.94 11.24-10.72 3.05-15.15-21.36-11.11-46.141-6.4187-69.161-8.0187-5.05-5.84 2.0513-13.731 8.7313-14.241 24.79-6.83 49.71-12.99 74.88-18.2 3.12 12 18.749 13.32 28.709 9.8297 1.37 0.78 2.7406 1.6097 4.1906 2.2797 11.46-1.52 21.9 3.5606 33-1.7594 14.05 3.95 14.319-15.979 22.839-20.059zm-25.047 6.311c-0.93776 2.1231-1.8625 4.3393-2.9031 6.3374-0.34688 0.66608-0.70688 1.3078-1.0844 1.9141 0.37752-0.60624 0.73752-1.248 1.0844-1.9141 1.0406-1.9982 1.9654-4.2143 2.9031-6.3374zm271.99 0.0424c-0.97464 3.0846-1.9686 6.1853-3.0281 9.2515-0.79472 2.2997-1.6262 4.5797-2.5157 6.8188 0.88944-2.2391 1.721-4.5191 2.5157-6.8188 1.0595-3.0662 2.0534-6.167 3.0281-9.2515zm-290.45 0.54376c-0.90432 2.0886-1.8022 4.1611-2.811 6.075-0.40352 0.76552-0.82536 1.5049-1.2719 2.211 0.44656-0.70608 0.8684-1.4454 1.2719-2.211 1.0087-1.9138 1.9066-3.9863 2.811-6.075zm139.53 2.8578c-0.0304 1.5219-0.13712 3.0024-0.35944 4.4266 0.22232-1.4242 0.32864-2.9046 0.35944-4.4266zm-158.46 2.3813c-0.35344 0.71376-0.7432 1.3825-1.1797 1.9938 0.43648-0.61128 0.82624-1.28 1.1797-1.9938zm32.825 3.3078c-0.39632 0.56776-0.81344 1.0936-1.2546 1.5672 0.4412-0.4736 0.85832-0.99944 1.2546-1.5672zm-18.666 0.77184c-0.47368 0.66968-0.97632 1.3011-1.5156 1.8844 0.53928-0.58328 1.0419-1.2147 1.5156-1.8844zm-123.13 0.30624c-0.0974 0.64008-0.22304 1.2802-0.37344 1.9188 0.1504-0.63864 0.276-1.2787 0.37344-1.9188zm-89.941 3.2734c-0.28032 0-0.55896 0.012-0.83752 0.0376 0.27848-0.0256 0.5572-0.0416 0.83752-0.0376zm0.008 0c0.30728 0.008 0.616 0.0312 0.92504 0.0656-0.30936-0.0344-0.61744-0.0616-0.92504-0.0656zm-1.0781 0.0624c-0.28336 0.0352-0.56608 0.081-0.84688 0.1516 0.28048-0.0704 0.56376-0.11672 0.84688-0.1516zm2.2234 0.0264c0.144 0.0192 0.28848 0.0496 0.4328 0.0736-0.1444-0.024-0.28872-0.0544-0.4328-0.0736zm-3.0719 0.12504c-0.2808 0.0704-0.55968 0.1676-0.83752 0.27816 0.27792-0.11048 0.55664-0.2076 0.83752-0.27816zm4.3454 0.11096c0.1376 0.0312 0.2748 0.0648 0.41248 0.1-0.1376-0.0352-0.27496-0.0688-0.41248-0.1zm13.669 0.1484c-0.16056 0.178-0.32368 0.3396-0.48752 0.49224 0.16408-0.15288 0.3268-0.314 0.48752-0.49224zm-19.173 0.15472c-0.0496 0.0232-0.10024 0.0448-0.15 0.0688 0.0496-0.024 0.10008-0.0456 0.15-0.0688zm6.8125 0.0424c0.0918 0.0272 0.18336 0.0512 0.27504 0.08-0.0914-0.028-0.1836-0.0528-0.27504-0.08zm11.708 0.44064c-0.11048 0.0968-0.22096 0.1904-0.3328 0.27656 0.11184-0.0861 0.22232-0.17984 0.3328-0.27656zm-0.53128 0.42344c-0.11096 0.0792-0.2236 0.15112-0.33592 0.22032 0.11224-0.0688 0.22504-0.14152 0.33592-0.22032zm-0.51088 0.32656c-0.13624 0.0776-0.27296 0.14808-0.41096 0.21248 0.138-0.0648 0.27472-0.13488 0.41096-0.21248zm-6.2157 0.22344c0.20176 0.0568 0.4028 0.11264 0.60312 0.16248-0.20008-0.0496-0.4016-0.10568-0.60312-0.16248zm5.6938 0.0424c-0.17432 0.0768-0.34952 0.144-0.52656 0.2016 0.17712-0.0576 0.35208-0.12472 0.52656-0.2016zm-4.6672 0.22192c0.27424 0.0608 0.54616 0.10664 0.8172 0.1484-0.27096-0.0416-0.54296-0.0878-0.8172-0.1484zm4.0031 0.0184c-0.1352 0.04-0.27112 0.076-0.40776 0.10624 0.1364-0.0296 0.2728-0.0664 0.40776-0.10624zm-0.59376 0.14376c-0.0902 0.0168-0.18112 0.0296-0.27184 0.0424 0.091-0.0128 0.18144-0.0256 0.27184-0.0424zm-2.1906 0.0496c0.0368 0.008 0.0736 0.008 0.11088 0.01-0.0368 0-0.0736-0.008-0.11088-0.01zm0.94528 0.056c0.0408 0.00016 0.0815 0 0.12192 0-0.0408 0.0004-0.0814 0-0.12192 0zm338.6 1.65c0.8656 3.4598 1.6715 6.9341 2.3953 10.42 0.72376 3.4862 1.3646 6.9849 1.9015 10.495-0.53688-3.5104-1.1778-7.009-1.9015-10.495-0.72376-3.4862-1.5297-6.9606-2.3953-10.42zm-320.57 2.5266c-0.4772 0.95064-0.84872 1.9194-1.1343 2.9016 0.2856-0.98216 0.65712-1.951 1.1343-2.9016zm39.517 0.5828c-0.28848 0.31464-0.55336 0.65176-0.79688 1.0078 0.24352-0.35608 0.5084-0.6932 0.79688-1.0078zm430.97 1.825c-0.68296 1.4237-1.3999 2.8195-2.1578 4.1812-0.75792 1.3618-1.5568 2.6881-2.4016 3.975-0.84472 1.287-1.7361 2.5334-2.6797 3.7328 0.9436-1.1994 1.835-2.4458 2.6797-3.7328 0.8448-1.287 1.6437-2.6133 2.4016-3.975 0.75784-1.3617 1.4748-2.7575 2.1578-4.1812zm-433.22 2.1953c-0.29752 0.88696-0.5288 1.835-0.71096 2.8282 0.18216-0.99312 0.41344-1.9412 0.71096-2.8282zm16.475 4.1375c-0.24128 0.6156-0.44304 1.2677-0.61408 1.95 0.17104-0.68232 0.3728-1.3344 0.61408-1.95zm-17.6 1.7906c-0.2476 2.6732-0.28664 5.5387-0.3672 8.3609 0.0806-2.8222 0.1196-5.6877 0.3672-8.3609zm16.558 2.2874c-0.46768 2.9348-0.56736 6.22-0.81408 9.3672 0.24672-3.1472 0.3464-6.4324 0.81408-9.3672zm-34.73 3.1844c-0.0985 2.3027-0.17 4.6225-0.34224 6.8328 0.17224-2.2103 0.24376-4.5301 0.34224-6.8328zm17.672 6.2406c-0.0616 1.1003-0.14656 2.1785-0.27032 3.2203 0.12376-1.0418 0.2084-2.12 0.27032-3.2203zm-36.866 2.1313c-0.0288 0.67048-0.0806 1.3367-0.16096 1.9969 0.0803-0.66016 0.13208-1.3264 0.16096-1.9969zm18.702 0.0969c-0.11512 1.0735-0.26248 2.1119-0.45936 3.0984 0.19688-0.98648 0.34424-2.0249 0.45936-3.0984zm431.55 1.5578c-0.75504 1.3713-1.5946 2.6836-2.5078 3.939 0.91328-1.2554 1.7528-2.5678 2.5078-3.939zm-450.99 3.2703c-0.26888 0.9608-0.62152 1.9054-1.0781 2.8297 0.45656-0.92432 0.8092-1.8689 1.0781-2.8297zm18.225 1.0578c-0.2328 0.65048-0.50184 1.2636-0.81408 1.8312 0.31224-0.5676 0.58128-1.1807 0.81408-1.8312zm428.84 1.4515c-0.98392 1.2-2.0366 2.3451-3.1453 3.4391 1.1086-1.094 2.1614-2.2391 3.1453-3.4391zm-395.84 0.57968c-0.17768 0.25504-0.36848 0.49744-0.57192 0.72816 0.20344-0.23072 0.39424-0.47312 0.57192-0.72816zm-119.28 1.3406c0.15296 0 0.31104 0.0168 0.47192 0.0392-0.16072-0.0224-0.31912-0.0368-0.47192-0.0392zm84.394 0.02c-0.13496 0.15712-0.2756 0.30928-0.42184 0.45472 0.14624-0.14544 0.28688-0.2976 0.42184-0.45472zm-84.789 0c-0.048 0.008-0.0925 0.0192-0.13904 0.028 0.0464-0.009 0.0914-0.0216 0.13904-0.028zm-0.37504 0.0859c-0.0472 0.0152-0.0919 0.0368-0.13744 0.056 0.0456-0.0192 0.0902-0.0408 0.13744-0.056zm2.0031 0.0954c0.236 0.0624 0.4728 0.13544 0.71256 0.2156-0.2396-0.0802-0.47672-0.15288-0.71256-0.2156zm-2.3499 0.064c-0.0424 0.0248-0.0831 0.0536-0.12344 0.0828 0.04-0.0296 0.081-0.0576 0.12344-0.0828zm-0.31256 0.24368c-0.0352 0.0344-0.0696 0.0704-0.10312 0.10944 0.0336-0.0392 0.068-0.0744 0.10312-0.10944zm3.7188 0.02c0.2816 0.0996 0.55752 0.20016 0.8312 0.3-0.2724-0.0994-0.55096-0.20088-0.8312-0.3zm-3.9906 0.32192c-0.028 0.044-0.0568 0.085-0.0828 0.1328 0.0256-0.048 0.0552-0.0891 0.0828-0.1328zm5.95 0.35624c0.72624 0.71128 1.4087 1.4614 2.061 2.2375-0.65224-0.77616-1.3347-1.5262-2.061-2.2375zm-6.1688 0.0813c-0.0224 0.0568-0.0472 0.10856-0.0672 0.17024 0.02-0.0616 0.0448-0.11328 0.0672-0.17024zm9.1875 3.339c0.93768 1.2001 1.8219 2.4466 2.6969 3.7031-0.87496-1.2566-1.7592-2.503-2.6969-3.7031zm-8.725 4.3094c0.21696 0.60168 0.39544 1.1952 0.54216 1.7797-0.14672-0.58448-0.3252-1.178-0.54216-1.7797zm1.0031 4.3594c0.12408 1.1268 0.1524 2.2294 0.12808 3.3172 0.024-1.0878 0-2.1904-0.12808-3.3172zm149.7 0.40624c-0.48472-0.0144-1.0277 0.0192-1.6156 0.0906 0.58792-0.0712 1.1309-0.10496 1.6156-0.0906zm-134.77 0.80944c0.64544 0.78672 1.3194 1.5483 2.0359 2.275-0.71656-0.72664-1.3905-1.4882-2.0359-2.275zm23.158 1.7125c-0.91544 0.4332-1.8694 0.81808-2.8594 1.1531 0.99-0.33504 1.9439-0.71992 2.8594-1.1531zm96.439 0.82184c-0.618 0.11352-1.1948 0.19672-1.7188 0.23752 0.524-0.0408 1.1008-0.124 1.7188-0.23752zm-354.81 3.2047c0.17256 0 0.33656 0.024 0.50632 0.0328-0.16952-0.009-0.334-0.0288-0.50632-0.0312-0.91904-0.012-1.8781 0.072-2.875 0.26408 0.99688-0.19184 1.9559-0.27736 2.875-0.2656zm1.2891 0.0859c0.17864 0.0208 0.34976 0.0576 0.52496 0.0859-0.17528-0.028-0.34624-0.0656-0.52496-0.0859zm1.275 0.2172c0.14992 0.0336 0.29344 0.0792 0.44064 0.11872-0.14704-0.0392-0.29088-0.085-0.44064-0.11872zm1.1985 0.33904c0.154 0.052 0.30224 0.1152 0.45312 0.17344-0.15088-0.0584-0.29904-0.12112-0.45312-0.17344zm1.1171 0.44536c0.1664 0.076 0.32696 0.16184 0.48912 0.24528-0.162-0.0833-0.32288-0.1692-0.48912-0.24528zm219.69 0.11712c0.0648 0.008 0.1288 0.0176 0.19376 0.028-0.0648-0.0104-0.12928-0.0216-0.19376-0.028zm-1.2126 0.08c-0.0384 0.01-0.0776 0.0192-0.1156 0.0296 0.0384-0.0112 0.0768-0.02 0.1156-0.0296zm1.8641 0.0512c0.0624 0.0184 0.12408 0.0336 0.18592 0.0544-0.0616-0.0216-0.12408-0.0368-0.18592-0.0544zm-2.5109 0.1828c-0.0296 0.0152-0.0584 0.0328-0.0875 0.0488 0.0296-0.016 0.0576-0.0336 0.0875-0.0488zm-216.75 0.12816c0.15512 0.0908 0.30536 0.18848 0.45624 0.28592-0.1508-0.0974-0.3012-0.1952-0.45624-0.28592zm216.25 0.2c-0.0248 0.02-0.0512 0.0368-0.0752 0.0576 0.024-0.0208 0.0504-0.0376 0.0752-0.0576zm4.3906 0.20776c0.12496 0.10208 0.24768 0.2072 0.36408 0.32816 0.1288 0.13384 0.24952 0.28464 0.3656 0.44216-0.11616-0.15768-0.23672-0.30824-0.3656-0.44216-0.11632-0.1208-0.23928-0.22624-0.36408-0.32816zm-4.8406 0.2516c-0.048 0.0624-0.0939 0.12616-0.13592 0.19376 0.0424-0.068 0.0882-0.13096 0.13592-0.19376zm-214.78 0c0.1448 0.1048 0.286 0.21416 0.42656 0.32504-0.14064-0.11088-0.28168-0.22016-0.42656-0.32504zm214.6 0.27032c-0.0624 0.10952-0.12032 0.22416-0.1672 0.34536 0.0472-0.12168 0.10432-0.23544 0.1672-0.34536zm-0.1672 0.34688c-0.0456 0.1176-0.0801 0.24216-0.10936 0.37032 0.0296-0.12808 0.064-0.2528 0.10936-0.37032zm5.9969 0.008c0.11416 0.16464 0.22368 0.33696 0.32184 0.52656-0.0982-0.18952-0.20776-0.362-0.32184-0.52656zm-219.49 0.12808c0.13704 0.11976 0.27056 0.24328 0.40312 0.3688-0.13232-0.12528-0.26632-0.2492-0.40312-0.3688zm213.36 0.3672c-0.0168 0.0938-0.0296 0.19008-0.0376 0.28912 0.008-0.0992 0.0208-0.19512 0.0376-0.28912zm-0.0456 0.4328c0 0.10416 0 0.21088 0.008 0.32032-0.008-0.1092-0.0112-0.21632-0.008-0.32032zm-212.44 0.0312c0.13256 0.13776 0.26304 0.27688 0.39064 0.42032-0.12744-0.14328-0.25824-0.28272-0.39064-0.42032zm212.46 0.42656c0.0152 0.14856 0.0384 0.30184 0.0736 0.45936-0.0352-0.15808-0.0584-0.31032-0.0736-0.45936zm-211.68 0.47c0.1204 0.14768 0.23928 0.29576 0.35472 0.44848-0.11536-0.15264-0.2344-0.30088-0.35472-0.44848zm211.74 0.0264c0.036 0.1528 0.0832 0.30952 0.13904 0.47032-0.056-0.1604-0.10296-0.31792-0.13904-0.47032zm0.20464 0.64376c0.0472 0.12192 0.099 0.24576 0.15784 0.37192-0.0592-0.1264-0.11072-0.24984-0.15784-0.37192zm-211.19 0.3344c0.10288 0.14888 0.20632 0.29712 0.30472 0.45-0.0984-0.1528-0.20184-0.30112-0.30472-0.45zm211.44 0.23592c0.0656 0.12968 0.14024 0.26144 0.21872 0.39536-0.0784-0.13376-0.15304-0.26576-0.21872-0.39536zm0.32184 0.57344c0.122 0.1964 0.25432 0.39528 0.40472 0.6-0.1504-0.20472-0.28264-0.4036-0.40472-0.6zm-211.08 0.27192c0.0834 0.14288 0.1688 0.28384 0.24848 0.42968-0.08-0.14576-0.16504-0.28688-0.24848-0.42968zm0.61568 1.1484c0.0672 0.138 0.1372 0.274 0.20152 0.41408-0.064-0.14-0.134-0.27624-0.20152-0.41408zm0.5312 1.1906c0.0544 0.13424 0.11392 0.26576 0.16568 0.40152-0.052-0.13568-0.11104-0.26736-0.16568-0.40152zm208.29 0.1328c0.13352 0.56576 0.29848 1.1375 0.5 1.7172-0.20152-0.57968-0.36648-1.1514-0.5-1.7172zm-207.82 1.1438c0.0376 0.11368 0.0803 0.22456 0.11568 0.33904-0.0352-0.11448-0.0784-0.22536-0.11568-0.33904zm375.29 2.2844c0.6212 0.4756 1.2212 0.9828 1.8 1.5187-0.5788-0.53592-1.1788-1.0431-1.8-1.5187zm-374.57 0.5812c0.0216 0.12488 0.0352 0.25128 0.0544 0.37656-0.0192-0.12536-0.0328-0.25168-0.0544-0.37656zm0.1812 1.2782c0.0176 0.15544 0.0256 0.31136 0.0392 0.4672-0.0136-0.15576-0.0216-0.31184-0.0392-0.4672zm0.10312 1.3203c0.008 0.15952 0.009 0.31848 0.0128 0.47808 0-0.1592-0.008-0.31888-0.0128-0.47808zm0.02 1.2718c0 0.1932-0.0136 0.38536-0.0216 0.57816 0.009-0.19288 0.0192-0.38488 0.0216-0.57816zm208.65 0.21096c-0.1512 0.92208-0.33936 1.8356-0.55936 2.7422 0.22-0.90656 0.40816-1.8201 0.55936-2.7422zm-208.72 1.0812c-0.0152 0.18872-0.036 0.37624-0.056 0.56408 0.0208-0.18768 0.0416-0.37552 0.056-0.56408zm-114.26 0.8c0.15824 0.0004 0.30856 0.0112 0.46256 0.0168-0.22904-0.009-0.46008-0.0128-0.69848-0.01 0.0776 0 0.1592-0.008 0.23592-0.008zm-0.64056 0.02c-0.25232 0.0112-0.50992 0.0288-0.77192 0.0528 0.262-0.024 0.51968-0.0424 0.77192-0.0528zm1.489 0.0128c0.31144 0.0224 0.6152 0.0536 0.90784 0.1-0.2928-0.0456-0.59632-0.0784-0.90784-0.1zm15.07 0c-0.47896 0.14272-0.9768 0.29512-1.475 0.45312 0.49888-0.15872 0.99496-0.31008 1.475-0.45312zm-17.711 0.0768c-0.39088 0.0448-0.78904 0.0998-1.2 0.17344 0.41096-0.0736 0.8092-0.12856 1.2-0.17344zm3.9969 0.11408c0.15232 0.032 0.30488 0.0632 0.4516 0.1016-0.1468-0.0384-0.2992-0.0704-0.4516-0.1016zm0.93752 0.2484c0.1096 0.036 0.21736 0.0752 0.32344 0.11568-0.10632-0.0408-0.2136-0.0792-0.32344-0.11568zm110.99 0.0488c-0.0272 0.18224-0.06 0.3628-0.0922 0.54376 0.0328-0.1808 0.0648-0.36168 0.0922-0.54376zm-100.22 0.14216c-0.34896 0.11592-0.69536 0.24112-1.0406 0.37032 0.34592-0.13008 0.6908-0.25376 1.0406-0.37032zm-9.9594 0.12816c0.0712 0.0336 0.1384 0.072 0.20784 0.10776-0.0696-0.0352-0.13648-0.0744-0.20784-0.10776zm8.1485 0.53904c-0.0176 0.008-0.0352 0.016-0.0536 0.0232 0.0176-0.008 0.0352-0.016 0.0536-0.0232zm101.8 0.44064c-0.0408 0.18448-0.085 0.36736-0.13128 0.55 0.0464-0.18256 0.0907-0.3656 0.13128-0.55zm-108.18 0.25c0.0224 0.0224 0.0464 0.044 0.0688 0.0672-0.0224-0.0232-0.0464-0.0448-0.0688-0.0672zm0.50472 0.57032c0.0104 0.0136 0.0192 0.0288 0.0296 0.0424-0.0104-0.0136-0.0192-0.0288-0.0296-0.0424zm107.35 0.43752c-0.0504 0.16936-0.1036 0.33728-0.15936 0.50464 0.056-0.1672 0.10872-0.33536 0.15936-0.50464zm388.5 0.12968c0.0224 0.008 0.0456 0.0144 0.0688 0.0216-0.0232-0.008-0.0464-0.016-0.0688-0.0216zm0.23904 0.0969c0.13888 0.0664 0.28208 0.14832 0.43128 0.26248 0.1372 0.10496 0.2808 0.24048 0.42496 0.3812-0.14392-0.14048-0.288-0.2764-0.42496-0.3812-0.14928-0.11416-0.29232-0.19584-0.43128-0.26248zm-180.62 0.32496c-0.55128 1.7883-1.2018 3.554-1.8969 5.311 0.69512-1.757 1.3456-3.5226 1.8969-5.311zm-208.54 0.66c-0.064 0.16568-0.12776 0.33056-0.19688 0.49376 0.0688-0.16304 0.1332-0.32824 0.19688-0.49376zm387.62 0.28752c-0.08 0.39176-0.13272 0.87304-0.15624 1.4531 0.0232-0.58008 0.0768-1.0614 0.15624-1.4531zm-388.11 0.8484c-0.0824 0.17256-0.1644 0.34496-0.25312 0.51408 0.0886-0.16896 0.1708-0.34168 0.25312-0.51408zm391.83 0.1516c0.0834 0.11976 0.16632 0.24448 0.25 0.37024-0.0833-0.12512-0.16696-0.25104-0.25-0.37024zm-392.42 0.9687c-0.0943 0.16096-0.18704 0.32248-0.28752 0.47968 0.1004-0.1572 0.1932-0.31872 0.28752-0.47968zm393.15 0.15624c0.0696 0.11288 0.1388 0.22176 0.20784 0.33752-0.0688-0.1152-0.1388-0.2252-0.20784-0.33752zm-393.87 0.94688c-0.0946 0.13192-0.18512 0.26656-0.2844 0.39528 0.0993-0.12864 0.18984-0.26344 0.2844-0.39528zm394.75 0.56872c0.32616 0.59984 0.6328 1.2143 0.92656 1.8266-0.29344-0.61152-0.6008-1.2274-0.92656-1.8266zm-395.56 0.44848c-0.10256 0.11784-0.19928 0.24008-0.30624 0.35464 0.10704-0.11456 0.2036-0.23672 0.30624-0.35464zm-0.94688 0.98432c-0.0911 0.0854-0.17488 0.1764-0.26872 0.25944 0.0938-0.083 0.17768-0.17416 0.26872-0.25944zm397.66 0.87344c0.2812 0.60624 0.54872 1.2052 0.77504 1.7688 0.22912 0.57064 0.40968 1.0866 0.564 1.5687-0.15416-0.48136-0.33536-0.99928-0.564-1.5687-0.22584-0.56224-0.49456-1.1641-0.77504-1.7688zm1.4922 3.8329c0.0272 0.096 0.0544 0.19304 0.0768 0.2828-0.0224-0.0894-0.0496-0.18728-0.0768-0.2828zm-187.87 2.8984c10.37 2.75 19.86 8.8797 30.7 10.58 3.23 0.32 8.43 3.6213 4.95 7.0313-10.79 3.42-22.629 5.209-31.809 12.289-10.77 8.01 10.75 23-4.5 25.53-7.55-2.32-18.43 9.9212-22.9 0.8312 6.12-11.02 11.94-22.241 15.58-34.411-0.19496-1.0113-0.32928-2.0083-0.40936-2.9922 0.0801 0.98384 0.2144 1.9809 0.40936 2.9922 4.51-6.24 0.20968-18.43 7.9797-21.85zm-7.1687 7.5734c-0.24848 0.90496-0.46872 1.8174-0.65472 2.7375 0.186-0.92008 0.40624-1.8326 0.65472-2.7375zm-1.1031 5.525c-0.1104 0.93824-0.17984 1.8858-0.2016 2.8453 0.0216-0.95952 0.0912-1.907 0.2016-2.8453zm-23.228 53.639c-0.5224 1.151-1.1172 2.2538-1.889 3.2266 0.77184-0.9728 1.3666-2.0756 1.889-3.2266zm-2.2906 3.7015c-0.13888 0.1545-0.28416 0.3055-0.43432 0.4516 0.15016-0.1461 0.29544-0.2971 0.43432-0.4516z" fill="#080d33"/>
<path d="m0 0v0.77969c0.19-0.2 0.5797-0.58969 0.7797-0.77969h-0.7797zm566.99 28.423c-11.069-0.03314-22.262 4.7509-29.024 13.717-10.84 2.531-20.02-6.85-30.37-8.74-15.73-6.02-36.151 1.0203-41.041 18.22-1.55 3.8-0.1288 11.22-5.5188 11.38-12.5-6.32-30.591 4.6397-26.931 19.33 2.73 6.49 14.43-2.3094 14.67 6.3906-18.48 11.42-37.669 30.459-33.039 54.259 7.34 13.88 23.95 20.331 34.15 30.991-20.15 26.12 9.9197 71.66 41.13 59.18 9.04 11.42 16.98 23.8 22.68 37.23 0.86 4.81-4.95 7.6809-7.6 10.761-15.46 12.5-26.67 29.63-42.07 41.95-26.24 6.57-42.37 33.199-39.38 59.589 0.98 5.99-0.8197 25.14-10.98 18.62 10.4 6.3 5.6491 22.45-4.8609 25.87 0.87 1.02 5.85 5.05 2.65 3.75-16.9-11.58-34.95 6.3794-50.53 12.909-20.57 18.99-19.709 51.25-10.589 75.8 15.79 34.33 57.509 46.111 92.069 36.941 8.23 11.97 9.4906 33.759 0.1906 46.039-13.95-10.57-28.33-20.699-42.65-30.809 1.68-3.42 7.0297-0.67031 9.4297-3.5703-8.84-4.71-20.049-3.1603-29.709-6.0703-19.92 1.13-36.17 14.851-54.48 20.831-13.12 3.39-13.191 17.19-23.491 23.73-15.3 11.82-26.02 29.369-40.78 41.039-19.54-3.16-37.97-14.829-51.08-29.609-11.73-6.95-19.84-18.361-29.35-27.841-14.15-4.94-19.83-26.149-19.7-39.719 16.65-7.41 30.659-22.821 43.009-32.711-3.71 18.76 10.519-8.29 8.5594 3.35 4.29-3.65 5.4006-13.519 12.691-10.639 8.22 10.91 15.3 22.73 24.25 33.13 3.34 3.96 3.41 14.009 10.4 13.139-6.6-19.53-17.069-38.22-23.759-57.98-2.41 5.9-10.701 5.2303-14.831 10.27-0.21-7.97 5.3-9.15 11.75-9.35-6.32-9.82 2.7303-17.611 8.8703-24.291 6.8-33.17 27.011-70.74 65.061-73.2 5.35 2.9 16.699-1.0097 6.9188-3.3297 9.91 0.4 19.6 3.5703 29.55 2.8703 11.66-2.36 21.861-9.8297 33.931-10.68-7.71-0.46-15.901-0.0109-22.361 4.6891-14.39 9.97-31.17-2.0694-46.78 1.0906-37.85-0.68-64.209 34.36-73.559 67.57-2.99 12.48-18.271 18.189-16.391 32.289-12.35 16.07-31.65 25.02-45.07 40.25-8.51 7.41-27.09 12.58-20.95 27.6-0.66 10.96 20.53 20.61 6.7297 29.12-19.81 19.12-35.32 42.07-52.95 63.08-9.44 9.61-25.209 25.351-12.469 38.831 6.26 21.4 30.969 28.899 40.619 48.289 17.35 24.04 38.421 45.121 60.761 64.491 0.32 5.85-2.2297 11.46-4.5797 16.7-7.84 20.33-17.33 40.739-18.12 62.889-2.98 14.38 3.8 29.25-0.5 43.37-23.47 8.46-51.05 4.4797-72.85 17.68-8.69 12.96 2.44 31.02 18.15 26.95 9.5 2.09 2.7991-6.0987-0.2109-8.0187-4.8-3.26 4.1612-7.18 1.2812-11-3.4-4.2-2.4109-10.451-6.5609-13.631 5.6854-1.018 9.4751 0.718 10.492 5.1297 1.0611-3.1446 5.0988-4.3903 8.4187-5.3797 14.64-2.67 29.399-4.9697 43.809-8.9297-2.39-3.1 1.3503-5.3997 1.6703-8.3297-7.87-37.92 11.04-74.219 22.45-109.41 4.73-3.68 9.3094-8.0406 8.7594-14.591 9.58-10.62 20.87-19.76 33.38-26.73 10.13-4.42 25.19-4.3006 29.5-16.241 2.93 1.78 5.57 4.8403 9.3 4.5703 11.76-1.36 22.111 5.4603 32.681 9.7203-1.49-1.24-3.3312-2.66-2.6812-4.85 30.79-2.86 56.211 19.69 76.591 39.87 13.52 12.57 18.921 30.459 28.091 45.919 5 7.31 7.8397 15.55 13.93 22.15 12.08-7.42 31.069-4.7687 44.839-12.269 6.58-4.01 14.271 5.6987 19.891-0.53128 4.73-6.88-12.91-0.87904-10.53-9.589 5.2-20.93 10.2-43.04 2.2-64.08-23.22-66.93-42.39-137.61-32.28-209.1-1.32-45.27-14.51-90.6-4.95-135.95 2.07-10.03-3.02-0.96062-5.55-2.2906-3.7-16.38-5.0612-33.399-6.5312-50.009-13.49-23.11 1.1609-57.021 27.561-62.011 0.34-0.13 1.01-0.39031 1.35-0.52031 20.74-14.49 37.18-35.27 53.28-55.03 5.31-3.96-4.47-16.79 4-14.12 10.94 13.59 26.76 30.77 46.23 24.7 11.41-1.99 14.2-15.339 16.57-24.719 6.54 3.2 0.8794 17.469 10.809 14.719 12.9 6.84 26.27 13.4 38.05 22.15 20.83-0.62 46.4 9.3906 50.27 32.341 6.81 32.89 2.0603 66.849-3.0797 99.659 2.2-0.15 4.4097-0.50969 6.6297-0.32969 8.78 39.34-2.5497 81.38 12.62 119.5 19.38 50.2 6.9603 104.96 4.6703 157-3.7 36.02 6.12 74.181 28.95 102.24-0.29-5.79-1.3609-11.53-4.8609-16.27-3.2-13.42-11.299-25.16-13.959-38.75-7.59-28.55-2.4697-58.11 0.1203-86.95 4.56-47.91 4.8203-98.05-15.48-142.78-2.81-37.26 2.79-76.381-9.6-112.46-0.66-34.84 16.469-83.759-17.981-107.82-10.84-12.85-29.39-7.7903-42.9-15.22-8.13-9-20.479-12.23-30.389-18.53-20.2-32.87 21.75-65.781 4.4797-99.491-9.22-12.68-19.459-28.36-13.059-44.7 5.01-8.06-11.13-7.7303-7.5703-15.37 10.62-5.46 23.749-2.4791 35.109-5.8391 5.05-5.53 5.3906-17.201-3.1594-19.611-4.47-3.26-11.331 2.5803-14.461-2.6797-0.84-14.59 2.3706-32.359-8.6094-44.059-6.3131-6.1512-14.847-9.0914-23.456-9.1172zm-445.12 920.12c-0.3868 1.1462-0.3893 2.5366 0.1984 4.2703 0.1649-1.6331 0.083-3.0485-0.1984-4.2703zm291.8-547.24c-2.49-6.01-10.21-7.6197-16.02-8.8297 5.58 2.44 10.79 5.6897 16.02 8.8297zm152.63-363.89c5.8816-0.02002 11.906 2.2609 15.544 6.7922 13.63 13.68 8.5988 34.909 13.969 51.609-9.44 6.19-24.139 7.5703-27.709-6.2797-2.1-7.31 14.27-3.0894 9.9797-10.709-8.17-8.2-24.819 5.66-15.239 14.25 6.27 6.64 8.1688 16.699 13.919 24.039 1.75 4.78 10.101 4.8709 7.0109 11.611-6.25 2.11-6.5106-11.47-12.791-7.8203-6.21 9.37-5.4491 21.481-7.8391 32.141-1.17 2.46 2.9091 4.5597 3.5891 1.6297 2.44-9.75 5.1697-20.04 6.5297-29.37 8.86 6.23 10.721 21.741 13.181 32.991 7.45 10.75 16.709 22.199 15.239 36.139-7.45 20.29-13.22 41.131-19.35 61.811-7.2 16.14-27.98 12.84-41 6.3797-15.75-4.43-29.069-15.241-38.939-27.991-5.19-1.54-6.7506-12.949-12.541-6.3891-24.73 5.69-48.7-30.811-35.08-51.561 6.91-3.8 17.01-1.6794 22.25 4.2906 2.64-4.7 8.6303-3.6897 12.37-6.9297-0.43-14.04-19.661-1.1106-28.511-8.7406-9.47-12.95-24.34-20.489-36.7-30.059-2.14-21.03 22.26-30.421 30.8-46.361 4.42-9.49-6.06-11.469-11.9-14.959 4.63-15.35 22.86 0.0091 21.05 10.939-1.09 4.98 4.2506 4.7412 4.1406 0.23125 2.05-18.01 8.7403-45.021 31.32-45.481 15.26 3.18 29.64 12.531 45.78 10.011 4.94-0.46 11.729-3.7597 11.039-9.6797 2.88-1.68 6.3585-2.5208 9.8875-2.5328zm-43.7 20.812c-0.87 5.61 9.0406 7.3397 10.741 12.43 7.42 9.02 5.5988 20.41 5.0688 31.05 5.17 0.59 7.3703-7.56 5.7703-11.85 1.38-13.51-7.2-30.61-21.58-31.63zm-21.8 33.805c-0.4989 0.01762-0.9669 0.10625-1.3906 0.275-13.95 2.43-0.1391 14.77 8.2609 12.07 15.309 2.9812 0.6131-12.61-6.8703-12.345zm-5.8594 17.066c-14.12 1.23-1.4406 23.999-14.141 28.889-7.3 1.36-7.4294 9.1306-12.659 11.691 12.71 10.9 25.399-5.6909 23.619-17.811 0.11-0.42 0.3306-1.2494 0.4406-1.6594 0.56-7.08 1.5306-14.119 2.7406-21.109zm21.934 23.773c-0.9517 0.004-1.9544 0.13532-3.0156 0.41563-8.38 1.73-4.69 12.99-3.75 18.78 4.91-1.84-0.7294-15.26 7.7906-15.73 11.22 8.52 17.7 23.55 31.5 29.08 5.7 2.33 10.891-9.5397 4.9906-10.18-3.36 10.34-14.131 0.19-17.431-5.25-6.4525-5.22-10.885-17.15-20.084-17.116zm61.13 22.19c-0.4169 0.008-0.8981 0.0559-1.45 0.14844-2.93 1.69-4.9106 5.02-4.5406 8.45 3.9375 0.075 12.244-8.7185 5.9906-8.5984zm-53.62 9.2078c-8.44 7.03 10.961 4.8509 16.511 6.6109-0.43-6.53-11.331-6.4409-16.511-6.6109zm-12.767 4.5312c-0.9594-0.0562-1.9622 0.0962-3.0328 0.56876-10.95 7.11 14.811 12.751 15.211 2.8812-4.6637 0.95876-8.0206-3.2064-12.178-3.45zm64.823 0.25782c-2.296-0.053-4.7115 0.32218-7.1453 1.1922-4.62 10.51 10.999 0.0197 15.259 3.9797 8.28 2.27-3.9597 17.96 6.7703 14.1 2.7706-10.782-4.935-19.042-14.884-19.272zm-25.176 11.866c-0.2558-0.008-0.5419 0.0281-0.8594 0.11563-2.63 1.57-3.2706 4.7909-2.2906 7.7109 4.0687 2.4 6.987-7.7074 3.15-7.8266zm19.195 2.4359c-0.2624 0.009-0.5438 0.04-0.8453 0.0906-4.26 1.31-10.87 3.6594-6.9797 9.7094 5.6187 8.6703 15.958-10.092 7.825-9.8zm-106.32 5.9594c1.37 7.04 14.021 9.1212 20.541 11.681-0.9-9.49-12.911-10.701-20.541-11.681zm67.583 9.5984c-0.3893-0.0195-0.8497 0.0181-1.3922 0.12187-4.39 10.56-3.5209 23.39-0.5609 34.12 1.75 5.39 5.84 0.40062 8.7-1.5594 10.34-8.79 27.121-16.381 39.161-6.8812 11.76 6.97 16.859-22.29 5.7391-22.33-5 3.11-10.269 8.9703-16.559 4.9203-9.55-5.85-22.831-7.4997-30.941 1.6703-8.5406 3.4031 1.6927-9.7704-4.1469-10.062zm49.25 7.98c11.35 1.02-5.23 13.37 0 0zm-28.142 1.4531c3.0234 0.19077 5.0147 3.0925 4.0922 6.4375-3.72 5.32-12.901-1.9906-7.3906-5.6406 1.1675-0.6225 2.2906-0.86047 3.2984-0.79687zm-10.375 2.7547c4.1448-0.20538 0.6594 8.2594-3.3625 6.8719-2.54-2.44-0.5503-5.9394 2.4297-6.7094 0.3462-0.0962 0.6565-0.14881 0.9328-0.16249zm18.647 0.0125c14.64 0.66-3.65 10.89 0 0zm-23.08 10.04c12.856-0.23052-11.982 11.181-1.3641 0.0594 0.4956-0.0328 0.9493-0.0519 1.3641-0.0594zm30.358 7.8125c-2.1645-0.0387-4.5116 0.33937-5.7016 0.3875-4.48-0.03-9.1606 2.5597-10.791 6.8297 6.96 2.4 14.51-1.6403 21.08-3.4203 0.675-3.0094-1.8046-3.7471-4.5875-3.7969zm44.033 72.966c-2.14 0.0587-4.6103 0.69249-5.7453 0.56249-3.15 1.64-13.51-0.92093-12.45 4.4891 7.14-0.32 15.451 1.3297 21.961-2.1703 0.185-2.425-1.6256-2.94-3.7656-2.8812zm-71.845 14.153c-0.7781-0.0115-1.5838 0.11188-2.15 0.22813-13.26 5.95-39.949-3.2997-42.019 15.52 15.41-4.22 31.16-8.9294 46.6-13.909 0.087-1.425-1.1344-1.8198-2.4312-1.8391zm114.61 64.178c-6.1147 0.33078-4.9218 11.066-6.9562 14.941-7.07 30.72-16.999 67.079-47.539 82.359-9.81 7.24-23.141 5.0503-34.561 6.5203-1.26 7.88 14.631-1.9603 12.781 6.3797-9.65 9.03-17.181 19.901-25.211 30.291-9.89 6.36-25.77 0.75062-33.15 11.441 9.03-3.92 11.17 7.1091 18.75 9.5891 15.85 10.42 33.491 20.771 45.611 35.041-23.19 18.51-39.791 45.08-64.961 60.62 2.08 52.32-8.26 105.18 1.35 157.2 6.01 22.96 23.17 40.99 42.67 53.58 6.74 10.24-1.26 20.64-4.4 30.35-3.86 9.85 2.3003 29.209-14.53 26.839-1.94-11.93 7.5003-25.229 1.7703-36.259-11.63 7.85 3.8797 40.781-19.47 37.491-5.27-11.35 8.5297-26.291 1.4797-37.591-11.18 8.34 3.66 42.42-20.35 36.65 0.92-11.67 3.9094-23.24 3.4594-35.1-0.59-2.84-5.35-4.1903-6.1-0.77032-5.09 10.14 1.8309 22.27-3.0391 32.13-5.67 2.2-11.861-1.47-16.791-4.4-1.84-0.08-1.6894-2.64 0.1406-2.5l0.08-0.83904c-13.26-1.38-34.439-0.05-46.159 10.55 5.81 5.69 8.8294 13.82 15.809 18.57-7.23 3.89-18.38-4.35-21.87-11.75 4.1 9.78-2.2097 17.04 3.7203 26.88-1.11 15.05-13.54 27.529-10.42 43.709 4.51-6.24 0.2097-18.43 7.9797-21.85 10.37 2.75 19.86 8.8797 30.7 10.58 3.23 0.32 8.43 3.6213 4.95 7.0313-10.79 3.42-22.629 5.209-31.809 12.289-10.77 8.01 10.75 23-4.5 25.53-7.55-2.32-18.43 9.9212-22.9 0.8312-7.4 2.03-6.0206 11.39-11.641 15.45-14.33 13.6-29.059 28.649-48.069 35.089-30.38 0.81-62.081 3.0906-91.361-6.8094-20.43-1.3-34.72-16.65-46.52-31.52-2.83 4.82-6.0094-1.5903-9.7594-0.3203-27.55 3.15-56.911 7.6106-80.141 23.691-14.47 11.31 3.8512 27.889 13.531 32.459-21.84 12.33-51.971 6.49-72.641 22.65-6.7 7.69 5.1 14.81 12.2 13.5 37.62-0.65 73.81-12.909 110.15-21.509 34.57 1.59 69.23 5.6197 103.95 2.1297 47.55-4.35 96.679-2.9894 142.66-17.359 9.62-3.33 20.701-10.831 20.641-21.891-1.85-13.2-20.99-15.41-25.48-24.68 12.32-5.9 26.859-6.9597 40.039-10.98 17.42 3.43 33.831 12.009 51.841 13.419 20.31 2.18 42.96 10.601 61.88-1.1891 5.12-5.84-4.8497-12.051-1.5797-16.161 44.78 14.05 93.56 21.011 140.78 15.591 14.17-2.56 37.56-5.9897 35.42-25.43-7.64-18.61-30.66-22.661-47.52-28.991 0.32-5.05 8.6009-3.6894 11.411-7.2594 5.72-4.14 0.1297-11.361-3.6703-14.541 8.67-7.4 22.8-8.4897 33.43-4.1297 54.59 12.21 110.73 6.35 165.99 3.6 22.59-6.14 50.789-2.7506 67.869-21.541 7.36-15.08-9.9091-26.89-23.189-28.65-3.8-1.97-11.221-1.2087-10.991-6.8687 21.63-16.7 52.79-13.431 75.13-28.481-8.24-20.38-32.66-0.93904-46.83-4.189 3-13.15 11.43-25.79 11.48-39.98-8.73 22.52-12.539 52.619-35.869 64.169-6.04 10.97-17.501 18.13-28.661 23.15-19.33 16.78-46.54 22.41-72.32 21.1-3.87-5.69 8.1706-5.1087 11.191-6.0687-10.08 0.99-20.779 1.8487-30.009-3.2813-28.77-5.67-59.631-19.55-73.681-47.08-12.91-16.78-22.369-37.559-21.859-59.039-5.03 12.53-13.79 23.149-18.42 35.839-15.96 2.86 0.1-13.329-2.9703-19.339-7.15 5.09-7.8 27.499-21.55 20.219-1.21-10.31 8.4403-17.61 10.42-27.2-13.75 4.87-11.839 27.44-25.059 30.9 11.46-1.52 21.9 3.5606 33-1.7594 14.05 3.95 14.319-15.979 22.839-20.059 5.48 19.93 16.451 37.369 27.681 54.459 2.98 5.06-4.7003-3.8797-2.9703 1.3203-16.11-13.27-34.39 3.1094-52.15 2.2094-9.91 6.36-33.091 6.6406-28.461 23.691 0.72 10.26 16.98 9.109 17.02 18.639-10.29 4.12-21.95 5.031-32.52 8.711-10.22 4.71-3.5291-9.05-10.039-10.7-14.89 0.29-5.4803-20.841-18.57-24.391-2.47-1.86-12.89-5.2303-6.2297-8.6203 6.64-1.94 11.24-10.72 3.05-15.15-21.36-11.11-46.141-6.4187-69.161-8.0187-5.05-5.84 2.0512-13.731 8.7312-14.241-12.94-0.77 1.5591-15.86-6.0109-22.18-6.08-5.57 2.8597-10.73 8.2297-10.78 17.43-1.38 33.381-9.46 50.841-10.75 12.55-3.92 28.7-14.54 40.77-4.2703 3.19 7.23-7.04 14.409-3.65 21.959 11.45-4.71 14.16-38.55-5.1203-34-7.24 2.84-5.6106-9.0397-4.8906-13.33 12.16-15.34 22.911-38.2 14.731-56.08-5.75-51.48-27.09-100.43-29.81-152.42-0.36-15.76 9.7903-32.301 2.2203-46.941-4.52-28.13-12.32-56.3-10.6-84.9 13.65-23.67 17.99-51.13 24.93-77.2-0.2128-0.0116-0.4168-0.0107-0.6141 0zm-62.273 18.93c-0.344-0.0187-0.7891 0.0531-1.3516 0.24063-3.98 0.76-5.4109 4.7906-7.8109 7.4906-3.89 0.58-1.3097-8.2803-5.6797-6.7203 2.05 9.15-1.2297 19.239 0.07 27.709 5.4-5.16 6.0894-17.37 12.659-23.2 1.9687-0.79625 4.5202-5.3892 2.1125-5.5203zm-164.56 5.9203c5.82 3.41 1.5297 17.07 4.1797 23.35 6.99 37.9 1.4906 76.94 9.2906 114.62 4.88 7.8-7.1094 5.35-10.859 6.95-33.17 5.79-72.731-13.399-77.511-49.439-10.37-33.75 16.661-71.26 50.611-71.17-3.32 5.38-8.8712 10.3-7.8812 17.35 7.71 0.05 6.5303-14.58 14.92-14.58 3.94 4.7-4.8694 14.39 0.8406 17.98 6.78-14.46 10.889-29.871 16.409-45.061zm89.564 25.856c-2.7645-0.14439-6.7063 5.6125-7.7844 8.3547-12.98 48.6 4.1809 98.769 0.1109 148.04 8.21 7.09 4.67 17.66 6.25 27.07 0.83-2.83 2.6494-5.15 4.9094-7-2.02-11.58-7.8003-22.309-8.2203-34.189-1.34-13.72 6.1606-29.52 0.4406-41.35-6.36-20.02 21.219-20.471 32.259-12.981-3.7-12.58-22.26-7.06-31.75-4.95-3.39-7.06-2.0094-16.739-2.6594-24.759 11.8-0.64 27.93 3.8694 36.27-6.3406-10.21-0.17-26.491 8.53-37.291 1.25-1.49-17.21-1.8297-36.969 9.4203-51.439-0.5009-1.1616-1.1822-1.6642-1.9562-1.7047zm-94.01 11.33c-0.48 6.88 1.63 13.75 0.35 20.6 0.89 3.6 10.72 10.579 6.9 1.2094-4.76-5.93-1.42-19.019-7.25-21.809zm-9.6609 19.059c-1.7 4.73 0.5097 9.9703 0.4797 14.67 7.19 2.04 2.9909 17.99 11.311 13.78-2.39-4.95-0.9903-31.869-6.3203-15.869-7.15-0.23 0.2897-12.111-5.4703-12.581zm-10.059 1.4703c-4.33 4.33 1.1091 14.22-6.4609 15.17-3.49-0.28-0.4297-16.449-3.8297-8.1594-6.96 6.86 2.7009 12.349-0.6391 21.569 7 5.81 2.0697-13.569 10.48-11.239 3.05 3.87 2.4694 10.919 7.4094 12.959 1.74-4.93 0.6703-10.42 0.7203-15.5-8.37-0.05-1.9597-12.91-7.6797-14.8zm217.81 10.09c0.8573 0.0687 1.5735 0.50782 1.7422 1.6453 1.09 39.81 16.09 78.85 9.4 118.83-2.65 13.3 5.8491 27.419 4.0391 39.459-15.59-16.03-34.879-30.049-52.509-44.589-4.25-3.93 1.21-8.3497 2.4-12.18-14.37-15.02-32.07-26.48-49.72-37.35-1.6-1.3-4.1297-3.0012-3.0797-5.3812 8.98-3.53 19.65-2.0594 27.43-8.7094 10.55-10.27 15.85-25.33 27.8-34.23 11.24-3.82 22.671-8.3906 30.891-17.291 0.5288-0.15375 1.0935-0.24588 1.6078-0.20469zm-250.67 97.616c27.27 3.38 46.18 26.759 69.15 39.209-3.84 56.51 12.741 110.73 30.191 163.63 9.9 27.16 14.36 58.53 1.1203 85.37-11.96 7.41-26.52 6.4103-39.57 10.57-2.54 0.7-7.7506 1.5597-8.4906-2.1203-4.01-15.76-10.849-30.651-19.559-44.341-4.54-4.2-9.0194-9.6497-10.009-15.88-2.97-4.35-7.2606-7.5-10.991-11.15-27.98-23.75-64.06-39.76-101.42-36.23-2.3-0.59-7.0703 1.9394-7.9203-1.4406-14.36-26.63-33.919-53.199-62.459-65.719-1.91-4.8 5.1997-6.0509 7.6797-8.4609 11.67-7.07 20.951-17.3 29.591-27.48 7.13 0 15.66 3.4994 21.2-3.6906 27.14-33.91 59.059-68.949 101.49-82.269zm-198.31 20.183c1.5962-0.0119 3.2112 0.96938 4.8125 3.4172 14.36 22.35 41.941 34.21 50.041 60.58 3.25 15.12-14.62 20.37-23.27 28.87-6.18 8.79-16.53 13.47-24.57 19.63 5.08 8.04 13.54-9.15 21.7-6.25 19.88 7.27 33.041 25.27 47.741 39.58 3.82 7.55 13.589 12.07 12.409 21.68-6.54 11.47-22.33 8.3703-30.4 18.27-11.55 5.47-19.469 16.46-29.409 23.52-34.34-21.89-53.341-59.711-79.741-89.341-10.16-7.08-24.909-16.5-21.769-30.78 20.58-22.44 38.489-48.53 57.569-72.75 3.7265-3.6875 9.1866-16.384 14.888-16.427zm402.11 1.2969c22.34 18.39 45.561 36.479 65.591 57.259 3.25 10.89 5.3403 22.83 6.5203 34.03-15.04 11.93-28.411 26.47-42.861 39.4 1.74 16.02 14.721-15.049 20.461-7.9891-22.82 38.3-52.761 71.38-79.491 106.77-14.66-5.55-16.73-27.511-20.37-41.461-9.36-35.76 8.71-75.829 41.05-92.959 7.92-7.98 29.13 2.42 31.5-9.6-11.44-5.92-29.729 4.7294-41.689-4.3906-10.45-5.88-21.44-13.069-28.72-22.109 19.98-14.75 34.649-37.81 48.009-58.95zm-47.527 71.914c5.1298 0.1626 5.4672 8.8109 10.867 9.7953 4.78 2.5 16.54 1.9603 15.42 9.7703-9.28 7.88-18.861 15.501-25.141 26.191-7.17 9.99-6.4394-10.06-5.3594-14.17 3.52-9.79-3.9997-23.55 3.1203-31.5 0.3875-0.0694 0.7502-0.0968 1.0922-0.0859zm266.29 1.0859c-14.61 3.61-25.66 15.9-34 28-0.61 1.62-1.18 3.2703-1.75 4.9203 8.84-14.11 23.07-22.81 35.75-32.92zm136.89 3.8203c3.98 13.82 22.07 19.35 30.57 30.9 1.13 2.58 3.8797 2.2988 3.9297-0.68124-10.16-11.06-22.16-21.469-34.5-30.219zm-280.49 24.244c4.1938 0.24638 3.0562 8.1078 4.6875 10.995 4.49 28.79 18.39 63.221-3.8 88.011-8.67 5.68-3.7497 16.649-9.3297 23.769-27.27 8.69-56.299 11.901-82.739 23.091-3.58-1.9-8.02-4.9206-9.05-8.7906 40.21-39.92 67.629-90.499 99.319-137.02 0.3294-0.055 0.6329-0.0727 0.9125-0.0562zm37.858 139.07c-14.21 4.96-6.2403 31.311-23.82 28.861-5.11-0.98-8.6788-5.4306-12.869-8.2406-0.6 0.04-1.8103 0.13032-2.4203 0.17032 3.12 12 18.749 13.32 28.709 9.8297 3.61-10.12 6.66-20.51 10.4-30.62zm-211.69 64.22c10.86 0.74 0.3194 14.39-1.8406 20-7.74 3.72-26.359-0.0203-27.059-10.77 7.72-5.78 19.69-5.5797 28.9-9.2297zm9.8797 7.9703c10.04 3.18 22.189 3.6406 30.859 11.541 7.49 2.97-3.6291-5.8803 1.2609-7.6203 6.08-2.33 6.4497 5.7694 10.88 7.5094 7.5 0.05 13.12-11.229 20.25-4.239 6.1-0.17 12.379-0.53064 17.759 3.2594 2.54 10.09 15.59-3.92 21.48 1.55 2.65 5.48-7.4991 5.7297-5.3391 10.43 3.03 0.53 6.2697 0.58 9.2297 1.6 3.24-12.44 22.751-9.32 33.891-11.05 13.47 3.7 16.309 18.91 16.539 30.68 6.81-4.28 17.381 1.9306 9.3406 9.3406-25.36 15.11-55.78 22.581-85.28 21.491-4.96-1.65-12.151-0.85096-15.461-5.761 3.36-3.32-4.7703-1.0703-5.4703-4.5203-11.12-1.22-16.8-16.219-29.53-17.019-9.25-7.53-17.76-9.701-29.53-12.461-15.02-8.53-35.4 2.95-49.65-8.05-4.18-5.69 2.8994-8.2194 5.2094-3.7594 5.15-0.14 25.581 4.19 16.231-3.55 1.51-2.94 8.0288-2.2197 11.569-2.7797 7.92-2.68 13.521-8.5706 15.761-16.591zm129.86 41.894c-0.7455 0.0125-1.2269 1.0812-1.1969 3.8062-0.67 6.39 1.8603 10.64 8.3703 8.4-0.3225-2.775-4.937-12.244-7.1734-12.206zm-432.11 20.897c0.01 0.41 0.049 1.24 0.059 1.65 0.74 14 10.891 25.699 17.841 37.239-4.53-13.58-13.14-25.369-17.9-38.889z" fill="#201326"/>
<path d="m566.3 37.408c-3.529 0.01201-7.0075 0.85281-9.8875 2.5328 0.69 5.92-6.0991 9.2197-11.039 9.6797-16.14 2.52-30.52-6.8309-45.78-10.011-22.58 0.46-29.27 27.471-31.32 45.481 0.11 4.51-5.2306 4.7488-4.1406-0.23125 1.81-10.93-16.42-26.289-21.05-10.939 5.84 3.49 16.32 5.4694 11.9 14.959-8.54 15.94-32.94 25.331-30.8 46.361 12.36 9.57 27.23 17.109 36.7 30.059 8.85 7.63 28.081-5.2994 28.511 8.7406 0.49-7.82 6.9091-16.97 0.1391-23.57 0.9244-4.784 2.2237-9.877 2.3515-15.012-0.7886 11.463-12.254 24.063-23.741 14.212 5.23-2.56 5.3594-10.331 12.659-11.691 12.7-4.89 0.021-27.659 14.141-28.889-1.21 6.99-2.1806 14.029-2.7406 21.109 2.32-8.9 2.8903-18.99 11.17-24.9 8.26 0.96 16.65 1.9003 24.97 1.1703 2.9813-1.9055 6.5643-3.6492 10.158-4.7641-0.03-0.003-0.059-0.003-0.089-0.006 0.53-10.64 2.3512-22.03-5.0688-31.05-1.7-5.09-11.611-6.8197-10.741-12.43 14.38 1.02 22.96 18.12 21.58 31.63 1.2538 3.3618 0.1653 9.0764-2.8485 11.116 3.3081-0.69297 6.4915-0.73299 9.0688 0.28438 1.69-5.46 6.0106-11.37 12.441-8.1797-9.58-8.59 7.0691-22.45 15.239-14.25 4.29 7.62-12.08 3.3994-9.9797 10.709 3.57 13.85 18.269 12.47 27.709 6.2797-5.37-16.698-0.34-37.927-13.97-51.607-3.6375-4.5312-9.6621-6.8122-15.544-6.7922zm-24.966 63.558c-0.9383 0.19656-1.8849 0.44659-2.8328 0.74063 1.0812 0.1028 2.0232-0.19278 2.8328-0.74063zm-49.45 34.492c0.084-1.2214 0.05-2.4314-0.1218-3.5984 0.1172 1.1992 0.1517 2.4005 0.1218 3.5984zm8.92-43.435c7.4834-0.26433 22.18 15.327 6.8703 12.345-8.4 2.7-22.211-9.6403-8.2609-12.07 0.4237-0.16875 0.8917-0.25738 1.3906-0.275zm-24.359 804.35c-9.21 3.65-21.18 3.4497-28.9 9.2297 0.7 10.75 19.319 14.49 27.059 10.77 2.16-5.61 12.701-19.26 1.8406-20zm150.15 20.95c-11.14 1.73-30.651-1.39-33.891 11.05 10.24 3.54 17.73 12.08 22.28 21.67-0.12-10.9 7.9403 4.7 8.3703 8.4 7.39-1.79 13.14-7.0506 19.78-10.441-0.23-11.77-3.0691-26.98-16.539-30.68z" fill="#eb7643"/>
<path d="m559.45 92.172c-4.5666-0.09201-7.6753 4.6419-9.0484 9.0781-6.08-2.4-15.519 1.0403-22.059 5.2203-8.32 0.73-16.71-0.21031-24.97-1.1703-8.28 5.91-8.8503 16-11.17 24.9-0.11 0.41-0.3306 1.2394-0.4406 1.6594 0.62 6.34-1.0897 12.711-2.2297 18.611 6.77 6.6 0.3509 15.75-0.1391 23.57-3.74 3.24-9.7303 2.2297-12.37 6.9297-5.24-5.97-15.34-8.0906-22.25-4.2906-13.62 20.75 10.35 57.251 35.08 51.561 5.79-6.56 7.3506 4.8491 12.541 6.3891 9.87 12.75 23.189 23.561 38.939 27.991 13.02 6.46 33.8 9.7603 41-6.3797 6.13-20.68 11.9-41.521 19.35-61.811 1.47-13.94-7.7891-25.389-15.239-36.139-2.46-11.25-4.3212-26.761-13.181-32.991-1.36 9.33-4.0897 19.62-6.5297 29.37-0.68 2.93-4.7591 0.83031-3.5891-1.6297 2.39-10.66 1.6291-22.771 7.8391-32.141 6.28-3.65 6.5406 9.9303 12.791 7.8203 3.09-6.74-5.2609-6.8309-7.0109-11.611-5.75-7.34-7.6488-17.399-13.919-24.039-1.2056-0.59813-2.3383-0.87721-3.3922-0.89844zm-42.57 40.688c9.1997-0.0344 13.632 11.896 20.084 17.116 3.3 5.44 14.071 15.59 17.431 5.25 5.9 0.64 0.7094 12.51-4.9906 10.18-13.8-5.53-20.28-20.56-31.5-29.08-8.52 0.47-2.8806 13.89-7.7906 15.73-0.94-5.79-4.63-17.05 3.75-18.78 1.0612-0.28031 2.0639-0.41207 3.0156-0.41563zm61.12 22.19c6.2529-0.12004-2.0531 8.6734-5.9906 8.5984-0.37-3.43 1.6106-6.76 4.5406-8.45 0.5519-0.0925 1.0331-0.14043 1.45-0.14844zm-53.62 9.2078c5.18 0.17 16.081 0.0809 16.511 6.6109-5.55-1.76-24.951 0.41907-16.511-6.6109zm-12.767 4.5312c4.1575 0.24356 7.5144 4.4088 12.178 3.45-0.4 9.87-26.161 4.2288-15.211-2.8812 1.0706-0.47251 2.0734-0.62496 3.0328-0.56876zm64.823 0.25782c9.9494 0.22969 17.655 8.49 14.884 19.272-10.73 3.86 1.5097-11.83-6.7703-14.1-4.26-3.96-19.879 6.5303-15.259-3.9797 2.4338-0.87 4.8493-1.2452 7.1453-1.1922zm-25.176 11.866c3.837 0.11916 0.9187 10.227-3.15 7.8266-0.98-2.92-0.3394-6.1409 2.2906-7.7109 0.3175-0.0875 0.6036-0.12357 0.8594-0.11563zm19.195 2.4359c8.1326-0.29177-2.2063 18.47-7.825 9.8-3.89-6.05 2.7197-8.3994 6.9797-9.7094 0.3015-0.0506 0.5829-0.0812 0.8453-0.0906zm-106.32 5.9594c7.63 0.98 19.641 2.1912 20.541 11.681-6.52-2.56-19.171-4.6412-20.541-11.681zm67.583 9.5984c5.8396 0.29212-4.3937 13.466 4.1469 10.062 8.11-9.17 21.391-7.5203 30.941-1.6703 6.29 4.05 11.559-1.8103 16.559-4.9203 11.12 0.04 6.0209 29.3-5.7391 22.33-1.02 7.75-16.32-1.5097-22.92 4.9703-3.09 3.37-17.511 11.671-16.241 1.9109-2.86 1.96-6.95 6.9494-8.7 1.5594-2.96-10.73-3.8291-23.56 0.5609-34.12 0.5425-0.10375 1.0029-0.14135 1.3922-0.12187zm36.659 30.055c2.7829 0.0498 5.2625 0.7875 4.5875 3.7969-6.57 1.78-14.12 5.8203-21.08 3.4203 1.63-4.27 6.3106-6.8597 10.791-6.8297 1.19-0.0481 3.5371-0.42622 5.7016-0.3875zm-49.25 31.486c-4.8404 0.02 2.7403 10.892-2.0719 14.481-16.1 19.76-32.54 40.54-53.28 55.03-0.34 0.13-1.01 0.39031-1.35 0.52031-26.4 4.99-41.051 38.901-27.561 62.011 1.47 16.61 2.8312 33.629 6.5312 50.009 2.53 1.33 7.62-7.7394 5.55 2.2906-9.56 45.35 3.63 90.68 4.95 135.95-10.11 71.49 9.0597 142.17 32.28 209.1 8 21.04 3 43.15-2.2 64.08-2.38 8.71 15.26 2.709 10.53 9.589-2.32 9.75 11.58 30.981-6.3 30.711l-0.08 0.83904c-0.04 0.63-0.1106 1.88-0.1406 2.5 4.93 2.93 11.121 6.6 16.791 4.4 4.87-9.86-2.0509-21.99 3.0391-32.13 0.75-3.42 5.51-2.0697 6.1 0.77032 0.45 11.86-2.5394 23.43-3.4594 35.1 24.01 5.77 9.17-28.31 20.35-36.65 7.05 11.3-6.7497 26.241-1.4797 37.591 23.35 3.29 7.8403-29.641 19.47-37.491 5.73 11.03-3.7103 24.329-1.7703 36.259 16.83 2.37 10.67-16.989 14.53-26.839 3.14-9.71 11.14-20.11 4.4-30.35-19.5-12.59-36.66-30.62-42.67-53.58-9.61-52.02 0.73-104.88-1.35-157.2-7.44-5.41-1.3994-15.621-3.4594-23.011-1.58-9.41 1.96-19.98-6.25-27.07 4.07-49.27-13.091-99.439-0.1109-148.04 1.38-3.51 7.4506-11.96 9.7406-6.65-11.25 14.47-10.91 34.229-9.4203 51.439 10.8 7.28 27.081-1.42 37.291-1.25-8.34 10.21-24.47 5.7006-36.27 6.3406 0.65 8.02-0.7306 17.699 2.6594 24.759 9.49-2.11 28.05-7.63 31.75 4.95-11.04-7.49-38.619-7.0388-32.259 12.981 2.29 0.18 4.6097 0.41 6.9297 0.3 7.38-10.69 23.26-5.0806 33.15-11.441 8.03-10.39 15.561-21.261 25.211-30.291 1.85-8.34-14.041 1.5003-12.781-6.3797 11.42-1.47 24.751 0.71969 34.561-6.5203 30.54-15.28 40.469-51.639 47.539-82.359 2.1-4 0.7603-15.311 7.5703-14.941-6.94 26.07-11.28 53.53-24.93 77.2-1.72 28.6 6.08 56.77 10.6 84.9 7.57 14.64-2.5803 31.181-2.2203 46.941 2.72 51.99 24.061 100.94 29.811 152.42 8.18 17.88-2.5712 40.74-14.731 56.08-0.72 4.29-2.3494 16.17 4.8906 13.33 19.28-4.55 16.57 29.29 5.1203 34-4.07 2.89-8.1097 6.01-12.88 7.65 4.19 2.81 7.7588 7.2606 12.869 8.2406 17.58 2.45 9.6103-23.901 23.82-28.861-3.74 10.11-6.79 20.5-10.4 30.62 1.37 0.78 2.7406 1.6097 4.1906 2.2797 13.22-3.46 11.309-26.03 25.059-30.9-1.98 9.59-11.63 16.89-10.42 27.2 13.75 7.28 14.4-15.129 21.55-20.219 3.07 6.01-12.99 22.199 2.9703 19.339 4.63-12.69 13.39-23.309 18.42-35.839-0.83-5.98-4.8097-10.92-6.7297-16.57-22.83-28.06-32.65-66.221-28.95-102.24 2.29-52.04 14.71-106.8-4.6703-157-15.17-38.12-3.8403-80.16-12.62-119.5-2.22-0.18-4.4297 0.17969-6.6297 0.32969 5.14-32.81 9.8897-66.769 3.0797-99.659-3.87-22.95-29.44-32.961-50.27-32.341-11.78-8.75-25.15-15.31-38.05-22.15-9.93 2.75-4.2694-11.519-10.809-14.719-2.37 9.38-5.1603 22.729-16.57 24.719-19.47 6.07-35.29-11.11-46.23-24.7-0.7941-0.25032-1.4274-0.36301-1.9281-0.36094zm93.283 41.48c2.14-0.0588 3.9506 0.45625 3.7656 2.8812-6.51 3.5-14.821 1.8503-21.961 2.1703-1.06-5.41 9.3-2.8491 12.45-4.4891 1.135 0.13 3.6053-0.50375 5.7453-0.56249zm-71.845 14.153c1.2968 0.0192 2.5187 0.41406 2.4312 1.8391-15.44 4.98-31.19 9.6894-46.6 13.909 2.07-18.82 28.759-9.5703 42.019-15.52 0.5662-0.11625 1.3719-0.23968 2.15-0.22813zm52.333 83.108c2.4077 0.13112-0.1438 4.7241-2.1125 5.5203-6.57 5.83-7.2594 18.04-12.659 23.2-1.3-8.47 1.9797-18.559-0.07-27.709 4.37-1.56 1.7897 7.3003 5.6797 6.7203 2.4-2.7 3.8309-6.7306 7.8109-7.4906 0.5625-0.18751 1.0076-0.25935 1.3516-0.24063zm-164.56 5.9203c-5.52 15.19-9.6294 30.601-16.409 45.061-5.71-3.59 3.0994-13.28-0.8406-17.98-8.39 0-7.2103 14.63-14.92 14.58-0.99-7.05 4.5612-11.97 7.8812-17.35-33.95-0.09-60.981 37.42-50.611 71.17 4.78 36.04 44.341 55.229 77.511 49.439 3.75-1.6 15.739 0.85 10.859-6.95-7.8-37.68-2.3006-76.72-9.2906-114.62-2.65-6.28 1.6403-19.94-4.1797-23.35zm-4.42 37.17c5.83 2.79 2.49 15.879 7.25 21.809 3.82 9.37-6.01 2.3906-6.9-1.2094 1.28-6.85-0.83-13.72-0.35-20.6zm-9.6609 19.059c5.76 0.47-1.6797 12.351 5.4703 12.581 5.33-16 3.9303 10.919 6.3203 15.869-8.32 4.21-4.1209-11.74-11.311-13.78 0.03-4.7-2.1797-9.9403-0.4797-14.67zm-10.059 1.4703c5.72 1.89-0.6903 14.75 7.6797 14.8-0.05 5.08 1.0197 10.57-0.7203 15.5-4.94-2.04-4.3594-9.0894-7.4094-12.959-8.41-2.33-3.4797 17.049-10.48 11.239 3.34-9.22-6.3209-14.709 0.6391-21.569 3.4-8.29 0.3397 7.8794 3.8297 8.1594 7.57-0.95 2.1309-10.84 6.4609-15.17zm170.94 129.19c-13.36 21.14-28.029 44.2-48.009 58.95 7.28 9.04 18.27 16.229 28.72 22.109 11.96 9.12 30.249-1.5294 41.689 4.3906-2.37 12.02-23.58 1.62-31.5 9.6-32.34 17.13-50.41 57.199-41.05 92.959 3.64 13.95 5.7103 35.911 20.37 41.461 26.73-35.39 56.671-68.47 79.491-106.77-5.74-7.06-18.721 24.009-20.461 7.9891 14.45-12.93 27.821-27.47 42.861-39.4-1.18-11.2-3.2703-23.14-6.5203-34.03-20.03-20.78-43.251-38.869-65.591-57.259zm-401.21 0.54219c-6.3903-0.25858-9.6181 12.048-15.786 14.588-19.08 24.22-36.989 50.31-57.569 72.75-3.14 14.28 11.609 23.7 21.769 30.78 26.4 29.63 45.401 67.451 79.741 89.341 9.94-7.06 17.859-18.05 29.409-23.52 8.07-9.9 23.86-6.8003 30.4-18.27 1.18-9.61-8.5894-14.13-12.409-21.68-14.7-14.31-27.861-32.31-47.741-39.58-8.16-2.9-16.62 14.29-21.7 6.25 8.04-6.16 18.39-10.84 24.57-19.63 8.65-8.5 26.52-13.75 23.27-28.87-8.1-26.37-35.681-38.23-50.041-60.58-1.4391-1.0516-2.7307-1.5302-3.9141-1.5781z" fill="#eecdad"/>
<path d="m580.95 206.9c-5.23 13.37 11.35 1.02 0 0zm-28.142 1.4531c-1.0078-0.0636-2.1309 0.17437-3.2984 0.79687-5.51 3.65 3.6706 10.961 7.3906 5.6406 0.9225-3.345-1.0688-6.2467-4.0922-6.4375zm-10.375 2.7547c-0.2763 0.0137-0.5866 0.0662-0.9328 0.16249-2.98 0.77-4.9697 4.2694-2.4297 6.7094 4.0219 1.3875 7.5073-7.0772 3.3625-6.8719zm18.647 0.0125c-3.65 10.89 14.64 0.66 0 0zm4.2047 9.2047c-9.5636-0.25473-19.716 5.2225-26.825 11.266-1.27 9.76 13.151 1.4591 16.241-1.9109 6.6-6.48 21.9 2.7797 22.92-4.9703-3.7625-2.9688-7.9888-4.2686-12.336-4.3844zm-27.27 0.825c-0.4148 0.007-0.8685 0.0266-1.3641 0.0594-10.618 11.121 14.22-0.2899 1.3641-0.0594zm-102.23 682.42c-1.023-0.0153-1.8441 0.46064-2.1328 2.0313l0.3203 6c3.49 7.4 14.64 15.64 21.87 11.75-6.98-4.75-9.9994-12.88-15.809-18.57-1.2825-0.36-2.9331-1.1913-4.2484-1.211zm50.528 0.79064c-2.24 8.02-7.8409 13.911-15.761 16.591 2.65 3.26 6.43 5.039 10.75 4.789 26.44 3.65 47.681 20.991 71.381 31.741 19.96 5.13 41.55 3.7697 61.25-1.6703-1.71-12.27-12.03-24.85-25.3-23.48 0.12-9.23-14.93-1.2-16.42-7.1 3.74-2.96 13.909-0.31968 14.559-7.5297-4.49-2.92-28.92 10.539-19.45-2.8906-5.38-3.79-11.659-3.4294-17.759-3.2594-7.13-6.99-12.75 4.289-20.25 4.239-4.43-1.74-4.7997-9.8394-10.88-7.5094-4.89 1.74 6.2291 10.59-1.2609 7.6203-8.67-7.9-20.819-8.3606-30.859-11.541zm-47.33 20.65c-2.2708 0.15248-4.0563 2.4734-1.4438 6.0297 14.25 11 34.63-0.48 49.65 8.05 11.77 2.76 20.28 4.931 29.53 12.461 12.73 0.8 18.41 15.799 29.53 17.019 0.7 3.45 8.8303 1.2003 5.4703 4.5203 30.31 7.38 62.6 0.45064 89.95-12.259 4.49-1.78 13.6-4.5997 10.72-11.28-11.98-2.31-19.75 9.53-30.95 10.9-20.78 5.08-42.639 8.9487-63.959 5.2187-27.98-10.81-51.38-32.749-82.2-36.119-10.43-2.69-23.171 3.6797-32.531-2.2703-0.8663-1.6725-2.4032-2.3618-3.7656-2.2703z" fill="#f2eee2"/>
<path d="m463.77 329.96c-0.34 0.13-1.01 0.39031-1.35 0.52031 0.34-0.13 1.01-0.39031 1.35-0.52031zm-83.74 68.34c-5.2066 0.0532-10.373 0.84687-15.194 2.3797-23.83 17.64-56.141-4.2403-81.141 11.08-24.74 15.09-39.69 45.331-38.65 73.881-9.59-5.83-14.719 6.0691-9.1094 13.239 6.69 19.76 17.159 38.45 23.759 57.98-6.99 0.87-7.06-9.1791-10.4-13.139-8.95-10.4-16.03-22.22-24.25-33.13-7.29-2.88-8.4006 6.9891-12.691 10.639-11.42 17.37-31.529 25.13-47.709 36.68 0.31 11.92 10.441 21.89 15.841 32.4 9.51 9.48 17.62 20.891 29.35 27.841 16.85 9.44 31.919 23.879 51.439 27.659 14.23-16.18 29.471-32.319 44.491-47.059-14.48-0.73-29.65 8.2994-43.97 12.959-5.77 0.31-1.24-7.3588 2.4-7.6688 20.84-5.74 39.941-16.03 60.991-21.05 18.31-5.98 34.56-19.701 54.48-20.831 9.66 2.91 20.869 1.3603 29.709 6.0703-2.4 2.9-7.7497 0.15031-9.4297 3.5703 14.32 10.11 28.7 20.239 42.65 30.809 9.3-12.28 8.0394-34.069-0.1906-46.039-34.56 9.17-76.279-2.6106-92.069-36.941-9.12-24.55-9.9809-56.81 10.589-75.8 15.58-6.53 33.63-24.489 50.53-12.909 3.2 1.3-1.78-2.73-2.65-3.75-4.12-4.48 12.51-5.1997 6.75-14.73-8.661-9.5738-22.219-14.277-35.525-14.141zm-12.764 43.97c0.5 0.5 0.5 0.5 0 0zm150.77 96.97c-3.46 10.85 0.039 23.26-4.8812 34 0.42 11.88 6.2003 22.609 8.2203 34.189 4.67 5.97-1.8603 19.57 6.3297 21.48 17.64-11.91 29.991-30.419 44.561-45.859 4.67-4.62-1.79-10.45-5.65-12.67-15.92-10.66-31.02-23.639-48.58-31.139zm-196.44 10.16c8.77 0.21 17.249 3.3794 25.159 6.9594 3.81-1.77 9.59 4.3303 3.9 5.3703-11.84 0.32-23.169-4.3097-34.839-5.5297 2.77-1.69 5.4097-3.14 5.7797-6.8zm-148.6 41.323c-5.7009 0.0424-11.161 12.739-14.888 16.427 7.31-3.01 10.49-19.739 19.7-13.009-1.6013-2.4478-3.2163-3.429-4.8125-3.4172zm313.12 304.34c-1.83-0.14-1.9806 2.42-0.1406 2.5 0.03-0.62 0.1006-1.87 0.1406-2.5zm81.21 19.74c-9.47 13.43 14.96-0.0294 19.45 2.8906-0.65 7.21-10.819 4.5697-14.559 7.5297 1.49 5.9 16.54-2.13 16.42 7.1 13.27-1.37 23.59 11.21 25.3 23.48-19.7 5.44-41.29 6.8003-61.25 1.6703-23.7-10.75-44.941-28.091-71.381-31.741-4.32 0.25-8.1-1.529-10.75-4.789-3.54 0.56-10.059-0.16032-11.569 2.7797 9.35 7.74-11.081 3.41-16.231 3.55 9.36 5.95 22.101-0.41968 32.531 2.2703 30.82 3.37 54.22 25.309 82.2 36.119 21.32 3.73 43.179-0.13872 63.959-5.2187 11.2-1.37 18.97-13.21 30.95-10.9 2.88 6.68-6.2303 9.4997-10.72 11.28-27.35 12.71-59.64 19.639-89.95 12.259 3.31 4.91 10.501 4.111 15.461 5.761 29.5 1.09 59.92-6.3806 85.28-21.491 8.04-7.41-2.5306-13.621-9.3406-9.3406-6.64 3.39-12.39 8.6506-19.78 10.441-6.51 2.24-9.0403-2.01-8.3703-8.4-4.55-9.59-12.04-18.13-22.28-21.67-2.96-1.02-6.1997-1.07-9.2297-1.6-2.16-4.7 7.9891-4.9497 5.3391-10.43-5.89-5.47-18.94 8.54-21.48-1.55z" fill="#387e85"/>
<path d="m861.02 644.37c-18.458 0.0934-36.756 4.8416-52.103 14.764 19.38-1.47 39.55-10.2 58.57-2.5797 27.71 10.61 59.749 20.481 73.369 49.591 53.47 68.31 25.45 183.27-52.65 220.91-2.64 0.84-10.289 5.63-6.9094 8.15 31.95-5.72 60.56-26.699 82.33-50.559 28.08-39.98 28.731-92.52 20.411-138.72-7.87-27.91-25.871-52.27-51.411-66.53-2.79-12.7-19.38-11.84-24.58-21.3 7.19 0.32 12.89 4.72 19.02 7.9-18.321-14.169-42.316-21.745-66.047-21.625zm-25.52 17.453c-0.79 0.0537-1.6887 0.30063-2.2937 0.19063-5.52 32.84-11.119 65.7-23.389 96.87-0.51 3.08-5.8003 10 0.03 11.07 12.49-15.07 13.549-37.349 20.209-53.909 7.46 14.3-2.8791 37.659 4.6609 53.409 22.61 3.03 28.889 42.23 5.5594 47.72-14.49 11.84-1.4603 34.15-9.1203 46.82-6.53-6.75-2.2388-21.041-9.5188-28.891 0.08-8.12-9.6809-16.779-2.6109-24.009 6.09-5.03 4.6606-12.93 6.2906-19.7 6.6-3.83 19.29-4.6512 22.62-11.281-6.37-0.91-16.43 1.2803-22.25 6.6203-7.4-3.02 4.8197-8.7591 6.3297-11.989-3.37-0.15-9.1206-2.7412-11.141 0.86876-3.79 9.17-12.02-5.9194-18.85-0.75938-17 18.29-47.159 13.539-69.039 24.209 3.95 7.83 6.5388 16.581 11.319 23.831 18.96-2.86 37.131-7.2903 55.731-11.67 12.08 2.2 10.479 17.7 17.539 25.35 8.17 26.93 16.841 54.97 14.491 83.52-3.69 6.72 8.7494 7.28 8.5094 1.25 0.08-30.25-3.6497-60.991-0.5797-91.161 10.34-11.54 26.37-23.42 21.33-41.35-0.82-12.21-11.959-18.939-21.539-23.639-6.98-33.29 1.6694-68.65-2.6406-102.4-0.175-0.885-0.8569-1.0256-1.6469-0.97187zm182.58 63.061c-2.82 0.2-5.43 0.56062-8.15 0.89062 5.56 9.04-16.5 3.5897-20.97 10.58-2.73 10.64 3.2609 21.229 4.9609 31.659 7.23-6.07 19.86-3.9488 28.52-8.6688 19.93-0.99 14.929-33.421-2.7906-34.181 10.76 4.33 20.47 20.701 9.7203 29.281-0.5-7.61-0.1-17.191-6.25-22.711-3.24-1.66-12.271-3.67-5.0406-6.85zm-703.23 43.24c-1.8825-0.013-3.7865 0.0666-5.7109 0.24531-0.65 2.19 1.1912 3.61 2.6812 4.85 85.1 40.98 109.68 155.22 72.25 236.9-7.16 20.57-22.021 37.549-40.011 49.459 5.39 6.72 13.861-4.0403 20.811-5.7203 26.94-12.52 43.529-39.689 54.909-66.009 11.04-43.97 9.9106-91.001-5.9594-133.69-9.17-15.46-14.571-33.349-28.091-45.919-19.106-18.919-42.642-39.921-70.88-40.116zm-56.958 48.625c-3.1593 0.021-6.3597 0.28688-9.5922 0.82032-11.57 3.36-27.02 2.03-34.35 13.5 30.51-9.79 65.63 4.5994 83.68 30.259 25.42 34.17 31.38 79.49 20.93 120.4-6.85 25.28-24.43 53.841-53.48 55.311-0.61 5.2 8.5894 4 11.659 3.8 43.57 1.92 68.6-47.701 68.2-85.811 9.24-30.9-4.0197-61.809-14.73-90.259-15.062-25.52-41.777-48.223-72.317-48.02zm397.78 2.0703c-9.5357 0.0632-19.866 5.9253-28.494 8.6203-17.46 1.29-33.411 9.37-50.841 10.75-5.37 0.05-14.31 5.2097-8.2297 10.78 7.57 6.32-6.9291 21.41 6.0109 22.18 24.79-6.83 49.71-12.99 74.88-18.2 0.61-0.04 1.8203-0.13032 2.4203-0.17032 4.77-1.64 8.8097-4.76 12.88-7.65-3.39-7.55 6.84-14.729 3.65-21.959-3.7719-3.2094-7.9422-4.3787-12.276-4.35zm-179.29 44.216c-1.2908-0.0173-2.5647 0.2528-3.7984 1.0047-13.77 7.5-32.759 4.8487-44.839 12.269 3.58 9.11-0.8509 21.721 5.8891 29.281 0.66-3.59 4.1012-1.4603 6.3812-0.82032 11.72-10.6 32.899-11.93 46.159-10.55 17.88 0.27 3.98-20.961 6.3-30.711-4.5662 5.0619-10.499-0.39848-16.092-0.47344zm-239.98 12.27c-0.6621 0.0116-1.3222 0.0429-1.9797 0.0922-2.5 1.1-10.561 1.64-7.3109 5.35 39.93 25.56 51.111 93.259 16.111 126.04 5.68 4.19 13.119 0.3503 18.959-1.4797 30.94-30.88 30.86-86.85 0.45-117.93-6-8.1656-16.298-12.245-26.23-12.072zm-21.375 48.517c-0.9191-0.0118-1.8781 0.0722-2.875 0.26408-12.75 3.16-25.74 5.38-38.07 10.15-14.41 3.96-29.169 6.2597-43.809 8.9297-4.53 1.35-10.42 3.16-8.2203 9.65 2.46 8.95-0.7597 24.421 13.97 21.241 14.5-3.49 29.399-5.6897 43.719-10.03 1.93 1.09 2.2203 4.5203 4.3703 4.7703-0.01-0.41-0.049-1.24-0.059-1.65-4.41-9.09 7.0491-3.8106 11.889-7.0406 8.36-4.38 18.731-0.97 26.731-6.3 10.95-7.9125 6.141-29.808-7.6453-29.984zm-1.84 73.48c-1.37 8.48 7.79 12.031 12.05 17.691 9.28-8.65-4.23-16.591-12.05-17.691z" fill="#2870c0"/>
</g>
</svg>
